<?xml version="1.0" encoding="UTF-8" standalone="no"?>
<!DOCTYPE svg  PUBLIC '-//W3C//DTD SVG 1.1//EN'  'http://www.w3.org/Graphics/SVG/1.1/DTD/svg11.dtd'>
<svg version="1.1" xmlns="http://www.w3.org/2000/svg">
<defs>
<font id="FiraSansCondensed-SemiBold" horiz-adv-x="539">
<font-face underline-thickness="50" bbox="-102 -256 1101 984" underline-position="-150" cap-height="692" font-stretch="condensed" font-family="Fira Sans Condensed SemiBold" descent="-200" font-weight="600" units-per-em="1000" ascent="800" panose-1="2 11 6 3 5 0 0 2 0 4" unicode-range="U+0020-052E" x-height="530"/>
<missing-glyph/>
<glyph glyph-name="space" unicode=" " horiz-adv-x="215"/>
<glyph d="M188 692l-18 -444h-111l-19 444h148zM114 152q36 0 59.5 -24.5t23.5 -59.5t-23.5 -59.5t-59.5 -24.5q-35 0 -58.5 25t-23.5 59t23.5 59t58.5 25z" glyph-name="exclam" unicode="!" horiz-adv-x="229"/>
<glyph d="M64 418l-17 274h125l-17 -274h-91zM260 418l-17 274h125l-17 -274h-91z" glyph-name="quotedbl" unicode='&quot;' horiz-adv-x="415"/>
<glyph d="M486 442h-63l-26 -199h55v-93h-67l-20 -150h-112l20 150h-98l-20 -150h-112l20 150h-50v93h62l26 199h-55v94h68l18 138h112l-18 -138h98l18 138h112l-18 -138h50v-94zM285 243l26 199h-98l-26 -199h98z" glyph-name="numbersign" unicode="#" horiz-adv-x="499"/>
<glyph d="M470 196q0 -75 -44 -128.5t-122 -71.5v-155h-101v149q-116 9 -195 92l70 76q69 -64 149 -64q48 0 74.5 24.5t26.5 68.5q0 40 -24 63.5t-89 45.5q-98 35 -140 82t-42 119t47 122t123 62v147h101v-147q85 -14 150 -79l-65 -75q-60 54 -130 54q-40 0 -62.5 -19.5 t-22.5 -54.5q0 -34 24 -55t95 -46q91 -34 134 -79.5t43 -130.5z" glyph-name="dollar" unicode="$" horiz-adv-x="494"/>
<glyph d="M557 717l86 -51l-419 -703l-85 51zM190 687q70 0 115 -47t45 -130q0 -82 -45 -129.5t-115 -47.5q-68 0 -113 47.5t-45 129.5q0 83 44.5 130t113.5 47zM190 603q-59 0 -59 -93t59 -93t59 93t-59 93zM589 338q70 0 114.5 -47t44.5 -130t-44.5 -130t-114.5 -47 q-69 0 -114.5 47t-45.5 130q0 82 45.5 129.5t114.5 47.5zM589 253q-59 0 -59 -92q0 -93 59 -93q33 0 46 24t13 69q0 92 -59 92z" glyph-name="percent" unicode="%" horiz-adv-x="780"/>
<glyph d="M284 708q88 0 140 -45t52 -115q0 -58 -31.5 -101t-91.5 -86l129 -138q26 64 43 148l114 -31q-33 -109 -82 -189l109 -107l-115 -60l-75 82q-83 -82 -199 -82q-98 0 -158.5 53.5t-60.5 138.5q0 61 29.5 106t94.5 90q-49 50 -69 87t-20 85q0 70 49.5 117t141.5 47zM285 616 q-28 0 -43.5 -18.5t-15.5 -52.5q0 -31 11.5 -54.5t41.5 -58.5q34 29 49 53.5t15 59.5q0 71 -58 71zM259 297q-57 -48 -57 -114q0 -47 26.5 -72.5t71.5 -25.5q61 0 108 49z" glyph-name="ampersand" unicode="&amp;" horiz-adv-x="685"/>
<glyph d="M64 418l-17 274h125l-17 -274h-91z" glyph-name="quotesingle" unicode="&apos;" horiz-adv-x="219"/>
<glyph d="M192 855l89 -60q-66 -105 -94.5 -203.5t-28.5 -241.5t29 -241.5t94 -203.5l-89 -60q-42 61 -66.5 104t-52.5 106.5t-41 136.5t-13 158t13 158t41 136.5t52.5 106.5t66.5 104z" glyph-name="parenleft" unicode="(" horiz-adv-x="298"/>
<glyph d="M105 855q43 -64 67 -105.5t52.5 -106t41.5 -136.5t13 -157t-13 -157t-41.5 -136.5t-52.5 -106t-67 -105.5l-89 60q65 104 94 203.5t29 241.5t-29 241.5t-94 203.5z" glyph-name="parenright" unicode=")" horiz-adv-x="298"/>
<glyph d="M402 543l-128 -26l94 -107l-99 -66l-61 126l-61 -126l-99 65l94 107l-129 26l37 108l117 -58l-19 149h119l-19 -151l116 61z" glyph-name="asterisk" unicode="*" horiz-adv-x="415"/>
<glyph d="M296 538v-152h136v-109h-136v-152h-115v152h-137v109h137v152h115z" glyph-name="plus" unicode="+" horiz-adv-x="476"/>
<glyph d="M112 152q35 0 58 -24t23 -59q0 -28 -28 -97l-58 -146h-78l39 173q-37 25 -37 70q0 35 23 59t58 24z" glyph-name="comma" unicode="," horiz-adv-x="224"/>
<glyph d="M44 258v110h285v-110h-285z" glyph-name="hyphen" unicode="-" horiz-adv-x="373"/>
<glyph d="M113 152q36 0 59.5 -24.5t23.5 -59.5t-23.5 -59.5t-59.5 -24.5q-35 0 -58.5 25t-23.5 59t23.5 59t58.5 25z" glyph-name="period" unicode="." horiz-adv-x="227"/>
<glyph d="M282 814l119 -27l-214 -897l-120 27z" glyph-name="slash" unicode="/" horiz-adv-x="468"/>
<glyph d="M270 687q111 0 169.5 -89t58.5 -262q0 -174 -58 -263t-170 -89t-170 88.5t-58 263.5q0 351 228 351zM270 583q-46 0 -66 -53.5t-20 -193.5q0 -96 9.5 -150.5t27.5 -76t49 -21.5t49 21t27 75.5t9 151.5t-9 151t-27 75t-49 21z" glyph-name="zero" unicode="0"/>
<glyph d="M339 674v-674h-136v537l-131 -89l-61 91l204 135h124z" glyph-name="one" unicode="1" horiz-adv-x="416"/>
<glyph d="M209 687q98 0 153.5 -53t55.5 -134q0 -82 -49.5 -161t-193.5 -231h256l-15 -108h-393v101q157 176 204.5 248t47.5 140q0 43 -21 66.5t-58 23.5q-32 0 -57 -16t-55 -52l-82 64q80 112 207 112z" glyph-name="two" unicode="2" horiz-adv-x="459"/>
<glyph d="M214 687q93 0 147.5 -49.5t54.5 -122.5q0 -123 -130 -158q68 -8 109 -49t41 -116q0 -88 -62 -148t-169 -60q-126 0 -208 99l77 70q61 -62 122 -62q45 0 71.5 28.5t26.5 79.5q0 56 -27 80.5t-80 24.5h-48l16 96h32q44 0 69.5 25.5t25.5 72.5q0 41 -22.5 63t-62.5 22 q-63 0 -117 -56l-69 72q86 88 203 88z" glyph-name="three" unicode="3" horiz-adv-x="468"/>
<glyph d="M488 257v-106h-69v-151h-133l-1 151h-260v94l174 444l117 -42l-149 -390h120l15 165h117v-165h69z" glyph-name="four" unicode="4" horiz-adv-x="507"/>
<glyph d="M424 674l-16 -101h-222v-159q44 24 92 24q77 0 125.5 -57.5t48.5 -159.5q0 -106 -65 -171.5t-173 -65.5q-120 0 -201 98l78 70q54 -62 118 -62q48 0 74.5 33t26.5 97q0 121 -86 121q-37 0 -75 -24h-95v357h370z" glyph-name="five" unicode="5" horiz-adv-x="483"/>
<glyph d="M317 451q76 0 124.5 -58.5t48.5 -162.5q0 -111 -59.5 -178.5t-159.5 -67.5q-117 0 -173 85t-56 241q0 173 70.5 275t192.5 102q79 0 137 -43l-50 -83q-43 25 -83 25q-53 0 -85.5 -52t-39.5 -152q53 69 133 69zM351 228q1 68 -18 96.5t-54 28.5q-51 0 -95 -65 q2 -111 21.5 -156.5t65.5 -45.5q80 0 80 142z" glyph-name="six" unicode="6" horiz-adv-x="516"/>
<glyph d="M404 674v-96l-224 -592l-125 41l207 541h-250v106h392z" glyph-name="seven" unicode="7" horiz-adv-x="420"/>
<glyph d="M368 362q126 -64 126 -180q0 -87 -63 -142.5t-173 -55.5q-107 0 -169 55t-62 140q0 115 119 170q-94 56 -94 159q0 82 58 130.5t150 48.5q94 0 152.5 -45.5t58.5 -126.5q0 -96 -103 -153zM261 592q-76 0 -76 -86q0 -38 18 -60.5t60 -41.5l18 -8q56 43 56 111q0 85 -76 85 zM262 85q46 0 70.5 25t24.5 72q0 44 -22 69t-78 49l-27 11q-65 -42 -65 -126q0 -49 25.5 -74.5t71.5 -25.5z" glyph-name="eight" unicode="8" horiz-adv-x="522"/>
<glyph d="M250 687q110 0 167.5 -69.5t57.5 -192.5q0 -202 -88 -302.5t-288 -148.5l-28 98q120 34 180.5 85.5t76.5 145.5q-51 -66 -127 -66q-73 0 -124 60t-51 160q0 107 63.5 168.5t160.5 61.5zM243 336q53 0 90 62q1 106 -17.5 147.5t-65.5 41.5q-85 0 -85 -127q0 -124 78 -124z " glyph-name="nine" unicode="9" horiz-adv-x="508"/>
<glyph d="M113 503q36 0 59.5 -24.5t23.5 -59.5t-23.5 -59.5t-59.5 -24.5q-35 0 -58.5 25t-23.5 59t23.5 59t58.5 25zM113 152q36 0 59.5 -24.5t23.5 -59.5t-23.5 -59.5t-59.5 -24.5q-35 0 -58.5 25t-23.5 59t23.5 59t58.5 25z" glyph-name="colon" unicode=":" horiz-adv-x="227"/>
<glyph d="M113 503q36 0 59.5 -24.5t23.5 -59.5t-23.5 -59.5t-59.5 -24.5q-35 0 -58.5 25t-23.5 59t23.5 59t58.5 25zM112 152q35 0 58 -24t23 -59q0 -28 -28 -97l-58 -146h-78l39 173q-37 25 -37 70q0 35 23 59t58 24z" glyph-name="semicolon" unicode=";" horiz-adv-x="227"/>
<glyph d="M389 566l46 -98l-291 -135l291 -132l-46 -101l-358 172v122z" glyph-name="less" unicode="&lt;" horiz-adv-x="466"/>
<glyph d="M44 381v107h378v-107h-378zM44 175v107h378v-107h-378z" glyph-name="equal" unicode="=" horiz-adv-x="466"/>
<glyph d="M77 566l358 -172v-122l-358 -172l-46 101l291 132l-291 135z" glyph-name="greater" unicode="&gt;" horiz-adv-x="466"/>
<glyph d="M225 708q93 0 144.5 -48t51.5 -116q0 -43 -16.5 -75.5t-40.5 -52t-48 -37t-40.5 -42.5t-16.5 -58v-31h-127v36q0 47 15 81.5t36.5 53.5t43 34.5t36.5 36t15 46.5q0 29 -17.5 45.5t-49.5 16.5q-57 0 -109 -61l-85 66q80 105 208 105zM197 152q36 0 59.5 -24.5t23.5 -59.5 t-23.5 -59.5t-59.5 -24.5q-35 0 -58.5 25t-23.5 59t23.5 59t58.5 25z" glyph-name="question" unicode="?" horiz-adv-x="438"/>
<glyph d="M476 500q83 0 156 -44v-250q0 -64 10 -87.5t34 -23.5q76 0 76 216q0 140 -69 217t-206 77q-144 0 -224 -99t-80 -264q0 -171 78.5 -264t226.5 -93q90 0 176 33l33 -96q-99 -41 -210 -41q-198 0 -313.5 123.5t-115.5 336.5q0 204 120.5 335.5t308.5 131.5q124 0 216 -55 t137.5 -143.5t45.5 -196.5q0 -134 -54 -221t-141 -87q-49 0 -80 29t-39 69q-40 -94 -130 -94q-80 0 -122 60t-42 163q0 127 55 197.5t153 70.5zM451 97q39 0 64 49v257q-21 8 -43 8q-40 0 -59 -40.5t-19 -138.5q0 -75 13 -105t44 -30z" glyph-name="at" unicode="@" horiz-adv-x="924"/>
<glyph d="M397 0l-34 156h-190l-34 -156h-146l190 692h174l189 -692h-149zM197 262h142l-71 323z" glyph-name="A" unicode="A"/>
<glyph d="M383 366q149 -31 149 -166q0 -200 -273 -200h-197v692h172q272 0 272 -177q0 -59 -34.5 -96.5t-88.5 -52.5zM248 588h-42v-178h52q101 0 101 92q0 46 -26.5 66t-84.5 20zM260 107q61 0 92.5 22t31.5 78q0 105 -116 105h-62v-205h54z" glyph-name="B" unicode="B" horiz-adv-x="557"/>
<glyph d="M316 708q107 0 190 -74l-69 -82q-56 47 -113 47q-139 0 -139 -252q0 -250 140 -250q56 0 121 54l67 -81q-80 -86 -196 -86q-129 0 -205.5 93t-76.5 270q0 174 78 267.5t203 93.5z" glyph-name="C" unicode="C" horiz-adv-x="520"/>
<glyph d="M234 692q55 0 98.5 -7.5t87 -29.5t72.5 -59t47 -100t18 -147q0 -349 -309 -349h-186v692h172zM255 586h-49v-480h50q74 0 113 52.5t39 190.5q0 73 -11.5 121.5t-33.5 73t-47 33.5t-61 9z" glyph-name="D" unicode="D" horiz-adv-x="592"/>
<glyph d="M442 692l-15 -105h-221v-183h193v-104h-193v-194h236v-106h-380v692h380z" glyph-name="E" unicode="E" horiz-adv-x="475"/>
<glyph d="M62 0v692h370l-16 -105h-210v-199h183v-105h-183v-283h-144z" glyph-name="F" unicode="F" horiz-adv-x="441"/>
<glyph d="M332 708q117 0 207 -83l-73 -75q-64 51 -129 51q-153 0 -153 -255q0 -142 31.5 -198t100.5 -56q48 0 88 24v174h-84l-14 104h236v-340q-104 -70 -224 -70q-283 0 -283 363q0 174 83.5 267.5t213.5 93.5z" glyph-name="G" unicode="G" horiz-adv-x="586"/>
<glyph d="M398 0v304h-192v-304h-144v692h144v-274h192v274h144v-692h-144z" glyph-name="H" unicode="H" horiz-adv-x="604"/>
<glyph d="M206 692v-692h-144v692h144z" glyph-name="I" unicode="I" horiz-adv-x="268"/>
<glyph d="M227 692v-589q0 -60 -15.5 -105t-45 -75t-61.5 -48.5t-76 -34.5l-39 102q58 26 75.5 60.5t17.5 105.5v584h144z" glyph-name="J" unicode="J" horiz-adv-x="286"/>
<glyph d="M206 692v-692h-144v692h144zM563 692l-203 -312l220 -380h-163l-206 369l204 323h148z" glyph-name="K" unicode="K" horiz-adv-x="570"/>
<glyph d="M206 692v-576h244l-15 -116h-373v692h144z" glyph-name="L" unicode="L" horiz-adv-x="460"/>
<glyph d="M634 692l48 -692h-139l-11 283q-9 177 -5 280l-100 -489h-136l-105 490q5 -129 -1 -285l-11 -279h-138l48 692h181l97 -479l89 479h183z" glyph-name="M" unicode="M" horiz-adv-x="718"/>
<glyph d="M540 692v-692h-183l-186 553q19 -171 19 -280v-273h-128v692h180l189 -554q-19 130 -19 246v308h128z" glyph-name="N" unicode="N" horiz-adv-x="602"/>
<glyph d="M315 708q133 0 206 -92.5t73 -269.5q0 -175 -73 -268.5t-206 -93.5t-206.5 92t-73.5 270q0 175 73.5 268.5t206.5 93.5zM315 600q-66 0 -98 -59t-32 -195q0 -137 32.5 -195.5t97.5 -58.5q66 0 97.5 58.5t31.5 195.5q0 136 -31.5 195t-97.5 59z" glyph-name="O" unicode="O" horiz-adv-x="629"/>
<glyph d="M250 692q131 0 201 -56t70 -166q0 -116 -69 -174.5t-190 -58.5h-56v-237h-144v692h188zM252 343q61 0 91 29t30 97q0 61 -30 90t-92 29h-45v-245h46z" glyph-name="P" unicode="P"/>
<glyph d="M445 43q109 -1 188 -66l-88 -112q-49 60 -103.5 91t-135.5 31q-126 0 -198.5 92.5t-72.5 266.5t74 268t206 94t205.5 -93t73.5 -269q0 -215 -149 -303zM185 346q0 -137 32.5 -195.5t97.5 -58.5q66 0 97.5 58.5t31.5 195.5t-31.5 195.5t-97.5 58.5t-98 -59t-32 -195z" glyph-name="Q" unicode="Q" horiz-adv-x="629"/>
<glyph d="M399 0l-131 273h-62v-273h-144v692h192q266 0 266 -206q0 -135 -121 -186l159 -300h-159zM206 374h55q57 0 83.5 27t26.5 85q0 53 -28.5 78t-89.5 25h-47v-215z" glyph-name="R" unicode="R" horiz-adv-x="558"/>
<glyph d="M258 708q129 0 214 -87l-67 -77q-65 56 -135 56q-41 0 -64.5 -20.5t-23.5 -56.5t24.5 -57t98.5 -48q94 -35 139 -83t45 -136q0 -94 -66.5 -154.5t-179.5 -60.5q-141 0 -235 96l72 80q77 -67 156 -67q49 0 76 26t27 71q0 40 -24.5 64.5t-90.5 48.5q-102 38 -146 86 t-44 124q0 86 63 140.5t161 54.5z" glyph-name="S" unicode="S" horiz-adv-x="513"/>
<glyph d="M484 692l-15 -112h-155v-580h-144v580h-162v112h476z" glyph-name="T" unicode="T" horiz-adv-x="485"/>
<glyph d="M536 692v-481q0 -100 -62.5 -163.5t-179.5 -63.5q-118 0 -180 62t-62 165v481h144v-475q0 -123 98 -123q51 0 74.5 30.5t23.5 92.5v475h144z" glyph-name="U" unicode="U" horiz-adv-x="588"/>
<glyph d="M528 692l-175 -692h-179l-181 692h149l124 -572l118 572h144z" glyph-name="V" unicode="V" horiz-adv-x="521"/>
<glyph d="M755 692l-106 -692h-187l-80 544l-83 -544h-184l-103 692h141l67 -580l89 580h151l85 -580l75 580h135z" glyph-name="W" unicode="W" horiz-adv-x="767"/>
<glyph d="M344 373l180 -373h-154l-113 277l-110 -277h-151l176 368l-162 324h154l95 -234l99 234h150z" glyph-name="X" unicode="X" horiz-adv-x="520"/>
<glyph d="M538 692l-200 -431v-261h-144v260l-200 432h155l120 -316l120 316h149z" glyph-name="Y" unicode="Y" horiz-adv-x="532"/>
<glyph d="M459 692v-110l-281 -466h286l-15 -116h-433v109l284 470h-256v113h415z" glyph-name="Z" unicode="Z" horiz-adv-x="486"/>
<glyph d="M269 821v-106h-104v-732h104v-104h-235v942h235z" glyph-name="bracketleft" unicode="[" horiz-adv-x="293"/>
<glyph d="M186 813l215 -896l-119 -27l-215 896z" glyph-name="backslash" unicode="\" horiz-adv-x="468"/>
<glyph d="M260 821v-942h-235v105h104v732h-104v105h235z" glyph-name="bracketright" unicode="]" horiz-adv-x="293"/>
<glyph d="M315 843l170 -316h-136l-98 209l-95 -209h-137l170 316h126z" glyph-name="asciicircum" unicode="^" horiz-adv-x="504"/>
<glyph d="M11 -162v110h449v-110h-449z" glyph-name="underscore" unicode="_" horiz-adv-x="471"/>
<glyph d="M89 822l194 -126l-39 -69l-211 92z" glyph-name="grave" unicode="`" horiz-adv-x="310"/>
<glyph d="M435 140q0 -28 7.5 -41t25.5 -21l-29 -92q-87 9 -114 75q-49 -77 -143 -77q-71 0 -113.5 45.5t-42.5 118.5q0 86 58 132t167 46h47v30q0 49 -18.5 68.5t-61.5 19.5q-52 0 -127 -28l-31 91q92 39 181 39q194 0 194 -183v-223zM222 84q49 0 76 58v105h-33q-101 0 -101 -87 q0 -76 58 -76z" glyph-name="a" unicode="a" horiz-adv-x="496"/>
<glyph d="M329 546q84 0 130 -72.5t46 -208.5q0 -128 -51 -204.5t-139 -76.5q-78 0 -125 67l-7 -51h-124v741l139 15v-281q50 71 131 71zM276 87q85 0 85 178q0 101 -20 139t-58 38q-49 0 -85 -66v-234q30 -55 78 -55z" glyph-name="b" unicode="b" horiz-adv-x="541"/>
<glyph d="M268 546q92 0 161 -63l-60 -80q-46 35 -91 35q-49 0 -73.5 -40.5t-24.5 -135.5q0 -92 25 -129.5t72 -37.5q42 0 91 34l61 -83q-70 -62 -159 -62q-111 0 -173.5 72t-62.5 205q0 131 63.5 208t170.5 77z" glyph-name="c" unicode="c" horiz-adv-x="434"/>
<glyph d="M345 756l139 -15v-741h-124l-6 63q-51 -79 -135 -79q-89 0 -136 74t-47 207q0 127 53.5 204t140.5 77q69 0 115 -53v263zM260 87q49 0 85 62v244q-35 50 -78 50q-87 0 -87 -178t80 -178z" glyph-name="d" unicode="d" horiz-adv-x="543"/>
<glyph d="M475 277q0 -31 -3 -54h-298q6 -75 33 -105t75 -30q58 0 118 45l57 -78q-81 -71 -185 -71q-116 0 -177 73.5t-61 204.5q0 128 58.5 206t164.5 78q103 0 160.5 -69.5t57.5 -199.5zM339 310v7q0 134 -80 134q-39 0 -60 -32t-25 -109h165z" glyph-name="e" unicode="e" horiz-adv-x="504"/>
<glyph d="M275 652q-31 0 -45 -15t-14 -49v-58h111l-15 -99h-96v-431h-139v431h-72v99h72v57q0 76 47 122.5t134 46.5q66 0 130 -31l-38 -91q-37 18 -75 18z" glyph-name="f" unicode="f" horiz-adv-x="323"/>
<glyph d="M459 606l35 -105q-46 -19 -137 -19q90 -42 90 -137q0 -79 -54 -128t-147 -49q-30 0 -55 6q-18 -11 -18 -36q0 -36 55 -36h67q85 0 136 -42t51 -108q0 -79 -64.5 -125t-183.5 -46q-128 0 -178 42.5t-50 125.5h124q0 -40 21.5 -57t83.5 -17q107 0 107 67q0 61 -77 61h-56 q-78 0 -115 28t-37 74q0 58 58 98q-87 50 -87 151q0 88 58 140t154 51q72 -1 119 14.5t100 46.5zM240 453q-74 0 -74 -97q0 -48 19.5 -73.5t54.5 -25.5q74 0 74 101q0 95 -74 95z" glyph-name="g" unicode="g" horiz-adv-x="492"/>
<glyph d="M335 546q62 0 98 -42t36 -113v-391h-139v372q0 69 -46 69q-44 0 -86 -73v-368h-139v741l139 14v-286q57 77 137 77z" glyph-name="h" unicode="h" horiz-adv-x="524"/>
<glyph d="M129 801q36 0 59.5 -23t23.5 -58t-23.5 -58.5t-59.5 -23.5t-59.5 23.5t-23.5 58.5t23.5 58t59.5 23zM198 530v-530h-139v530h139z" glyph-name="i" unicode="i" horiz-adv-x="258"/>
<glyph d="M129 801q36 0 59.5 -23t23.5 -58t-23.5 -58.5t-59.5 -23.5t-59.5 23.5t-23.5 58.5t23.5 58t59.5 23zM198 530v-489q0 -107 -47.5 -163.5t-142.5 -96.5l-46 101q52 27 74.5 58t22.5 96v494h139z" glyph-name="j" unicode="j" horiz-adv-x="257"/>
<glyph d="M198 756v-756h-139v741zM493 530l-150 -233l162 -297h-153l-149 290l151 240h139z" glyph-name="k" unicode="k" horiz-adv-x="498"/>
<glyph d="M185 -16q-61 0 -96 36t-35 100v621l139 15v-630q0 -31 26 -31q11 0 23 4l27 -96q-35 -19 -84 -19z" glyph-name="l" unicode="l" horiz-adv-x="271"/>
<glyph d="M583 546q57 0 92 -42t35 -113v-391h-138v372q0 69 -41 69t-78 -70v-371h-137v372q0 69 -41 69q-43 0 -78 -70v-371h-138v530h121l10 -66q55 82 137 82q84 0 114 -87q59 87 142 87z" glyph-name="m" unicode="m" horiz-adv-x="765"/>
<glyph d="M335 546q63 0 98.5 -41.5t35.5 -113.5v-391h-139v372q0 69 -45 69t-87 -73v-368h-139v530h121l10 -67q60 83 145 83z" glyph-name="n" unicode="n" horiz-adv-x="524"/>
<glyph d="M267 546q109 0 170.5 -72.5t61.5 -208.5q0 -131 -62 -206t-171 -75t-170.5 73t-61.5 208q0 133 61.5 207t171.5 74zM267 442q-45 0 -67 -42t-22 -135q0 -95 21.5 -136t66.5 -41t67 42t22 135q0 94 -21.5 135.5t-66.5 41.5z" glyph-name="o" unicode="o" horiz-adv-x="533"/>
<glyph d="M328 546q88 0 132.5 -72.5t44.5 -207.5q0 -127 -51 -204.5t-139 -77.5q-72 0 -117 56v-244l-139 -15v749h123l7 -61q54 77 139 77zM275 88q86 0 86 177q0 98 -19.5 137.5t-57.5 39.5q-50 0 -86 -65v-240q32 -49 77 -49z" glyph-name="p" unicode="p" horiz-adv-x="541"/>
<glyph d="M363 530h121v-749l-139 15v258q-48 -70 -127 -70q-88 0 -135 74t-47 207q0 127 53.5 204t141.5 77q72 0 125 -64zM260 87q50 0 85 63v243q-37 50 -78 50q-87 0 -87 -178q0 -99 20.5 -138.5t59.5 -39.5z" glyph-name="q" unicode="q" horiz-adv-x="543"/>
<glyph d="M317 544q26 0 47 -7l-23 -134q-21 6 -42 6q-42 0 -65 -31.5t-36 -95.5v-282h-139v530h121l11 -96q39 110 126 110z" glyph-name="r" unicode="r" horiz-adv-x="362"/>
<glyph d="M224 546q103 0 175 -64l-52 -77q-61 40 -115 40q-31 0 -47.5 -13.5t-16.5 -36.5q0 -24 19.5 -39t80.5 -36q75 -25 111.5 -63t36.5 -103q0 -79 -60 -124.5t-151 -45.5q-119 0 -198 76l67 75q64 -50 126 -50q34 0 54 15.5t20 43.5q0 30 -19.5 46t-83.5 38q-74 25 -107.5 63 t-33.5 96q0 69 53 114t141 45z" glyph-name="s" unicode="s" horiz-adv-x="435"/>
<glyph d="M308 111l47 -86q-53 -41 -128 -41q-77 0 -116.5 44t-39.5 123v280h-68v99h68v116l139 17v-133h110l-14 -99h-96v-279q0 -57 45 -57q24 0 53 16z" glyph-name="t" unicode="t" horiz-adv-x="347"/>
<glyph d="M461 530v-530h-122l-6 67q-54 -83 -143 -83q-64 0 -99.5 42.5t-35.5 114.5v389h139v-377q0 -65 46 -65t82 66v376h139z" glyph-name="u" unicode="u" horiz-adv-x="520"/>
<glyph d="M467 530l-150 -530h-165l-154 530h147l90 -422l93 422h139z" glyph-name="v" unicode="v" horiz-adv-x="465"/>
<glyph d="M671 530l-99 -530h-168l-64 405l-64 -405h-165l-102 530h136l56 -426l74 426h137l68 -426l60 426h131z" glyph-name="w" unicode="w" horiz-adv-x="680"/>
<glyph d="M314 284l156 -284h-152l-90 206l-87 -206h-148l155 279l-140 251h150l74 -178l70 178h144z" glyph-name="x" unicode="x" horiz-adv-x="463"/>
<glyph d="M472 530l-153 -531q-58 -202 -266 -219l-15 99q69 11 102.5 37.5t53.5 83.5h-50l-146 530h144l91 -439l99 439h140z" glyph-name="y" unicode="y" horiz-adv-x="470"/>
<glyph d="M392 530v-99l-224 -323h228l-12 -108h-371v100l224 323h-205v107h360z" glyph-name="z" unicode="z" horiz-adv-x="413"/>
<glyph d="M268 839v-98q-40 0 -55 -13.5t-15 -48.5v-202q0 -60 -22 -87.5t-70 -40.5q48 -12 70.5 -39t22.5 -87v-202q0 -35 15 -48.5t54 -13.5v-98q-113 0 -155.5 38t-42.5 122v195q0 42 -12.5 59t-46.5 17v114q34 0 46.5 17.5t12.5 60.5v195q0 84 42.5 122t155.5 38z" glyph-name="braceleft" unicode="{" horiz-adv-x="292"/>
<glyph d="M234 809v-913h-129v913h129z" glyph-name="bar" unicode="|" horiz-adv-x="340"/>
<glyph d="M24 839q113 0 155.5 -38t42.5 -122v-195q0 -43 12.5 -60.5t46.5 -17.5v-114q-34 0 -46.5 -17t-12.5 -59v-195q0 -84 -42.5 -122t-155.5 -38v98q39 0 54 13.5t15 48.5v202q0 60 22.5 87t70.5 39q-49 14 -70.5 40.5t-21.5 87.5v202q0 35 -15 48.5t-55 13.5v98z" glyph-name="braceright" unicode="}" horiz-adv-x="292"/>
<glyph d="M308 239q-33 0 -62 14.5t-51.5 29.5t-40.5 15q-14 0 -27 -8.5t-19.5 -17t-17.5 -25.5l-72 37q55 117 142 117q41 0 87 -29.5t65 -29.5q20 0 33.5 11.5t29.5 35.5l73 -37q-54 -113 -140 -113z" glyph-name="asciitilde" unicode="~" horiz-adv-x="466"/>
<glyph glyph-name="uni00A0" unicode=" " horiz-adv-x="215"/>
<glyph d="M115 505q35 0 58.5 -25t23.5 -59t-23.5 -59t-58.5 -25q-36 0 -59.5 24.5t-23.5 59.5t23.5 59.5t59.5 24.5zM170 240l19 -448h-147l18 448h110z" glyph-name="exclamdown" unicode="¡" horiz-adv-x="229"/>
<glyph d="M368 129l61 -83q-54 -48 -119 -59v-146h-101v149q-83 19 -129 88.5t-46 182.5q0 111 47 184.5t129 93.5v151h100v-147q64 -11 119 -60l-60 -80q-46 35 -91 35q-49 0 -73.5 -40.5t-24.5 -135.5q0 -92 25 -129.5t72 -37.5q42 0 91 34z" glyph-name="cent" unicode="¢" horiz-adv-x="434"/>
<glyph d="M237 231q0 -48 -12.5 -75t-50.5 -48h282l-16 -108h-414v102q48 16 61 41t13 81v90h-61v76h61v101q0 87 50 141.5t142 54.5q114 0 181 -94l-84 -62q-35 51 -83 51q-69 0 -69 -90v-102h167v-76h-167v-83z" glyph-name="sterling" unicode="£" horiz-adv-x="486"/>
<glyph d="M493 141l-67 -60l-68 76q-47 -30 -107 -30t-105 31l-69 -77l-64 61l73 80q-30 52 -30 119q0 64 29 119l-74 83l68 60l68 -78q47 30 104 30q58 0 107 -30l70 78l64 -61l-73 -81q31 -51 31 -120q0 -66 -30 -120zM252 222q89 0 89 120q0 119 -89 119q-88 0 -88 -119 q0 -120 88 -120z" glyph-name="currency" unicode="¤" horiz-adv-x="504"/>
<glyph d="M516 674l-162 -324h91v-76h-120v-77h120v-76h-120v-121h-139v121h-119v76h119v77h-119v76h89l-162 324h144l119 -286l119 286h140z" glyph-name="yen" unicode="¥" horiz-adv-x="510"/>
<glyph d="M234 809v-366h-129v366h129zM234 262v-366h-129v366h129z" glyph-name="brokenbar" unicode="¦" horiz-adv-x="340"/>
<glyph d="M374 179q51 -37 51 -102q0 -71 -54.5 -114t-142.5 -43q-101 0 -172 53l47 82q56 -37 118 -37q73 0 73 52q0 27 -20 43t-89 40q-71 25 -104 57.5t-33 90.5q0 75 74 123q-51 40 -51 106q0 69 52.5 112.5t139.5 43.5q97 0 172 -55l-47 -79q-56 36 -116 36q-70 0 -70 -52 q0 -28 19.5 -44t86.5 -40q70 -25 104 -58t34 -89q0 -76 -72 -126zM244 243q32 -12 57 -24q25 33 25 65q0 29 -18.5 46t-71.5 37q-26 9 -45 18q-22 -29 -22 -62q0 -30 15.5 -46.5t59.5 -33.5z" glyph-name="section" unicode="§" horiz-adv-x="494"/>
<glyph d="M104 790q31 0 51.5 -21t20.5 -51q0 -31 -20.5 -52t-51.5 -21t-51.5 21t-20.5 52q0 30 20.5 51t51.5 21zM311 790q31 0 51.5 -21t20.5 -51q0 -31 -20.5 -52t-51.5 -21q-30 0 -51 21t-21 52q0 30 21 51t51 21z" glyph-name="dieresis" unicode="¨" horiz-adv-x="411"/>
<glyph d="M365 761q129 0 215.5 -91.5t86.5 -236.5t-86.5 -236.5t-215.5 -91.5q-128 0 -215.5 91.5t-87.5 236.5t87.5 236.5t215.5 91.5zM365 689q-97 0 -159.5 -70t-62.5 -186t62.5 -185.5t159.5 -69.5t159.5 69.5t62.5 185.5t-62.5 186t-159.5 70zM369 628q66 0 115 -47l-42 -55 q-32 23 -65 23q-68 0 -68 -115t68 -115q35 0 70 28l40 -58q-51 -51 -119 -51q-73 0 -115.5 51t-42.5 145q0 91 44 142.5t115 51.5z" glyph-name="copyright" unicode="©" horiz-adv-x="729"/>
<glyph d="M224 527h35v18q0 31 -13.5 43.5t-46.5 12.5q-39 0 -100 -21l-29 82q72 30 149 30q162 0 162 -137v-162q0 -32 25 -42l-25 -83q-71 6 -98 54q-37 -56 -112 -56q-58 0 -93 35t-35 91q0 65 46.5 100t134.5 35zM207 355q31 0 52 31v73h-25q-35 0 -50.5 -13.5t-15.5 -43.5 q0 -47 39 -47zM47 108h369v-107h-369v107z" glyph-name="ordfeminine" unicode="ª" horiz-adv-x="455"/>
<glyph d="M208 550l85 -56l-119 -209l119 -208l-85 -57l-170 220v90zM452 550l85 -56l-119 -209l119 -208l-85 -57l-170 220v90z" glyph-name="guillemotleft" unicode="«" horiz-adv-x="575"/>
<glyph d="M433 380v-258h-116v151h-273v107h389z" glyph-name="logicalnot" unicode="¬" horiz-adv-x="477"/>
<glyph d="M44 258v110h285v-110h-285z" glyph-name="uni00AD" unicode="­" horiz-adv-x="373"/>
<glyph d="M287 756q106 0 176 -75.5t70 -193.5t-70 -193t-176 -75t-176 75t-70 193t70 193.5t176 75.5zM287 281q79 0 128 55.5t49 150.5t-49 151.5t-128 56.5q-78 0 -127.5 -56.5t-49.5 -151.5t49 -150.5t128 -55.5zM389 547q0 -53 -53 -76l66 -117h-72l-52 104h-20v-104h-64v280 h75q120 0 120 -87zM258 584v-73h26q40 0 40 38q0 35 -41 35h-25z" glyph-name="registered" unicode="®" horiz-adv-x="574"/>
<glyph d="M306 659h-273v97h273v-97z" glyph-name="macron" unicode="¯" horiz-adv-x="333"/>
<glyph d="M196 373q-64 0 -112 45t-48 123q0 77 47.5 122t112.5 45t112.5 -44.5t47.5 -122.5t-47.5 -123t-112.5 -45zM196 456q30 0 47 21.5t17 63.5q0 41 -17 62.5t-47 21.5q-64 0 -64 -84q0 -42 17 -63.5t47 -21.5z" glyph-name="degree" unicode="°" horiz-adv-x="469"/>
<glyph d="M296 599v-152h136v-109h-136v-152h-115v152h-137v109h137v152h115zM49 0v107h378v-107h-378z" glyph-name="plusminus" unicode="±" horiz-adv-x="477"/>
<glyph d="M177 750q65 0 103 -36t38 -88q0 -47 -31.5 -93t-124.5 -131h164l-10 -81h-267v75q101 104 131.5 145t30.5 78q0 24 -12.5 37t-34.5 13q-37 0 -71 -40l-59 46q55 75 143 75z" glyph-name="uni00B2" unicode="²" horiz-adv-x="363"/>
<glyph d="M179 750q64 0 100.5 -31t36.5 -79q0 -75 -87 -97q101 -9 101 -102q0 -56 -41.5 -93.5t-115.5 -37.5q-90 0 -143 65l56 53q37 -38 79 -38q26 0 42 15t16 43q0 30 -16 43t-49 13h-31l12 72h21q55 0 55 50q0 47 -50 47q-40 0 -77 -34l-50 53q58 58 141 58z" glyph-name="uni00B3" unicode="³" horiz-adv-x="363"/>
<glyph d="M227 822l56 -103l-212 -92l-38 69z" glyph-name="acute" unicode="´" horiz-adv-x="310"/>
<glyph d="M484 0l-127 -16q-13 31 -21 87q-43 -80 -102 -80q-49 0 -77 45q34 -70 34 -146v-94l-132 -14v748h139v-372q0 -63 47 -63t79 70v365h139v-348q0 -102 21 -182z" glyph-name="uni00B5" unicode="µ" horiz-adv-x="527"/>
<glyph d="M299 692h303v-896l-121 -16v813h-85v-797l-122 -16v489q-104 4 -159 61.5t-55 150.5q0 99 62.5 155t176.5 56z" glyph-name="paragraph" unicode="¶" horiz-adv-x="707"/>
<glyph d="M113 392q36 0 59.5 -24.5t23.5 -59.5t-23.5 -59.5t-59.5 -24.5q-35 0 -58.5 25t-23.5 59t23.5 59t58.5 25z" glyph-name="periodcentered" unicode="·" horiz-adv-x="227"/>
<glyph d="M173 16v-69q92 -12 92 -93q0 -50 -35.5 -80t-96.5 -30q-58 0 -100 28l33 65q28 -15 57 -15q42 0 42 33q0 37 -83 37l14 124h77z" glyph-name="cedilla" unicode="¸" horiz-adv-x="292"/>
<glyph d="M268 741v-420h-102v319l-83 -54l-46 68l138 87h93z" glyph-name="uni00B9" unicode="¹" horiz-adv-x="363"/>
<glyph d="M228 692q90 0 140.5 -54.5t50.5 -158.5q0 -100 -51 -156.5t-140 -56.5q-90 0 -141 55t-51 159q0 99 51 155.5t141 56.5zM228 601q-33 0 -48.5 -27.5t-15.5 -93.5q0 -68 15 -95t49 -27q33 0 48 27.5t15 93.5q0 68 -15 95t-48 27zM39 0v107h378v-107h-378z" glyph-name="ordmasculine" unicode="º" horiz-adv-x="455"/>
<glyph d="M124 550l169 -220v-90l-169 -220l-86 57l119 208l-119 209zM366 550l169 -220v-90l-169 -220l-86 57l119 208l-119 209z" glyph-name="guillemotright" unicode="»" horiz-adv-x="574"/>
<glyph d="M581 756l82 -37l-368 -802l-82 37zM268 272h-102v319l-83 -54l-46 68l138 87h93v-420zM851 165v-77h-43v-88h-97v88h-173v71l109 270l87 -33l-92 -231h70l19 99h77v-99h43z" glyph-name="onequarter" unicode="¼" horiz-adv-x="876"/>
<glyph d="M581 756l82 -37l-368 -802l-82 37zM268 692v-420h-102v319l-83 -54l-46 68l138 87h93zM690 429q65 0 103 -36t38 -88q0 -47 -31.5 -93t-124.5 -131h164l-10 -81h-267v75q101 104 131.5 145t30.5 78q0 24 -12.5 37t-34.5 13q-37 0 -71 -40l-59 46q55 75 143 75z" glyph-name="onehalf" unicode="½" horiz-adv-x="876"/>
<glyph d="M581 756l82 -37l-368 -802l-82 37zM330 392q0 -56 -41.5 -93.5t-115.5 -37.5q-90 0 -143 65l56 53q37 -38 79 -38q26 0 42 15t16 43q0 30 -16 43t-49 13h-31l12 72h21q55 0 55 50q0 47 -50 47q-40 0 -77 -34l-50 53q58 58 141 58q64 0 100.5 -31t36.5 -79q0 -75 -87 -97 q101 -9 101 -102zM851 165v-77h-43v-88h-97v88h-173v71l109 270l87 -33l-92 -231h70l19 99h77v-99h43z" glyph-name="threequarters" unicode="¾" horiz-adv-x="876"/>
<glyph d="M241 337q-36 0 -59.5 24.5t-23.5 59.5q0 34 23.5 58.5t59.5 24.5q35 0 58.5 -24.5t23.5 -58.5t-23.5 -59t-58.5 -25zM213 -221q-93 0 -144.5 48t-51.5 116q0 44 16.5 76.5t40.5 52t48 37.5t40.5 42.5t16.5 57.5v29h127v-35q0 -47 -15 -81t-36.5 -53t-43 -34.5 t-36.5 -35.5t-15 -47q0 -30 17.5 -46.5t49.5 -16.5q57 0 109 61l85 -66q-80 -105 -208 -105z" glyph-name="questiondown" unicode="¿" horiz-adv-x="438"/>
<glyph d="M391 822l-35 -70l-214 84l53 104zM397 0l-34 156h-190l-34 -156h-146l190 692h174l189 -692h-149zM197 262h142l-71 323z" glyph-name="Agrave" unicode="À"/>
<glyph d="M394 836l-213 -84l-36 70l196 119zM397 0l-34 156h-190l-34 -156h-146l190 692h174l189 -692h-149zM197 262h142l-71 323z" glyph-name="Aacute" unicode="Á"/>
<glyph d="M269 841l-119 -83l-50 55l127 126h85l127 -126l-50 -55zM397 0l-34 156h-190l-34 -156h-146l190 692h174l189 -692h-149zM197 262h142l-71 323z" glyph-name="Acircumflex" unicode="Â"/>
<glyph d="M219 813q-15 0 -25 -10t-23 -33l-69 32q17 48 47 78t67 30q30 0 61.5 -21.5t44.5 -21.5q14 0 24.5 10t22.5 32l69 -33q-38 -107 -114 -107q-29 0 -61 22t-44 22zM397 0l-34 156h-190l-34 -156h-146l190 692h174l189 -692h-149zM197 262h142l-71 323z" glyph-name="Atilde" unicode="Ã"/>
<glyph d="M169 771q-31 0 -51.5 21t-20.5 52q0 30 20.5 51t51.5 21t51.5 -21t20.5 -51q0 -31 -20.5 -52t-51.5 -21zM376 771q-30 0 -51 21t-21 52q0 30 21 51t51 21q31 0 51.5 -21t20.5 -51q0 -31 -20.5 -52t-51.5 -21zM397 0l-34 156h-190l-34 -156h-146l190 692h174l189 -692 h-149zM197 262h142l-71 323z" glyph-name="Adieresis" unicode="Ä"/>
<glyph d="M270 736q-57 0 -90.5 35t-33.5 89t33.5 89t90.5 35q56 0 89.5 -35t33.5 -89t-33.5 -89t-89.5 -35zM270 913q-42 0 -42 -53t42 -53q41 0 41 53t-41 53zM397 0l-34 156h-190l-34 -156h-146l190 692h174l189 -692h-149zM197 262h142l-71 323z" glyph-name="Aring" unicode="Å"/>
<glyph d="M522 106h208v-106h-329l-24 156h-197l-47 -156h-152l245 692h470l-15 -105h-245l33 -185h219v-104h-200zM212 262h148l-50 323z" glyph-name="AE" unicode="Æ" horiz-adv-x="759"/>
<glyph d="M513 70q-70 -73 -165 -84v-39q92 -12 92 -93q0 -50 -35.5 -80t-96.5 -30q-58 0 -100 28l33 65q28 -15 57 -15q42 0 42 33q0 37 -83 37l11 96q-108 17 -170.5 108.5t-62.5 250.5q0 174 78 267.5t203 93.5q107 0 190 -74l-69 -82q-56 47 -113 47q-139 0 -139 -252 q0 -250 140 -250q56 0 121 54z" glyph-name="Ccedilla" unicode="Ç" horiz-adv-x="520"/>
<glyph d="M178 940l196 -118l-35 -70l-214 84zM442 692l-15 -105h-221v-183h193v-104h-193v-194h236v-106h-380v692h380z" glyph-name="Egrave" unicode="È" horiz-adv-x="475"/>
<glyph d="M324 941l53 -105l-213 -84l-36 70zM442 692l-15 -105h-221v-183h193v-104h-193v-194h236v-106h-380v692h380z" glyph-name="Eacute" unicode="É" horiz-adv-x="475"/>
<glyph d="M133 758l-50 55l127 126h85l127 -126l-50 -55l-120 83zM442 692l-15 -105h-221v-183h193v-104h-193v-194h236v-106h-380v692h380z" glyph-name="Ecircumflex" unicode="Ê" horiz-adv-x="475"/>
<glyph d="M152 916q31 0 51.5 -21t20.5 -51q0 -31 -20.5 -52t-51.5 -21t-51.5 21t-20.5 52q0 30 20.5 51t51.5 21zM359 916q31 0 51.5 -21t20.5 -51q0 -31 -20.5 -52t-51.5 -21q-30 0 -51 21t-21 52q0 30 21 51t51 21zM442 692l-15 -105h-221v-183h193v-104h-193v-194h236v-106 h-380v692h380z" glyph-name="Edieresis" unicode="Ë" horiz-adv-x="475"/>
<glyph d="M59 940l196 -118l-35 -70l-214 84zM206 692v-692h-144v692h144z" glyph-name="Igrave" unicode="Ì" horiz-adv-x="268"/>
<glyph d="M205 941l53 -105l-213 -84l-36 70zM206 692v-692h-144v692h144z" glyph-name="Iacute" unicode="Í" horiz-adv-x="268"/>
<glyph d="M14 758l-50 55l127 126h85l127 -126l-50 -55l-120 83zM206 692v-692h-144v692h144z" glyph-name="Icircumflex" unicode="Î" horiz-adv-x="268"/>
<glyph d="M33 916q31 0 51.5 -21t20.5 -51q0 -31 -20.5 -52t-51.5 -21t-51.5 21t-20.5 52q0 30 20.5 51t51.5 21zM240 916q31 0 51.5 -21t20.5 -51q0 -31 -20.5 -52t-51.5 -21q-30 0 -51 21t-21 52q0 30 21 51t51 21zM206 692v-692h-144v692h144z" glyph-name="Idieresis" unicode="Ï" horiz-adv-x="268"/>
<glyph d="M249 692q55 0 98.5 -7.5t87 -29.5t72.5 -59t47 -100t18 -147q0 -349 -309 -349h-186v308h-62v90h62v294h172zM271 106q74 0 113 52.5t39 190.5q0 73 -11.5 121.5t-33.5 73t-47 33.5t-61 9h-49v-188h113v-90h-113v-202h50z" glyph-name="Eth" unicode="Ð" horiz-adv-x="607"/>
<glyph d="M359 769q-29 0 -61 22t-44 22q-15 0 -25 -10t-23 -33l-69 32q17 48 47 78t67 30q30 0 61.5 -21.5t44.5 -21.5q25 0 47 42l69 -33q-38 -107 -114 -107zM540 692v-692h-183l-186 553q19 -171 19 -280v-273h-128v692h180l189 -554q-19 130 -19 246v308h128z" glyph-name="Ntilde" unicode="Ñ" horiz-adv-x="602"/>
<glyph d="M240 940l196 -118l-35 -70l-214 84zM315 708q133 0 206 -92.5t73 -269.5q0 -175 -73 -268.5t-206 -93.5t-206.5 92t-73.5 270q0 175 73.5 268.5t206.5 93.5zM315 600q-66 0 -98 -59t-32 -195q0 -137 32.5 -195.5t97.5 -58.5q66 0 97.5 58.5t31.5 195.5q0 136 -31.5 195 t-97.5 59z" glyph-name="Ograve" unicode="Ò" horiz-adv-x="629"/>
<glyph d="M386 941l53 -105l-213 -84l-36 70zM315 708q133 0 206 -92.5t73 -269.5q0 -175 -73 -268.5t-206 -93.5t-206.5 92t-73.5 270q0 175 73.5 268.5t206.5 93.5zM315 600q-66 0 -98 -59t-32 -195q0 -137 32.5 -195.5t97.5 -58.5q66 0 97.5 58.5t31.5 195.5q0 136 -31.5 195 t-97.5 59z" glyph-name="Oacute" unicode="Ó" horiz-adv-x="629"/>
<glyph d="M195 758l-50 55l127 126h85l127 -126l-50 -55l-120 83zM315 708q133 0 206 -92.5t73 -269.5q0 -175 -73 -268.5t-206 -93.5t-206.5 92t-73.5 270q0 175 73.5 268.5t206.5 93.5zM315 600q-66 0 -98 -59t-32 -195q0 -137 32.5 -195.5t97.5 -58.5q66 0 97.5 58.5t31.5 195.5 q0 136 -31.5 195t-97.5 59z" glyph-name="Ocircumflex" unicode="Ô" horiz-adv-x="629"/>
<glyph d="M369 769q-29 0 -61 22t-44 22q-15 0 -25 -10t-23 -33l-69 32q17 48 47 78t67 30q30 0 61.5 -21.5t44.5 -21.5q25 0 47 42l69 -33q-38 -107 -114 -107zM315 708q133 0 206 -92.5t73 -269.5q0 -175 -73 -268.5t-206 -93.5t-206.5 92t-73.5 270q0 175 73.5 268.5t206.5 93.5 zM315 600q-66 0 -98 -59t-32 -195q0 -137 32.5 -195.5t97.5 -58.5q66 0 97.5 58.5t31.5 195.5q0 136 -31.5 195t-97.5 59z" glyph-name="Otilde" unicode="Õ" horiz-adv-x="629"/>
<glyph d="M214 916q31 0 51.5 -21t20.5 -51q0 -31 -20.5 -52t-51.5 -21t-51.5 21t-20.5 52q0 30 20.5 51t51.5 21zM421 916q31 0 51.5 -21t20.5 -51q0 -31 -20.5 -52t-51.5 -21q-30 0 -51 21t-21 52q0 30 21 51t51 21zM315 708q133 0 206 -92.5t73 -269.5q0 -175 -73 -268.5 t-206 -93.5t-206.5 92t-73.5 270q0 175 73.5 268.5t206.5 93.5zM315 600q-66 0 -98 -59t-32 -195q0 -137 32.5 -195.5t97.5 -58.5q66 0 97.5 58.5t31.5 195.5q0 136 -31.5 195t-97.5 59z" glyph-name="Odieresis" unicode="Ö" horiz-adv-x="629"/>
<glyph d="M339 503l80 -71l-110 -124l110 -127l-80 -71l-105 125l-107 -125l-80 71l110 124l-110 127l80 71l105 -125z" glyph-name="multiply" unicode="×" horiz-adv-x="466"/>
<glyph d="M463 668q131 -83 131 -322q0 -175 -73.5 -268.5t-205.5 -93.5q-23 0 -44 3l-32 -119l-109 29l36 127q-131 84 -131 322q0 175 73.5 268.5t206.5 93.5q22 0 43 -3l33 120l109 -29zM315 601q-68 0 -100.5 -59t-32.5 -196q0 -160 41 -215l120 468q-18 2 -28 2zM447 346 q1 159 -40 214l-120 -467q18 -2 28 -2q68 0 99.5 58t32.5 197z" glyph-name="Oslash" unicode="Ø" horiz-adv-x="629"/>
<glyph d="M219 940l196 -118l-35 -70l-214 84zM536 692v-481q0 -100 -62.5 -163.5t-179.5 -63.5q-118 0 -180 62t-62 165v481h144v-475q0 -123 98 -123q51 0 74.5 30.5t23.5 92.5v475h144z" glyph-name="Ugrave" unicode="Ù" horiz-adv-x="588"/>
<glyph d="M365 941l53 -105l-213 -84l-36 70zM536 692v-481q0 -100 -62.5 -163.5t-179.5 -63.5q-118 0 -180 62t-62 165v481h144v-475q0 -123 98 -123q51 0 74.5 30.5t23.5 92.5v475h144z" glyph-name="Uacute" unicode="Ú" horiz-adv-x="588"/>
<glyph d="M174 758l-50 55l127 126h85l127 -126l-50 -55l-120 83zM536 692v-481q0 -100 -62.5 -163.5t-179.5 -63.5q-118 0 -180 62t-62 165v481h144v-475q0 -123 98 -123q51 0 74.5 30.5t23.5 92.5v475h144z" glyph-name="Ucircumflex" unicode="Û" horiz-adv-x="588"/>
<glyph d="M193 916q31 0 51.5 -21t20.5 -51q0 -31 -20.5 -52t-51.5 -21t-51.5 21t-20.5 52q0 30 20.5 51t51.5 21zM400 916q31 0 51.5 -21t20.5 -51q0 -31 -20.5 -52t-51.5 -21q-30 0 -51 21t-21 52q0 30 21 51t51 21zM536 692v-481q0 -100 -62.5 -163.5t-179.5 -63.5 q-118 0 -180 62t-62 165v481h144v-475q0 -123 98 -123q51 0 74.5 30.5t23.5 92.5v475h144z" glyph-name="Udieresis" unicode="Ü" horiz-adv-x="588"/>
<glyph d="M337 941l53 -105l-213 -84l-36 70zM538 692l-200 -431v-261h-144v260l-200 432h155l120 -316l120 316h149z" glyph-name="Yacute" unicode="Ý" horiz-adv-x="532"/>
<glyph d="M256 581q127 0 196 -56.5t69 -168.5q0 -120 -68 -179t-187 -59h-60v-118h-144v692h144v-111h50zM254 223q60 0 90 30t30 102q0 122 -121 122h-47v-254h48z" glyph-name="Thorn" unicode="Þ"/>
<glyph d="M270 756q86 0 135.5 -42t49.5 -104q0 -33 -13.5 -61t-30 -43t-30 -35.5t-13.5 -40.5t16.5 -39.5t40 -38.5t47.5 -42t40.5 -60.5t16.5 -84.5q0 -83 -50.5 -132t-127.5 -49q-62 0 -106 26l41 92q24 -10 44 -10q27 0 42.5 19t15.5 56q0 31 -14.5 56.5t-35 44t-41 37.5 t-35 45.5t-14.5 59.5q0 31 12 56t26.5 39.5t26.5 37.5t12 51q0 30 -16 46.5t-42 16.5q-69 0 -69 -102v-555h-139v549q0 95 55.5 151t155.5 56z" glyph-name="germandbls" unicode="ß" horiz-adv-x="548"/>
<glyph d="M378 696l-39 -69l-211 92l56 103zM435 140q0 -28 7.5 -41t25.5 -21l-29 -92q-87 9 -114 75q-49 -77 -143 -77q-71 0 -113.5 45.5t-42.5 118.5q0 86 58 132t167 46h47v30q0 49 -18.5 68.5t-61.5 19.5q-52 0 -127 -28l-31 91q92 39 181 39q194 0 194 -183v-223zM222 84 q49 0 76 58v105h-33q-101 0 -101 -87q0 -76 58 -76z" glyph-name="agrave" unicode="à" horiz-adv-x="496"/>
<glyph d="M363 719l-212 -92l-38 69l194 126zM435 140q0 -28 7.5 -41t25.5 -21l-29 -92q-87 9 -114 75q-49 -77 -143 -77q-71 0 -113.5 45.5t-42.5 118.5q0 86 58 132t167 46h47v30q0 49 -18.5 68.5t-61.5 19.5q-52 0 -127 -28l-31 91q92 39 181 39q194 0 194 -183v-223zM222 84 q49 0 76 58v105h-33q-101 0 -101 -87q0 -76 58 -76z" glyph-name="aacute" unicode="á" horiz-adv-x="496"/>
<glyph d="M244 716l-119 -90l-50 55l127 132h85l127 -132l-51 -55zM435 140q0 -28 7.5 -41t25.5 -21l-29 -92q-87 9 -114 75q-49 -77 -143 -77q-71 0 -113.5 45.5t-42.5 118.5q0 86 58 132t167 46h47v30q0 49 -18.5 68.5t-61.5 19.5q-52 0 -127 -28l-31 91q92 39 181 39 q194 0 194 -183v-223zM222 84q49 0 76 58v105h-33q-101 0 -101 -87q0 -76 58 -76z" glyph-name="acircumflex" unicode="â" horiz-adv-x="496"/>
<glyph d="M193 687q-15 0 -25 -10t-23 -33l-69 32q17 48 47 78t67 30q30 0 61.5 -21.5t44.5 -21.5q14 0 24.5 10t22.5 32l69 -33q-38 -107 -114 -107q-29 0 -61 22t-44 22zM435 140q0 -28 7.5 -41t25.5 -21l-29 -92q-87 9 -114 75q-49 -77 -143 -77q-71 0 -113.5 45.5t-42.5 118.5 q0 86 58 132t167 46h47v30q0 49 -18.5 68.5t-61.5 19.5q-52 0 -127 -28l-31 91q92 39 181 39q194 0 194 -183v-223zM222 84q49 0 76 58v105h-33q-101 0 -101 -87q0 -76 58 -76z" glyph-name="atilde" unicode="ã" horiz-adv-x="496"/>
<glyph d="M140 645q-31 0 -51.5 21t-20.5 52q0 30 20.5 51t51.5 21t51.5 -21t20.5 -51q0 -31 -20.5 -52t-51.5 -21zM347 645q-30 0 -51 21t-21 52q0 30 21 51t51 21q31 0 51.5 -21t20.5 -51q0 -31 -20.5 -52t-51.5 -21zM435 140q0 -28 7.5 -41t25.5 -21l-29 -92q-87 9 -114 75 q-49 -77 -143 -77q-71 0 -113.5 45.5t-42.5 118.5q0 86 58 132t167 46h47v30q0 49 -18.5 68.5t-61.5 19.5q-52 0 -127 -28l-31 91q92 39 181 39q194 0 194 -183v-223zM222 84q49 0 76 58v105h-33q-101 0 -101 -87q0 -76 58 -76z" glyph-name="adieresis" unicode="ä" horiz-adv-x="496"/>
<glyph d="M244 610q-57 0 -90.5 35t-33.5 89t33.5 89t90.5 35q56 0 89.5 -35t33.5 -89t-33.5 -89t-89.5 -35zM244 787q-42 0 -42 -53t42 -53q41 0 41 53t-41 53zM435 140q0 -28 7.5 -41t25.5 -21l-29 -92q-87 9 -114 75q-49 -77 -143 -77q-71 0 -113.5 45.5t-42.5 118.5 q0 86 58 132t167 46h47v30q0 49 -18.5 68.5t-61.5 19.5q-52 0 -127 -28l-31 91q92 39 181 39q194 0 194 -183v-223zM222 84q49 0 76 58v105h-33q-101 0 -101 -87q0 -76 58 -76z" glyph-name="aring" unicode="å" horiz-adv-x="496"/>
<glyph d="M745 277q0 -31 -3 -54h-296q6 -74 33.5 -104.5t75.5 -30.5q53 0 115 45l57 -77q-81 -72 -184 -72q-124 0 -188 91q-61 -91 -167 -91q-74 0 -118 45.5t-44 118.5q0 85 59.5 130.5t171.5 45.5h47v29q0 50 -18.5 70t-63.5 20q-50 0 -126 -28l-31 92q94 39 179 39 q101 0 145 -70q57 70 149 70q95 0 151 -70.5t56 -198.5zM610 310v7q0 133 -80 133q-39 0 -60 -32t-25 -108h165zM228 84q52 0 90 72q-10 39 -12 85v2h-35q-101 0 -101 -85q0 -74 58 -74z" glyph-name="ae" unicode="æ" horiz-adv-x="774"/>
<glyph d="M429 46q-61 -54 -135 -61v-38q92 -12 92 -93q0 -50 -35.5 -80t-96.5 -30q-58 0 -100 28l33 65q28 -15 57 -15q42 0 42 33q0 37 -83 37l11 97q-86 17 -133 87.5t-47 184.5q0 131 63.5 208t170.5 77q92 0 161 -63l-60 -80q-46 35 -91 35q-49 0 -73.5 -40.5t-24.5 -135.5 q0 -92 25 -129.5t72 -37.5q42 0 91 34z" glyph-name="ccedilla" unicode="ç" horiz-adv-x="434"/>
<glyph d="M392 696l-39 -69l-211 92l56 103zM475 277q0 -31 -3 -54h-298q6 -75 33 -105t75 -30q58 0 118 45l57 -78q-81 -71 -185 -71q-116 0 -177 73.5t-61 204.5q0 128 58.5 206t164.5 78q103 0 160.5 -69.5t57.5 -199.5zM339 310v7q0 134 -80 134q-39 0 -60 -32t-25 -109h165z " glyph-name="egrave" unicode="è" horiz-adv-x="504"/>
<glyph d="M377 719l-212 -92l-38 69l194 126zM475 277q0 -31 -3 -54h-298q6 -75 33 -105t75 -30q58 0 118 45l57 -78q-81 -71 -185 -71q-116 0 -177 73.5t-61 204.5q0 128 58.5 206t164.5 78q103 0 160.5 -69.5t57.5 -199.5zM339 310v7q0 134 -80 134q-39 0 -60 -32t-25 -109h165z " glyph-name="eacute" unicode="é" horiz-adv-x="504"/>
<glyph d="M258 716l-119 -90l-50 55l127 132h85l127 -132l-51 -55zM475 277q0 -31 -3 -54h-298q6 -75 33 -105t75 -30q58 0 118 45l57 -78q-81 -71 -185 -71q-116 0 -177 73.5t-61 204.5q0 128 58.5 206t164.5 78q103 0 160.5 -69.5t57.5 -199.5zM339 310v7q0 134 -80 134 q-39 0 -60 -32t-25 -109h165z" glyph-name="ecircumflex" unicode="ê" horiz-adv-x="504"/>
<glyph d="M154 645q-31 0 -51.5 21t-20.5 52q0 30 20.5 51t51.5 21t51.5 -21t20.5 -51q0 -31 -20.5 -52t-51.5 -21zM361 645q-30 0 -51 21t-21 52q0 30 21 51t51 21q31 0 51.5 -21t20.5 -51q0 -31 -20.5 -52t-51.5 -21zM475 277q0 -31 -3 -54h-298q6 -75 33 -105t75 -30 q58 0 118 45l57 -78q-81 -71 -185 -71q-116 0 -177 73.5t-61 204.5q0 128 58.5 206t164.5 78q103 0 160.5 -69.5t57.5 -199.5zM339 310v7q0 134 -80 134q-39 0 -60 -32t-25 -109h165z" glyph-name="edieresis" unicode="ë" horiz-adv-x="504"/>
<glyph d="M69 822l194 -126l-39 -69l-211 92zM198 530v-530h-139v530h139z" glyph-name="igrave" unicode="ì" horiz-adv-x="258"/>
<glyph d="M192 822l56 -103l-212 -92l-38 69zM198 530v-530h-139v530h139z" glyph-name="iacute" unicode="í" horiz-adv-x="258"/>
<glyph d="M10 626l-50 55l127 132h85l127 -132l-51 -55l-119 90zM198 530v-530h-139v530h139z" glyph-name="icircumflex" unicode="î" horiz-adv-x="258"/>
<glyph d="M25 790q31 0 51.5 -21t20.5 -51q0 -31 -20.5 -52t-51.5 -21t-51.5 21t-20.5 52q0 30 20.5 51t51.5 21zM232 790q31 0 51.5 -21t20.5 -51q0 -31 -20.5 -52t-51.5 -21q-30 0 -51 21t-21 52q0 30 21 51t51 21zM198 530v-530h-139v530h139z" glyph-name="idieresis" unicode="ï" horiz-adv-x="258"/>
<glyph d="M324 668q89 -70 127 -165t38 -229q0 -130 -61 -210t-170 -80q-98 0 -161 66.5t-63 183.5q0 105 52.5 174.5t132.5 69.5q71 0 122 -51q-25 104 -94 163l-54 -60l-86 42l59 66q-49 18 -87 26l27 92q71 -15 133 -40l66 75l74 -59zM260 87q89 0 89 168q0 14 -0.5 38.5 t-0.5 34.5q-38 51 -90 51q-84 0 -84 -142q0 -150 86 -150z" glyph-name="eth" unicode="ð" horiz-adv-x="528"/>
<glyph d="M215 687q-15 0 -25 -10t-23 -33l-69 32q17 48 47 78t67 30q30 0 61.5 -21.5t44.5 -21.5q14 0 24.5 10t22.5 32l69 -33q-38 -107 -114 -107q-29 0 -61 22t-44 22zM335 546q63 0 98.5 -41.5t35.5 -113.5v-391h-139v372q0 69 -45 69t-87 -73v-368h-139v530h121l10 -67 q60 83 145 83z" glyph-name="ntilde" unicode="ñ" horiz-adv-x="524"/>
<glyph d="M206 822l194 -126l-39 -69l-211 92zM267 546q109 0 170.5 -72.5t61.5 -208.5q0 -131 -62 -206t-171 -75t-170.5 73t-61.5 208q0 133 61.5 207t171.5 74zM267 442q-45 0 -67 -42t-22 -135q0 -95 21.5 -136t66.5 -41t67 42t22 135q0 94 -21.5 135.5t-66.5 41.5z" glyph-name="ograve" unicode="ò" horiz-adv-x="533"/>
<glyph d="M329 822l56 -103l-212 -92l-38 69zM267 546q109 0 170.5 -72.5t61.5 -208.5q0 -131 -62 -206t-171 -75t-170.5 73t-61.5 208q0 133 61.5 207t171.5 74zM267 442q-45 0 -67 -42t-22 -135q0 -95 21.5 -136t66.5 -41t67 42t22 135q0 94 -21.5 135.5t-66.5 41.5z" glyph-name="oacute" unicode="ó" horiz-adv-x="533"/>
<glyph d="M147 626l-50 55l127 132h85l127 -132l-51 -55l-119 90zM267 546q109 0 170.5 -72.5t61.5 -208.5q0 -131 -62 -206t-171 -75t-170.5 73t-61.5 208q0 133 61.5 207t171.5 74zM267 442q-45 0 -67 -42t-22 -135q0 -95 21.5 -136t66.5 -41t67 42t22 135q0 94 -21.5 135.5 t-66.5 41.5z" glyph-name="ocircumflex" unicode="ô" horiz-adv-x="533"/>
<glyph d="M320 643q-29 0 -61 22t-44 22q-15 0 -25 -10t-23 -33l-69 32q17 48 47 78t67 30q30 0 61.5 -21.5t44.5 -21.5q14 0 24.5 10t22.5 32l69 -33q-38 -107 -114 -107zM267 546q109 0 170.5 -72.5t61.5 -208.5q0 -131 -62 -206t-171 -75t-170.5 73t-61.5 208q0 133 61.5 207 t171.5 74zM267 442q-45 0 -67 -42t-22 -135q0 -95 21.5 -136t66.5 -41t67 42t22 135q0 94 -21.5 135.5t-66.5 41.5z" glyph-name="otilde" unicode="õ" horiz-adv-x="533"/>
<glyph d="M162 790q31 0 51.5 -21t20.5 -51q0 -31 -20.5 -52t-51.5 -21t-51.5 21t-20.5 52q0 30 20.5 51t51.5 21zM369 790q31 0 51.5 -21t20.5 -51q0 -31 -20.5 -52t-51.5 -21q-30 0 -51 21t-21 52q0 30 21 51t51 21zM267 546q109 0 170.5 -72.5t61.5 -208.5q0 -131 -62 -206 t-171 -75t-170.5 73t-61.5 208q0 133 61.5 207t171.5 74zM267 442q-45 0 -67 -42t-22 -135q0 -95 21.5 -136t66.5 -41t67 42t22 135q0 94 -21.5 135.5t-66.5 41.5z" glyph-name="odieresis" unicode="ö" horiz-adv-x="533"/>
<glyph d="M233 653q36 0 59.5 -24.5t23.5 -59.5t-23.5 -59.5t-59.5 -24.5q-35 0 -58.5 25t-23.5 59t23.5 59t58.5 25zM44 279v107h378v-107h-378zM233 179q36 0 59.5 -24.5t23.5 -59.5t-23.5 -59.5t-59.5 -24.5q-35 0 -58.5 25t-23.5 59t23.5 59t58.5 25z" glyph-name="divide" unicode="÷" horiz-adv-x="466"/>
<glyph d="M397 510q102 -70 102 -245q0 -131 -62 -206t-171 -75q-11 0 -31 2l-33 -119l-102 29l37 124q-103 70 -103 245q0 133 61.5 207t171.5 74q10 0 32 -2l34 120l102 -30zM267 443q-52 0 -77.5 -41.5t-25.5 -136.5q0 -108 27 -147l92 324q-5 1 -16 1zM266 86q52 0 77 42 t25 137q0 105 -26 145l-90 -323q4 -1 14 -1z" glyph-name="oslash" unicode="ø" horiz-adv-x="533"/>
<glyph d="M198 822l194 -126l-39 -69l-211 92zM461 530v-530h-122l-6 67q-54 -83 -143 -83q-64 0 -99.5 42.5t-35.5 114.5v389h139v-377q0 -65 46 -65t82 66v376h139z" glyph-name="ugrave" unicode="ù" horiz-adv-x="520"/>
<glyph d="M321 822l56 -103l-212 -92l-38 69zM461 530v-530h-122l-6 67q-54 -83 -143 -83q-64 0 -99.5 42.5t-35.5 114.5v389h139v-377q0 -65 46 -65t82 66v376h139z" glyph-name="uacute" unicode="ú" horiz-adv-x="520"/>
<glyph d="M139 626l-50 55l127 132h85l127 -132l-51 -55l-119 90zM461 530v-530h-122l-6 67q-54 -83 -143 -83q-64 0 -99.5 42.5t-35.5 114.5v389h139v-377q0 -65 46 -65t82 66v376h139z" glyph-name="ucircumflex" unicode="û" horiz-adv-x="520"/>
<glyph d="M154 790q31 0 51.5 -21t20.5 -51q0 -31 -20.5 -52t-51.5 -21t-51.5 21t-20.5 52q0 30 20.5 51t51.5 21zM361 790q31 0 51.5 -21t20.5 -51q0 -31 -20.5 -52t-51.5 -21q-30 0 -51 21t-21 52q0 30 21 51t51 21zM461 530v-530h-122l-6 67q-54 -83 -143 -83q-64 0 -99.5 42.5 t-35.5 114.5v389h139v-377q0 -65 46 -65t82 66v376h139z" glyph-name="udieresis" unicode="ü" horiz-adv-x="520"/>
<glyph d="M298 822l56 -103l-212 -92l-38 69zM472 530l-153 -531q-58 -202 -266 -219l-15 99q69 11 102.5 37.5t53.5 83.5h-50l-146 530h144l91 -439l99 439h140z" glyph-name="yacute" unicode="ý" horiz-adv-x="470"/>
<glyph d="M327 546q89 0 133.5 -72.5t44.5 -207.5q0 -127 -51 -204.5t-139 -77.5q-73 0 -117 59v-245l-139 -17v960l139 15v-279q52 69 129 69zM275 88q86 0 86 177q0 99 -19.5 138t-58.5 39q-49 0 -85 -65v-240q32 -49 77 -49z" glyph-name="thorn" unicode="þ" horiz-adv-x="541"/>
<glyph d="M178 940l196 -118l-35 -70l-214 84zM442 692l-15 -105h-221v-183h193v-104h-193v-194h236v-106h-380v692h380z" glyph-name="uni0400" unicode="Ѐ" horiz-adv-x="475"/>
<glyph d="M152 916q31 0 51.5 -21t20.5 -51q0 -31 -20.5 -52t-51.5 -21t-51.5 21t-20.5 52q0 30 20.5 51t51.5 21zM359 916q31 0 51.5 -21t20.5 -51q0 -31 -20.5 -52t-51.5 -21q-30 0 -51 21t-21 52q0 30 21 51t51 21zM442 692l-15 -105h-221v-183h193v-104h-193v-194h236v-106 h-380v692h380z" glyph-name="uni0401" unicode="Ё" horiz-adv-x="475"/>
<glyph d="M457 465q91 0 142 -58.5t51 -162.5l-1 -143q0 -112 -51.5 -169.5t-145.5 -91.5l-40 101q55 24 74 57.5t19 97.5v148q0 111 -87 111q-64 0 -104 -51v-304h-144v581h-162v111h476l-15 -111h-155v-173q57 57 143 57z" glyph-name="uni0402" unicode="Ђ" horiz-adv-x="673"/>
<glyph d="M395 836l-213 -84l-36 70l196 119zM460 692l-15 -115h-239v-577h-144v692h398z" glyph-name="uni0403" unicode="Ѓ" horiz-adv-x="461"/>
<glyph d="M447 149l66 -79q-80 -86 -199 -86q-127 0 -203 93t-76 270q0 174 77.5 267.5t203.5 93.5q105 0 190 -74l-70 -82q-55 49 -113 49q-60 0 -98.5 -47.5t-42.5 -146.5h215v-104h-216q4 -106 42 -157t101 -51q58 0 123 54z" glyph-name="uni0404" unicode="Є" horiz-adv-x="520"/>
<glyph d="M258 708q129 0 214 -87l-67 -77q-65 56 -135 56q-41 0 -64.5 -20.5t-23.5 -56.5t24.5 -57t98.5 -48q94 -35 139 -83t45 -136q0 -94 -66.5 -154.5t-179.5 -60.5q-141 0 -235 96l72 80q77 -67 156 -67q49 0 76 26t27 71q0 40 -24.5 64.5t-90.5 48.5q-102 38 -146 86 t-44 124q0 86 63 140.5t161 54.5z" glyph-name="uni0405" unicode="Ѕ" horiz-adv-x="513"/>
<glyph d="M206 692v-692h-144v692h144z" glyph-name="uni0406" unicode="І" horiz-adv-x="268"/>
<glyph d="M33 916q31 0 51.5 -21t20.5 -51q0 -31 -20.5 -52t-51.5 -21t-51.5 21t-20.5 52q0 30 20.5 51t51.5 21zM240 916q31 0 51.5 -21t20.5 -51q0 -31 -20.5 -52t-51.5 -21q-30 0 -51 21t-21 52q0 30 21 51t51 21zM206 692v-692h-144v692h144z" glyph-name="uni0407" unicode="Ї" horiz-adv-x="268"/>
<glyph d="M227 692v-589q0 -60 -15.5 -105t-45 -75t-61.5 -48.5t-76 -34.5l-39 102q58 26 75.5 60.5t17.5 105.5v584h144z" glyph-name="uni0408" unicode="Ј" horiz-adv-x="286"/>
<glyph d="M570 451q121 0 186.5 -55t65.5 -165q0 -117 -67 -174t-184 -57h-199v581h-118l-26 -256q-12 -122 -33 -187.5t-56.5 -99.5t-101.5 -54l-34 104q44 20 60.5 64t30.5 180l37 360h386v-241h53zM563 107q55 0 82 28t27 95q0 61 -27 89.5t-86 28.5h-42v-241h46z" glyph-name="uni0409" unicode="Љ" horiz-adv-x="838"/>
<glyph d="M593 435q117 0 183 -54t66 -158q0 -113 -67 -168t-187 -55h-195v330h-187v-330h-144v692h144v-257h187v257h145v-257h55zM588 107q52 0 78.5 26.5t26.5 87.5q0 57 -26 83t-79 26h-50v-223h50z" glyph-name="uni040A" unicode="Њ" horiz-adv-x="857"/>
<glyph d="M457 465q91 0 142 -58.5t51 -162.5v-244h-145v244q0 111 -86 111q-64 0 -105 -51v-304h-144v581h-162v111h476l-15 -111h-155v-174q56 58 143 58z" glyph-name="uni040B" unicode="Ћ" horiz-adv-x="673"/>
<glyph d="M353 941l53 -105l-213 -84l-36 70zM549 692l-155 -317l172 -375h-155l-138 307h-67v-307h-144v692h144v-277h70l134 277h139z" glyph-name="uni040C" unicode="Ќ" horiz-adv-x="564"/>
<glyph d="M226 940l196 -118l-35 -70l-214 84zM540 692v-692h-139v281q0 122 18 266l-184 -547h-173v692h139v-285q0 -124 -18 -262l185 547h172z" glyph-name="uni040D" unicode="Ѝ" horiz-adv-x="602"/>
<glyph d="M257 753q-68 0 -107.5 38.5t-45.5 104.5l77 14q15 -59 76 -59q63 0 78 59l77 -14q-6 -66 -46 -104.5t-109 -38.5zM532 692l-169 -491q-39 -113 -96.5 -159t-165.5 -58l-18 98q61 10 93 32t53 71h-48l-192 507h146l134 -425l119 425h144z" glyph-name="uni040E" unicode="Ў" horiz-adv-x="516"/>
<glyph d="M534 692v-692h-179v-161h-100l-16 161h-177v692h144v-579h184v579h144z" glyph-name="uni040F" unicode="Џ" horiz-adv-x="596"/>
<glyph d="M397 0l-34 156h-190l-34 -156h-146l190 692h174l189 -692h-149zM197 262h142l-71 323z" glyph-name="uni0410" unicode="А"/>
<glyph d="M271 442q120 0 185 -54t65 -161q0 -114 -67.5 -170.5t-185.5 -56.5h-206v692h387l-15 -111h-228v-139h65zM262 107q55 0 81.5 27.5t26.5 90.5q0 59 -26.5 86.5t-84.5 27.5h-53v-232h56z" glyph-name="uni0411" unicode="Б"/>
<glyph d="M383 366q149 -31 149 -166q0 -200 -273 -200h-197v692h172q272 0 272 -177q0 -59 -34.5 -96.5t-88.5 -52.5zM248 588h-42v-178h52q101 0 101 92q0 46 -26.5 66t-84.5 20zM260 107q61 0 92.5 22t31.5 78q0 105 -116 105h-62v-205h54z" glyph-name="uni0412" unicode="В" horiz-adv-x="557"/>
<glyph d="M460 692l-15 -115h-239v-577h-144v692h398z" glyph-name="uni0413" unicode="Г" horiz-adv-x="461"/>
<glyph d="M498 112h56v-273h-100l-16 161h-328l-16 -161h-100v273h40q28 34 42.5 94.5t31.5 204.5l29 281h361v-580zM359 112v472h-98l-16 -164q-13 -139 -33.5 -203t-61.5 -105h209z" glyph-name="uni0414" unicode="Д" horiz-adv-x="574"/>
<glyph d="M442 692l-15 -105h-221v-183h193v-104h-193v-194h236v-106h-380v692h380z" glyph-name="uni0415" unicode="Е" horiz-adv-x="475"/>
<glyph d="M794 692l-152 -317l168 -375h-154l-130 309h-57v-309h-132v309h-59l-131 -309h-151l168 375l-152 317h141l129 -278h55v278h132v-278h55l131 278h139z" glyph-name="uni0416" unicode="Ж" horiz-adv-x="805"/>
<glyph d="M215 -16q-136 0 -216 97l76 74q61 -61 129 -61q50 0 78.5 28.5t28.5 80.5q0 109 -114 109h-65l17 106h51q46 0 70.5 25t24.5 69q0 40 -20.5 64.5t-63.5 24.5q-63 0 -126 -57l-67 74q88 90 211 90q98 0 155.5 -51t57.5 -130q0 -126 -139 -159q75 -9 117 -52t42 -119 q0 -96 -68.5 -154.5t-178.5 -58.5z" glyph-name="uni0417" unicode="З" horiz-adv-x="486"/>
<glyph d="M540 692v-692h-139v281q0 122 18 266l-184 -547h-173v692h139v-285q0 -124 -18 -262l185 547h172z" glyph-name="uni0418" unicode="И" horiz-adv-x="602"/>
<glyph d="M300 753q-68 0 -107.5 38.5t-45.5 104.5l77 14q15 -59 76 -59q63 0 78 59l77 -14q-6 -66 -46 -104.5t-109 -38.5zM540 692v-692h-139v281q0 122 18 266l-184 -547h-173v692h139v-285q0 -124 -18 -262l185 547h172z" glyph-name="uni0419" unicode="Й" horiz-adv-x="602"/>
<glyph d="M549 692l-155 -317l172 -375h-155l-138 307h-67v-307h-144v692h144v-277h70l134 277h139z" glyph-name="uni041A" unicode="К" horiz-adv-x="564"/>
<glyph d="M131 692h399v-692h-145v581h-130l-26 -256q-12 -122 -33 -187.5t-57 -99.5t-102 -54l-34 104q44 20 60.5 64t30.5 180z" glyph-name="uni041B" unicode="Л" horiz-adv-x="592"/>
<glyph d="M634 692l48 -692h-139l-11 283q-9 177 -5 280l-100 -489h-136l-105 490q5 -129 -1 -285l-11 -279h-138l48 692h181l97 -479l89 479h183z" glyph-name="uni041C" unicode="М" horiz-adv-x="718"/>
<glyph d="M398 0v304h-192v-304h-144v692h144v-274h192v274h144v-692h-144z" glyph-name="uni041D" unicode="Н" horiz-adv-x="604"/>
<glyph d="M315 708q133 0 206 -92.5t73 -269.5q0 -175 -73 -268.5t-206 -93.5t-206.5 92t-73.5 270q0 175 73.5 268.5t206.5 93.5zM315 600q-66 0 -98 -59t-32 -195q0 -137 32.5 -195.5t97.5 -58.5q66 0 97.5 58.5t31.5 195.5q0 136 -31.5 195t-97.5 59z" glyph-name="uni041E" unicode="О" horiz-adv-x="629"/>
<glyph d="M540 692v-692h-144v579h-190v-579h-144v692h478z" glyph-name="uni041F" unicode="П" horiz-adv-x="602"/>
<glyph d="M250 692q131 0 201 -56t70 -166q0 -116 -69 -174.5t-190 -58.5h-56v-237h-144v692h188zM252 343q61 0 91 29t30 97q0 61 -30 90t-92 29h-45v-245h46z" glyph-name="uni0420" unicode="Р"/>
<glyph d="M316 708q107 0 190 -74l-69 -82q-56 47 -113 47q-139 0 -139 -252q0 -250 140 -250q56 0 121 54l67 -81q-80 -86 -196 -86q-129 0 -205.5 93t-76.5 270q0 174 78 267.5t203 93.5z" glyph-name="uni0421" unicode="С" horiz-adv-x="520"/>
<glyph d="M484 692l-15 -112h-155v-580h-144v580h-162v112h476z" glyph-name="uni0422" unicode="Т" horiz-adv-x="485"/>
<glyph d="M532 692l-169 -491q-39 -113 -96.5 -159t-165.5 -58l-18 98q61 10 93 32t53 71h-48l-192 507h146l134 -425l119 425h144z" glyph-name="uni0423" unicode="У" horiz-adv-x="516"/>
<glyph d="M742 350q0 -150 -77.5 -225.5t-213.5 -81.5v-81h-140v82q-137 6 -213.5 81.5t-76.5 221.5q0 151 77 226t213 81v75h140v-75q137 -7 214 -82.5t77 -221.5zM444 135q80 7 115.5 56t35.5 159q0 107 -36.5 157t-114.5 55v-427zM167 347q0 -107 36.5 -156.5t114.5 -54.5v426 q-80 -7 -115.5 -56.5t-35.5 -158.5z" glyph-name="uni0424" unicode="Ф" horiz-adv-x="762"/>
<glyph d="M344 373l180 -373h-154l-113 277l-110 -277h-151l176 368l-162 324h154l95 -234l99 234h150z" glyph-name="uni0425" unicode="Х" horiz-adv-x="520"/>
<glyph d="M534 112h72v-273h-100l-16 161h-428v692h144v-579h184v579h144v-580z" glyph-name="uni0426" unicode="Ц" horiz-adv-x="617"/>
<glyph d="M354 692h144v-692h-144v262q-62 -55 -142 -55q-87 0 -139 57t-52 156v272h143v-265q0 -59 22 -84.5t66 -25.5q62 0 102 43v332z" glyph-name="uni0427" unicode="Ч" horiz-adv-x="560"/>
<glyph d="M761 692v-692h-699v692h141v-579h141v579h135v-579h141v579h141z" glyph-name="uni0428" unicode="Ш" horiz-adv-x="823"/>
<glyph d="M761 112h72v-273h-100l-16 161h-655v692h141v-579h141v579h135v-579h141v579h141v-580z" glyph-name="uni0429" unicode="Щ" horiz-adv-x="844"/>
<glyph d="M377 451q121 0 186.5 -55t65.5 -165q0 -117 -66.5 -174t-185.5 -57h-207v581h-162v111h307l-1 -1v-240h63zM370 107q55 0 81.5 28t26.5 95q0 62 -27 90t-85 28h-52v-241h56z" glyph-name="uni042A" unicode="Ъ" horiz-adv-x="645"/>
<glyph d="M259 451q123 0 188 -55t65 -165q0 -117 -67 -174t-184 -57h-199v692h144v-241h53zM562 692h144v-692h-144v692zM252 107q55 0 82 28t27 95q0 62 -27 90t-85 28h-43v-241h46z" glyph-name="uni042B" unicode="Ы" horiz-adv-x="768"/>
<glyph d="M269 451q121 0 186.5 -55t65.5 -165q0 -117 -66.5 -174t-185.5 -57h-207v692h144v-241h63zM262 107q55 0 81.5 28t26.5 95q0 62 -27 90t-85 28h-52v-241h56z" glyph-name="uni042C" unicode="Ь" horiz-adv-x="536"/>
<glyph d="M206 708q250 0 250 -358q0 -180 -69 -273t-194 -93q-107 0 -186 79l66 79q57 -47 113 -47q59 0 89.5 49.5t33.5 158.5h-212v104h212q-4 104 -32.5 149t-80.5 45q-58 0 -116 -49l-68 80q84 76 194 76z" glyph-name="uni042D" unicode="Э" horiz-adv-x="490"/>
<glyph d="M537 708q130 0 200.5 -92t70.5 -270q0 -175 -71 -268.5t-200 -93.5q-121 0 -188 81t-77 237h-66v-302h-144v692h144v-277h69q35 293 262 293zM537 92q62 0 91.5 58.5t29.5 195.5t-29.5 195.5t-91.5 58.5q-61 0 -90.5 -59.5t-29.5 -197.5q0 -135 29.5 -193t90.5 -58z" glyph-name="uni042E" unicode="Ю" horiz-adv-x="843"/>
<glyph d="M292 692h200v-692h-144v256h-79l-106 -256h-155l135 283q-111 50 -111 190q0 219 260 219zM282 359h66v230h-51q-60 0 -88 -29t-28 -90q0 -111 101 -111z" glyph-name="uni042F" unicode="Я" horiz-adv-x="554"/>
<glyph d="M435 140q0 -28 7.5 -41t25.5 -21l-29 -92q-87 9 -114 75q-49 -77 -143 -77q-71 0 -113.5 45.5t-42.5 118.5q0 86 58 132t167 46h47v30q0 49 -18.5 68.5t-61.5 19.5q-52 0 -127 -28l-31 91q92 39 181 39q194 0 194 -183v-223zM222 84q49 0 76 58v105h-33q-101 0 -101 -87 q0 -76 58 -76z" glyph-name="uni0430" unicode="а" horiz-adv-x="496"/>
<glyph d="M311 494q78 0 128.5 -64t50.5 -181q0 -128 -61 -196.5t-166 -68.5q-229 0 -229 311q0 174 42 259t155 126q86 32 156 73l52 -88q-56 -38 -153 -75q-60 -23 -85.5 -59.5t-34.5 -122.5q51 86 145 86zM262 88q41 0 62 32.5t21 123.5q0 83 -18 114.5t-55 31.5q-63 0 -94 -77 v-65q0 -160 84 -160z" glyph-name="uni0431" unicode="б" horiz-adv-x="523"/>
<glyph d="M347 290q126 -15 126 -130q0 -80 -58 -120t-158 -40h-198v525q112 21 188 21q95 0 149.5 -38t54.5 -106q0 -89 -104 -112zM245 454q-21 0 -47 -3v-131h52q66 0 66 68q0 36 -17.5 51t-53.5 15zM255 93q37 0 56.5 17t19.5 59q0 40 -18 56.5t-57 16.5h-58v-149h57z" glyph-name="uni0432" unicode="в" horiz-adv-x="507"/>
<glyph d="M198 0h-139v530h336l-16 -107h-181v-423z" glyph-name="uni0433" unicode="г" horiz-adv-x="392"/>
<glyph d="M440 104h51v-265h-96l-16 161h-269l-16 -161h-96v265h33q25 21 38.5 64t21.5 161l14 201h335v-426zM310 104v331h-85l-7 -95q-8 -110 -26 -159.5t-58 -76.5h176z" glyph-name="uni0434" unicode="д" horiz-adv-x="506"/>
<glyph d="M475 277q0 -31 -3 -54h-298q6 -75 33 -105t75 -30q58 0 118 45l57 -78q-81 -71 -185 -71q-116 0 -177 73.5t-61 204.5q0 128 58.5 206t164.5 78q103 0 160.5 -69.5t57.5 -199.5zM339 310v7q0 134 -80 134q-39 0 -60 -32t-25 -109h165z" glyph-name="uni0435" unicode="е" horiz-adv-x="504"/>
<glyph d="M660 530l-110 -247l121 -283h-137l-93 231h-44v-231h-122v231h-44l-93 -231h-137l122 283l-111 247h128l89 -211h46v211h122v-211h46l91 211h126z" glyph-name="uni0436" unicode="ж" horiz-adv-x="672"/>
<glyph d="M208 546q80 0 133 -40t53 -106q0 -88 -109 -117q67 -11 100 -41.5t33 -87.5q0 -83 -60.5 -126.5t-159.5 -43.5q-116 0 -195 65l66 77q59 -40 121 -40q84 0 84 74q0 36 -23 51.5t-69 15.5h-67l8 93h48q82 0 82 67q0 60 -67 60q-52 0 -104 -35l-64 73q79 61 190 61z" glyph-name="uni0437" unicode="з" horiz-adv-x="451"/>
<glyph d="M477 530v-530h-130v203q0 105 21 189l-167 -392h-142v530h130v-204q0 -112 -19 -188l164 392h143z" glyph-name="uni0438" unicode="и" horiz-adv-x="536"/>
<glyph d="M267 636q-68 0 -107.5 38.5t-45.5 104.5l77 14q15 -59 76 -59q63 0 78 59l77 -14q-6 -66 -46 -104.5t-109 -38.5zM477 530v-530h-130v203q0 105 21 189l-167 -392h-142v530h130v-204q0 -112 -19 -188l164 392h143z" glyph-name="uni0439" unicode="й" horiz-adv-x="536"/>
<glyph d="M484 530l-127 -246l139 -284h-145l-108 232h-45v-232h-139v530h139v-209h48l107 209h131z" glyph-name="uni043A" unicode="к" horiz-adv-x="493"/>
<glyph d="M100 530h356v-530h-139v426h-95l-11 -146q-11 -157 -40.5 -211t-123.5 -81l-34 102q40 18 52 51t19 147z" glyph-name="uni043B" unicode="л" horiz-adv-x="515"/>
<glyph d="M540 530l42 -530h-131l-11 208q-4 72 1 199l-79 -352h-116l-77 351q6 -102 3 -198l-10 -208h-130l41 530h164l67 -353l70 353h166z" glyph-name="uni043C" unicode="м" horiz-adv-x="614"/>
<glyph d="M334 0v218h-136v-218h-139v530h139v-209h136v209h139v-530h-139z" glyph-name="uni043D" unicode="н" horiz-adv-x="532"/>
<glyph d="M267 546q109 0 170.5 -72.5t61.5 -208.5q0 -131 -62 -206t-171 -75t-170.5 73t-61.5 208q0 133 61.5 207t171.5 74zM267 442q-45 0 -67 -42t-22 -135q0 -95 21.5 -136t66.5 -41t67 42t22 135q0 94 -21.5 135.5t-66.5 41.5z" glyph-name="uni043E" unicode="о" horiz-adv-x="533"/>
<glyph d="M331 0v426h-133v-426h-139v530h411v-530h-139z" glyph-name="uni043F" unicode="п" horiz-adv-x="529"/>
<glyph d="M328 546q88 0 132.5 -72.5t44.5 -207.5q0 -127 -51 -204.5t-139 -77.5q-72 0 -117 56v-244l-139 -15v749h123l7 -61q54 77 139 77zM275 88q86 0 86 177q0 98 -19.5 137.5t-57.5 39.5q-50 0 -86 -65v-240q32 -49 77 -49z" glyph-name="uni0440" unicode="р" horiz-adv-x="541"/>
<glyph d="M268 546q92 0 161 -63l-60 -80q-46 35 -91 35q-49 0 -73.5 -40.5t-24.5 -135.5q0 -92 25 -129.5t72 -37.5q42 0 91 34l61 -83q-70 -62 -159 -62q-111 0 -173.5 72t-62.5 205q0 131 63.5 208t170.5 77z" glyph-name="uni0441" unicode="с" horiz-adv-x="434"/>
<glyph d="M430 530l-17 -104h-131v-426h-139v426h-140v104h427z" glyph-name="uni0442" unicode="т" horiz-adv-x="425"/>
<glyph d="M472 530l-153 -531q-58 -202 -266 -219l-15 99q69 11 102.5 37.5t53.5 83.5h-50l-146 530h144l91 -439l99 439h140z" glyph-name="uni0443" unicode="у" horiz-adv-x="470"/>
<glyph d="M554 546q166 0 166 -281q0 -132 -46 -206.5t-124 -74.5q-61 0 -107 55v-243l-131 -15v258q-44 -55 -109 -55q-76 0 -121.5 75t-45.5 206q0 135 43.5 208t126.5 73q65 0 106 -52v262l131 -15v-249q43 54 111 54zM244 87q39 0 68 45v269q-30 42 -67 42q-34 0 -51 -40.5 t-17 -137.5q0 -178 67 -178zM512 87q33 0 49.5 41t16.5 137q0 98 -15.5 138t-49.5 40q-40 0 -70 -44v-267q28 -45 69 -45z" glyph-name="uni0444" unicode="ф" horiz-adv-x="756"/>
<glyph d="M314 284l156 -284h-152l-90 206l-87 -206h-148l155 279l-140 251h150l74 -178l70 178h144z" glyph-name="uni0445" unicode="х" horiz-adv-x="463"/>
<glyph d="M464 104h72v-265h-96l-16 161h-365v530h139v-425h127v425h139v-426z" glyph-name="uni0446" unicode="ц" horiz-adv-x="537"/>
<glyph d="M301 530h139v-530h-139v205q-56 -53 -132 -53q-67 0 -103 40.5t-36 112.5v225h139v-210q0 -64 50 -64q49 0 82 39v235z" glyph-name="uni0447" unicode="ч" horiz-adv-x="499"/>
<glyph d="M649 530v-530h-590v530h133v-426h103v426h119v-426h103v426h132z" glyph-name="uni0448" unicode="ш" horiz-adv-x="708"/>
<glyph d="M649 104h72v-265h-96l-16 161h-550v530h133v-426h103v426h119v-426h103v426h132v-426z" glyph-name="uni0449" unicode="щ" horiz-adv-x="722"/>
<glyph d="M315 363q117 0 171 -46t54 -135q0 -91 -56.5 -136.5t-152.5 -45.5h-188v430h-140v100h279v-167h33zM322 94q77 0 77 90q0 47 -18 67.5t-64 20.5h-35v-178h40z" glyph-name="uni044A" unicode="ъ" horiz-adv-x="556"/>
<glyph d="M225 363q222 0 222 -181q0 -91 -56 -136.5t-153 -45.5h-179v530h139v-167h27zM491 530h139v-530h-139v530zM231 94q39 0 58 21t19 69q0 47 -18 67.5t-64 20.5h-28v-178h33z" glyph-name="uni044B" unicode="ы" horiz-adv-x="690"/>
<glyph d="M231 363q117 0 171 -46t54 -135q0 -91 -56.5 -136.5t-152.5 -45.5h-188v530h139v-167h33zM238 94q77 0 77 90q0 47 -18 67.5t-64 20.5h-35v-178h40z" glyph-name="uni044C" unicode="ь" horiz-adv-x="472"/>
<glyph d="M192 546q102 0 159 -69t57 -207q0 -137 -60.5 -211.5t-172.5 -74.5q-94 0 -163 60l61 79q50 -35 96 -35q91 0 99 140h-173v85h173q-4 71 -25.5 100.5t-60.5 29.5q-52 0 -99 -36l-59 78q72 61 168 61z" glyph-name="uni044D" unicode="э" horiz-adv-x="441"/>
<glyph d="M477 546q101 0 160.5 -72.5t59.5 -208.5q0 -129 -59.5 -205t-160.5 -76q-92 0 -147.5 61t-68.5 175h-63v-220h-139v530h139v-211h64q14 108 68.5 167.5t146.5 59.5zM477 88q43 0 61 41.5t18 135.5q0 93 -19 134.5t-60 41.5t-59.5 -40t-18.5 -136q0 -93 19 -135t59 -42z " glyph-name="uni044E" unicode="ю" horiz-adv-x="730"/>
<glyph d="M265 530h179v-530h-139v190h-65l-87 -190h-145l110 224q-76 42 -76 136q0 83 57 126.5t166 43.5zM261 277h44v161h-41q-81 0 -81 -79q0 -42 18.5 -62t59.5 -20z" glyph-name="uni044F" unicode="я" horiz-adv-x="503"/>
<glyph d="M392 696l-39 -69l-211 92l56 103zM475 277q0 -31 -3 -54h-298q6 -75 33 -105t75 -30q58 0 118 45l57 -78q-81 -71 -185 -71q-116 0 -177 73.5t-61 204.5q0 128 58.5 206t164.5 78q103 0 160.5 -69.5t57.5 -199.5zM339 310v7q0 134 -80 134q-39 0 -60 -32t-25 -109h165z " glyph-name="uni0450" unicode="ѐ" horiz-adv-x="504"/>
<glyph d="M154 645q-31 0 -51.5 21t-20.5 52q0 30 20.5 51t51.5 21t51.5 -21t20.5 -51q0 -31 -20.5 -52t-51.5 -21zM361 645q-30 0 -51 21t-21 52q0 30 21 51t51 21q31 0 51.5 -21t20.5 -51q0 -31 -20.5 -52t-51.5 -21zM475 277q0 -31 -3 -54h-298q6 -75 33 -105t75 -30 q58 0 118 45l57 -78q-81 -71 -185 -71q-116 0 -177 73.5t-61 204.5q0 128 58.5 206t164.5 78q103 0 160.5 -69.5t57.5 -199.5zM339 310v7q0 134 -80 134q-39 0 -60 -32t-25 -109h165z" glyph-name="uni0451" unicode="ё" horiz-adv-x="504"/>
<glyph d="M340 546q63 0 98.5 -42.5t35.5 -118.5v-333q0 -115 -47 -173t-143 -98l-46 101q52 27 74.5 59t22.5 102v323q0 75 -45 75q-44 0 -86 -73v-368h-139v600h-56v85h56v56l139 14v-70h122v-85h-122v-130q57 76 136 76z" glyph-name="uni0452" unicode="ђ" horiz-adv-x="530"/>
<glyph d="M291 822l56 -103l-212 -92l-38 69zM198 0h-139v530h336l-16 -107h-181v-423z" glyph-name="uni0453" unicode="ѓ" horiz-adv-x="392"/>
<glyph d="M277 89q44 0 92 35l61 -78q-70 -62 -159 -62q-112 0 -174.5 72t-62.5 205q0 131 63.5 208t170.5 77q93 0 162 -63l-59 -76q-50 36 -94 36q-95 0 -102 -130h173v-85h-174q5 -139 103 -139z" glyph-name="uni0454" unicode="є" horiz-adv-x="442"/>
<glyph d="M224 546q103 0 175 -64l-52 -77q-61 40 -115 40q-31 0 -47.5 -13.5t-16.5 -36.5q0 -24 19.5 -39t80.5 -36q75 -25 111.5 -63t36.5 -103q0 -79 -60 -124.5t-151 -45.5q-119 0 -198 76l67 75q64 -50 126 -50q34 0 54 15.5t20 43.5q0 30 -19.5 46t-83.5 38q-74 25 -107.5 63 t-33.5 96q0 69 53 114t141 45z" glyph-name="uni0455" unicode="ѕ" horiz-adv-x="435"/>
<glyph d="M129 801q36 0 59.5 -23t23.5 -58t-23.5 -58.5t-59.5 -23.5t-59.5 23.5t-23.5 58.5t23.5 58t59.5 23zM198 530v-530h-139v530h139z" glyph-name="uni0456" unicode="і" horiz-adv-x="258"/>
<glyph d="M25 790q31 0 51.5 -21t20.5 -51q0 -31 -20.5 -52t-51.5 -21t-51.5 21t-20.5 52q0 30 20.5 51t51.5 21zM232 790q31 0 51.5 -21t20.5 -51q0 -31 -20.5 -52t-51.5 -21q-30 0 -51 21t-21 52q0 30 21 51t51 21zM198 530v-530h-139v530h139z" glyph-name="uni0457" unicode="ї" horiz-adv-x="258"/>
<glyph d="M129 801q36 0 59.5 -23t23.5 -58t-23.5 -58.5t-59.5 -23.5t-59.5 23.5t-23.5 58.5t23.5 58t59.5 23zM198 530v-489q0 -107 -47.5 -163.5t-142.5 -96.5l-46 101q52 27 74.5 58t22.5 96v494h139z" glyph-name="uni0458" unicode="ј" horiz-adv-x="257"/>
<glyph d="M476 363q118 0 172 -45.5t54 -135.5q0 -91 -56.5 -136.5t-153.5 -45.5h-180v426h-89l-12 -146q-12 -157 -41.5 -211.5t-122.5 -80.5l-34 102q40 18 52 51t19 147l16 242h351v-167h25zM483 94q39 0 58 21t19 69q0 47 -18 67.5t-63 20.5h-28v-178h32z" glyph-name="uni0459" unicode="љ" horiz-adv-x="718"/>
<glyph d="M497 341q223 0 223 -170q0 -84 -56.5 -127.5t-152.5 -43.5h-178v244h-135v-244h-139v530h139v-189h135v189h139v-189h25zM505 94q39 0 58.5 18.5t19.5 60.5q0 40 -18.5 58.5t-64.5 18.5h-28v-156h33z" glyph-name="uni045A" unicode="њ" horiz-adv-x="736"/>
<glyph d="M341 546q62 0 98 -42t36 -113v-391h-139v372q0 69 -46 69q-44 0 -86 -73v-368h-139v600h-56v85h56v56l139 14v-70h120v-85h-120v-131q57 77 137 77z" glyph-name="uni045B" unicode="ћ" horiz-adv-x="530"/>
<glyph d="M319 822l56 -103l-212 -92l-38 69zM484 530l-127 -246l139 -284h-145l-108 232h-45v-232h-139v530h139v-209h48l107 209h131z" glyph-name="uni045C" unicode="ќ" horiz-adv-x="493"/>
<glyph d="M208 822l194 -126l-39 -69l-211 92zM477 530v-530h-130v203q0 105 21 189l-167 -392h-142v530h130v-204q0 -112 -19 -188l164 392h143z" glyph-name="uni045D" unicode="ѝ" horiz-adv-x="536"/>
<glyph d="M234 636q-68 0 -107.5 38.5t-45.5 104.5l77 14q15 -59 76 -59q63 0 78 59l77 -14q-6 -66 -46 -104.5t-109 -38.5zM472 530l-153 -531q-58 -202 -266 -219l-15 99q69 11 102.5 37.5t53.5 83.5h-50l-146 530h144l91 -439l99 439h140z" glyph-name="uni045E" unicode="ў" horiz-adv-x="470"/>
<glyph d="M464 530v-530h-144v-161h-96l-16 161h-149v530h139v-425h127v425h139z" glyph-name="uni045F" unicode="џ" horiz-adv-x="524"/>
<glyph d="M683 692q71 -179 71 -391q0 -317 -201 -317q-124 0 -154 119q-30 -119 -149 -119q-103 0 -154 74.5t-51 242.5q0 210 70 391h135q-61 -197 -61 -384q0 -121 18 -168.5t61 -47.5q60 0 60 82v224h143v-224q0 -82 62 -82q41 0 59 45t18 170q0 191 -66 385h139z" glyph-name="uni0460" unicode="Ѡ" horiz-adv-x="799"/>
<glyph d="M608 530q56 -138 56 -289q0 -130 -48 -193.5t-129 -63.5q-115 0 -137 113q-13 -59 -46 -86t-90 -27q-83 0 -130 63t-47 194q0 152 56 289h126q-46 -165 -46 -284q0 -86 15 -122t47 -36q26 0 39 18.5t13 69.5v179l127 17v-196q0 -88 51 -88q31 0 47 34t16 125 q0 120 -47 283h127z" glyph-name="uni0461" unicode="ѡ" horiz-adv-x="701"/>
<glyph d="M333 442q121 0 186.5 -54.5t65.5 -160.5q0 -114 -66.5 -170.5t-184.5 -56.5h-208v521h-126v91h126v80h145v-80h140v-91h-140v-79h62zM326 107q55 0 82 27t27 91q0 59 -27 86.5t-86 27.5h-51v-232h55z" glyph-name="uni0462" unicode="Ѣ" horiz-adv-x="601"/>
<glyph d="M235 363q228 0 228 -181q0 -91 -56.5 -136.5t-159.5 -45.5h-180v462h-58v85h58v107l139 15v-122h119l-11 -85h-108v-99h29zM242 94q40 0 60 20.5t20 69.5q0 47 -19 67.5t-63 20.5h-34v-178h36z" glyph-name="uni0463" unicode="ѣ" horiz-adv-x="479"/>
<glyph d="M687 149l66 -79q-80 -86 -199 -86q-118 0 -192.5 81t-84.5 235h-71v-300h-144v692h144v-282h72q14 144 89.5 221t188.5 77q105 0 190 -74l-70 -82q-55 49 -113 49q-60 0 -98.5 -47.5t-42.5 -146.5h215v-104h-216q4 -106 42 -157t101 -51q58 0 123 54z" glyph-name="uni0464" unicode="Ѥ" horiz-adv-x="760"/>
<glyph d="M506 89q44 0 92 35l61 -78q-70 -62 -159 -62q-103 0 -164.5 61.5t-70.5 175.5h-67v-221h-139v530h139v-212h68q14 107 75 167.5t156 60.5q93 0 162 -63l-59 -76q-50 36 -94 36q-95 0 -102 -130h173v-85h-174q5 -139 103 -139z" glyph-name="uni0465" unicode="ѥ" horiz-adv-x="671"/>
<glyph d="M450 0l-72 269h-33v-269h-104v269h-37l-71 -269h-140l215 692h171l212 -692h-141zM231 371h120l-60 226z" glyph-name="uni0466" unicode="Ѧ" horiz-adv-x="585"/>
<glyph d="M390 0l-57 193h-30v-193h-92v193h-29l-56 -193h-128l184 530h155l183 -530h-130zM208 282h99l-50 170z" glyph-name="uni0467" unicode="ѧ" horiz-adv-x="518"/>
<glyph d="M694 0l-72 269h-33v-269h-104v269h-37l-71 -269h-140l83 268h-114v-269h-144v693h144v-321h146l100 321h171l212 -692h-141zM475 371h120l-60 226z" glyph-name="uni0468" unicode="Ѩ" horiz-adv-x="829"/>
<glyph d="M586 0l-54 199h-25v-199h-87v199h-23l-53 -199h-123l62 199h-85v-199h-139v530h139v-242h113l76 242h155l166 -530h-122zM420 288h87l-44 163z" glyph-name="uni0469" unicode="ѩ" horiz-adv-x="706"/>
<glyph d="M573 386l157 -386h-146l-102 284h-53v-284h-131v284h-53l-104 -284h-145l157 386h81l-140 216v90h539v-90l-143 -216h83zM243 594l122 -208l120 208h-242z" glyph-name="uni046A" unicode="Ѫ" horiz-adv-x="726"/>
<glyph d="M494 308l118 -308h-126l-74 217h-46v-217h-119v217h-46l-74 -217h-126l118 308h75l-103 161v61h426v-61l-104 -161h81zM225 447l80 -139l79 139h-159z" glyph-name="uni046B" unicode="ѫ" horiz-adv-x="613"/>
<glyph d="M758 388l117 -388h-143l-68 283h-43v-283h-130v283h-43l-67 -283h-145l85 282h-115v-282h-144v692h144v-304h219l-121 214v90h503v-90l-124 -214h75zM665 595h-217l109 -207z" glyph-name="uni046C" unicode="Ѭ" horiz-adv-x="871"/>
<glyph d="M660 307l74 -307h-119l-42 216h-36v-216h-117v216h-35l-42 -216h-119l51 216h-77v-216h-139v530h139v-223h163l-92 162v61h410v-61l-93 -162h74zM401 447l74 -140l73 140h-147z" glyph-name="uni046D" unicode="ѭ" horiz-adv-x="735"/>
<glyph d="M263 751h-85l-127 126l50 55l119 -83l120 83l50 -55zM247 386q99 -1 150.5 -53.5t51.5 -147.5q0 -175 -186 -215q-66 -14 -85.5 -24t-19.5 -30q0 -30 47 -57l-33 -79q-143 53 -143 151q0 54 36.5 84t114.5 46q67 13 93.5 41t26.5 85q0 59 -27 85.5t-84 26.5h-92v84 l168 202h-243v107h395v-104l-171 -202h1z" glyph-name="uni046E" unicode="Ѯ" horiz-adv-x="472"/>
<glyph d="M333 804l50 -56l-127 -132h-85l-127 132l50 56l119 -91zM167 -220q-142 53 -142 148q0 52 37 83t115 45q65 13 90.5 30t25.5 53q0 54 -73 54h-120v80l151 156h-231v101h386v-93l-162 -159h26q78 0 122 -37.5t44 -105.5q0 -75 -48 -114t-131 -55q-63 -13 -83 -23.5 t-20 -29.5q0 -28 47 -54z" glyph-name="uni046F" unicode="ѯ" horiz-adv-x="456"/>
<glyph d="M497 692h138v-270q0 -104 -60 -163.5t-177 -72.5v-186h-144v185q-236 28 -236 235v272h138v-273q0 -62 24 -92.5t81 -39.5v405h131v-404q55 9 80 40t25 91v273z" glyph-name="uni0470" unicode="Ѱ" horiz-adv-x="653"/>
<glyph d="M663 249q0 -123 -64.5 -188t-179.5 -75v-190l-132 -15v204q-118 9 -178 64t-60 143v338h137v-330q0 -51 23.5 -79t77.5 -35v444h132v-443q107 16 107 167q0 122 -23 276h134q26 -144 26 -281z" glyph-name="uni0471" unicode="ѱ" horiz-adv-x="704"/>
<glyph d="M315 708q133 0 206 -92.5t73 -269.5q0 -175 -73 -268.5t-206 -93.5t-206.5 92t-73.5 270q0 175 73.5 268.5t206.5 93.5zM315 600q-61 0 -94.5 -48.5t-39.5 -157.5h267q-6 109 -39 157.5t-94 48.5zM315 92q63 0 96 50t37 166h-267q4 -115 37.5 -165.5t96.5 -50.5z" glyph-name="uni0472" unicode="Ѳ" horiz-adv-x="629"/>
<glyph d="M267 546q109 0 170.5 -72.5t61.5 -208.5q0 -131 -62 -206t-171 -75t-170.5 73t-61.5 208q0 133 61.5 207t171.5 74zM267 444q-42 0 -65 -31.5t-28 -101.5h184q-8 133 -91 133zM266 86q43 0 66 33.5t27 108.5h-186q4 -76 26.5 -109t66.5 -33z" glyph-name="uni0473" unicode="ѳ" horiz-adv-x="533"/>
<glyph d="M174 0l-181 692h149l124 -572l88 436q27 152 153 152q61 0 111 -38l-41 -81q-23 16 -47 16q-19 0 -30.5 -12.5t-18.5 -42.5l-128 -550h-179z" glyph-name="uni0474" unicode="Ѵ" horiz-adv-x="580"/>
<glyph d="M427 445l-110 -445h-165l-154 530h147l91 -421l75 346q13 67 42.5 97t84.5 30q38 0 75 -16l-25 -90q-12 5 -26 5q-25 0 -35 -36z" glyph-name="uni0475" unicode="ѵ" horiz-adv-x="476"/>
<glyph d="M145 977l86 -190l-70 -33l-109 174zM302 977l78 -189l-72 -30l-101 172zM174 0l-181 692h149l124 -572l88 436q27 152 153 152q61 0 111 -38l-41 -81q-23 16 -47 16q-19 0 -30.5 -12.5t-18.5 -42.5l-128 -550h-179z" glyph-name="uni0476" unicode="Ѷ" horiz-adv-x="580"/>
<glyph d="M124 851l86 -190l-70 -33l-109 174zM281 851l78 -189l-72 -30l-101 172zM427 445l-110 -445h-165l-154 530h147l91 -421l75 346q13 67 42.5 97t84.5 30q38 0 75 -16l-25 -90q-12 5 -26 5q-25 0 -35 -36z" glyph-name="uni0477" unicode="ѷ" horiz-adv-x="476"/>
<glyph d="M315 708q133 0 206 -92.5t73 -269.5q0 -175 -73 -268.5t-206 -93.5t-206.5 92t-73.5 270q0 175 73.5 268.5t206.5 93.5zM315 600q-66 0 -98 -59t-32 -195q0 -137 32.5 -195.5t97.5 -58.5q66 0 97.5 58.5t31.5 195.5q0 136 -31.5 195t-97.5 59zM1101 530l-153 -531 q-58 -202 -266 -219l-15 99q69 11 102.5 37.5t53.5 83.5h-50l-146 530h144l91 -439l99 439h140z" glyph-name="uni0478" unicode="Ѹ" horiz-adv-x="1099"/>
<glyph d="M267 546q109 0 170.5 -72.5t61.5 -208.5q0 -131 -62 -206t-171 -75t-170.5 73t-61.5 208q0 133 61.5 207t171.5 74zM998 530l-153 -531q-58 -202 -266 -219l-15 99q69 11 102.5 37.5t53.5 83.5h-50l-146 530h144l91 -439l99 439h140zM267 442q-45 0 -67 -42t-22 -135 q0 -95 21.5 -136t66.5 -41t67 42t22 135q0 94 -21.5 135.5t-66.5 41.5z" glyph-name="uni0479" unicode="ѹ" horiz-adv-x="996"/>
<glyph d="M300 753q-68 0 -107.5 38.5t-45.5 104.5l77 14q15 -59 76 -59q63 0 78 59l77 -14q-6 -66 -46 -104.5t-109 -38.5zM540 112h104l-82 -273h-100l34 161h-95v281q0 122 18 266l-184 -547h-173v692h139v-285q0 -124 -18 -262l185 547h172v-580z" glyph-name="uni048A" unicode="Ҋ" horiz-adv-x="632"/>
<glyph d="M267 636q-68 0 -107.5 38.5t-45.5 104.5l77 14q15 -59 76 -59q63 0 78 59l77 -14q-6 -66 -46 -104.5t-109 -38.5zM477 104h100l-78 -265h-96l34 161h-90v203q0 105 21 189l-167 -392h-142v530h130v-204q0 -112 -19 -188l164 392h143v-426z" glyph-name="uni048B" unicode="ҋ" horiz-adv-x="563"/>
<glyph d="M282 443q121 0 186.5 -54.5t65.5 -161.5q0 -114 -67 -170.5t-185 -56.5h-207v522h-60v89h60v81h144v-81h115v-89h-115v-79h63zM275 107q54 0 81 27.5t27 91.5q0 59 -27 87t-85 28h-52v-234h56z" glyph-name="uni048C" unicode="Ҍ" horiz-adv-x="549"/>
<glyph d="M240 343q228 0 228 -171q0 -85 -57 -128.5t-159 -43.5h-180v396h-58v86h58v48h139v-48h119l-11 -86h-108v-53h29zM247 94q80 0 80 80q0 40 -19.5 59.5t-63.5 19.5h-33v-159h36z" glyph-name="uni048D" unicode="ҍ" horiz-adv-x="484"/>
<glyph d="M521 470q0 -146 -111 -202l52 -100h-69l-42 79q-39 -10 -89 -10h-58v-237h-142v692h188q131 0 201 -56t70 -166zM252 338q30 0 49 4l-72 137h70l56 -106q22 29 22 96q0 62 -30 90.5t-96 28.5h-47v-250h48z" glyph-name="uni048E" unicode="Ҏ"/>
<glyph d="M505 266q0 -88 -26.5 -154.5t-73.5 -99.5l55 -104h-69l-42 80q-15 -4 -34 -4q-71 0 -117 54v-242l-139 -15v749h123l7 -61q54 77 138 77q89 0 133.5 -72.5t44.5 -207.5zM277 79q9 0 23 2l-72 138h69l49 -94q17 43 17 140q0 99 -19.5 138t-60.5 39q-49 0 -85 -65v-249 q32 -49 79 -49z" glyph-name="uni048F" unicode="ҏ" horiz-adv-x="541"/>
<glyph d="M327 833h133v-141l-15 -115h-239v-577h-144v692h265v141z" glyph-name="uni0490" unicode="Ґ" horiz-adv-x="461"/>
<glyph d="M269 678h126v-148l-16 -107h-181v-423h-139v530h210v148z" glyph-name="uni0491" unicode="ґ" horiz-adv-x="392"/>
<glyph d="M453 577h-239v-155h129v-91h-129v-331h-144v331h-71v91h71v270h398z" glyph-name="uni0492" unicode="Ғ" horiz-adv-x="469"/>
<glyph d="M389 423h-181v-117h98v-83h-98v-223h-139v223h-57v83h57v224h336z" glyph-name="uni0493" unicode="ғ" horiz-adv-x="402"/>
<glyph d="M349 450q91 0 142 -58t51 -162v-278q0 -84 -48 -127.5t-129 -43.5q-73 0 -127 41l50 84q32 -19 62 -19q48 0 48 57v56h-1v229q0 112 -87 112q-63 0 -104 -51v-290h-144v692h387l-15 -111h-228v-189q56 58 143 58z" glyph-name="uni0494" unicode="Ҕ" horiz-adv-x="565"/>
<glyph d="M335 351q62 0 98 -42.5t36 -119.5v-239q0 -82 -47.5 -125.5t-125.5 -43.5q-76 0 -128 41l49 80q31 -18 62 -18q51 0 51 57v230q0 75 -45 75q-42 0 -87 -64v-182h-139v530h336l-16 -101h-181v-146q57 68 137 68z" glyph-name="uni0495" unicode="ҕ" horiz-adv-x="500"/>
<glyph d="M760 112h60v-273h-100l-16 161h-48l-130 309h-57v-309h-132v309h-59l-131 -309h-151l168 375l-152 317h141l129 -278h55v278h132v-278h55l131 278h139l-152 -317z" glyph-name="uni0496" unicode="Җ" horiz-adv-x="810"/>
<glyph d="M627 104h57v-265h-96l-16 161h-38l-93 231h-44v-231h-122v231h-44l-93 -231h-137l122 283l-111 247h128l89 -211h46v211h122v-211h46l91 211h126l-110 -247z" glyph-name="uni0497" unicode="җ" horiz-adv-x="676"/>
<glyph d="M462 197q0 -82 -51.5 -138t-137.5 -70q77 -48 77 -121q0 -56 -37 -88.5t-96 -32.5q-54 0 -97 26l29 69q25 -14 54 -14q51 0 51 52q0 61 -60 105q-120 6 -195 96l76 74q61 -61 129 -61q50 0 78.5 28.5t28.5 80.5q0 109 -114 109h-65l17 106h51q46 0 70.5 25t24.5 69 q0 40 -20.5 64.5t-63.5 24.5q-63 0 -126 -57l-67 74q88 90 211 90q98 0 155.5 -51t57.5 -130q0 -126 -139 -159q75 -9 117 -52t42 -119z" glyph-name="uni0498" unicode="Ҙ" horiz-adv-x="486"/>
<glyph d="M418 154q0 -70 -44 -112.5t-120 -53.5q75 -48 75 -120q0 -56 -37 -88.5t-96 -32.5q-54 0 -97 26l29 69q24 -14 54 -14q51 0 51 52q0 61 -60 105q-99 6 -170 64l66 77q59 -40 121 -40q84 0 84 74q0 36 -23 51.5t-69 15.5h-67l8 93h48q82 0 82 67q0 60 -67 60 q-52 0 -104 -35l-64 73q79 61 190 61q80 0 133 -40t53 -106q0 -88 -109 -117q67 -11 100 -41.5t33 -87.5z" glyph-name="uni0499" unicode="ҙ" horiz-adv-x="451"/>
<glyph d="M515 112h61v-273h-100l-16 161h-49l-138 307h-67v-307h-144v692h144v-277h70l134 277h139l-155 -317z" glyph-name="uni049A" unicode="Қ" horiz-adv-x="564"/>
<glyph d="M445 104h60v-265h-96l-16 161h-42l-108 232h-45v-232h-139v530h139v-209h48l107 209h131l-127 -246z" glyph-name="uni049B" unicode="қ" horiz-adv-x="496"/>
<glyph d="M414 375l156 -375h-151l-117 312h-15v-164h-57v164h-30v-312h-138v692h138v-281h30v161h57v-161h14l113 281h139z" glyph-name="uni049C" unicode="Ҝ" horiz-adv-x="573"/>
<glyph d="M379 285l117 -285h-140l-85 237h-13v-119h-41v119h-26v-237h-132v530h132v-214h26v116h41v-116h13l86 214h128z" glyph-name="uni049D" unicode="ҝ" horiz-adv-x="497"/>
<glyph d="M404 375l172 -375h-155l-138 307h-67v-307h-144v520h-57v92h57v80h144v-80h75v-92h-75v-105h70l134 277h139z" glyph-name="uni049E" unicode="Ҟ" horiz-adv-x="574"/>
<glyph d="M362 284l140 -284h-145l-108 232h-45v-232h-139v563h-56v86h56v92l139 14v-106h120v-86h-120v-242h48l107 209h131z" glyph-name="uni049F" unicode="ҟ" horiz-adv-x="499"/>
<glyph d="M502 375l172 -375h-155l-138 307h-67v-307h-144v581h-162v111h307l-1 -1v-276h70l134 277h139z" glyph-name="uni04A0" unicode="Ҡ" horiz-adv-x="672"/>
<glyph d="M431 284l139 -284h-145l-108 232h-45v-232h-139v430h-130v100h270l-1 -1v-208h48l107 209h131z" glyph-name="uni04A1" unicode="ҡ" horiz-adv-x="568"/>
<glyph d="M542 112h72v-273h-100l-16 161h-100v304h-192v-304h-144v692h144v-274h192v274h144v-580z" glyph-name="uni04A2" unicode="Ң" horiz-adv-x="625"/>
<glyph d="M473 104h71v-265h-96l-16 161h-98v218h-136v-218h-139v530h139v-209h136v209h139v-426z" glyph-name="uni04A3" unicode="ң" horiz-adv-x="546"/>
<glyph d="M712 692l-15 -112h-155v-580h-144v304h-192v-304h-144v692h144v-274h192v273l-1 1h315z" glyph-name="uni04A4" unicode="Ҥ" horiz-adv-x="712"/>
<glyph d="M620 530l-17 -104h-130v-426h-139v218h-136v-218h-139v530h139v-209h136v209h286z" glyph-name="uni04A5" unicode="ҥ" horiz-adv-x="615"/>
<glyph d="M679 465q91 0 142 -58.5t51 -162.5v-292q0 -84 -48 -127.5t-129 -43.5q-73 0 -127 41l50 84q32 -19 62 -19q48 0 48 57v300q0 111 -87 111q-61 0 -101 -46v-309h-144v579h-190v-579h-144v692h478v-281q57 54 139 54z" glyph-name="uni04A6" unicode="Ҧ" horiz-adv-x="896"/>
<glyph d="M603 351q62 0 98 -42.5t36 -119.5v-239q0 -82 -47.5 -125.5t-125.5 -43.5q-76 0 -128 41l49 80q31 -18 62 -18q51 0 51 57v230q0 75 -45 75q-39 0 -83 -59v-187h-139v426h-133v-426h-139v530h411v-242q57 63 133 63z" glyph-name="uni04A7" unicode="ҧ" horiz-adv-x="768"/>
<glyph d="M621 269q0 -72 -34 -137t-97 -104q12 -16 79 -111l-72 -51l-92 127q-39 -9 -83 -9q-132 0 -209.5 94.5t-77.5 268.5t78 267.5t203 93.5q107 0 190 -74l-69 -82q-56 47 -113 47q-139 0 -139 -252q0 -127 38 -188t106 -61h9q-47 89 -47 166q0 81 44.5 128.5t118.5 47.5 q73 0 120 -45t47 -126zM400 263q0 -70 34 -140q71 42 71 150q0 75 -51 75q-54 0 -54 -85z" glyph-name="uni04A8" unicode="Ҩ" horiz-adv-x="654"/>
<glyph d="M534 221q0 -60 -27.5 -112t-79.5 -84q27 -40 78 -109l-68 -50q-65 85 -92 126q-37 -8 -74 -8q-112 0 -174.5 72.5t-62.5 204.5q0 131 63.5 208t170.5 77q82 0 140 -46l-50 -87q-39 25 -80 25q-49 0 -73.5 -40.5t-24.5 -135.5q0 -94 25 -133.5t72 -39.5h8q-37 72 -37 131 q0 65 38.5 106t104.5 41q64 0 103.5 -38.5t39.5 -107.5zM348 222q0 -51 29 -109q54 35 54 115q0 59 -40 59q-43 0 -43 -65z" glyph-name="uni04A9" unicode="ҩ" horiz-adv-x="568"/>
<glyph d="M513 70q-64 -69 -156 -83q74 -47 74 -119q0 -56 -37 -88.5t-96 -32.5q-54 0 -97 26l29 69q24 -14 54 -14q51 0 51 52q0 62 -63 107q-110 15 -173.5 107t-63.5 253q0 174 78 267.5t203 93.5q107 0 190 -74l-69 -82q-56 47 -113 47q-139 0 -139 -252q0 -250 140 -250 q56 0 121 54z" glyph-name="uni04AA" unicode="Ҫ" horiz-adv-x="520"/>
<glyph d="M368 129l61 -83q-57 -50 -127 -60q73 -46 73 -118q0 -56 -37 -88.5t-96 -32.5q-54 0 -97 26l29 69q24 -14 54 -14q51 0 51 52q0 63 -67 110q-85 17 -131.5 87t-46.5 184q0 131 63.5 208t170.5 77q92 0 161 -63l-60 -80q-46 35 -91 35q-49 0 -73.5 -40.5t-24.5 -135.5 q0 -92 25 -129.5t72 -37.5q42 0 91 34z" glyph-name="uni04AB" unicode="ҫ" horiz-adv-x="434"/>
<glyph d="M469 580h-155v-468h74v-273h-100l-16 161h-102v580h-162v112h476z" glyph-name="uni04AC" unicode="Ҭ" horiz-adv-x="485"/>
<glyph d="M413 426h-131v-322h72v-265h-96l-16 161h-99v426h-140v104h427z" glyph-name="uni04AD" unicode="ҭ" horiz-adv-x="425"/>
<glyph d="M538 692l-200 -431v-261h-144v260l-200 432h155l120 -316l120 316h149z" glyph-name="uni04AE" unicode="Ү" horiz-adv-x="532"/>
<glyph d="M467 530l-167 -522v-212l-135 -15v227l-167 522h147l91 -402l92 402h139z" glyph-name="uni04AF" unicode="ү" horiz-adv-x="465"/>
<glyph d="M538 692l-176 -380h72v-86h-96v-226h-144v226h-97v86h73l-176 380h155l120 -316l120 316h149z" glyph-name="uni04B0" unicode="Ұ" horiz-adv-x="532"/>
<glyph d="M467 530l-144 -451h65v-82h-88v-201l-135 -15v216h-87v82h64l-144 451h147l91 -402l92 402h139z" glyph-name="uni04B1" unicode="ұ" horiz-adv-x="465"/>
<glyph d="M470 112h64v-273h-100l-16 161h-48l-113 277l-110 -277h-151l176 368l-162 324h154l95 -234l99 234h150l-164 -319z" glyph-name="uni04B2" unicode="Ҳ" horiz-adv-x="523"/>
<glyph d="M413 104h69v-265h-96l-16 161h-52l-90 206l-87 -206h-148l155 279l-140 251h150l74 -178l70 178h144l-132 -246z" glyph-name="uni04B3" unicode="ҳ" horiz-adv-x="473"/>
<glyph d="M647 112h72v-273h-100l-16 161h-433v581h-162v111h439l-14 -111h-119v-468h189v579h144v-580z" glyph-name="uni04B4" unicode="Ҵ" horiz-adv-x="730"/>
<glyph d="M563 104h72v-265h-96l-16 161h-379v430h-141v100h373l-13 -100h-80v-325h141v425h139v-426z" glyph-name="uni04B5" unicode="ҵ" horiz-adv-x="636"/>
<glyph d="M498 112h72v-273h-100l-16 161h-100v262q-62 -55 -142 -55q-87 0 -139 57t-52 156v272h143v-265q0 -59 22 -84.5t66 -25.5q62 0 102 43v332h144v-580z" glyph-name="uni04B6" unicode="Ҷ" horiz-adv-x="581"/>
<glyph d="M440 104h72v-265h-96l-16 161h-99v205q-56 -53 -132 -53q-67 0 -103 40.5t-36 112.5v225h139v-210q0 -64 50 -64q49 0 82 39v235h139v-426z" glyph-name="uni04B7" unicode="ҷ" horiz-adv-x="513"/>
<glyph d="M354 692h144v-692h-144v262q-30 -27 -62 -40v-100h-58v86q-7 -1 -22 -1q-87 0 -139 57t-52 156v272h143v-265q0 -100 70 -109v229h58v-225q35 9 62 38v332z" glyph-name="uni04B8" unicode="Ҹ" horiz-adv-x="560"/>
<glyph d="M305 530h135v-530h-135v209q-23 -23 -50 -37v-86h-46v70q-17 -4 -41 -4q-67 0 -102.5 40.5t-35.5 112.5v225h134v-212q0 -60 45 -64v141h46v-133q29 10 50 36v232z" glyph-name="uni04B9" unicode="ҹ" horiz-adv-x="499"/>
<glyph d="M349 465q91 0 142 -58.5t51 -162.5v-244h-145v244q0 111 -86 111q-64 0 -105 -51v-304h-144v692h144v-285q56 58 143 58z" glyph-name="uni04BA" unicode="Һ" horiz-adv-x="565"/>
<glyph d="M335 486q62 0 98 -42.5t36 -118.5v-325h-139v306q0 74 -45 74t-87 -71v-309h-139v741l139 14v-343q54 74 137 74z" glyph-name="uni04BB" unicode="һ" horiz-adv-x="519"/>
<glyph d="M684 356q0 -31 -5 -63h-372q6 -201 135 -201q43 0 74.5 14.5t66.5 42.5l67 -77q-93 -88 -219 -88q-119 0 -189 78t-80 230h-5q-78 0 -121 37.5t-43 100.5q0 56 41 120l90 -40q-17 -37 -17 -69q0 -44 43 -44h13q11 155 80.5 233t183.5 78q257 0 257 -352zM307 395h238 q-1 206 -117 206q-56 0 -86.5 -47.5t-34.5 -158.5z" glyph-name="uni04BC" unicode="Ҽ" horiz-adv-x="709"/>
<glyph d="M586 277q0 -31 -3 -54h-298q6 -75 33 -105t75 -30q58 0 118 45l57 -78q-81 -71 -185 -71q-106 0 -166.5 62.5t-69.5 174.5h-3q-71 0 -108.5 35t-37.5 94q0 55 34 108l79 -34q-14 -38 -14 -63q0 -46 42 -46h9q12 106 68.5 168.5t151.5 62.5q103 0 160.5 -69.5t57.5 -199.5 zM450 310v7q0 134 -80 134q-39 0 -60 -32t-25 -109h165z" glyph-name="uni04BD" unicode="ҽ" horiz-adv-x="615"/>
<glyph d="M684 356q0 -31 -5 -63h-372q6 -201 135 -201q43 0 74.5 14.5t66.5 42.5l67 -77q-58 -55 -125 -75q-99 -45 -99 -103q0 -47 49 -47q20 0 54 8l-10 -89q-33 -7 -62 -7q-59 0 -95.5 30t-36.5 81q0 70 63 117q-100 13 -158.5 90.5t-67.5 214.5h-5q-78 0 -121 37.5t-43 100.5 q0 56 41 120l90 -40q-17 -37 -17 -69q0 -44 43 -44h13q11 155 80.5 233t183.5 78q257 0 257 -352zM307 395h238q-1 206 -117 206q-56 0 -86.5 -47.5t-34.5 -158.5z" glyph-name="uni04BE" unicode="Ҿ" horiz-adv-x="709"/>
<glyph d="M586 277q0 -31 -3 -54h-298q6 -75 33 -105t75 -30q58 0 118 45l57 -78q-42 -37 -91 -54q-89 -44 -89 -99q0 -47 49 -47q20 0 54 8l-10 -89q-33 -7 -62 -7q-59 0 -95.5 30t-36.5 81q0 63 54 109q-87 12 -136.5 72.5t-57.5 161.5h-3q-71 0 -108.5 35t-37.5 94q0 55 34 108 l79 -34q-14 -38 -14 -63q0 -46 42 -46h9q12 106 68.5 168.5t151.5 62.5q103 0 160.5 -69.5t57.5 -199.5zM450 310v7q0 134 -80 134q-39 0 -60 -32t-25 -109h165z" glyph-name="uni04BF" unicode="ҿ" horiz-adv-x="615"/>
<glyph d="M206 692v-692h-144v692h144z" glyph-name="uni04C0" unicode="Ӏ" horiz-adv-x="268"/>
<glyph d="M402 753q-68 0 -107.5 38.5t-45.5 104.5l77 14q15 -59 76 -59q63 0 78 59l77 -14q-6 -66 -46 -104.5t-109 -38.5zM794 692l-152 -317l168 -375h-154l-130 309h-57v-309h-132v309h-59l-131 -309h-151l168 375l-152 317h141l129 -278h55v278h132v-278h55l131 278h139z" glyph-name="uni04C1" unicode="Ӂ" horiz-adv-x="805"/>
<glyph d="M335 636q-68 0 -107.5 38.5t-45.5 104.5l77 14q15 -59 76 -59q63 0 78 59l77 -14q-6 -66 -46 -104.5t-109 -38.5zM660 530l-110 -247l121 -283h-137l-93 231h-44v-231h-122v231h-44l-93 -231h-137l122 283l-111 247h128l89 -211h46v211h122v-211h46l91 211h126z" glyph-name="uni04C2" unicode="ӂ" horiz-adv-x="672"/>
<glyph d="M399 400q137 -30 137 -206v-242q0 -84 -48 -127.5t-129 -43.5q-73 0 -127 41l50 84q32 -19 62 -19q48 0 48 57v249q0 55 -22 80t-70 25h-94v-298h-144v692h144v-286h64l134 286h140z" glyph-name="uni04C3" unicode="Ӄ" horiz-adv-x="568"/>
<glyph d="M361 307q111 -22 111 -153v-204q0 -82 -47.5 -125.5t-125.5 -43.5q-76 0 -128 41l49 80q32 -18 62 -18q51 0 51 57v211q0 38 -14.5 54t-48.5 16h-72v-222h-139v530h139v-220h43l107 220h131z" glyph-name="uni04C4" unicode="ӄ" horiz-adv-x="508"/>
<glyph d="M530 112h104l-82 -273h-100l34 161h-101v581h-130l-26 -256q-12 -122 -33 -187.5t-57 -99.5t-102 -54l-34 104q44 20 60.5 64t30.5 180l37 360h399v-580z" glyph-name="uni04C5" unicode="Ӆ" horiz-adv-x="622"/>
<glyph d="M456 104h100l-78 -265h-96l34 161h-99v426h-95l-11 -146q-11 -157 -40.5 -211t-123.5 -81l-34 102q40 18 52 51t19 147l16 242h356v-426z" glyph-name="uni04C6" unicode="ӆ" horiz-adv-x="550"/>
<glyph d="M398 692h144v-740q0 -84 -48 -127.5t-129 -43.5q-73 0 -127 41l50 84q32 -19 62 -19q48 0 48 57v360h-192v-304h-144v692h144v-274h192v274z" glyph-name="uni04C7" unicode="Ӈ" horiz-adv-x="599"/>
<glyph d="M334 530h139v-580q0 -82 -47.5 -125.5t-125.5 -43.5q-76 0 -128 41l49 80q31 -18 62 -18q51 0 51 57v277h-136v-218h-139v530h139v-209h136v209z" glyph-name="uni04C8" unicode="ӈ" horiz-adv-x="532"/>
<glyph d="M542 112h104l-82 -273h-100l34 161h-100v304h-192v-304h-144v692h144v-274h192v274h144v-580z" glyph-name="uni04C9" unicode="Ӊ" horiz-adv-x="634"/>
<glyph d="M473 104h99l-78 -265h-96l34 161h-98v218h-136v-218h-139v530h139v-209h136v209h139v-426z" glyph-name="uni04CA" unicode="ӊ" horiz-adv-x="567"/>
<glyph d="M354 692h144v-692h-91l-17 -161h-100v268h64v161q-60 -56 -142 -56q-87 0 -139 57t-52 156v267h143v-260q0 -59 22 -85t66 -26q62 0 102 44v327z" glyph-name="uni04CB" unicode="Ӌ" horiz-adv-x="560"/>
<glyph d="M301 530h139v-530h-97l-16 -161h-96v261h70v122q-56 -53 -133 -53q-67 0 -102.5 40.5t-35.5 112.5v208h139v-193q0 -64 50 -64q49 0 82 40v217z" glyph-name="uni04CC" unicode="ӌ" horiz-adv-x="499"/>
<glyph d="M674 112h112l-82 -273h-100l34 161h-95l-11 283q-9 177 -5 280l-100 -489h-136l-105 490q5 -129 -1 -285l-11 -279h-138l48 692h181l97 -479l89 479h183z" glyph-name="uni04CD" unicode="Ӎ" horiz-adv-x="761"/>
<glyph d="M574 104h107l-78 -265h-96l34 161h-90l-11 208q-4 72 1 199l-79 -352h-116l-77 351q6 -102 3 -198l-10 -208h-130l41 530h164l67 -353l70 353h166z" glyph-name="uni04CE" unicode="ӎ" horiz-adv-x="676"/>
<glyph d="M185 -16q-61 0 -96 36t-35 100v621l139 15v-630q0 -31 26 -31q11 0 23 4l27 -96q-35 -19 -84 -19z" glyph-name="uni04CF" unicode="ӏ" horiz-adv-x="271"/>
<glyph d="M269 753q-68 0 -107.5 38.5t-45.5 104.5l77 14q15 -59 76 -59q63 0 78 59l77 -14q-6 -66 -46 -104.5t-109 -38.5zM397 0l-34 156h-190l-34 -156h-146l190 692h174l189 -692h-149zM197 262h142l-71 323z" glyph-name="uni04D0" unicode="Ӑ"/>
<glyph d="M243 636q-68 0 -107.5 38.5t-45.5 104.5l77 14q15 -59 76 -59q63 0 78 59l77 -14q-6 -66 -46 -104.5t-109 -38.5zM435 140q0 -28 7.5 -41t25.5 -21l-29 -92q-87 9 -114 75q-49 -77 -143 -77q-71 0 -113.5 45.5t-42.5 118.5q0 86 58 132t167 46h47v30q0 49 -18.5 68.5 t-61.5 19.5q-52 0 -127 -28l-31 91q92 39 181 39q194 0 194 -183v-223zM222 84q49 0 76 58v105h-33q-101 0 -101 -87q0 -76 58 -76z" glyph-name="uni04D1" unicode="ӑ" horiz-adv-x="496"/>
<glyph d="M169 771q-31 0 -51.5 21t-20.5 52q0 30 20.5 51t51.5 21t51.5 -21t20.5 -51q0 -31 -20.5 -52t-51.5 -21zM376 771q-30 0 -51 21t-21 52q0 30 21 51t51 21q31 0 51.5 -21t20.5 -51q0 -31 -20.5 -52t-51.5 -21zM397 0l-34 156h-190l-34 -156h-146l190 692h174l189 -692 h-149zM197 262h142l-71 323z" glyph-name="uni04D2" unicode="Ӓ"/>
<glyph d="M140 645q-31 0 -51.5 21t-20.5 52q0 30 20.5 51t51.5 21t51.5 -21t20.5 -51q0 -31 -20.5 -52t-51.5 -21zM347 645q-30 0 -51 21t-21 52q0 30 21 51t51 21q31 0 51.5 -21t20.5 -51q0 -31 -20.5 -52t-51.5 -21zM435 140q0 -28 7.5 -41t25.5 -21l-29 -92q-87 9 -114 75 q-49 -77 -143 -77q-71 0 -113.5 45.5t-42.5 118.5q0 86 58 132t167 46h47v30q0 49 -18.5 68.5t-61.5 19.5q-52 0 -127 -28l-31 91q92 39 181 39q194 0 194 -183v-223zM222 84q49 0 76 58v105h-33q-101 0 -101 -87q0 -76 58 -76z" glyph-name="uni04D3" unicode="ӓ" horiz-adv-x="496"/>
<glyph d="M522 106h208v-106h-329l-24 156h-197l-47 -156h-152l245 692h470l-15 -105h-245l33 -185h219v-104h-200zM212 262h148l-50 323z" glyph-name="uni04D4" unicode="Ӕ" horiz-adv-x="759"/>
<glyph d="M745 277q0 -31 -3 -54h-296q6 -74 33.5 -104.5t75.5 -30.5q53 0 115 45l57 -77q-81 -72 -184 -72q-124 0 -188 91q-61 -91 -167 -91q-74 0 -118 45.5t-44 118.5q0 85 59.5 130.5t171.5 45.5h47v29q0 50 -18.5 70t-63.5 20q-50 0 -126 -28l-31 92q94 39 179 39 q101 0 145 -70q57 70 149 70q95 0 151 -70.5t56 -198.5zM610 310v7q0 133 -80 133q-39 0 -60 -32t-25 -108h165zM228 84q52 0 90 72q-10 39 -12 85v2h-35q-101 0 -101 -85q0 -74 58 -74z" glyph-name="uni04D5" unicode="ӕ" horiz-adv-x="774"/>
<glyph d="M252 753q-68 0 -107.5 38.5t-45.5 104.5l77 14q15 -59 76 -59q63 0 78 59l77 -14q-6 -66 -46 -104.5t-109 -38.5zM442 692l-15 -105h-221v-183h193v-104h-193v-194h236v-106h-380v692h380z" glyph-name="uni04D6" unicode="Ӗ" horiz-adv-x="475"/>
<glyph d="M257 636q-68 0 -107.5 38.5t-45.5 104.5l77 14q15 -59 76 -59q63 0 78 59l77 -14q-6 -66 -46 -104.5t-109 -38.5zM475 277q0 -31 -3 -54h-298q6 -75 33 -105t75 -30q58 0 118 45l57 -78q-81 -71 -185 -71q-116 0 -177 73.5t-61 204.5q0 128 58.5 206t164.5 78 q103 0 160.5 -69.5t57.5 -199.5zM339 310v7q0 134 -80 134q-39 0 -60 -32t-25 -109h165z" glyph-name="uni04D7" unicode="ӗ" horiz-adv-x="504"/>
<glyph d="M281 708q267 0 267 -355q0 -186 -70 -277.5t-194 -91.5q-259 0 -259 353q0 24 4 62h373q-3 108 -36.5 154.5t-96.5 46.5q-72 0 -144 -57l-65 77q94 88 221 88zM282 91q57 0 86 46.5t33 159.5h-237q0 -112 30.5 -159t87.5 -47z" glyph-name="uni04D8" unicode="Ә" horiz-adv-x="582"/>
<glyph d="M245 546q115 0 171.5 -73t56.5 -207q0 -131 -59 -206.5t-166 -75.5q-101 0 -160 69t-59 200q0 31 3 54h307q-4 74 -28 105.5t-71 31.5q-64 0 -122 -43l-57 78q78 67 184 67zM249 85q43 0 64.5 29.5t25.5 105.5h-180v-7q1 -128 90 -128z" glyph-name="uni04D9" unicode="ә" horiz-adv-x="507"/>
<glyph d="M180 771q-31 0 -51.5 21t-20.5 52q0 30 20.5 51t51.5 21t51.5 -21t20.5 -51q0 -31 -20.5 -52t-51.5 -21zM387 771q-30 0 -51 21t-21 52q0 30 21 51t51 21q31 0 51.5 -21t20.5 -51q0 -31 -20.5 -52t-51.5 -21zM281 708q267 0 267 -355q0 -186 -70 -277.5t-194 -91.5 q-259 0 -259 353q0 24 4 62h373q-3 108 -36.5 154.5t-96.5 46.5q-72 0 -144 -57l-65 77q94 88 221 88zM282 91q57 0 86 46.5t33 159.5h-237q0 -112 30.5 -159t87.5 -47z" glyph-name="uni04DA" unicode="Ӛ" horiz-adv-x="582"/>
<glyph d="M141 645q-31 0 -51.5 21t-20.5 52q0 30 20.5 51t51.5 21t51.5 -21t20.5 -51q0 -31 -20.5 -52t-51.5 -21zM348 645q-30 0 -51 21t-21 52q0 30 21 51t51 21q31 0 51.5 -21t20.5 -51q0 -31 -20.5 -52t-51.5 -21zM245 546q115 0 171.5 -73t56.5 -207q0 -131 -59 -206.5 t-166 -75.5q-101 0 -160 69t-59 200q0 31 3 54h307q-4 74 -28 105.5t-71 31.5q-64 0 -122 -43l-57 78q78 67 184 67zM249 85q43 0 64.5 29.5t25.5 105.5h-180v-7q1 -128 90 -128z" glyph-name="uni04DB" unicode="ӛ" horiz-adv-x="507"/>
<glyph d="M302 916q31 0 51.5 -21t20.5 -51q0 -31 -20.5 -52t-51.5 -21t-51.5 21t-20.5 52q0 30 20.5 51t51.5 21zM509 916q31 0 51.5 -21t20.5 -51q0 -31 -20.5 -52t-51.5 -21q-30 0 -51 21t-21 52q0 30 21 51t51 21zM794 692l-152 -317l168 -375h-154l-130 309h-57v-309h-132v309 h-59l-131 -309h-151l168 375l-152 317h141l129 -278h55v278h132v-278h55l131 278h139z" glyph-name="uni04DC" unicode="Ӝ" horiz-adv-x="805"/>
<glyph d="M232 790q31 0 51.5 -21t20.5 -51q0 -31 -20.5 -52t-51.5 -21t-51.5 21t-20.5 52q0 30 20.5 51t51.5 21zM439 790q31 0 51.5 -21t20.5 -51q0 -31 -20.5 -52t-51.5 -21q-30 0 -51 21t-21 52q0 30 21 51t51 21zM660 530l-110 -247l121 -283h-137l-93 231h-44v-231h-122v231 h-44l-93 -231h-137l122 283l-111 247h128l89 -211h46v211h122v-211h46l91 211h126z" glyph-name="uni04DD" unicode="ӝ" horiz-adv-x="672"/>
<glyph d="M127 916q31 0 51.5 -21t20.5 -51q0 -31 -20.5 -52t-51.5 -21t-51.5 21t-20.5 52q0 30 20.5 51t51.5 21zM334 916q31 0 51.5 -21t20.5 -51q0 -31 -20.5 -52t-51.5 -21q-30 0 -51 21t-21 52q0 30 21 51t51 21zM215 -16q-136 0 -216 97l76 74q61 -61 129 -61q50 0 78.5 28.5 t28.5 80.5q0 109 -114 109h-65l17 106h51q46 0 70.5 25t24.5 69q0 40 -20.5 64.5t-63.5 24.5q-63 0 -126 -57l-67 74q88 90 211 90q98 0 155.5 -51t57.5 -130q0 -126 -139 -159q75 -9 117 -52t42 -119q0 -96 -68.5 -154.5t-178.5 -58.5z" glyph-name="uni04DE" unicode="Ӟ" horiz-adv-x="486"/>
<glyph d="M106 790q31 0 51.5 -21t20.5 -51q0 -31 -20.5 -52t-51.5 -21t-51.5 21t-20.5 52q0 30 20.5 51t51.5 21zM313 790q31 0 51.5 -21t20.5 -51q0 -31 -20.5 -52t-51.5 -21q-30 0 -51 21t-21 52q0 30 21 51t51 21zM208 546q80 0 133 -40t53 -106q0 -88 -109 -117 q67 -11 100 -41.5t33 -87.5q0 -83 -60.5 -126.5t-159.5 -43.5q-116 0 -195 65l66 77q59 -40 121 -40q84 0 84 74q0 36 -23 51.5t-69 15.5h-67l8 93h48q82 0 82 67q0 60 -67 60q-52 0 -104 -35l-64 73q79 61 190 61z" glyph-name="uni04DF" unicode="ӟ" horiz-adv-x="451"/>
<glyph d="M264 401q99 -4 150 -54.5t51 -143.5q0 -96 -66 -157.5t-180 -61.5q-139 0 -216 99l77 70q31 -32 60.5 -46t68.5 -14q51 0 79 30t28 85q0 57 -29 81.5t-87 24.5h-86v84l167 187h-243v107h396v-104z" glyph-name="uni04E0" unicode="Ӡ" horiz-adv-x="487"/>
<glyph d="M240 211q200 -13 200 -202q0 -101 -64.5 -164.5t-175.5 -63.5q-135 0 -212 99l75 70q62 -62 129 -62q50 0 77 32t27 95q0 59 -28.5 84.5t-88.5 25.5h-80v85l161 215h-236v105h387v-97z" glyph-name="uni04E1" unicode="ӡ" horiz-adv-x="456"/>
<glyph d="M437 785h-273v97h273v-97zM540 692v-692h-139v281q0 122 18 266l-184 -547h-173v692h139v-285q0 -124 -18 -262l185 547h172z" glyph-name="uni04E2" unicode="Ӣ" horiz-adv-x="602"/>
<glyph d="M404 659h-273v97h273v-97zM477 530v-530h-130v203q0 105 21 189l-167 -392h-142v530h130v-204q0 -112 -19 -188l164 392h143z" glyph-name="uni04E3" unicode="ӣ" horiz-adv-x="536"/>
<glyph d="M200 916q31 0 51.5 -21t20.5 -51q0 -31 -20.5 -52t-51.5 -21t-51.5 21t-20.5 52q0 30 20.5 51t51.5 21zM407 916q31 0 51.5 -21t20.5 -51q0 -31 -20.5 -52t-51.5 -21q-30 0 -51 21t-21 52q0 30 21 51t51 21zM540 692v-692h-139v281q0 122 18 266l-184 -547h-173v692h139 v-285q0 -124 -18 -262l185 547h172z" glyph-name="uni04E4" unicode="Ӥ" horiz-adv-x="602"/>
<glyph d="M164 790q31 0 51.5 -21t20.5 -51q0 -31 -20.5 -52t-51.5 -21t-51.5 21t-20.5 52q0 30 20.5 51t51.5 21zM371 790q31 0 51.5 -21t20.5 -51q0 -31 -20.5 -52t-51.5 -21q-30 0 -51 21t-21 52q0 30 21 51t51 21zM477 530v-530h-130v203q0 105 21 189l-167 -392h-142v530h130 v-204q0 -112 -19 -188l164 392h143z" glyph-name="uni04E5" unicode="ӥ" horiz-adv-x="536"/>
<glyph d="M214 916q31 0 51.5 -21t20.5 -51q0 -31 -20.5 -52t-51.5 -21t-51.5 21t-20.5 52q0 30 20.5 51t51.5 21zM421 916q31 0 51.5 -21t20.5 -51q0 -31 -20.5 -52t-51.5 -21q-30 0 -51 21t-21 52q0 30 21 51t51 21zM315 708q133 0 206 -92.5t73 -269.5q0 -175 -73 -268.5 t-206 -93.5t-206.5 92t-73.5 270q0 175 73.5 268.5t206.5 93.5zM315 600q-66 0 -98 -59t-32 -195q0 -137 32.5 -195.5t97.5 -58.5q66 0 97.5 58.5t31.5 195.5q0 136 -31.5 195t-97.5 59z" glyph-name="uni04E6" unicode="Ӧ" horiz-adv-x="629"/>
<glyph d="M162 790q31 0 51.5 -21t20.5 -51q0 -31 -20.5 -52t-51.5 -21t-51.5 21t-20.5 52q0 30 20.5 51t51.5 21zM369 790q31 0 51.5 -21t20.5 -51q0 -31 -20.5 -52t-51.5 -21q-30 0 -51 21t-21 52q0 30 21 51t51 21zM267 546q109 0 170.5 -72.5t61.5 -208.5q0 -131 -62 -206 t-171 -75t-170.5 73t-61.5 208q0 133 61.5 207t171.5 74zM267 442q-45 0 -67 -42t-22 -135q0 -95 21.5 -136t66.5 -41t67 42t22 135q0 94 -21.5 135.5t-66.5 41.5z" glyph-name="uni04E7" unicode="ӧ" horiz-adv-x="533"/>
<glyph d="M315 708q133 0 206 -92.5t73 -269.5q0 -175 -73 -268.5t-206 -93.5t-206.5 92t-73.5 270q0 175 73.5 268.5t206.5 93.5zM315 600q-61 0 -94.5 -48.5t-39.5 -157.5h267q-6 109 -39 157.5t-94 48.5zM315 92q63 0 96 50t37 166h-267q4 -115 37.5 -165.5t96.5 -50.5z" glyph-name="uni04E8" unicode="Ө" horiz-adv-x="629"/>
<glyph d="M267 546q109 0 170.5 -72.5t61.5 -208.5q0 -131 -62 -206t-171 -75t-170.5 73t-61.5 208q0 133 61.5 207t171.5 74zM267 444q-42 0 -65 -31.5t-28 -101.5h184q-8 133 -91 133zM266 86q43 0 66 33.5t27 108.5h-186q4 -76 26.5 -109t66.5 -33z" glyph-name="uni04E9" unicode="ө" horiz-adv-x="533"/>
<glyph d="M214 771q-31 0 -51.5 21t-20.5 52q0 30 20.5 51t51.5 21t51.5 -21t20.5 -51q0 -31 -20.5 -52t-51.5 -21zM421 771q-30 0 -51 21t-21 52q0 30 21 51t51 21q31 0 51.5 -21t20.5 -51q0 -31 -20.5 -52t-51.5 -21zM315 708q133 0 206 -92.5t73 -269.5q0 -175 -73 -268.5 t-206 -93.5t-206.5 92t-73.5 270q0 175 73.5 268.5t206.5 93.5zM315 600q-61 0 -94.5 -48.5t-39.5 -157.5h267q-6 109 -39 157.5t-94 48.5zM315 92q63 0 96 50t37 166h-267q4 -115 37.5 -165.5t96.5 -50.5z" glyph-name="uni04EA" unicode="Ӫ" horiz-adv-x="629"/>
<glyph d="M162 645q-31 0 -51.5 21t-20.5 52q0 30 20.5 51t51.5 21t51.5 -21t20.5 -51q0 -31 -20.5 -52t-51.5 -21zM369 645q-30 0 -51 21t-21 52q0 30 21 51t51 21q31 0 51.5 -21t20.5 -51q0 -31 -20.5 -52t-51.5 -21zM267 546q109 0 170.5 -72.5t61.5 -208.5q0 -131 -62 -206 t-171 -75t-170.5 73t-61.5 208q0 133 61.5 207t171.5 74zM267 444q-42 0 -65 -31.5t-28 -101.5h184q-8 133 -91 133zM266 86q43 0 66 33.5t27 108.5h-186q4 -76 26.5 -109t66.5 -33z" glyph-name="uni04EB" unicode="ӫ" horiz-adv-x="533"/>
<glyph d="M113 771q-31 0 -51.5 21t-20.5 52q0 30 20.5 51t51.5 21t51.5 -21t20.5 -51q0 -31 -20.5 -52t-51.5 -21zM320 771q-30 0 -51 21t-21 52q0 30 21 51t51 21q31 0 51.5 -21t20.5 -51q0 -31 -20.5 -52t-51.5 -21zM206 708q250 0 250 -358q0 -180 -69 -273t-194 -93 q-107 0 -186 79l66 79q57 -47 113 -47q59 0 89.5 49.5t33.5 158.5h-212v104h212q-4 104 -32.5 149t-80.5 45q-58 0 -116 -49l-68 80q84 76 194 76z" glyph-name="uni04EC" unicode="Ӭ" horiz-adv-x="490"/>
<glyph d="M98 645q-31 0 -51.5 21t-20.5 52q0 30 20.5 51t51.5 21t51.5 -21t20.5 -51q0 -31 -20.5 -52t-51.5 -21zM305 645q-30 0 -51 21t-21 52q0 30 21 51t51 21q31 0 51.5 -21t20.5 -51q0 -31 -20.5 -52t-51.5 -21zM192 546q102 0 159 -69t57 -207q0 -137 -60.5 -211.5 t-172.5 -74.5q-94 0 -163 60l61 79q50 -35 96 -35q91 0 99 140h-173v85h173q-4 71 -25.5 100.5t-60.5 29.5q-52 0 -99 -36l-59 78q72 61 168 61z" glyph-name="uni04ED" unicode="ӭ" horiz-adv-x="441"/>
<glyph d="M394 785h-273v97h273v-97zM532 692l-169 -491q-39 -113 -96.5 -159t-165.5 -58l-18 98q61 10 93 32t53 71h-48l-192 507h146l134 -425l119 425h144z" glyph-name="uni04EE" unicode="Ӯ" horiz-adv-x="516"/>
<glyph d="M368 659h-273v97h273v-97zM472 530l-153 -531q-58 -202 -266 -219l-15 99q69 11 102.5 37.5t53.5 83.5h-50l-146 530h144l91 -439l99 439h140z" glyph-name="uni04EF" unicode="ӯ" horiz-adv-x="470"/>
<glyph d="M157 916q31 0 51.5 -21t20.5 -51q0 -31 -20.5 -52t-51.5 -21t-51.5 21t-20.5 52q0 30 20.5 51t51.5 21zM364 916q31 0 51.5 -21t20.5 -51q0 -31 -20.5 -52t-51.5 -21q-30 0 -51 21t-21 52q0 30 21 51t51 21zM532 692l-169 -491q-39 -113 -96.5 -159t-165.5 -58l-18 98 q61 10 93 32t53 71h-48l-192 507h146l134 -425l119 425h144z" glyph-name="uni04F0" unicode="Ӱ" horiz-adv-x="516"/>
<glyph d="M128 790q31 0 51.5 -21t20.5 -51q0 -31 -20.5 -52t-51.5 -21t-51.5 21t-20.5 52q0 30 20.5 51t51.5 21zM335 790q31 0 51.5 -21t20.5 -51q0 -31 -20.5 -52t-51.5 -21q-30 0 -51 21t-21 52q0 30 21 51t51 21zM472 530l-153 -531q-58 -202 -266 -219l-15 99 q69 11 102.5 37.5t53.5 83.5h-50l-146 530h144l91 -439l99 439h140z" glyph-name="uni04F1" unicode="ӱ" horiz-adv-x="470"/>
<glyph d="M219 977l94 -47l-101 -172l-71 30zM375 977l94 -49l-109 -174l-70 33zM532 692l-169 -491q-39 -113 -96.5 -159t-165.5 -58l-18 98q61 10 93 32t53 71h-48l-192 507h146l134 -425l119 425h144z" glyph-name="uni04F2" unicode="Ӳ" horiz-adv-x="516"/>
<glyph d="M190 851l94 -47l-101 -172l-71 30zM346 851l94 -49l-109 -174l-70 33zM472 530l-153 -531q-58 -202 -266 -219l-15 99q69 11 102.5 37.5t53.5 83.5h-50l-146 530h144l91 -439l99 439h140z" glyph-name="uni04F3" unicode="ӳ" horiz-adv-x="470"/>
<glyph d="M158 771q-31 0 -51.5 21t-20.5 52q0 30 20.5 51t51.5 21t51.5 -21t20.5 -51q0 -31 -20.5 -52t-51.5 -21zM365 771q-30 0 -51 21t-21 52q0 30 21 51t51 21q31 0 51.5 -21t20.5 -51q0 -31 -20.5 -52t-51.5 -21zM354 692h144v-692h-144v262q-62 -55 -142 -55q-87 0 -139 57 t-52 156v272h143v-265q0 -59 22 -84.5t66 -25.5q62 0 102 43v332z" glyph-name="uni04F4" unicode="Ӵ" horiz-adv-x="560"/>
<glyph d="M131 645q-31 0 -51.5 21t-20.5 52q0 30 20.5 51t51.5 21t51.5 -21t20.5 -51q0 -31 -20.5 -52t-51.5 -21zM338 645q-30 0 -51 21t-21 52q0 30 21 51t51 21q31 0 51.5 -21t20.5 -51q0 -31 -20.5 -52t-51.5 -21zM301 530h139v-530h-139v205q-56 -53 -132 -53 q-67 0 -103 40.5t-36 112.5v225h139v-210q0 -64 50 -64q49 0 82 39v235z" glyph-name="uni04F5" unicode="ӵ" horiz-adv-x="499"/>
<glyph d="M445 577h-239v-465h72v-273h-100l-16 161h-100v692h398z" glyph-name="uni04F6" unicode="Ӷ" horiz-adv-x="461"/>
<glyph d="M379 423h-181v-319h72v-265h-96l-16 161h-99v530h336z" glyph-name="uni04F7" unicode="ӷ" horiz-adv-x="392"/>
<glyph d="M283 771q-31 0 -51.5 21t-20.5 52q0 30 20.5 51t51.5 21t51.5 -21t20.5 -51q0 -31 -20.5 -52t-51.5 -21zM490 916q31 0 51.5 -21t20.5 -51q0 -31 -20.5 -52t-51.5 -21q-30 0 -51 21t-21 52q0 30 21 51t51 21zM259 451q123 0 188 -55t65 -165q0 -117 -67 -174t-184 -57 h-199v692h144v-241h53zM562 692h144v-692h-144v692zM252 107q55 0 82 28t27 95q0 62 -27 90t-85 28h-43v-241h46z" glyph-name="uni04F8" unicode="Ӹ" horiz-adv-x="768"/>
<glyph d="M240 645q-31 0 -51.5 21t-20.5 52q0 30 20.5 51t51.5 21t51.5 -21t20.5 -51q0 -31 -20.5 -52t-51.5 -21zM519 718q0 -31 -20.5 -52t-51.5 -21q-30 0 -51 21t-21 52q0 30 21 51t51 21q31 0 51.5 -21t20.5 -51zM225 363q222 0 222 -181q0 -91 -56 -136.5t-153 -45.5h-179 v530h139v-167h27zM491 530h139v-530h-139v530zM231 94q39 0 58 21t19 69q0 47 -18 67.5t-64 20.5h-28v-178h33z" glyph-name="uni04F9" unicode="ӹ" horiz-adv-x="690"/>
<glyph d="M453 577h-239v-155h129v-91h-129v-219h80v-160q0 -84 -48 -127.5t-129 -43.5q-73 0 -127 41l50 84q32 -19 62 -19q48 0 48 57v56h-80v331h-71v91h71v270h398z" glyph-name="uni04FA" unicode="Ӻ" horiz-adv-x="469"/>
<glyph d="M389 423h-181v-117h98v-83h-98v-119h80v-103h1v-51q0 -82 -47.5 -125.5t-125.5 -43.5q-76 0 -128 41l49 80q31 -18 62 -18q51 0 51 57v59h-81v223h-57v83h57v224h336z" glyph-name="uni04FB" unicode="ӻ" horiz-adv-x="402"/>
<glyph d="M470 112h72v-160q0 -84 -48 -127.5t-129 -43.5q-73 0 -127 41l50 84q32 -19 62 -19q48 0 48 57v56h-28l-113 277l-110 -277h-151l176 368l-162 324h154l95 -234l99 234h150l-164 -319z" glyph-name="uni04FC" unicode="Ӽ" horiz-adv-x="541"/>
<glyph d="M413 104h73v-154q0 -82 -47.5 -125.5t-125.5 -43.5q-76 0 -128 41l49 80q32 -18 62 -18q51 0 51 57v59h-29l-90 206l-87 -206h-148l155 279l-140 251h150l74 -178l70 178h144l-132 -246z" glyph-name="uni04FD" unicode="ӽ" horiz-adv-x="477"/>
<glyph d="M370 319l154 -319h-154l-113 283l-110 -283h-151l153 319h-103v94h104l-140 279h154l95 -249l99 249h150l-143 -279h109v-94h-104z" glyph-name="uni04FE" unicode="Ӿ" horiz-adv-x="520"/>
<glyph d="M330 692h144v-692h-206q-120 0 -186.5 54t-66.5 167q0 107 66 164t188 57h61v250zM278 107h52v232h-49q-60 0 -87.5 -28t-27.5 -90t27.5 -88t84.5 -26z" glyph-name="uni0500" unicode="Ԁ" horiz-adv-x="536"/>
<glyph d="M345 756l139 -15v-741h-124l-6 63q-51 -79 -135 -79q-89 0 -136 74t-47 207q0 127 53.5 204t140.5 77q69 0 115 -53v263zM260 87q49 0 85 62v244q-35 50 -78 50q-87 0 -87 -178t80 -178z" glyph-name="uni0501" unicode="ԁ" horiz-adv-x="543"/>
<glyph d="M745 379q7 -72 7 -134q0 -132 -66 -196.5t-159 -64.5q-110 0 -161 84q-51 -85 -152 -85q-82 0 -140.5 56.5t-58.5 164.5q0 117 65 177.5t185 60.5h65v250h144v-526q0 -78 56 -78q84 0 84 163q0 44 -6 128h137zM242 90q61 0 88 82v167h-53q-57 0 -84 -31t-27 -100 q0 -118 76 -118z" glyph-name="uni0502" unicode="Ԃ" horiz-adv-x="785"/>
<glyph d="M748 379q7 -57 7 -134q0 -132 -64.5 -196.5t-156.5 -64.5q-118 0 -165 96q-55 -96 -147 -96q-90 0 -138 74.5t-48 206.5q0 127 53.5 204t141.5 77q68 0 114 -53v263l139 -15v-575q0 -78 54 -78q79 0 79 162q0 66 -6 129h137zM259 87q53 0 86 82v224q-35 50 -77 50 q-88 0 -88 -178t79 -178z" glyph-name="uni0503" unicode="ԃ" horiz-adv-x="789"/>
<glyph d="M630 379q7 -70 7 -134q0 -133 -61 -197t-156 -64q-79 0 -126 34t-85 111l-72 144h-85v101h80q57 0 84 27t27 85q0 53 -28.5 78t-89.5 25l-109 -1v104h110q265 0 265 -206q0 -136 -122 -187l75 -148q18 -34 35.5 -48.5t42.5 -14.5q77 0 77 163q0 46 -6 128h137z" glyph-name="uni0504" unicode="Ԅ" horiz-adv-x="670"/>
<glyph d="M570 379q7 -72 7 -134q0 -133 -59.5 -197.5t-149.5 -64.5q-72 0 -116.5 33.5t-81.5 108.5l-34 64h-82v95h84q38 0 56.5 18t18.5 58q0 39 -19.5 56t-60.5 17h-117v97h125q102 0 156 -43t54 -129q0 -102 -90 -146l35 -65q18 -35 32.5 -47.5t37.5 -12.5q72 0 72 161 q0 61 -5 131h137z" glyph-name="uni0505" unicode="ԅ" horiz-adv-x="610"/>
<glyph d="M370 112h77v-273h-100l-16 161h-63l-130 273h-86v101h80q57 0 84 27t27 85q0 53 -28.5 78t-89.5 25l-109 -1v104h110q265 0 265 -206q0 -135 -121 -186z" glyph-name="uni0506" unicode="Ԇ" horiz-adv-x="435"/>
<glyph d="M324 104h78v-265h-96l-16 161h-53l-95 189h-88v95h84q38 0 56.5 18t18.5 58q0 39 -19.5 56t-60.5 17h-117v97h125q102 0 156 -43t54 -129q0 -102 -88 -144z" glyph-name="uni0507" unicode="ԇ" horiz-adv-x="393"/>
<glyph d="M801 379q7 -72 7 -134q0 -132 -66.5 -196.5t-163.5 -64.5q-87 0 -140 48t-53 138v411h-130l-26 -256q-12 -122 -33 -187.5t-57 -99.5t-102 -54l-34 104q44 20 60.5 64t30.5 180l37 360h399v-526q0 -78 56 -78q83 0 83 163q0 65 -6 128h138z" glyph-name="uni0508" unicode="Ԉ" horiz-adv-x="841"/>
<glyph d="M721 379q7 -72 7 -134q0 -132 -65.5 -196.5t-158.5 -64.5q-83 0 -135 48.5t-52 141.5v252h-95l-11 -146q-11 -157 -40.5 -211t-123.5 -81l-34 102q40 18 52 51t19 147l16 242h356v-364q0 -78 55 -78q78 0 78 161q0 60 -5 130h137z" glyph-name="uni0509" unicode="ԉ" horiz-adv-x="761"/>
<glyph d="M813 379q7 -72 7 -134q0 -132 -66 -196.5t-164 -64.5q-87 0 -139.5 48t-52.5 138v134h-192v-304h-144v692h144v-274h192v274h144v-526q0 -78 56 -78q83 0 83 163q0 58 -5 128h137z" glyph-name="uni050A" unicode="Ԋ" horiz-adv-x="853"/>
<glyph d="M737 379q7 -72 7 -134q0 -133 -65 -197t-158 -64q-83 0 -135 48.5t-52 141.5v43h-136v-217h-139v530h139v-208h136v208h139v-364q0 -78 54 -78q79 0 79 161q0 67 -6 130h137z" glyph-name="uni050B" unicode="ԋ" horiz-adv-x="778"/>
<glyph d="M332 708q117 0 207 -83l-73 -75q-64 51 -129 51q-153 0 -153 -255q0 -142 31.5 -198t100.5 -56q48 0 88 24v174h-84l-14 104h236v-340q-104 -70 -224 -70q-283 0 -283 363q0 174 83.5 267.5t213.5 93.5z" glyph-name="uni050C" unicode="Ԍ" horiz-adv-x="586"/>
<glyph d="M280 546q105 0 184 -70l-66 -74q-56 42 -111 42q-110 0 -110 -177q0 -103 23.5 -141.5t70.5 -38.5q36 0 69 15v111h-64l-14 94h207v-261q-94 -60 -200 -60q-118 0 -176.5 68.5t-58.5 213.5q0 132 69 205t177 73z" glyph-name="uni050D" unicode="ԍ" horiz-adv-x="513"/>
<glyph d="M585 379q7 -72 7 -134q0 -132 -66 -196.5t-164 -64.5q-86 0 -139 48t-53 138v409h-162v113h476l-15 -113h-155v-413q0 -78 56 -78q84 0 84 163q0 44 -6 128h137z" glyph-name="uni050E" unicode="Ԏ" horiz-adv-x="625"/>
<glyph d="M549 363q6 -54 6 -118q0 -132 -65.5 -196.5t-158.5 -64.5q-84 0 -136 48t-52 142v256h-140v100h427l-17 -100h-131v-264q0 -78 55 -78q80 0 80 161q0 52 -5 114h137z" glyph-name="uni050F" unicode="ԏ" horiz-adv-x="588"/>
<glyph d="M261 708q121 0 208 -90l-69 -74q-60 57 -122 57q-45 0 -66 -24.5t-21 -64.5q0 -45 25.5 -69.5t72.5 -24.5h64l-16 -106h-48q-113 0 -113 -109q0 -53 27.5 -81t78.5 -28q70 0 128 60l78 -73q-83 -97 -219 -97q-108 0 -176.5 57.5t-68.5 154.5q0 76 42 119.5t115 52.5 q-138 32 -138 159q0 78 60 129.5t158 51.5z" glyph-name="uni0510" unicode="Ԑ" horiz-adv-x="486"/>
<glyph d="M242 546q102 0 176 -57l-55 -73q-52 31 -103 31q-68 0 -68 -63q0 -30 18.5 -47t53.5 -17h57l-13 -93h-51q-42 0 -60.5 -17.5t-18.5 -53.5q0 -70 81 -70q53 0 114 40l59 -78q-77 -64 -193 -64q-91 0 -148 42.5t-57 119.5q0 114 132 136q-114 25 -114 119q0 66 52.5 105.5 t137.5 39.5z" glyph-name="uni0511" unicode="ԑ" horiz-adv-x="436"/>
<glyph d="M131 692h399v-740q0 -84 -48 -127.5t-129 -43.5q-73 0 -127 41l50 84q32 -19 62 -19q48 0 48 57v56h-1v581h-130l-26 -256q-12 -122 -33 -187.5t-57 -99.5t-102 -54l-34 104q44 20 60.5 64t30.5 180z" glyph-name="uni0512" unicode="Ԓ" horiz-adv-x="592"/>
<glyph d="M100 530h356v-580q0 -82 -47.5 -125.5t-125.5 -43.5q-76 0 -128 41l49 80q31 -18 62 -18q51 0 51 57v485h-95l-11 -146q-11 -157 -40.5 -211t-123.5 -81l-34 102q40 18 52 51t19 147z" glyph-name="uni0513" unicode="ԓ" horiz-adv-x="516"/>
<glyph d="M595 373l180 -373h-154l-113 277l-110 -277h-151l176 368l-107 215h-60l-27 -258q-12 -122 -33 -187.5t-57 -99.5t-102 -54l-34 104q44 20 60.5 64t30.5 180l37 360h284l95 -234l99 234h150z" glyph-name="uni0514" unicode="Ԕ" horiz-adv-x="772"/>
<glyph d="M526 284l156 -284h-152l-90 206l-87 -206h-148l155 279l-84 150h-56l2 -2l-11 -147q-11 -157 -40.5 -211t-123.5 -81l-34 102q40 18 52 51t19 147l16 242h270l74 -178l70 178h144z" glyph-name="uni0515" unicode="ԕ" horiz-adv-x="675"/>
<glyph d="M735 692l-171 -343l169 -349h-155l-144 294q-62 -57 -176 -57h-52v-237h-144v692h184q242 0 251 -208l96 208h142zM247 343q59 0 88 29t29 97q0 119 -117 119h-41v-245h41z" glyph-name="uni0516" unicode="Ԗ" horiz-adv-x="734"/>
<glyph d="M757 0h-145l-110 209q-11 -104 -60.5 -164.5t-126.5 -60.5q-72 0 -117 56v-244l-139 -15v749h123l7 -61q54 77 139 77q79 0 123 -58.5t52 -168.5l113 211h132l-143 -259zM275 88q86 0 86 177q0 98 -19.5 137.5t-57.5 39.5q-50 0 -86 -65v-240q32 -49 77 -49z" glyph-name="uni0517" unicode="ԗ" horiz-adv-x="755"/>
<glyph d="M487 300v-194h232v-106h-371v256h-79l-106 -256h-155l135 283q-111 50 -111 190q0 219 260 219h427l-15 -105h-217v-183h189v-104h-189zM282 359h66v230h-51q-60 0 -88 -29t-28 -90q0 -111 101 -111z" glyph-name="uni0518" unicode="Ԙ" horiz-adv-x="752"/>
<glyph d="M738 265q0 -32 -3 -56h-292q7 -66 33 -93.5t73 -27.5q58 0 118 45l57 -78q-81 -71 -186 -71q-102 0 -162.5 60.5t-72.5 165.5h-58l-92 -210h-145l114 240q-80 42 -80 130q0 75 56 117.5t161 42.5h180q40 16 86 16q102 0 157.5 -72t55.5 -209zM606 296v14q0 71 -19.5 106 t-62.5 35q-39 0 -59.5 -34.5t-23.5 -120.5h165zM183 368q0 -72 78 -72h40q6 83 38 142h-78q-78 0 -78 -70z" glyph-name="uni0519" unicode="ԙ" horiz-adv-x="767"/>
<glyph d="M445 43q109 -1 188 -66l-88 -112q-49 60 -103.5 91t-135.5 31q-126 0 -198.5 92.5t-72.5 266.5t74 268t206 94t205.5 -93t73.5 -269q0 -215 -149 -303zM185 346q0 -137 32.5 -195.5t97.5 -58.5q66 0 97.5 58.5t31.5 195.5t-31.5 195.5t-97.5 58.5t-98 -59t-32 -195z" glyph-name="uni051A" unicode="Ԛ" horiz-adv-x="629"/>
<glyph d="M363 530h121v-749l-139 15v258q-48 -70 -127 -70q-88 0 -135 74t-47 207q0 127 53.5 204t141.5 77q72 0 125 -64zM260 87q50 0 85 63v243q-37 50 -78 50q-87 0 -87 -178q0 -99 20.5 -138.5t59.5 -39.5z" glyph-name="uni051B" unicode="ԛ" horiz-adv-x="543"/>
<glyph d="M755 692l-106 -692h-187l-80 544l-83 -544h-184l-103 692h141l67 -580l89 580h151l85 -580l75 580h135z" glyph-name="uni051C" unicode="Ԝ" horiz-adv-x="767"/>
<glyph d="M671 530l-99 -530h-168l-64 405l-64 -405h-165l-102 530h136l56 -426l74 426h137l68 -426l60 426h131z" glyph-name="uni051D" unicode="ԝ" horiz-adv-x="680"/>
<glyph d="M394 375l172 -375h-155l-138 307h-67v-307h-144v692h144v-277h70l46 95l-85 46l36 70l83 -45l54 111h139l-83 -169l91 -49l-36 -70l-89 48z" glyph-name="uni051E" unicode="Ԟ" horiz-adv-x="564"/>
<glyph d="M357 284l139 -284h-145l-108 232h-45v-232h-139v530h139v-209h48l36 70l-62 33l33 63l61 -33l39 76h131l-67 -130l70 -38l-33 -63l-70 37z" glyph-name="uni051F" unicode="ԟ" horiz-adv-x="493"/>
<glyph d="M672 465q91 0 141.5 -58.5t50.5 -162.5v-292q0 -84 -48 -127.5t-129 -43.5q-73 0 -127 41l50 84q32 -19 62 -19q48 0 48 57v300q0 111 -87 111q-63 0 -103 -49v-306h-145v581h-130l-26 -256q-12 -122 -33 -187.5t-57 -99.5t-102 -54l-34 104q44 20 60.5 64t30.5 180 l37 360h399v-283q58 56 142 56z" glyph-name="uni0520" unicode="Ԡ" horiz-adv-x="888"/>
<glyph d="M593 351q62 0 98 -42.5t36 -119.5v-239q0 -82 -47.5 -125.5t-125.5 -43.5q-76 0 -128 41l49 80q31 -18 62 -18q51 0 51 57v230q0 75 -45 75q-42 0 -87 -64v-182h-139v426h-95l-11 -146q-11 -157 -40.5 -211t-123.5 -81l-34 102q40 18 52 51t19 147l16 242h356v-246 q59 67 137 67z" glyph-name="uni0521" unicode="ԡ" horiz-adv-x="757"/>
<glyph d="M681 465q91 0 142 -58.5t51 -162.5v-292q0 -84 -48 -127.5t-129 -43.5q-73 0 -127 41l50 84q32 -19 62 -19q48 0 48 57v300q0 111 -87 111q-61 0 -101 -46v-309h-144v304h-192v-304h-144v692h144v-274h192v274h144v-281q57 54 139 54z" glyph-name="uni0522" unicode="Ԣ" horiz-adv-x="898"/>
<glyph d="M607 351q62 0 98 -42.5t36 -119.5v-239q0 -82 -47.5 -125.5t-125.5 -43.5q-76 0 -128 41l49 80q31 -18 62 -18q51 0 51 57v230q0 75 -45 75q-41 0 -84 -60v-186h-139v218h-136v-218h-139v530h139v-209h136v209h139v-243q57 64 134 64z" glyph-name="uni0523" unicode="ԣ" horiz-adv-x="772"/>
<glyph d="M540 112h72v-273h-100l-16 161h-100v579h-190v-579h-144v692h478v-580z" glyph-name="uni0524" unicode="Ԥ" horiz-adv-x="623"/>
<glyph d="M470 104h72v-265h-96l-16 161h-99v426h-133v-426h-139v530h411v-426z" glyph-name="uni0525" unicode="ԥ" horiz-adv-x="543"/>
<glyph d="M542 112h72v-273h-100l-16 161h-101v244q0 111 -86 111q-64 0 -105 -51v-304h-144v692h144v-285q56 58 143 58q91 0 142 -58.5t51 -162.5v-132z" glyph-name="uni0526" unicode="Ԧ" horiz-adv-x="624"/>
<glyph d="M469 104h71v-265h-96l-16 161h-98v306q0 74 -45 74t-87 -71v-309h-139v741l139 14v-343q54 74 137 74q62 0 98 -42.5t36 -118.5v-221z" glyph-name="uni0527" unicode="ԧ" horiz-adv-x="541"/>
<glyph d="M398 692h144v-692h-144v304h-192v-353q0 -84 -48 -127.5t-129 -43.5q-73 0 -127 41l50 84q32 -19 62 -19q48 0 48 57v749h144v-274h192v274z" glyph-name="uni0528" unicode="Ԩ" horiz-adv-x="604"/>
<glyph d="M334 530h139v-530h-139v218h-136v-218h1v-51q0 -82 -47.5 -125.5t-125.5 -43.5q-76 0 -128 41l49 80q32 -18 62 -18q51 0 51 57v60h-1v530h139v-209h136v209z" glyph-name="uni0529" unicode="ԩ" horiz-adv-x="532"/>
<glyph d="M795 375l156 -375h-154l-116 307h-29v-307h-152v-161h-100l-16 161h-274l-16 -161h-100v273h41q28 34 42.5 94.5t31.5 204.5l29 281h300v-277h73v277h141v-277h32l113 277h138zM310 112v476h-55l-16 -168q-13 -139 -33.5 -203t-61.5 -105h166zM511 112v195h-73v-195h73z " glyph-name="uni052A" unicode="Ԫ" horiz-adv-x="949"/>
<glyph d="M709 284l116 -284h-142l-86 233h-19v-233h-145v-161h-96l-16 161h-211l-16 -161h-96v265h31q25 21 38.5 64t21.5 161l14 201h284v-209h64v209h127v-210h23l83 210h129zM264 104v331h-44l-7 -95q-7 -109 -24.5 -159t-53.5 -77h129zM451 104v128h-64v-128h64z" glyph-name="uni052B" unicode="ԫ" horiz-adv-x="823"/>
<glyph d="M562 112h63v-273h-100l-16 161h-370l-16 -161h-100v273h60q69 84 101 210q-82 18 -116.5 70.5t-34.5 145.5v154h127v-156q0 -88 45 -111q8 61 10 101l15 166h332v-580zM350 585l-10 -115q-4 -37 -7 -59h98v174h-81zM206 112h225v201h-118q-38 -137 -107 -201z" glyph-name="uni052C" unicode="Ԭ" horiz-adv-x="645"/>
<glyph d="M519 104h51v-265h-96l-16 161h-300l-16 -161h-96v265h37q68 49 93 137q-141 24 -141 170v119h118v-115q0 -64 39 -80l1 10l14 185h312v-426zM318 435l-6 -86q0 -4 -0.5 -11t-1.5 -11h84v108h-76zM394 104v133h-101q-30 -96 -96 -133h197z" glyph-name="uni052D" unicode="ԭ" horiz-adv-x="586"/>
<glyph d="M530 112h72v-273h-100l-16 161h-101v581h-130l-26 -256q-12 -122 -33 -187.5t-57 -99.5t-102 -54l-34 104q44 20 60.5 64t30.5 180l37 360h399v-580z" glyph-name="uni052E" unicode="Ԯ" horiz-adv-x="613"/>
</font>
</defs>
</svg>
