<?xml version="1.0" encoding="UTF-8" standalone="no"?>
<!DOCTYPE svg  PUBLIC '-//W3C//DTD SVG 1.1//EN'  'http://www.w3.org/Graphics/SVG/1.1/DTD/svg11.dtd'>
<svg xmlns="http://www.w3.org/2000/svg" version="1.1">
<defs>
<font id="FiraSansCondensed-Book" horiz-adv-x="491">
<font-face panose-1="2 11 5 3 5 0 0 2 0 4" descent="-200" font-stretch="condensed" unicode-range="U+0020-052E" ascent="800" x-height="526" cap-height="688" bbox="-71 -238 1060 957" font-family="Fira Sans Condensed Book" underline-position="-150" units-per-em="1000" font-weight="350" underline-thickness="50"/>
<missing-glyph/>
<glyph horiz-adv-x="239" unicode=" " glyph-name="space"/>
<glyph horiz-adv-x="229" unicode="!" d="M158 688l-9 -461h-70l-10 461h89zM114 113q27 0 44.5 -18t17.5 -44t-17.5 -44.5t-44.5 -18.5t-44.5 18.5t-17.5 44.5t17.5 44t44.5 18z" glyph-name="exclam"/>
<glyph horiz-adv-x="376" unicode='&quot;' d="M71 429l-12 259h83l-12 -259h-59zM246 429l-12 259h83l-12 -259h-59z" glyph-name="quotedbl"/>
<glyph horiz-adv-x="467" unicode="#" d="M453 449h-68l-29 -219h64v-62h-72l-22 -168h-68l22 168h-140l-22 -168h-68l22 168h-59v62h67l29 219h-63v63h71l21 156h68l-21 -156h140l21 156h68l-21 -156h60v-63zM288 230l29 219h-140l-29 -219h140z" glyph-name="numbersign"/>
<glyph horiz-adv-x="478" unicode="$" d="M440 184q0 -72 -44 -125t-120 -67v-145h-69v142q-108 6 -184 85l46 50q70 -68 156 -68q58 0 94.5 34t36.5 93q0 50 -28 79t-104 55q-92 32 -134.5 76t-42.5 114q0 66 44.5 113t115.5 57v145h69v-145q82 -11 146 -75l-46 -49q-62 58 -136 58q-49 0 -79.5 -27t-30.5 -73 q0 -45 28 -72.5t106 -53.5q88 -31 132 -74t44 -127z" glyph-name="dollar"/>
<glyph horiz-adv-x="746" unicode="%" d="M555 709l56 -34l-417 -704l-57 34zM188 678q65 0 105.5 -44.5t40.5 -121.5q0 -78 -40.5 -123t-105.5 -45q-63 0 -103.5 45t-40.5 122t40 122t104 45zM188 622q-74 0 -74 -111t74 -111q75 0 75 112q0 110 -75 110zM557 323q64 0 104.5 -45t40.5 -123q0 -77 -40 -122 t-105 -45q-64 0 -104.5 45t-40.5 122q0 78 40.5 123t104.5 45zM557 266q-75 0 -75 -111q0 -110 75 -110t75 110q0 111 -75 111z" glyph-name="percent"/>
<glyph horiz-adv-x="659" unicode="&amp;" d="M276 699q73 0 118.5 -42t45.5 -108q0 -59 -33.5 -101.5t-96.5 -82.5l162 -174q36 88 55 174l74 -20q-29 -110 -79 -201l104 -108l-60 -48l-90 99q-80 -99 -200 -99q-88 0 -144.5 51.5t-56.5 134.5q0 62 31.5 108t96.5 91q-47 47 -68.5 85t-21.5 87q0 69 43 111.5 t120 42.5zM276 639q-39 0 -61 -25t-22 -68q0 -36 16 -65.5t55 -72.5q49 34 72.5 64.5t23.5 71.5q0 47 -22.5 71t-61.5 24zM249 328q-46 -33 -67.5 -68.5t-21.5 -83.5q0 -57 34 -89.5t89 -32.5q85 0 147 78z" glyph-name="ampersand"/>
<glyph horiz-adv-x="201" unicode="&apos;" d="M71 429l-12 259h83l-12 -259h-59z" glyph-name="quotesingle"/>
<glyph horiz-adv-x="292" unicode="(" d="M203 843l52 -35q-72 -119 -103.5 -213t-31.5 -245q0 -105 18.5 -189t43.5 -137t73 -132l-52 -35q-43 65 -65 104t-50 102.5t-40 133t-12 153.5t12 153.5t40 133t50 102.5t65 104z" glyph-name="parenleft"/>
<glyph horiz-adv-x="292" unicode=")" d="M88 843q42 -64 65 -104t50.5 -102.5t39.5 -132.5t12 -154t-12 -154t-39.5 -132.5t-50.5 -102.5t-65 -104l-52 35q48 79 73 132t43.5 137t18.5 189q0 151 -31.5 245t-103.5 213z" glyph-name="parenright"/>
<glyph horiz-adv-x="406" unicode="*" d="M381 567l-136 -35l94 -118l-65 -42l-71 131l-71 -131l-65 41l94 119l-136 35l24 67l127 -56l-12 160h78l-13 -160l127 57z" glyph-name="asterisk"/>
<glyph horiz-adv-x="451" unicode="+" d="M262 514v-149h133v-69h-133v-147h-73v147h-133v69h133v149h73z" glyph-name="plus"/>
<glyph horiz-adv-x="214" unicode="," d="M107 113q27 0 44 -17.5t17 -44.5q0 -23 -17 -66l-58 -147h-56l37 161q-28 18 -28 52q0 26 17.5 44t43.5 18z" glyph-name="comma"/>
<glyph horiz-adv-x="366" unicode="-" d="M56 278v70h254v-70h-254z" glyph-name="hyphen"/>
<glyph horiz-adv-x="216" unicode="." d="M108 113q27 0 44.5 -18t17.5 -44t-17.5 -44.5t-44.5 -18.5t-44.5 18.5t-17.5 44.5t17.5 44t44.5 18z" glyph-name="period"/>
<glyph horiz-adv-x="468" unicode="/" d="M305 805l69 -14l-211 -893l-69 15z" glyph-name="slash"/>
<glyph horiz-adv-x="516" unicode="0" d="M258 678q201 0 201 -345t-201 -345q-202 0 -202 346q0 344 202 344zM258 613q-59 0 -87.5 -65t-28.5 -214q0 -151 28.5 -215.5t87.5 -64.5t87.5 64.5t28.5 214.5q0 151 -28.5 215.5t-87.5 64.5z" glyph-name="zero"/>
<glyph horiz-adv-x="387" unicode="1" d="M286 668v-668h-81v580l-141 -95l-36 56l186 127h72z" glyph-name="one"/>
<glyph horiz-adv-x="440" unicode="2" d="M201 678q83 0 132 -50t49 -128q0 -89 -52 -170t-209 -261h275l-9 -69h-356v66q168 196 217 273t49 158q0 54 -27 83.5t-74 29.5q-37 0 -65.5 -17t-58.5 -55l-54 41q73 99 183 99z" glyph-name="two"/>
<glyph horiz-adv-x="448" unicode="3" d="M203 678q81 0 129.5 -48.5t48.5 -119.5q0 -125 -126 -155q65 -7 104.5 -48.5t39.5 -115.5q0 -87 -56 -145t-148 -58q-111 0 -182 89l50 43q59 -65 130 -65q57 0 90 36.5t33 100.5q0 68 -33 97.5t-96 29.5h-42l10 62h29q51 0 84 32t33 92q0 51 -28 79.5t-77 28.5 q-66 0 -123 -58l-44 45q75 78 174 78z" glyph-name="three"/>
<glyph horiz-adv-x="479" unicode="4" d="M452 234v-66h-78v-168h-79v168h-259v60l180 450l69 -27l-164 -417h175l8 184h70v-184h78z" glyph-name="four"/>
<glyph horiz-adv-x="453" unicode="5" d="M391 668l-12 -65h-235v-206q45 27 97 27q78 0 124.5 -56t46.5 -154q0 -100 -57.5 -163t-150.5 -63q-101 0 -179 84l49 46q56 -62 129 -62q58 0 91 41.5t33 118.5q0 145 -111 145q-42 0 -88 -26h-62v333h325z" glyph-name="five"/>
<glyph unicode="6" d="M284 438q71 0 118.5 -55t47.5 -157q0 -111 -53.5 -174.5t-137.5 -63.5q-203 0 -203 322q0 171 61.5 269.5t168.5 98.5q68 0 122 -40l-32 -54q-43 29 -90 29q-66 0 -105 -70t-43 -194q56 89 146 89zM259 54q53 0 81 44.5t28 125.5q0 149 -99 149q-78 0 -130 -97 q2 -115 30.5 -168.5t89.5 -53.5z" glyph-name="six"/>
<glyph horiz-adv-x="401" unicode="7" d="M374 668v-62l-228 -615l-74 24l220 586h-270v67h352z" glyph-name="seven"/>
<glyph horiz-adv-x="496" unicode="8" d="M323 357q133 -58 133 -180q0 -85 -58 -137t-151 -52t-149.5 52t-56.5 135q0 123 126 178q-101 52 -101 155q0 80 53.5 125t129.5 45q75 0 128.5 -43.5t53.5 -124.5q0 -51 -26 -87.5t-82 -65.5zM249 617q-103 0 -103 -110q0 -48 25 -73.5t82 -48.5l19 -7q42 26 60.5 56 t18.5 73q0 110 -102 110zM248 53q59 0 91.5 31.5t32.5 91.5q0 55 -28 86t-100 59l-24 10q-95 -47 -95 -156q0 -61 32.5 -91.5t90.5 -30.5z" glyph-name="eight"/>
<glyph horiz-adv-x="479" unicode="9" d="M234 678q97 0 146 -68.5t49 -193.5q0 -102 -18.5 -173.5t-60.5 -121.5t-99 -82t-144 -60l-19 61q122 39 186 104.5t70 177.5q-50 -77 -135 -77q-71 0 -120 58t-49 155q0 104 55 162t139 58zM225 310q72 0 122 87q1 116 -26 166t-86 50q-54 0 -83 -39.5t-29 -117.5 q0 -72 27.5 -109t74.5 -37z" glyph-name="nine"/>
<glyph horiz-adv-x="216" unicode=":" d="M108 486q27 0 44.5 -18t17.5 -44t-17.5 -44.5t-44.5 -18.5t-44.5 18.5t-17.5 44.5t17.5 44t44.5 18zM108 113q27 0 44.5 -18t17.5 -44t-17.5 -44.5t-44.5 -18.5t-44.5 18.5t-17.5 44.5t17.5 44t44.5 18z" glyph-name="colon"/>
<glyph horiz-adv-x="217" unicode=";" d="M108 486q27 0 44.5 -18t17.5 -44t-17.5 -44.5t-44.5 -18.5t-44.5 18.5t-17.5 44.5t17.5 44t44.5 18zM107 113q27 0 44 -17.5t17 -44.5q0 -23 -17 -66l-58 -147h-56l37 161q-28 18 -28 52q0 26 17.5 44t43.5 18z" glyph-name="semicolon"/>
<glyph horiz-adv-x="452" unicode="&lt;" d="M375 542l31 -65l-294 -144l294 -146l-31 -64l-329 169v82z" glyph-name="less"/>
<glyph horiz-adv-x="450" unicode="=" d="M56 391v68h338v-68h-338zM56 202v68h338v-68h-338z" glyph-name="equal"/>
<glyph horiz-adv-x="452" unicode="&gt;" d="M77 542l329 -168v-82l-329 -169l-31 64l294 146l-294 144z" glyph-name="greater"/>
<glyph horiz-adv-x="420" unicode="?" d="M216 699q81 0 126.5 -44.5t45.5 -107.5q0 -43 -17 -74.5t-41 -50.5t-47.5 -37.5t-40.5 -46t-17 -64.5v-47h-80v52q0 46 16.5 79.5t39.5 52.5t46.5 36t40 41t16.5 56q0 41 -25 64.5t-68 23.5q-69 0 -126 -71l-54 41q75 97 185 97zM187 113q27 0 45 -18t18 -44t-18 -44.5 t-45 -18.5q-26 0 -43.5 18.5t-17.5 44.5t17 44t44 18z" glyph-name="question"/>
<glyph horiz-adv-x="924" unicode="@" d="M477 699q180 0 280 -111t100 -281q0 -133 -46.5 -215t-129.5 -82q-48 0 -76 29t-37 70q-41 -97 -130 -97q-74 0 -116 58t-42 161q0 128 53.5 193.5t142.5 65.5q73 0 140 -40v-258q0 -119 63 -119q97 0 97 232q0 152 -77.5 239.5t-221.5 87.5q-151 0 -240 -109t-89 -283 q0 -178 86.5 -280t241.5 -102q88 0 173 33l22 -63q-98 -39 -196 -39q-183 0 -295.5 121t-112.5 330q0 200 114 329.5t296 129.5zM446 73q61 0 97 75v269q-31 13 -65 13q-118 0 -118 -199q0 -158 86 -158z" glyph-name="at"/>
<glyph horiz-adv-x="523" unicode="A" d="M426 0l-48 177h-236l-48 -177h-85l200 688h106l199 -688h-88zM160 246h200l-100 372z" glyph-name="A"/>
<glyph horiz-adv-x="546" unicode="B" d="M354 364q152 -28 152 -170q0 -99 -65.5 -146.5t-182.5 -47.5h-169v688h143q119 0 182.5 -44t63.5 -129q0 -60 -34 -99t-90 -52zM241 621h-67v-227h86q62 0 97 30t35 85q0 61 -37 86.5t-114 25.5zM259 68q77 0 117.5 28.5t40.5 97.5q0 133 -149 133h-94v-259h85z" glyph-name="B"/>
<glyph horiz-adv-x="505" unicode="C" d="M310 699q54 0 92.5 -16t78.5 -50l-45 -53q-59 50 -122 50q-78 0 -125.5 -67t-47.5 -219q0 -147 47 -215.5t127 -68.5q62 0 129 55l44 -52q-71 -75 -176 -75q-118 0 -189 91.5t-71 264.5t72.5 264t185.5 91z" glyph-name="C"/>
<glyph horiz-adv-x="580" unicode="D" d="M223 688q36 0 66.5 -3.5t62 -13.5t57 -26t48.5 -42.5t38 -61.5t24 -84t9 -109q0 -82 -17.5 -145t-45 -100.5t-66.5 -61.5t-78 -32.5t-83 -8.5h-149v688h134zM239 620h-65v-552h70q41 0 73 11.5t61 40t45 86.5t16 142q0 70 -11.5 120.5t-29.5 79.5t-46 45.5t-53.5 21.5 t-59.5 5z" glyph-name="D"/>
<glyph horiz-adv-x="475" unicode="E" d="M425 688l-10 -68h-241v-234h210v-69h-210v-249h257v-68h-342v688h336z" glyph-name="E"/>
<glyph horiz-adv-x="439" unicode="F" d="M89 0v688h329l-9 -68h-235v-245h203v-67h-203v-308h-85z" glyph-name="F"/>
<glyph horiz-adv-x="571" unicode="G" d="M322 699q102 0 184 -73l-48 -50q-64 54 -136 54q-78 0 -129.5 -67.5t-51.5 -217.5q0 -154 43.5 -220.5t129.5 -66.5q64 0 116 32v219h-109l-9 70h201v-331q-95 -60 -199 -60q-125 0 -193.5 89t-68.5 268q0 171 77.5 262.5t192.5 91.5z" glyph-name="G"/>
<glyph horiz-adv-x="609" unicode="H" d="M435 0v326h-261v-326h-85v688h85v-292h261v292h85v-688h-85z" glyph-name="H"/>
<glyph horiz-adv-x="263" unicode="I" d="M174 688v-688h-85v688h85z" glyph-name="I"/>
<glyph horiz-adv-x="273" unicode="J" d="M188 688v-594q0 -97 -39 -146t-122 -80l-23 61q60 28 79.5 62.5t19.5 106.5v590h85z" glyph-name="J"/>
<glyph horiz-adv-x="528" unicode="K" d="M174 688v-688h-85v688h85zM511 688l-238 -315l254 -373h-100l-249 368l239 320h94z" glyph-name="K"/>
<glyph horiz-adv-x="443" unicode="L" d="M174 688v-613h254l-10 -75h-329v688h85z" glyph-name="L"/>
<glyph horiz-adv-x="710" unicode="M" d="M597 688l53 -688h-81l-22 316q-15 198 -16 286l-136 -523h-79l-143 524q0 -89 -12 -291l-21 -312h-81l53 688h113l132 -511l126 511h114z" glyph-name="M"/>
<glyph horiz-adv-x="611" unicode="N" d="M522 688v-688h-113l-252 594q12 -130 12 -258v-336h-80v688h112l253 -595q-12 80 -12 207v388h80z" glyph-name="N"/>
<glyph horiz-adv-x="626" unicode="O" d="M313 699q121 0 191.5 -90.5t70.5 -265.5q0 -173 -70.5 -264t-191.5 -91q-120 0 -190.5 90t-70.5 264q0 172 71 264.5t190 92.5zM313 630q-172 0 -172 -288q0 -284 172 -284t172 285q0 287 -172 287z" glyph-name="O"/>
<glyph horiz-adv-x="520" unicode="P" d="M239 688q253 0 253 -211q0 -112 -67 -166t-185 -54h-66v-257h-85v688h150zM239 325q82 0 123 33.5t41 117.5q0 77 -41 111t-122 34h-66v-296h65z" glyph-name="P"/>
<glyph horiz-adv-x="626" unicode="Q" d="M427 35q99 -1 176 -67l-56 -68q-51 52 -101.5 71.5t-134.5 19.5q-118 0 -188.5 90t-70.5 261q0 172 71 264.5t190 92.5q121 0 191.5 -90.5t70.5 -265.5q0 -127 -38 -198.5t-110 -109.5zM141 342q0 -284 172 -284t172 285q0 287 -172 287t-172 -288z" glyph-name="Q"/>
<glyph horiz-adv-x="544" unicode="R" d="M521 0h-96l-151 298q-3 -1 -10 -1h-90v-297h-85v688h154q245 0 245 -192q0 -141 -134 -184zM251 362q75 0 111 32t36 102q0 65 -36.5 95t-120.5 30h-67v-259h77z" glyph-name="R"/>
<glyph unicode="S" d="M245 699q109 0 189 -78l-46 -50q-66 59 -141 59q-50 0 -81.5 -28t-31.5 -75q0 -46 28.5 -74t108.5 -56q90 -31 136 -76t46 -131q0 -87 -60 -144.5t-160 -57.5q-125 0 -210 88l46 51q77 -69 162 -69q60 0 97 35t37 95q0 52 -28.5 82t-106.5 57q-95 33 -138.5 78t-43.5 118 q0 76 55.5 126t141.5 50z" glyph-name="S"/>
<glyph horiz-adv-x="463" unicode="T" d="M455 688l-9 -72h-172v-616h-85v616h-176v72h442z" glyph-name="T"/>
<glyph horiz-adv-x="591" unicode="U" d="M512 688v-489q0 -93 -57 -152t-160 -59q-104 0 -160 58.5t-56 152.5v489h85v-482q0 -146 131 -146q132 0 132 146v482h85z" glyph-name="U"/>
<glyph horiz-adv-x="507" unicode="V" d="M498 688l-196 -688h-95l-198 688h88l159 -597l157 597h85z" glyph-name="V"/>
<glyph horiz-adv-x="747" unicode="W" d="M722 688l-126 -688h-109l-114 588l-116 -588h-107l-125 688h82l100 -613l120 613h92l122 -613l102 613h79z" glyph-name="W"/>
<glyph horiz-adv-x="484" unicode="X" d="M290 372l189 -372h-92l-148 314l-146 -314h-88l185 367l-169 321h92l128 -266l129 266h88z" glyph-name="X"/>
<glyph horiz-adv-x="493" unicode="Y" d="M488 688l-199 -422v-266h-85v265l-199 423h92l152 -348l152 348h87z" glyph-name="Y"/>
<glyph horiz-adv-x="468" unicode="Z" d="M431 688v-69l-313 -546h312l-10 -73h-393v68l314 548h-282v72h372z" glyph-name="Z"/>
<glyph horiz-adv-x="289" unicode="[" d="M242 813v-68h-105v-793h105v-67h-182v928h182z" glyph-name="bracketleft"/>
<glyph horiz-adv-x="468" unicode="\" d="M163 804l211 -891l-69 -15l-211 891z" glyph-name="backslash"/>
<glyph horiz-adv-x="289" unicode="]" d="M229 813v-928h-183v67h106v793h-106v68h183z" glyph-name="bracketright"/>
<glyph horiz-adv-x="486" unicode="^" d="M279 838l169 -311h-87l-120 238l-118 -238h-85l168 311h73z" glyph-name="asciicircum"/>
<glyph horiz-adv-x="470" unicode="_" d="M18 -136v71h434v-71h-434z" glyph-name="underscore"/>
<glyph horiz-adv-x="274" unicode="`" d="M70 793l177 -110l-25 -43l-189 86z" glyph-name="grave"/>
<glyph unicode="a" d="M405 115q0 -31 9.5 -46.5t29.5 -23.5l-18 -57q-75 12 -91 79q-49 -79 -141 -79q-71 0 -111.5 43.5t-40.5 115.5q0 83 55 127.5t157 44.5h70v47q0 55 -24 80t-74 25q-55 0 -130 -28l-20 59q85 35 162 35q84 0 125.5 -43.5t41.5 -123.5v-255zM211 50q74 0 113 88v125h-60 q-136 0 -136 -113q0 -100 83 -100z" glyph-name="a"/>
<glyph horiz-adv-x="532" unicode="b" d="M303 537q82 0 128.5 -70t46.5 -203q0 -128 -49.5 -202t-135.5 -74q-77 0 -129 70l-6 -58h-73v738l82 9v-288q52 78 136 78zM275 54q116 0 116 210q0 112 -28 160t-81 48q-66 0 -115 -85v-260q43 -73 108 -73z" glyph-name="b"/>
<glyph horiz-adv-x="428" unicode="c" d="M261 537q82 0 143 -55l-38 -50q-51 38 -102 38q-124 0 -124 -210q0 -202 124 -202q50 0 103 39l38 -51q-63 -58 -143 -58q-98 0 -154 70t-56 201q0 130 56 204t153 74z" glyph-name="c"/>
<glyph horiz-adv-x="536" unicode="d" d="M368 748l82 -10v-738h-72l-7 71q-50 -83 -135 -83q-87 0 -134.5 73t-47.5 200q0 124 51 200t136 76q75 0 127 -64v275zM252 54q68 0 116 81v265q-47 72 -110 72q-55 0 -86 -52.5t-31 -157.5q1 -208 111 -208z" glyph-name="d"/>
<glyph horiz-adv-x="492" unicode="e" d="M445 280q0 -22 -2 -46h-305q8 -178 129 -178q67 0 124 46l37 -50q-74 -64 -165 -64q-100 0 -155.5 70.5t-55.5 199.5q0 128 53.5 203.5t146.5 75.5q94 0 143.5 -66.5t49.5 -190.5zM365 295v9q0 168 -112 168q-107 0 -115 -177h227z" glyph-name="e"/>
<glyph horiz-adv-x="303" unicode="f" d="M248 681q-72 0 -72 -73v-82h118l-10 -64h-108v-462h-82v462h-82v64h82v81q0 64 39 102.5t109 38.5q56 0 115 -27l-26 -59q-41 19 -83 19z" glyph-name="f"/>
<glyph horiz-adv-x="468" unicode="g" d="M441 580l25 -74q-42 -16 -136 -16q83 -43 83 -136q0 -80 -48 -128.5t-132 -48.5q-33 0 -60 10q-26 -18 -26 -52q0 -47 65 -47h69q76 0 121.5 -40t45.5 -101q0 -74 -56.5 -116t-164.5 -42q-111 0 -157.5 39t-46.5 118h73q1 -50 28.5 -71t103.5 -21q138 0 138 87 q0 79 -101 79h-58q-68 0 -101.5 27t-33.5 71q0 52 54 90q-82 48 -82 148q0 81 52 131t134 50q55 0 96.5 6t62.5 14t52 23zM229 478q-50 0 -76 -31.5t-26 -90.5q0 -56 27 -89.5t75 -33.5q102 0 102 123q0 122 -102 122z" glyph-name="g"/>
<glyph horiz-adv-x="528" unicode="h" d="M311 537q63 0 99.5 -41.5t36.5 -113.5v-382h-82v371q0 102 -73 102q-68 0 -125 -99v-374h-82v737l82 9v-297q58 88 144 88z" glyph-name="h"/>
<glyph horiz-adv-x="253" unicode="i" d="M126 772q25 0 40.5 -16t15.5 -41q0 -24 -15.5 -40t-40.5 -16t-41 16t-16 40q0 25 16 41t41 16zM167 526v-526h-82v526h82z" glyph-name="i"/>
<glyph horiz-adv-x="252" unicode="j" d="M126 772q25 0 40.5 -16t15.5 -41q0 -24 -15.5 -40t-40.5 -16t-41 16t-16 40q0 25 16 41t41 16zM167 526v-510q0 -65 -18.5 -108t-48 -66.5t-83.5 -50.5l-25 58q52 28 72.5 60t20.5 104v513h82z" glyph-name="j"/>
<glyph horiz-adv-x="460" unicode="k" d="M167 748v-748h-82v738zM441 526l-180 -234l199 -292h-95l-192 287l180 239h88z" glyph-name="k"/>
<glyph horiz-adv-x="264" unicode="l" d="M179 -12q-45 0 -72 28t-27 78v644l82 10v-652q0 -40 32 -40q14 0 30 6l20 -57q-29 -17 -65 -17z" glyph-name="l"/>
<glyph horiz-adv-x="771" unicode="m" d="M562 537q58 0 93 -42t35 -113v-382h-81v371q0 102 -66 102q-61 0 -115 -97v-376h-81v371q0 102 -66 102q-61 0 -115 -97v-376h-81v526h71l6 -79q56 90 139 90q89 0 118 -95q58 95 143 95z" glyph-name="m"/>
<glyph horiz-adv-x="528" unicode="n" d="M311 537q64 0 100 -41.5t36 -113.5v-382h-82v371q0 102 -73 102q-68 0 -125 -100v-373h-82v526h71l7 -81q59 92 148 92z" glyph-name="n"/>
<glyph horiz-adv-x="526" unicode="o" d="M264 537q100 0 155 -71t55 -202q0 -127 -56.5 -201.5t-154.5 -74.5q-100 0 -155.5 73t-55.5 201q0 130 56 202.5t156 72.5zM264 471q-125 0 -125 -209q0 -207 124 -207t124 209q0 207 -123 207z" glyph-name="o"/>
<glyph horiz-adv-x="532" unicode="p" d="M305 537q87 0 130 -70.5t43 -202.5q0 -127 -48 -201.5t-137 -74.5q-78 0 -126 62v-250l-82 -11v737h72l6 -71q54 82 142 82zM275 56q116 0 116 208t-106 208q-65 0 -118 -82v-269q42 -65 108 -65z" glyph-name="p"/>
<glyph horiz-adv-x="536" unicode="q" d="M380 526h70v-737l-82 11v267q-50 -79 -133 -79q-85 0 -133 72.5t-48 200.5q0 125 51 200.5t136 75.5q79 0 133 -70zM252 54q67 0 116 81v267q-50 70 -111 70q-53 0 -84.5 -52.5t-31.5 -157.5q1 -208 111 -208z" glyph-name="q"/>
<glyph horiz-adv-x="348" unicode="r" d="M293 537q25 0 46 -6l-15 -79q-21 6 -40 6q-45 0 -73 -37t-44 -114v-307h-82v526h71l7 -105q39 116 130 116z" glyph-name="r"/>
<glyph horiz-adv-x="425" unicode="s" d="M216 537q92 0 160 -59l-36 -49q-62 44 -121 44q-41 0 -65.5 -20.5t-24.5 -55.5q0 -33 23 -52.5t83 -38.5q80 -24 117.5 -61t37.5 -100q0 -74 -54 -115.5t-132 -41.5q-107 0 -179 69l44 48q61 -51 133 -51q47 0 75 23t28 64q0 40 -24 61.5t-93 43.5q-76 24 -109.5 59.5 t-33.5 89.5q0 61 48.5 101.5t122.5 40.5z" glyph-name="s"/>
<glyph horiz-adv-x="326" unicode="t" d="M295 76l31 -53q-47 -35 -106 -35q-61 0 -95 35.5t-34 100.5v338h-80v64h80v121l82 9v-130h114l-9 -64h-105v-337q0 -68 57 -68q31 0 65 19z" glyph-name="t"/>
<glyph horiz-adv-x="524" unicode="u" d="M439 526v-526h-71l-6 80q-53 -92 -146 -92q-63 0 -99 40.5t-36 109.5v388h82v-379q0 -94 73 -94q71 0 121 94v379h82z" glyph-name="u"/>
<glyph horiz-adv-x="445" unicode="v" d="M434 526l-160 -526h-98l-165 526h87l127 -453l125 453h84z" glyph-name="v"/>
<glyph horiz-adv-x="652" unicode="w" d="M630 526l-108 -526h-110l-86 450l-86 -450h-108l-111 526h82l86 -466l92 466h95l90 -466l87 466h77z" glyph-name="w"/>
<glyph horiz-adv-x="438" unicode="x" d="M267 282l164 -282h-93l-121 230l-122 -230h-89l165 278l-146 248h91l103 -199l104 199h88z" glyph-name="x"/>
<glyph horiz-adv-x="446" unicode="y" d="M434 526l-159 -529q-28 -91 -77.5 -142.5t-140.5 -64.5l-9 63q68 14 98.5 46t52.5 101h-29l-159 526h86l128 -466l125 466h84z" glyph-name="y"/>
<glyph horiz-adv-x="392" unicode="z" d="M364 526v-63l-252 -394h253l-9 -69h-334v62l252 394h-231v70h321z" glyph-name="z"/>
<glyph horiz-adv-x="291" unicode="{" d="M248 834v-62q-45 0 -64 -16.5t-19 -55.5v-245q0 -50 -17 -72t-55 -34q39 -12 56 -33.5t17 -71.5v-244q0 -40 18.5 -56t63.5 -16v-62q-85 0 -121.5 33.5t-36.5 108.5v232q0 41 -14.5 58t-49.5 17v68q35 0 49.5 17.5t14.5 59.5v232q0 75 36 108.5t122 33.5z" glyph-name="braceleft"/>
<glyph horiz-adv-x="361" unicode="|" d="M218 806v-908h-75v908h75z" glyph-name="bar"/>
<glyph horiz-adv-x="291" unicode="}" d="M43 834q85 0 121.5 -33.5t36.5 -108.5v-232q0 -42 14.5 -59.5t49.5 -17.5v-68q-35 0 -49.5 -17t-14.5 -58v-232q0 -75 -36.5 -108.5t-121.5 -33.5v62q45 0 63.5 16t18.5 56v244q0 50 17 71.5t56 33.5q-39 12 -56 34t-17 72v245q0 39 -18.5 55.5t-62.5 16.5z" glyph-name="braceright"/>
<glyph horiz-adv-x="438" unicode="~" d="M290 255q-37 0 -82.5 30t-62.5 30q-33 0 -63 -52l-48 26q44 90 118 90q35 0 79.5 -29.5t62.5 -29.5q34 0 63 46l48 -26q-45 -85 -115 -85z" glyph-name="asciitilde"/>
<glyph horiz-adv-x="239" unicode=" " glyph-name="uni00A0"/>
<glyph horiz-adv-x="229" unicode="¡" d="M115 489q26 0 43.5 -18.5t17.5 -44.5q0 -25 -17.5 -43.5t-43.5 -18.5q-27 0 -45 18.5t-18 43.5q0 26 18 44.5t45 18.5zM150 250l10 -451h-89l9 451h70z" glyph-name="exclamdown"/>
<glyph horiz-adv-x="428" unicode="¢" d="M405 46q-49 -46 -111 -56v-143h-69v144q-82 12 -127.5 81t-45.5 187t46 190t128 85v149h68v-148q62 -9 110 -53l-38 -50q-51 38 -102 38q-124 0 -124 -210q0 -202 124 -202q50 0 103 39z" glyph-name="cent"/>
<glyph horiz-adv-x="470" unicode="£" d="M192 194q0 -51 -12.5 -78t-48.5 -47h293l-9 -69h-378v66q46 19 60.5 44.5t14.5 84.5v130h-60v55h60v121q0 79 45 128t124 49q97 0 159 -80l-52 -41q-44 54 -102 54q-46 0 -70 -28t-24 -81v-122h187v-55h-187v-131z" glyph-name="sterling"/>
<glyph horiz-adv-x="504" unicode="¤" d="M479 137l-51 -45l-69 77q-47 -33 -109 -33q-59 0 -105 33l-70 -77l-48 46l74 79q-34 53 -34 124q0 68 32 121l-74 83l51 45l69 -79q45 34 105 34q61 0 109 -32l70 77l48 -46l-73 -78q34 -53 34 -125q0 -71 -32 -123zM252 201q110 0 110 141q0 140 -110 140t-110 -140 q0 -141 110 -141z" glyph-name="currency"/>
<glyph horiz-adv-x="480" unicode="¥" d="M475 668l-172 -324h102v-57h-123v-93h123v-56h-123v-138h-83v138h-124v56h124v93h-124v57h103l-173 324h88l149 -301l149 301h84z" glyph-name="yen"/>
<glyph horiz-adv-x="361" unicode="¦" d="M218 806v-363h-75v363h75zM218 262v-364h-75v364h75z" glyph-name="brokenbar"/>
<glyph horiz-adv-x="482" unicode="§" d="M348 171q49 -37 49 -98q0 -65 -48 -104t-123 -39q-91 0 -155 49l32 53q55 -38 122 -38q41 0 66 19.5t25 53.5q0 35 -21 54t-90 44q-76 28 -108 59.5t-32 88.5q0 72 71 122q-49 37 -49 100q0 65 47 103t119 38q88 0 153 -52l-32 -51q-59 40 -119 40q-41 0 -64 -20t-23 -53 q0 -35 21.5 -56t88.5 -46q74 -28 106.5 -60t32.5 -84q0 -74 -69 -123zM143 323q0 -38 19 -57.5t75 -40.5q21 -8 64 -26q39 36 39 84q0 34 -20 54t-79 44q-44 18 -60 26q-38 -40 -38 -84z" glyph-name="section"/>
<glyph horiz-adv-x="348" unicode="¨" d="M85 760q22 0 36.5 -14.5t14.5 -37.5q0 -22 -14.5 -36.5t-36.5 -14.5t-36.5 14.5t-14.5 36.5t14.5 37t36.5 15zM271 760q22 0 36.5 -14.5t14.5 -37.5q0 -22 -14.5 -36.5t-36.5 -14.5t-36.5 14.5t-14.5 36.5t14.5 37t36.5 15z" glyph-name="dieresis"/>
<glyph horiz-adv-x="729" unicode="©" d="M365 745q119 0 199.5 -86.5t80.5 -224.5t-80.5 -224t-199.5 -86q-120 0 -200.5 86t-80.5 224q0 139 80.5 225t200.5 86zM365 696q-99 0 -163 -71.5t-64 -190.5t64 -189.5t163 -70.5t162.5 71t63.5 189q0 120 -63.5 191t-162.5 71zM368 622q56 0 102 -38l-30 -42 q-32 25 -70 25q-81 0 -81 -132q0 -130 82 -130q38 0 74 29l28 -42q-46 -44 -105 -44q-65 0 -105.5 48.5t-40.5 138.5q0 91 41.5 139t104.5 48z" glyph-name="copyright"/>
<glyph horiz-adv-x="456" unicode="ª" d="M228 524h55v32q0 37 -18 53t-58 16q-42 0 -99 -20l-21 55q70 28 132 28q142 0 142 -127v-186q0 -36 29 -48l-17 -54q-60 8 -78 56q-39 -57 -112 -57q-57 0 -90 33t-33 88q0 63 44 97t124 34zM202 332q51 0 81 56v85h-49q-92 0 -92 -76q0 -65 60 -65zM64 69h338v-68h-338 v68z" glyph-name="ordfeminine"/>
<glyph horiz-adv-x="529" unicode="«" d="M212 530l50 -32l-125 -211l125 -210l-50 -33l-156 214v57zM424 530l50 -32l-125 -211l125 -210l-50 -33l-156 214v57z" glyph-name="guillemotleft"/>
<glyph horiz-adv-x="453" unicode="¬" d="M397 356v-207h-73v139h-268v68h341z" glyph-name="logicalnot"/>
<glyph horiz-adv-x="366" unicode="­" d="M56 278v70h254v-70h-254z" glyph-name="uni00AD"/>
<glyph horiz-adv-x="576" unicode="®" d="M287 746q98 0 163 -71.5t65 -179.5q0 -109 -65 -180.5t-163 -71.5q-96 0 -161 71t-65 180q0 108 65 180t161 72zM287 289q80 0 130 56.5t50 149.5t-50 149.5t-130 56.5q-77 0 -127.5 -57.5t-50.5 -149.5t50 -148.5t128 -56.5zM383 552q0 -58 -56 -75l66 -116h-58l-54 107 h-26v-107h-49v274h68q109 0 109 -83zM255 594v-85h29q49 0 49 43q0 42 -51 42h-27z" glyph-name="registered"/>
<glyph horiz-adv-x="301" unicode="¯" d="M274 670h-241v61h241v-61z" glyph-name="macron"/>
<glyph horiz-adv-x="469" unicode="°" d="M197 385q-60 0 -103 42t-43 116q0 73 43.5 114.5t102.5 41.5q60 0 103 -42t43 -115t-43 -115t-103 -42zM197 441q35 0 57 25t22 76t-22 76t-57 25t-57 -25t-22 -75q0 -51 22 -76.5t57 -25.5z" glyph-name="degree"/>
<glyph horiz-adv-x="452" unicode="±" d="M262 534v-149h133v-69h-133v-147h-73v147h-133v69h133v149h73zM56 0v68h338v-68h-338z" glyph-name="plusminus"/>
<glyph horiz-adv-x="360" unicode="²" d="M177 744q56 0 89.5 -33t33.5 -84t-33.5 -99.5t-130.5 -148.5h173l-7 -57h-241v53q108 116 139 159.5t31 88.5q0 31 -16 48t-44 17q-43 0 -79 -42l-42 32q51 66 127 66z" glyph-name="uni00B2"/>
<glyph horiz-adv-x="360" unicode="³" d="M178 745q57 0 89.5 -30t32.5 -76q0 -78 -81 -96q42 -4 68 -30t26 -73q0 -55 -38.5 -91t-102.5 -36q-76 0 -125 59l39 36q37 -40 84 -40q33 0 52.5 20.5t19.5 54.5q0 71 -73 71h-31l8 51h21q29 0 47.5 17.5t18.5 49.5q0 29 -16.5 45t-44.5 16q-40 0 -81 -36l-34 37 q53 51 121 51z" glyph-name="uni00B3"/>
<glyph horiz-adv-x="274" unicode="´" d="M211 793l36 -67l-189 -86l-25 43z" glyph-name="acute"/>
<glyph horiz-adv-x="529" unicode="µ" d="M462 -1l-76 -10q-17 42 -23 101q-52 -102 -127 -102q-58 0 -86 54q16 -57 16 -133v-110l-81 -9v736h82v-372q0 -95 73 -95t116 101v366h82v-347q0 -97 24 -180z" glyph-name="uni00B5"/>
<glyph horiz-adv-x="661" unicode="¶" d="M301 688h234v-888l-74 -12v834h-104v-822l-74 -12v497q-102 5 -152 60t-50 142q0 96 58 148.5t162 52.5z" glyph-name="paragraph"/>
<glyph horiz-adv-x="216" unicode="·" d="M108 374q27 0 44.5 -18t17.5 -44t-17.5 -44.5t-44.5 -18.5t-44.5 18.5t-17.5 44.5t17.5 44t44.5 18z" glyph-name="periodcentered"/>
<glyph horiz-adv-x="251" unicode="¸" d="M140 16v-76q84 -10 84 -82q0 -45 -30.5 -70t-78.5 -25q-51 0 -82 23l24 45q28 -14 54 -14q46 0 46 41q0 44 -80 44l12 114h51z" glyph-name="cedilla"/>
<glyph horiz-adv-x="360" unicode="¹" d="M246 738v-416h-67v346l-88 -57l-31 45l125 82h61z" glyph-name="uni00B9"/>
<glyph horiz-adv-x="453" unicode="º" d="M227 688q82 0 127.5 -54t45.5 -154q0 -97 -46 -152.5t-128 -55.5t-127.5 54.5t-45.5 153.5q0 98 46 153t128 55zM227 626q-93 0 -93 -146t92 -146q46 0 69 34.5t23 111.5q0 78 -22.5 112t-68.5 34zM57 0v68h338v-68h-338z" glyph-name="ordmasculine"/>
<glyph horiz-adv-x="525" unicode="»" d="M105 530l157 -215v-57l-157 -214l-49 33l124 210l-124 211zM313 530l157 -215v-57l-157 -214l-49 33l124 210l-124 211z" glyph-name="guillemotright"/>
<glyph horiz-adv-x="839" unicode="¼" d="M576 749l53 -24l-365 -801l-54 24zM246 272h-67v346l-88 -57l-31 45l125 82h61v-416zM800 152v-54h-48v-98h-66v98h-169v49l115 276l57 -22l-103 -249h101l7 109h58v-109h48z" glyph-name="onequarter"/>
<glyph horiz-adv-x="839" unicode="½" d="M576 749l53 -24l-365 -801l-54 24zM246 688v-416h-67v346l-88 -57l-31 45l125 82h61zM656 422q56 0 89.5 -33t33.5 -84t-33.5 -99.5t-130.5 -148.5h173l-7 -57h-241v53q108 116 139 159.5t31 88.5q0 31 -16 48t-44 17q-43 0 -79 -42l-42 32q51 66 127 66z" glyph-name="onehalf"/>
<glyph horiz-adv-x="839" unicode="¾" d="M576 749l53 -24l-365 -801l-54 24zM313 390q0 -55 -38.5 -91t-102.5 -36q-76 0 -125 59l39 36q37 -40 84 -40q33 0 52.5 20.5t19.5 54.5q0 71 -73 71h-31l8 51h21q29 0 47.5 17.5t18.5 49.5q0 29 -16.5 45t-44.5 16q-40 0 -81 -36l-34 37q53 51 121 51q57 0 89.5 -30 t32.5 -76q0 -78 -81 -96q42 -4 68 -30t26 -73zM800 152v-54h-48v-98h-66v98h-169v49l115 276l57 -22l-103 -249h101l7 109h58v-109h48z" glyph-name="threequarters"/>
<glyph horiz-adv-x="420" unicode="¿" d="M232 364q-27 0 -44.5 18t-17.5 44t17.5 44.5t44.5 18.5t44.5 -18.5t17.5 -44.5t-17.5 -44t-44.5 -18zM204 -213q-81 0 -127 44.5t-46 107.5q0 42 17 73.5t41 50.5t48 37t41 45t17 63v40h79v-44q0 -45 -16.5 -78t-40 -52t-46.5 -36t-39.5 -41t-16.5 -56q0 -40 25 -63.5 t68 -23.5q70 0 127 71l53 -41q-73 -97 -184 -97z" glyph-name="questiondown"/>
<glyph horiz-adv-x="523" unicode="À" d="M362 800l-21 -44l-193 78l35 70zM426 0l-48 177h-236l-48 -177h-85l200 688h106l199 -688h-88zM160 246h200l-100 372z" glyph-name="Agrave"/>
<glyph horiz-adv-x="523" unicode="Á" d="M369 834l-192 -78l-22 45l179 103zM426 0l-48 177h-236l-48 -177h-85l200 688h106l199 -688h-88zM160 246h200l-100 372z" glyph-name="Aacute"/>
<glyph horiz-adv-x="523" unicode="Â" d="M262 841l-114 -80l-34 38l121 109h53l121 -109l-34 -38zM426 0l-48 177h-236l-48 -177h-85l200 688h106l199 -688h-88zM160 246h200l-100 372z" glyph-name="Acircumflex"/>
<glyph horiz-adv-x="523" unicode="Ã" d="M210 832q-25 0 -49 -44l-47 24q36 81 95 81q26 0 58.5 -22.5t47.5 -22.5q24 0 48 43l48 -23q-33 -81 -95 -81q-26 0 -59 22.5t-47 22.5zM426 0l-48 177h-236l-48 -177h-85l200 688h106l199 -688h-88zM160 246h200l-100 372z" glyph-name="Atilde"/>
<glyph horiz-adv-x="523" unicode="Ä" d="M172 783q-22 0 -36.5 14.5t-14.5 36.5t14.5 37t36.5 15t36.5 -14.5t14.5 -37.5q0 -22 -14.5 -36.5t-36.5 -14.5zM358 783q-22 0 -36.5 14.5t-14.5 36.5t14.5 37t36.5 15t36.5 -14.5t14.5 -37.5q0 -22 -14.5 -36.5t-36.5 -14.5zM426 0l-48 177h-236l-48 -177h-85l200 688 h106l199 -688h-88zM160 246h200l-100 372z" glyph-name="Adieresis"/>
<glyph horiz-adv-x="523" unicode="Å" d="M262 753q-46 0 -74 28t-28 74t28 74t74 28q45 0 73 -28t28 -74t-28 -74t-73 -28zM262 913q-48 0 -48 -58t48 -58t48 58t-48 58zM426 0l-48 177h-236l-48 -177h-85l200 688h106l199 -688h-88zM160 246h200l-100 372z" glyph-name="Aring"/>
<glyph horiz-adv-x="730" unicode="Æ" d="M481 68h205v-68h-274l-36 176h-240l-59 -176h-86l245 688h411l-9 -68h-277l51 -235h228v-69h-213zM159 245h202l-77 375z" glyph-name="AE"/>
<glyph horiz-adv-x="505" unicode="Ç" d="M488 63q-61 -65 -151 -74v-49q84 -10 84 -82q0 -45 -30.5 -70t-78.5 -25q-51 0 -82 23l24 45q28 -14 54 -14q46 0 46 41q0 44 -80 44l9 87q-106 12 -168.5 102.5t-62.5 252.5q0 173 72.5 264t185.5 91q54 0 92.5 -16t78.5 -50l-45 -53q-59 50 -122 50q-78 0 -125.5 -67 t-47.5 -219q0 -147 47 -215.5t127 -68.5q62 0 129 55z" glyph-name="Ccedilla"/>
<glyph horiz-adv-x="475" unicode="È" d="M181 904l179 -104l-21 -44l-193 78zM425 688l-10 -68h-241v-234h210v-69h-210v-249h257v-68h-342v688h336z" glyph-name="Egrave"/>
<glyph horiz-adv-x="475" unicode="É" d="M332 904l35 -70l-192 -78l-22 45zM425 688l-10 -68h-241v-234h210v-69h-210v-249h257v-68h-342v688h336z" glyph-name="Eacute"/>
<glyph horiz-adv-x="475" unicode="Ê" d="M146 761l-34 38l121 109h53l121 -109l-34 -38l-113 80zM425 688l-10 -68h-241v-234h210v-69h-210v-249h257v-68h-342v688h336z" glyph-name="Ecircumflex"/>
<glyph horiz-adv-x="475" unicode="Ë" d="M170 886q22 0 36.5 -14.5t14.5 -37.5q0 -22 -14.5 -36.5t-36.5 -14.5t-36.5 14.5t-14.5 36.5t14.5 37t36.5 15zM356 886q22 0 36.5 -14.5t14.5 -37.5q0 -22 -14.5 -36.5t-36.5 -14.5t-36.5 14.5t-14.5 36.5t14.5 37t36.5 15zM425 688l-10 -68h-241v-234h210v-69h-210 v-249h257v-68h-342v688h336z" glyph-name="Edieresis"/>
<glyph horiz-adv-x="263" unicode="Ì" d="M52 904l179 -104l-21 -44l-193 78zM174 688v-688h-85v688h85z" glyph-name="Igrave"/>
<glyph horiz-adv-x="263" unicode="Í" d="M203 904l35 -70l-192 -78l-22 45zM174 688v-688h-85v688h85z" glyph-name="Iacute"/>
<glyph horiz-adv-x="263" unicode="Î" d="M17 761l-34 38l121 109h53l121 -109l-34 -38l-113 80zM174 688v-688h-85v688h85z" glyph-name="Icircumflex"/>
<glyph horiz-adv-x="263" unicode="Ï" d="M41 886q22 0 36.5 -14.5t14.5 -37.5q0 -22 -14.5 -36.5t-36.5 -14.5t-36.5 14.5t-14.5 36.5t14.5 37t36.5 15zM227 886q22 0 36.5 -14.5t14.5 -37.5q0 -22 -14.5 -36.5t-36.5 -14.5t-36.5 14.5t-14.5 36.5t14.5 37t36.5 15zM174 688v-688h-85v688h85z" glyph-name="Idieresis"/>
<glyph horiz-adv-x="592" unicode="Ð" d="M235 688q36 0 66.5 -3.5t62 -13.5t57 -26t48.5 -42.5t38 -61.5t24 -84t9 -109q0 -82 -17.5 -145t-45 -100.5t-66.5 -61.5t-78 -32.5t-83 -8.5h-149v321h-81v64h81v303h134zM256 68q41 0 73 11.5t61 40t45 86.5t16 142q0 70 -11.5 120.5t-29.5 79.5t-46 45.5t-53.5 21.5 t-59.5 5h-65v-235h137v-64h-137v-253h70z" glyph-name="Eth"/>
<glyph horiz-adv-x="611" unicode="Ñ" d="M368 787q-26 0 -59 22.5t-47 22.5q-25 0 -49 -44l-47 24q36 81 95 81q26 0 58.5 -22.5t47.5 -22.5q24 0 48 43l48 -23q-33 -81 -95 -81zM522 688v-688h-113l-252 594q12 -130 12 -258v-336h-80v688h112l253 -595q-12 80 -12 207v388h80z" glyph-name="Ntilde"/>
<glyph horiz-adv-x="626" unicode="Ò" d="M234 904l179 -104l-21 -44l-193 78zM313 699q121 0 191.5 -90.5t70.5 -265.5q0 -173 -70.5 -264t-191.5 -91q-120 0 -190.5 90t-70.5 264q0 172 71 264.5t190 92.5zM313 630q-172 0 -172 -288q0 -284 172 -284t172 285q0 287 -172 287z" glyph-name="Ograve"/>
<glyph horiz-adv-x="626" unicode="Ó" d="M385 904l35 -70l-192 -78l-22 45zM313 699q121 0 191.5 -90.5t70.5 -265.5q0 -173 -70.5 -264t-191.5 -91q-120 0 -190.5 90t-70.5 264q0 172 71 264.5t190 92.5zM313 630q-172 0 -172 -288q0 -284 172 -284t172 285q0 287 -172 287z" glyph-name="Oacute"/>
<glyph horiz-adv-x="626" unicode="Ô" d="M199 761l-34 38l121 109h53l121 -109l-34 -38l-113 80zM313 699q121 0 191.5 -90.5t70.5 -265.5q0 -173 -70.5 -264t-191.5 -91q-120 0 -190.5 90t-70.5 264q0 172 71 264.5t190 92.5zM313 630q-172 0 -172 -288q0 -284 172 -284t172 285q0 287 -172 287z" glyph-name="Ocircumflex"/>
<glyph horiz-adv-x="626" unicode="Õ" d="M367 787q-26 0 -59 22.5t-47 22.5q-25 0 -49 -44l-47 24q36 81 95 81q26 0 58.5 -22.5t47.5 -22.5q24 0 48 43l48 -23q-33 -81 -95 -81zM313 699q121 0 191.5 -90.5t70.5 -265.5q0 -173 -70.5 -264t-191.5 -91q-120 0 -190.5 90t-70.5 264q0 172 71 264.5t190 92.5z M313 630q-172 0 -172 -288q0 -284 172 -284t172 285q0 287 -172 287z" glyph-name="Otilde"/>
<glyph horiz-adv-x="626" unicode="Ö" d="M223 886q22 0 36.5 -14.5t14.5 -37.5q0 -22 -14.5 -36.5t-36.5 -14.5t-36.5 14.5t-14.5 36.5t14.5 37t36.5 15zM409 886q22 0 36.5 -14.5t14.5 -37.5q0 -22 -14.5 -36.5t-36.5 -14.5t-36.5 14.5t-14.5 36.5t14.5 37t36.5 15zM313 699q121 0 191.5 -90.5t70.5 -265.5 q0 -173 -70.5 -264t-191.5 -91q-120 0 -190.5 90t-70.5 264q0 172 71 264.5t190 92.5zM313 630q-172 0 -172 -288q0 -284 172 -284t172 285q0 287 -172 287z" glyph-name="Odieresis"/>
<glyph horiz-adv-x="450" unicode="×" d="M335 482l52 -46l-113 -128l113 -130l-52 -45l-109 128l-111 -128l-52 45l112 128l-112 130l52 46l109 -129z" glyph-name="multiply"/>
<glyph horiz-adv-x="626" unicode="Ø" d="M438 668q137 -79 137 -325q0 -173 -70.5 -264t-191.5 -91q-33 0 -61 7l-31 -120l-69 19l35 126q-135 80 -135 322q0 172 71 264.5t190 92.5q31 0 60 -6l33 123l69 -18zM140 342q0 -195 78 -255l141 538q-23 5 -46 5q-173 0 -173 -288zM313 58q84 0 127.5 67.5t44.5 217.5 q1 199 -77 259l-142 -538q22 -6 47 -6z" glyph-name="Oslash"/>
<glyph horiz-adv-x="591" unicode="Ù" d="M217 904l179 -104l-21 -44l-193 78zM512 688v-489q0 -93 -57 -152t-160 -59q-104 0 -160 58.5t-56 152.5v489h85v-482q0 -146 131 -146q132 0 132 146v482h85z" glyph-name="Ugrave"/>
<glyph horiz-adv-x="591" unicode="Ú" d="M368 904l35 -70l-192 -78l-22 45zM512 688v-489q0 -93 -57 -152t-160 -59q-104 0 -160 58.5t-56 152.5v489h85v-482q0 -146 131 -146q132 0 132 146v482h85z" glyph-name="Uacute"/>
<glyph horiz-adv-x="591" unicode="Û" d="M182 761l-34 38l121 109h53l121 -109l-34 -38l-113 80zM512 688v-489q0 -93 -57 -152t-160 -59q-104 0 -160 58.5t-56 152.5v489h85v-482q0 -146 131 -146q132 0 132 146v482h85z" glyph-name="Ucircumflex"/>
<glyph horiz-adv-x="591" unicode="Ü" d="M206 886q22 0 36.5 -14.5t14.5 -37.5q0 -22 -14.5 -36.5t-36.5 -14.5t-36.5 14.5t-14.5 36.5t14.5 37t36.5 15zM392 886q22 0 36.5 -14.5t14.5 -37.5q0 -22 -14.5 -36.5t-36.5 -14.5t-36.5 14.5t-14.5 36.5t14.5 37t36.5 15zM512 688v-489q0 -93 -57 -152t-160 -59 q-104 0 -160 58.5t-56 152.5v489h85v-482q0 -146 131 -146q132 0 132 146v482h85z" glyph-name="Udieresis"/>
<glyph horiz-adv-x="493" unicode="Ý" d="M318 904l35 -70l-192 -78l-22 45zM488 688l-199 -422v-266h-85v265l-199 423h92l152 -348l152 348h87z" glyph-name="Yacute"/>
<glyph horiz-adv-x="520" unicode="Þ" d="M241 569q251 0 251 -215q0 -115 -66 -169.5t-183 -54.5h-69v-130h-85v688h85v-119h67zM239 197q82 0 123 34.5t41 121.5q0 79 -41 114t-122 35h-66v-305h65z" glyph-name="Thorn"/>
<glyph horiz-adv-x="533" unicode="ß" d="M267 748q73 0 117 -40t44 -99q0 -30 -10.5 -54.5t-25 -39.5t-29 -28.5t-25 -28.5t-10.5 -32q0 -22 17.5 -42t42.5 -39t50 -41.5t42.5 -59.5t17.5 -84q0 -77 -46 -124.5t-113 -47.5q-54 0 -92 23l25 56q26 -12 58 -12q38 0 61.5 27t23.5 79q0 38 -17 68t-41 50.5 t-47.5 39.5t-40.5 45t-17 57q0 28 15.5 51.5t33.5 38t33.5 39t15.5 55.5q0 37 -23.5 57.5t-60.5 20.5q-47 0 -73 -32.5t-26 -95.5v-555h-82v556q0 88 49 140t133 52z" glyph-name="germandbls"/>
<glyph unicode="à" d="M351 683l-25 -43l-189 86l37 67zM405 115q0 -31 9.5 -46.5t29.5 -23.5l-18 -57q-75 12 -91 79q-49 -79 -141 -79q-71 0 -111.5 43.5t-40.5 115.5q0 83 55 127.5t157 44.5h70v47q0 55 -24 80t-74 25q-55 0 -130 -28l-20 59q85 35 162 35q84 0 125.5 -43.5t41.5 -123.5 v-255zM211 50q74 0 113 88v125h-60q-136 0 -136 -113q0 -100 83 -100z" glyph-name="agrave"/>
<glyph unicode="á" d="M341 726l-189 -86l-25 43l178 110zM405 115q0 -31 9.5 -46.5t29.5 -23.5l-18 -57q-75 12 -91 79q-49 -79 -141 -79q-71 0 -111.5 43.5t-40.5 115.5q0 83 55 127.5t157 44.5h70v47q0 55 -24 80t-74 25q-55 0 -130 -28l-20 59q85 35 162 35q84 0 125.5 -43.5t41.5 -123.5 v-255zM211 50q74 0 113 88v125h-60q-136 0 -136 -113q0 -100 83 -100z" glyph-name="aacute"/>
<glyph unicode="â" d="M235 722l-113 -84l-34 38l121 113h53l121 -113l-35 -38zM405 115q0 -31 9.5 -46.5t29.5 -23.5l-18 -57q-75 12 -91 79q-49 -79 -141 -79q-71 0 -111.5 43.5t-40.5 115.5q0 83 55 127.5t157 44.5h70v47q0 55 -24 80t-74 25q-55 0 -130 -28l-20 59q85 35 162 35 q84 0 125.5 -43.5t41.5 -123.5v-255zM211 50q74 0 113 88v125h-60q-136 0 -136 -113q0 -100 83 -100z" glyph-name="acircumflex"/>
<glyph unicode="ã" d="M184 706q-25 0 -49 -44l-47 24q36 81 95 81q26 0 58.5 -22.5t47.5 -22.5q24 0 48 43l48 -23q-33 -81 -95 -81q-26 0 -59 22.5t-47 22.5zM405 115q0 -31 9.5 -46.5t29.5 -23.5l-18 -57q-75 12 -91 79q-49 -79 -141 -79q-71 0 -111.5 43.5t-40.5 115.5q0 83 55 127.5 t157 44.5h70v47q0 55 -24 80t-74 25q-55 0 -130 -28l-20 59q85 35 162 35q84 0 125.5 -43.5t41.5 -123.5v-255zM211 50q74 0 113 88v125h-60q-136 0 -136 -113q0 -100 83 -100z" glyph-name="atilde"/>
<glyph unicode="ä" d="M142 657q-22 0 -36.5 14.5t-14.5 36.5t14.5 37t36.5 15t36.5 -14.5t14.5 -37.5q0 -22 -14.5 -36.5t-36.5 -14.5zM328 657q-22 0 -36.5 14.5t-14.5 36.5t14.5 37t36.5 15t36.5 -14.5t14.5 -37.5q0 -22 -14.5 -36.5t-36.5 -14.5zM405 115q0 -31 9.5 -46.5t29.5 -23.5 l-18 -57q-75 12 -91 79q-49 -79 -141 -79q-71 0 -111.5 43.5t-40.5 115.5q0 83 55 127.5t157 44.5h70v47q0 55 -24 80t-74 25q-55 0 -130 -28l-20 59q85 35 162 35q84 0 125.5 -43.5t41.5 -123.5v-255zM211 50q74 0 113 88v125h-60q-136 0 -136 -113q0 -100 83 -100z" glyph-name="adieresis"/>
<glyph unicode="å" d="M236 627q-46 0 -74 28t-28 74t28 74t74 28q45 0 73 -28t28 -74t-28 -74t-73 -28zM236 787q-48 0 -48 -58t48 -58t48 58t-48 58zM405 115q0 -31 9.5 -46.5t29.5 -23.5l-18 -57q-75 12 -91 79q-49 -79 -141 -79q-71 0 -111.5 43.5t-40.5 115.5q0 83 55 127.5t157 44.5h70 v47q0 55 -24 80t-74 25q-55 0 -130 -28l-20 59q85 35 162 35q84 0 125.5 -43.5t41.5 -123.5v-255zM211 50q74 0 113 88v125h-60q-136 0 -136 -113q0 -100 83 -100z" glyph-name="aring"/>
<glyph horiz-adv-x="766" unicode="æ" d="M720 280q0 -22 -2 -46h-306q11 -178 131 -178q65 0 122 46l37 -48q-74 -66 -165 -66q-118 0 -172 98q-63 -98 -168 -98q-71 0 -113 44t-42 115q0 83 56.5 127.5t158.5 44.5h69v43q0 57 -24 83t-75 26q-53 0 -128 -28l-20 59q87 35 161 35q105 0 143 -85q50 85 147 85 q91 0 140.5 -67t49.5 -190zM638 295v9q0 168 -109 168t-117 -177h226zM214 50q39 0 68.5 23t57.5 74q-14 50 -14 110v6h-59q-137 0 -137 -113q0 -48 22 -74t62 -26z" glyph-name="ae"/>
<glyph horiz-adv-x="428" unicode="ç" d="M279 -60q84 -10 84 -82q0 -45 -30.5 -70t-78.5 -25q-51 0 -82 23l24 45q28 -14 54 -14q46 0 46 41q0 44 -80 44l9 89q-82 12 -127.5 81t-45.5 187q0 130 56 204t153 74q82 0 143 -55l-38 -50q-51 38 -102 38q-124 0 -124 -210q0 -202 124 -202q50 0 103 39l38 -51 q-56 -51 -126 -57v-49z" glyph-name="ccedilla"/>
<glyph horiz-adv-x="492" unicode="è" d="M368 683l-25 -43l-189 86l37 67zM445 280q0 -22 -2 -46h-305q8 -178 129 -178q67 0 124 46l37 -50q-74 -64 -165 -64q-100 0 -155.5 70.5t-55.5 199.5q0 128 53.5 203.5t146.5 75.5q94 0 143.5 -66.5t49.5 -190.5zM365 295v9q0 168 -112 168q-107 0 -115 -177h227z" glyph-name="egrave"/>
<glyph horiz-adv-x="492" unicode="é" d="M358 726l-189 -86l-25 43l178 110zM445 280q0 -22 -2 -46h-305q8 -178 129 -178q67 0 124 46l37 -50q-74 -64 -165 -64q-100 0 -155.5 70.5t-55.5 199.5q0 128 53.5 203.5t146.5 75.5q94 0 143.5 -66.5t49.5 -190.5zM365 295v9q0 168 -112 168q-107 0 -115 -177h227z" glyph-name="eacute"/>
<glyph horiz-adv-x="492" unicode="ê" d="M252 722l-113 -84l-34 38l121 113h53l121 -113l-35 -38zM445 280q0 -22 -2 -46h-305q8 -178 129 -178q67 0 124 46l37 -50q-74 -64 -165 -64q-100 0 -155.5 70.5t-55.5 199.5q0 128 53.5 203.5t146.5 75.5q94 0 143.5 -66.5t49.5 -190.5zM365 295v9q0 168 -112 168 q-107 0 -115 -177h227z" glyph-name="ecircumflex"/>
<glyph horiz-adv-x="492" unicode="ë" d="M159 657q-22 0 -36.5 14.5t-14.5 36.5t14.5 37t36.5 15t36.5 -14.5t14.5 -37.5q0 -22 -14.5 -36.5t-36.5 -14.5zM345 657q-22 0 -36.5 14.5t-14.5 36.5t14.5 37t36.5 15t36.5 -14.5t14.5 -37.5q0 -22 -14.5 -36.5t-36.5 -14.5zM445 280q0 -22 -2 -46h-305 q8 -178 129 -178q67 0 124 46l37 -50q-74 -64 -165 -64q-100 0 -155.5 70.5t-55.5 199.5q0 128 53.5 203.5t146.5 75.5q94 0 143.5 -66.5t49.5 -190.5zM365 295v9q0 168 -112 168q-107 0 -115 -177h227z" glyph-name="edieresis"/>
<glyph horiz-adv-x="253" unicode="ì" d="M64 793l177 -110l-25 -43l-189 86zM167 526v-526h-82v526h82z" glyph-name="igrave"/>
<glyph horiz-adv-x="253" unicode="í" d="M195 793l36 -67l-189 -86l-25 43zM167 526v-526h-82v526h82z" glyph-name="iacute"/>
<glyph horiz-adv-x="253" unicode="î" d="M12 638l-34 38l121 113h53l121 -113l-35 -38l-113 84zM167 526v-526h-82v526h82z" glyph-name="icircumflex"/>
<glyph horiz-adv-x="253" unicode="ï" d="M32 760q22 0 36.5 -14.5t14.5 -37.5q0 -22 -14.5 -36.5t-36.5 -14.5t-36.5 14.5t-14.5 36.5t14.5 37t36.5 15zM218 760q22 0 36.5 -14.5t14.5 -37.5q0 -22 -14.5 -36.5t-36.5 -14.5t-36.5 14.5t-14.5 36.5t14.5 37t36.5 15zM167 526v-526h-82v526h82z" glyph-name="idieresis"/>
<glyph horiz-adv-x="514" unicode="ð" d="M306 663q81 -65 116 -159.5t35 -234.5q0 -132 -56 -206.5t-150 -74.5q-88 0 -143.5 64.5t-55.5 181.5q0 101 48 170t132 69q81 0 134 -66q-23 133 -108 207l-67 -73l-56 28l72 79q-54 27 -103 38l16 62q73 -17 134 -50l64 74l49 -39zM251 54q57 0 90 54.5t33 162.5 q0 22 -2 56q-48 81 -125 81q-112 0 -112 -171q0 -91 31 -137t85 -46z" glyph-name="eth"/>
<glyph horiz-adv-x="528" unicode="ñ" d="M216 706q-25 0 -49 -44l-47 24q36 81 95 81q26 0 58.5 -22.5t47.5 -22.5q24 0 48 43l48 -23q-33 -81 -95 -81q-26 0 -59 22.5t-47 22.5zM311 537q64 0 100 -41.5t36 -113.5v-382h-82v371q0 102 -73 102q-68 0 -125 -100v-373h-82v526h71l7 -81q59 92 148 92z" glyph-name="ntilde"/>
<glyph horiz-adv-x="526" unicode="ò" d="M201 793l177 -110l-25 -43l-189 86zM264 537q100 0 155 -71t55 -202q0 -127 -56.5 -201.5t-154.5 -74.5q-100 0 -155.5 73t-55.5 201q0 130 56 202.5t156 72.5zM264 471q-125 0 -125 -209q0 -207 124 -207t124 209q0 207 -123 207z" glyph-name="ograve"/>
<glyph horiz-adv-x="526" unicode="ó" d="M332 793l36 -67l-189 -86l-25 43zM264 537q100 0 155 -71t55 -202q0 -127 -56.5 -201.5t-154.5 -74.5q-100 0 -155.5 73t-55.5 201q0 130 56 202.5t156 72.5zM264 471q-125 0 -125 -209q0 -207 124 -207t124 209q0 207 -123 207z" glyph-name="oacute"/>
<glyph horiz-adv-x="526" unicode="ô" d="M149 638l-34 38l121 113h53l121 -113l-35 -38l-113 84zM264 537q100 0 155 -71t55 -202q0 -127 -56.5 -201.5t-154.5 -74.5q-100 0 -155.5 73t-55.5 201q0 130 56 202.5t156 72.5zM264 471q-125 0 -125 -209q0 -207 124 -207t124 209q0 207 -123 207z" glyph-name="ocircumflex"/>
<glyph horiz-adv-x="526" unicode="õ" d="M317 661q-26 0 -59 22.5t-47 22.5q-25 0 -49 -44l-47 24q36 81 95 81q26 0 58.5 -22.5t47.5 -22.5q24 0 48 43l48 -23q-33 -81 -95 -81zM264 537q100 0 155 -71t55 -202q0 -127 -56.5 -201.5t-154.5 -74.5q-100 0 -155.5 73t-55.5 201q0 130 56 202.5t156 72.5zM264 471 q-125 0 -125 -209q0 -207 124 -207t124 209q0 207 -123 207z" glyph-name="otilde"/>
<glyph horiz-adv-x="526" unicode="ö" d="M169 760q22 0 36.5 -14.5t14.5 -37.5q0 -22 -14.5 -36.5t-36.5 -14.5t-36.5 14.5t-14.5 36.5t14.5 37t36.5 15zM355 760q22 0 36.5 -14.5t14.5 -37.5q0 -22 -14.5 -36.5t-36.5 -14.5t-36.5 14.5t-14.5 36.5t14.5 37t36.5 15zM264 537q100 0 155 -71t55 -202 q0 -127 -56.5 -201.5t-154.5 -74.5q-100 0 -155.5 73t-55.5 201q0 130 56 202.5t156 72.5zM264 471q-125 0 -125 -209q0 -207 124 -207t124 209q0 207 -123 207z" glyph-name="odieresis"/>
<glyph horiz-adv-x="450" unicode="÷" d="M225 619q27 0 44.5 -18t17.5 -44t-17.5 -44.5t-44.5 -18.5t-44.5 18.5t-17.5 44.5t17.5 44t44.5 18zM56 298v68h338v-68h-338zM225 168q27 0 44.5 -18t17.5 -44t-17.5 -44.5t-44.5 -18.5t-44.5 18.5t-17.5 44.5t17.5 44t44.5 18z" glyph-name="divide"/>
<glyph horiz-adv-x="526" unicode="ø" d="M373 508q101 -64 101 -244q0 -127 -56.5 -201.5t-154.5 -74.5q-22 0 -47 5l-35 -121l-66 18l39 128q-102 65 -102 244q0 130 56 202.5t156 72.5q24 0 47 -5l35 122l65 -19zM264 471q-126 0 -126 -209q0 -135 46 -181l113 387q-15 3 -33 3zM263 54q125 0 125 210 q0 136 -46 180l-111 -387q15 -3 32 -3z" glyph-name="oslash"/>
<glyph horiz-adv-x="524" unicode="ù" d="M198 793l177 -110l-25 -43l-189 86zM439 526v-526h-71l-6 80q-53 -92 -146 -92q-63 0 -99 40.5t-36 109.5v388h82v-379q0 -94 73 -94q71 0 121 94v379h82z" glyph-name="ugrave"/>
<glyph horiz-adv-x="524" unicode="ú" d="M329 793l36 -67l-189 -86l-25 43zM439 526v-526h-71l-6 80q-53 -92 -146 -92q-63 0 -99 40.5t-36 109.5v388h82v-379q0 -94 73 -94q71 0 121 94v379h82z" glyph-name="uacute"/>
<glyph horiz-adv-x="524" unicode="û" d="M146 638l-34 38l121 113h53l121 -113l-35 -38l-113 84zM439 526v-526h-71l-6 80q-53 -92 -146 -92q-63 0 -99 40.5t-36 109.5v388h82v-379q0 -94 73 -94q71 0 121 94v379h82z" glyph-name="ucircumflex"/>
<glyph horiz-adv-x="524" unicode="ü" d="M166 760q22 0 36.5 -14.5t14.5 -37.5q0 -22 -14.5 -36.5t-36.5 -14.5t-36.5 14.5t-14.5 36.5t14.5 37t36.5 15zM352 760q22 0 36.5 -14.5t14.5 -37.5q0 -22 -14.5 -36.5t-36.5 -14.5t-36.5 14.5t-14.5 36.5t14.5 37t36.5 15zM439 526v-526h-71l-6 80q-53 -92 -146 -92 q-63 0 -99 40.5t-36 109.5v388h82v-379q0 -94 73 -94q71 0 121 94v379h82z" glyph-name="udieresis"/>
<glyph horiz-adv-x="446" unicode="ý" d="M292 793l36 -67l-189 -86l-25 43zM434 526l-159 -529q-28 -91 -77.5 -142.5t-140.5 -64.5l-9 63q68 14 98.5 46t52.5 101h-29l-159 526h86l128 -466l125 466h84z" glyph-name="yacute"/>
<glyph horiz-adv-x="532" unicode="þ" d="M305 537q87 0 130 -70.5t43 -202.5q0 -127 -48 -201.5t-137 -74.5q-80 0 -126 65v-250l-82 -14v949l82 10v-289q52 78 138 78zM275 56q116 0 116 208q0 108 -26.5 158t-80.5 50q-64 0 -117 -82v-269q42 -65 108 -65z" glyph-name="thorn"/>
<glyph horiz-adv-x="475" unicode="Ѐ" d="M181 904l179 -104l-21 -44l-193 78zM425 688l-10 -68h-241v-234h210v-69h-210v-249h257v-68h-342v688h336z" glyph-name="uni0400"/>
<glyph horiz-adv-x="475" unicode="Ё" d="M170 886q22 0 36.5 -14.5t14.5 -37.5q0 -22 -14.5 -36.5t-36.5 -14.5t-36.5 14.5t-14.5 36.5t14.5 37t36.5 15zM356 886q22 0 36.5 -14.5t14.5 -37.5q0 -22 -14.5 -36.5t-36.5 -14.5t-36.5 14.5t-14.5 36.5t14.5 37t36.5 15zM425 688l-10 -68h-241v-234h210v-69h-210 v-249h257v-68h-342v688h336z" glyph-name="uni0401"/>
<glyph horiz-adv-x="645" unicode="Ђ" d="M430 447q86 0 134 -52.5t48 -147.5v-159q0 -93 -39.5 -141t-121.5 -79l-23 61q60 27 79.5 60.5t19.5 97.5v159q0 129 -112 129q-84 0 -141 -76v-299h-85v615h-176v73h442l-9 -73h-172v-236q60 68 156 68z" glyph-name="uni0402"/>
<glyph horiz-adv-x="458" unicode="Ѓ" d="M392 834l-192 -78l-22 45l179 103zM451 688l-12 -74h-265v-614h-85v688h362z" glyph-name="uni0403"/>
<glyph horiz-adv-x="505" unicode="Є" d="M444 115l44 -52q-69 -75 -176 -75q-118 0 -189 91.5t-71 265.5q0 172 72.5 263t185.5 91q54 0 92.5 -16t78.5 -50l-46 -53q-57 50 -121 50q-73 0 -120.5 -57t-52.5 -183h236v-70h-236q2 -134 49.5 -197t124.5 -63q62 0 129 55z" glyph-name="uni0404"/>
<glyph unicode="Ѕ" d="M245 699q109 0 189 -78l-46 -50q-66 59 -141 59q-50 0 -81.5 -28t-31.5 -75q0 -46 28.5 -74t108.5 -56q90 -31 136 -76t46 -131q0 -87 -60 -144.5t-160 -57.5q-125 0 -210 88l46 51q77 -69 162 -69q60 0 97 35t37 95q0 52 -28.5 82t-106.5 57q-95 33 -138.5 78t-43.5 118 q0 76 55.5 126t141.5 50z" glyph-name="uni0405"/>
<glyph horiz-adv-x="263" unicode="І" d="M174 688v-688h-85v688h85z" glyph-name="uni0406"/>
<glyph horiz-adv-x="263" unicode="Ї" d="M41 886q22 0 36.5 -14.5t14.5 -37.5q0 -22 -14.5 -36.5t-36.5 -14.5t-36.5 14.5t-14.5 36.5t14.5 37t36.5 15zM227 886q22 0 36.5 -14.5t14.5 -37.5q0 -22 -14.5 -36.5t-36.5 -14.5t-36.5 14.5t-14.5 36.5t14.5 37t36.5 15zM174 688v-688h-85v688h85z" glyph-name="uni0407"/>
<glyph horiz-adv-x="273" unicode="Ј" d="M188 688v-594q0 -97 -39 -146t-122 -80l-23 61q60 28 79.5 62.5t19.5 106.5v590h85z" glyph-name="uni0408"/>
<glyph horiz-adv-x="811" unicode="Љ" d="M545 431q115 0 178 -52.5t63 -157.5q0 -221 -241 -221h-153v616h-169l-33 -313q-9 -92 -20 -146.5t-30.5 -88.5t-41.5 -49t-62 -30l-21 66q32 14 47 35.5t25.5 67.5t20.5 145l40 385h329v-257h68zM550 68q72 0 109.5 33.5t37.5 118.5q0 77 -37.5 110.5t-113.5 33.5h-69 v-296h73z" glyph-name="uni0409"/>
<glyph horiz-adv-x="849" unicode="Њ" d="M599 411q106 0 165.5 -51t59.5 -149q0 -108 -63 -159.5t-170 -51.5h-161v344h-256v-344h-85v688h85v-277h256v277h85v-277h84zM596 68q66 0 102.5 32t36.5 109q0 135 -137 135h-83v-276h81z" glyph-name="uni040A"/>
<glyph horiz-adv-x="646" unicode="Ћ" d="M429 447q85 0 134 -52.5t49 -147.5v-247h-85v246q0 129 -112 129q-86 0 -142 -77v-298h-85v615h-175v73h442l-9 -73h-173v-236q60 68 156 68z" glyph-name="uni040B"/>
<glyph horiz-adv-x="531" unicode="Ќ" d="M340 904l35 -70l-192 -78l-22 45zM503 688l-172 -323l189 -365h-94l-166 326h-86v-326h-85v688h85v-291h87l157 291h85z" glyph-name="uni040C"/>
<glyph horiz-adv-x="611" unicode="Ѝ" d="M227 904l179 -104l-21 -44l-193 78zM522 688v-688h-84v344q0 132 11 249l-252 -593h-108v688h85v-345q0 -132 -12 -250l253 595h107z" glyph-name="uni040D"/>
<glyph horiz-adv-x="483" unicode="Ў" d="M243 760q-55 0 -91 29.5t-42 80.5l53 12q17 -58 80 -58q64 0 82 58l52 -12q-5 -51 -42 -80.5t-92 -29.5zM488 688l-179 -501q-36 -101 -80.5 -142t-130.5 -57l-12 62q62 15 92.5 43.5t52.5 96.5h-30l-201 498h87l168 -446l150 446h83z" glyph-name="uni040E"/>
<glyph horiz-adv-x="598" unicode="Џ" d="M508 688v-688h-174v-148h-64l-14 148h-167v688h85v-618h250v618h84z" glyph-name="uni040F"/>
<glyph horiz-adv-x="523" unicode="А" d="M426 0l-48 177h-236l-48 -177h-85l200 688h106l199 -688h-88zM160 246h200l-100 372z" glyph-name="uni0410"/>
<glyph horiz-adv-x="522" unicode="Б" d="M256 427q113 0 174.5 -52.5t61.5 -156.5q0 -218 -243 -218h-160v688h338l-11 -70h-242v-191h82zM256 68q73 0 110 33t37 116q0 76 -37 109t-111 33h-81v-291h82z" glyph-name="uni0411"/>
<glyph horiz-adv-x="546" unicode="В" d="M354 364q152 -28 152 -170q0 -99 -65.5 -146.5t-182.5 -47.5h-169v688h143q119 0 182.5 -44t63.5 -129q0 -60 -34 -99t-90 -52zM241 621h-67v-227h86q62 0 97 30t35 85q0 61 -37 86.5t-114 25.5zM259 68q77 0 117.5 28.5t40.5 97.5q0 133 -149 133h-94v-259h85z" glyph-name="uni0412"/>
<glyph horiz-adv-x="458" unicode="Г" d="M451 688l-12 -74h-265v-614h-85v688h362z" glyph-name="uni0413"/>
<glyph horiz-adv-x="549" unicode="Д" d="M459 70h50v-218h-64l-14 148h-357l-14 -148h-64v218h37q33 37 47.5 97t33.5 221l32 300h313v-618zM375 70v548h-154l-24 -234q-17 -154 -34.5 -215.5t-57.5 -98.5h270z" glyph-name="uni0414"/>
<glyph horiz-adv-x="475" unicode="Е" d="M425 688l-10 -68h-241v-234h210v-69h-210v-249h257v-68h-342v688h336z" glyph-name="uni0415"/>
<glyph horiz-adv-x="735" unicode="Ж" d="M712 688l-161 -323l177 -365h-93l-152 326h-76v-326h-80v326h-75l-154 -326h-92l178 365l-161 323h88l142 -291h74v291h80v-291h75l144 291h86z" glyph-name="uni0416"/>
<glyph horiz-adv-x="471" unicode="З" d="M210 -12q-123 0 -200 93l49 47q63 -68 145 -68q64 0 100 36.5t36 101.5q0 132 -138 132h-59l11 70h48q56 0 88 31.5t32 87.5q0 50 -26 80.5t-80 30.5q-74 0 -143 -63l-45 48q86 84 193 84q89 0 139 -49t50 -125q0 -124 -125 -156q64 -8 105 -51.5t41 -119.5 q0 -94 -62.5 -152t-158.5 -58z" glyph-name="uni0417"/>
<glyph horiz-adv-x="611" unicode="И" d="M522 688v-688h-84v344q0 132 11 249l-252 -593h-108v688h85v-345q0 -132 -12 -250l253 595h107z" glyph-name="uni0418"/>
<glyph horiz-adv-x="611" unicode="Й" d="M305 760q-55 0 -91 29.5t-42 80.5l53 12q17 -58 80 -58q64 0 82 58l52 -12q-5 -51 -42 -80.5t-92 -29.5zM522 688v-688h-84v344q0 132 11 249l-252 -593h-108v688h85v-345q0 -132 -12 -250l253 595h107z" glyph-name="uni0419"/>
<glyph horiz-adv-x="531" unicode="К" d="M503 688l-172 -323l189 -365h-94l-166 326h-86v-326h-85v688h85v-291h87l157 291h85z" glyph-name="uni041A"/>
<glyph horiz-adv-x="590" unicode="Л" d="M148 688h353v-688h-85v616h-193l-32 -313q-12 -121 -31 -183t-44.5 -86.5t-79.5 -44.5l-21 66q32 14 47 35.5t25.5 67.5t20.5 145z" glyph-name="uni041B"/>
<glyph horiz-adv-x="710" unicode="М" d="M597 688l53 -688h-81l-22 316q-15 198 -16 286l-136 -523h-79l-143 524q0 -89 -12 -291l-21 -312h-81l53 688h113l132 -511l126 511h114z" glyph-name="uni041C"/>
<glyph horiz-adv-x="609" unicode="Н" d="M435 0v326h-261v-326h-85v688h85v-292h261v292h85v-688h-85z" glyph-name="uni041D"/>
<glyph horiz-adv-x="626" unicode="О" d="M313 699q121 0 191.5 -90.5t70.5 -265.5q0 -173 -70.5 -264t-191.5 -91q-120 0 -190.5 90t-70.5 264q0 172 71 264.5t190 92.5zM313 630q-172 0 -172 -288q0 -284 172 -284t172 285q0 287 -172 287z" glyph-name="uni041E"/>
<glyph horiz-adv-x="605" unicode="П" d="M516 688v-688h-85v615h-257v-615h-85v688h427z" glyph-name="uni041F"/>
<glyph horiz-adv-x="520" unicode="Р" d="M239 688q253 0 253 -211q0 -112 -67 -166t-185 -54h-66v-257h-85v688h150zM239 325q82 0 123 33.5t41 117.5q0 77 -41 111t-122 34h-66v-296h65z" glyph-name="uni0420"/>
<glyph horiz-adv-x="505" unicode="С" d="M310 699q54 0 92.5 -16t78.5 -50l-45 -53q-59 50 -122 50q-78 0 -125.5 -67t-47.5 -219q0 -147 47 -215.5t127 -68.5q62 0 129 55l44 -52q-71 -75 -176 -75q-118 0 -189 91.5t-71 264.5t72.5 264t185.5 91z" glyph-name="uni0421"/>
<glyph horiz-adv-x="463" unicode="Т" d="M455 688l-9 -72h-172v-616h-85v616h-176v72h442z" glyph-name="uni0422"/>
<glyph horiz-adv-x="483" unicode="У" d="M488 688l-179 -501q-36 -101 -80.5 -142t-130.5 -57l-12 62q62 15 92.5 43.5t52.5 96.5h-30l-201 498h87l168 -446l150 446h83z" glyph-name="uni0423"/>
<glyph horiz-adv-x="733" unicode="Ф" d="M697 350q0 -150 -76 -225t-213 -80v-76h-83v76q-142 7 -215.5 83t-73.5 220q0 149 76 224.5t213 79.5v69h83v-69q141 -6 215 -82.5t74 -219.5zM123 348q0 -121 50.5 -177.5t154.5 -61.5v480q-106 -7 -155.5 -62t-49.5 -179zM405 108q106 8 155.5 63t49.5 179 q0 121 -50.5 177.5t-154.5 61.5v-481z" glyph-name="uni0424"/>
<glyph horiz-adv-x="484" unicode="Х" d="M290 372l189 -372h-92l-148 314l-146 -314h-88l185 367l-169 321h92l128 -266l129 266h88z" glyph-name="uni0425"/>
<glyph horiz-adv-x="599" unicode="Ц" d="M508 70h69v-218h-64l-14 148h-410v688h85v-618h250v618h84v-618z" glyph-name="uni0426"/>
<glyph horiz-adv-x="548" unicode="Ч" d="M374 688h85v-688h-85v282q-38 -33 -74 -48t-83 -15q-80 0 -130.5 51.5t-50.5 140.5v277h84v-273q0 -124 115 -124q84 0 139 62v335z" glyph-name="uni0427"/>
<glyph horiz-adv-x="829" unicode="Ш" d="M739 688v-688h-650v688h83v-618h202v618h80v-618h202v618h83z" glyph-name="uni0428"/>
<glyph horiz-adv-x="830" unicode="Щ" d="M739 70h69v-218h-64l-14 148h-641v688h83v-618h202v618h80v-618h202v618h83v-618z" glyph-name="uni0429"/>
<glyph horiz-adv-x="616" unicode="Ъ" d="M351 432q115 0 177.5 -52.5t62.5 -158.5q0 -221 -241 -221h-162v615h-175v73h261l-1 -1v-255h78zM355 68q72 0 109.5 33.5t37.5 118.5q0 78 -37.5 111.5t-113.5 33.5h-78v-297h82z" glyph-name="uni042A"/>
<glyph horiz-adv-x="737" unicode="Ы" d="M242 432q116 0 178.5 -52.5t62.5 -158.5q0 -221 -244 -221h-150v688h85v-256h68zM563 688h84v-688h-84v688zM246 68q72 0 110 33.5t38 118.5q0 78 -37.5 111.5t-115.5 33.5h-67v-297h72z" glyph-name="uni042B"/>
<glyph horiz-adv-x="517" unicode="Ь" d="M252 432q115 0 177.5 -52.5t62.5 -158.5q0 -221 -241 -221h-162v688h85v-256h78zM256 68q72 0 109.5 33.5t37.5 118.5q0 78 -37.5 111.5t-113.5 33.5h-78v-297h82z" glyph-name="uni042C"/>
<glyph horiz-adv-x="483" unicode="Э" d="M203 699q228 0 228 -355q0 -176 -62.5 -266t-177.5 -90q-100 0 -174 74l45 51q32 -26 60 -39.5t67 -13.5q149 0 153 260h-239v70h239q-4 130 -40.5 185t-100.5 55q-40 0 -69.5 -11.5t-65.5 -39.5l-43 51q78 69 180 69z" glyph-name="uni042D"/>
<glyph horiz-adv-x="811" unicode="Ю" d="M506 699q119 0 186 -90t67 -266q0 -173 -67 -264t-186 -91q-113 0 -179.5 85t-72.5 248h-80v-321h-85v688h85v-296h82q12 151 77.5 229t172.5 78zM506 58q163 0 163 285q0 287 -163 287t-163 -291q0 -281 163 -281z" glyph-name="uni042E"/>
<glyph horiz-adv-x="548" unicode="Я" d="M291 688h168v-688h-85v275h-128l-123 -275h-92l136 291q-120 49 -120 187q0 102 61 156t183 54zM267 343h107v278h-78q-85 0 -122 -34t-37 -109q0 -68 34.5 -101.5t95.5 -33.5z" glyph-name="uni042F"/>
<glyph unicode="а" d="M405 115q0 -31 9.5 -46.5t29.5 -23.5l-18 -57q-75 12 -91 79q-49 -79 -141 -79q-71 0 -111.5 43.5t-40.5 115.5q0 83 55 127.5t157 44.5h70v47q0 55 -24 80t-74 25q-55 0 -130 -28l-20 59q85 35 162 35q84 0 125.5 -43.5t41.5 -123.5v-255zM211 50q74 0 113 88v125h-60 q-136 0 -136 -113q0 -100 83 -100z" glyph-name="uni0430"/>
<glyph horiz-adv-x="520" unicode="б" d="M292 493q80 0 128 -63.5t48 -178.5q0 -131 -55.5 -197t-151.5 -66q-97 0 -153 72.5t-56 228.5q0 174 37.5 257t143.5 126q95 38 148 72l35 -57q-53 -38 -145 -75q-68 -27 -97 -70t-38 -147q54 98 156 98zM261 55q57 0 88.5 41t31.5 152q0 96 -27 137t-78 41 q-91 0 -137 -107v-59q0 -205 122 -205z" glyph-name="uni0431"/>
<glyph horiz-adv-x="506" unicode="в" d="M332 285q122 -14 122 -127q0 -79 -54 -118.5t-145 -39.5h-170v520q94 17 157 17q87 0 137 -37.5t50 -103.5q0 -88 -97 -111zM243 474q-26 0 -76 -6v-159h89q91 0 91 84q0 81 -104 81zM255 64q114 0 114 95q0 49 -26.5 69.5t-82.5 20.5h-93v-185h88z" glyph-name="uni0432"/>
<glyph horiz-adv-x="386" unicode="г" d="M167 0h-82v526h297l-11 -68h-204v-458z" glyph-name="uni0433"/>
<glyph horiz-adv-x="505" unicode="д" d="M416 67h48v-215h-64l-13 148h-309l-13 -148h-64v215h33q21 16 32.5 33t23 68.5t17.5 142.5l13 215h296v-459zM335 67v393h-141l-9 -139q-8 -125 -24 -174t-56 -80h230z" glyph-name="uni0434"/>
<glyph horiz-adv-x="492" unicode="е" d="M445 280q0 -22 -2 -46h-305q8 -178 129 -178q67 0 124 46l37 -50q-74 -64 -165 -64q-100 0 -155.5 70.5t-55.5 199.5q0 128 53.5 203.5t146.5 75.5q94 0 143.5 -66.5t49.5 -190.5zM365 295v9q0 168 -112 168q-107 0 -115 -177h227z" glyph-name="uni0435"/>
<glyph horiz-adv-x="635" unicode="ж" d="M605 526l-118 -246l135 -280h-85l-116 243h-65v-243h-77v243h-64l-117 -243h-85l135 280l-118 246h81l103 -218h65v218h77v-218h66l103 218h80z" glyph-name="uni0436"/>
<glyph horiz-adv-x="447" unicode="з" d="M202 537q71 0 119.5 -37.5t48.5 -103.5q0 -45 -24 -72.5t-77 -42.5q63 -10 94.5 -40t31.5 -87q0 -80 -56 -123t-143 -43q-105 0 -182 67l43 49q63 -49 137 -49q114 0 114 99q0 50 -32 69t-95 19h-58l5 65h44q114 0 114 86q0 80 -93 80q-61 0 -123 -42l-39 48 q72 58 171 58z" glyph-name="uni0437"/>
<glyph horiz-adv-x="539" unicode="и" d="M454 526v-526h-81v263q0 105 13 170l-207 -433h-94v526h81v-259q0 -93 -12 -171l204 430h96z" glyph-name="uni0438"/>
<glyph horiz-adv-x="539" unicode="й" d="M269 646q-55 0 -91 29.5t-42 80.5l53 12q17 -58 80 -58q64 0 82 58l52 -12q-5 -51 -42 -80.5t-92 -29.5zM454 526v-526h-81v263q0 105 13 170l-207 -433h-94v526h81v-259q0 -93 -12 -171l204 430h96z" glyph-name="uni0439"/>
<glyph horiz-adv-x="466" unicode="к" d="M439 526l-143 -244l161 -282h-91l-137 246h-62v-246h-82v526h82v-215h63l125 215h84z" glyph-name="uni043A"/>
<glyph horiz-adv-x="516" unicode="л" d="M125 526h306v-526h-82v459h-149l-16 -209q-7 -97 -18.5 -143t-36 -73t-76.5 -45l-21 65q42 17 53 51t20 153z" glyph-name="uni043B"/>
<glyph horiz-adv-x="608" unicode="м" d="M510 526l42 -526h-79l-21 266q-7 81 -5 179l-111 -385h-75l-105 384q2 -94 -4 -177l-17 -267h-79l42 526h103l99 -384l105 384h105z" glyph-name="uni043C"/>
<glyph horiz-adv-x="534" unicode="н" d="M366 0v236h-199v-236h-82v526h82v-223h199v223h82v-526h-82z" glyph-name="uni043D"/>
<glyph horiz-adv-x="526" unicode="о" d="M264 537q100 0 155 -71t55 -202q0 -127 -56.5 -201.5t-154.5 -74.5q-100 0 -155.5 73t-55.5 201q0 130 56 202.5t156 72.5zM264 471q-125 0 -125 -209q0 -207 124 -207t124 209q0 207 -123 207z" glyph-name="uni043E"/>
<glyph horiz-adv-x="531" unicode="п" d="M364 0v459h-197v-459h-82v526h361v-526h-82z" glyph-name="uni043F"/>
<glyph horiz-adv-x="532" unicode="р" d="M305 537q87 0 130 -70.5t43 -202.5q0 -127 -48 -201.5t-137 -74.5q-78 0 -126 62v-250l-82 -11v737h72l6 -71q54 82 142 82zM275 56q116 0 116 208t-106 208q-65 0 -118 -82v-269q42 -65 108 -65z" glyph-name="uni0440"/>
<glyph horiz-adv-x="428" unicode="с" d="M261 537q82 0 143 -55l-38 -50q-51 38 -102 38q-124 0 -124 -210q0 -202 124 -202q50 0 103 39l38 -51q-63 -58 -143 -58q-98 0 -154 70t-56 201q0 130 56 204t153 74z" glyph-name="uni0441"/>
<glyph horiz-adv-x="405" unicode="т" d="M404 526l-10 -67h-151v-459h-82v459h-156v67h399z" glyph-name="uni0442"/>
<glyph horiz-adv-x="446" unicode="у" d="M434 526l-159 -529q-28 -91 -77.5 -142.5t-140.5 -64.5l-9 63q68 14 98.5 46t52.5 101h-29l-159 526h86l128 -466l125 466h84z" glyph-name="uni0443"/>
<glyph horiz-adv-x="732" unicode="ф" d="M516 537q161 0 161 -273q0 -129 -43 -202.5t-120 -73.5q-66 0 -109 62v-250l-78 -11v262q-42 -63 -114 -63q-73 0 -116 74t-43 202q0 132 40.5 202.5t121.5 70.5q70 0 111 -56v267l78 -10v-259q41 58 111 58zM230 54q56 0 97 65v291q-40 62 -96 62q-90 0 -90 -208 q0 -210 89 -210zM500 54q90 0 90 210q0 208 -90 208q-57 0 -95 -63v-290q40 -65 95 -65z" glyph-name="uni0444"/>
<glyph horiz-adv-x="438" unicode="х" d="M267 282l164 -282h-93l-121 230l-122 -230h-89l165 278l-146 248h91l103 -199l104 199h88z" glyph-name="uni0445"/>
<glyph horiz-adv-x="526" unicode="ц" d="M441 67h69v-215h-64l-13 148h-348v526h82v-459h192v459h82v-459z" glyph-name="uni0446"/>
<glyph horiz-adv-x="495" unicode="ч" d="M328 526h82v-526h-82v227q-57 -62 -142 -62q-65 0 -101.5 38.5t-36.5 107.5v215h82v-208q0 -87 77 -87q34 0 67.5 16.5t53.5 44.5v234z" glyph-name="uni0447"/>
<glyph horiz-adv-x="717" unicode="ш" d="M631 526v-526h-546v526h80v-459h155v459h77v-459h154v459h80z" glyph-name="uni0448"/>
<glyph horiz-adv-x="718" unicode="щ" d="M631 67h70v-215h-64l-13 148h-539v526h80v-459h155v459h77v-459h154v459h80v-459z" glyph-name="uni0449"/>
<glyph horiz-adv-x="539" unicode="ъ" d="M303 354q206 0 206 -175q0 -89 -53.5 -134t-137.5 -45h-157v463h-156v63h238v-172h60zM310 65q55 0 83.5 26t28.5 88q0 57 -26.5 84t-91.5 27h-61v-225h67z" glyph-name="uni044A"/>
<glyph horiz-adv-x="661" unicode="ы" d="M218 354q206 0 206 -175q0 -89 -53.5 -134t-137.5 -45h-148v526h82v-172h51zM494 526h82v-526h-82v526zM225 65q56 0 84.5 26t28.5 88q0 57 -26.5 84t-91.5 27h-53v-225h58z" glyph-name="uni044B"/>
<glyph horiz-adv-x="463" unicode="ь" d="M227 354q206 0 206 -175q0 -89 -53.5 -134t-137.5 -45h-157v526h82v-172h60zM234 65q55 0 83.5 26t28.5 88q0 57 -26.5 84t-91.5 27h-61v-225h67z" glyph-name="uni044C"/>
<glyph horiz-adv-x="437" unicode="э" d="M195 537q190 0 190 -270q0 -136 -52 -207.5t-153 -71.5q-86 0 -151 58l39 51q54 -41 110 -41q115 0 122 182h-195v64h195q-4 91 -31 130.5t-78 39.5q-59 0 -113 -41l-37 50q68 56 154 56z" glyph-name="uni044D"/>
<glyph horiz-adv-x="706" unicode="ю" d="M453 537q94 0 147.5 -71.5t53.5 -201.5q0 -125 -53.5 -200.5t-148.5 -75.5q-88 0 -140 66.5t-58 181.5h-87v-236h-82v526h82v-223h88q8 108 60.5 171t137.5 63zM452 55q60 0 88 51t28 158q0 206 -115 206q-58 0 -87 -49t-29 -159q0 -207 115 -207z" glyph-name="uni044E"/>
<glyph horiz-adv-x="496" unicode="я" d="M258 526h153v-526h-82v206h-105l-103 -206h-88l115 226q-86 39 -86 141q0 77 51 118t145 41zM253 269h76v193h-72q-56 0 -83 -22.5t-27 -72.5q0 -52 25 -75t81 -23z" glyph-name="uni044F"/>
<glyph horiz-adv-x="492" unicode="ѐ" d="M368 683l-25 -43l-189 86l37 67zM445 280q0 -22 -2 -46h-305q8 -178 129 -178q67 0 124 46l37 -50q-74 -64 -165 -64q-100 0 -155.5 70.5t-55.5 199.5q0 128 53.5 203.5t146.5 75.5q94 0 143.5 -66.5t49.5 -190.5zM365 295v9q0 168 -112 168q-107 0 -115 -177h227z" glyph-name="uni0450"/>
<glyph horiz-adv-x="492" unicode="ё" d="M159 657q-22 0 -36.5 14.5t-14.5 36.5t14.5 37t36.5 15t36.5 -14.5t14.5 -37.5q0 -22 -14.5 -36.5t-36.5 -14.5zM345 657q-22 0 -36.5 14.5t-14.5 36.5t14.5 37t36.5 15t36.5 -14.5t14.5 -37.5q0 -22 -14.5 -36.5t-36.5 -14.5zM445 280q0 -22 -2 -46h-305 q8 -178 129 -178q67 0 124 46l37 -50q-74 -64 -165 -64q-100 0 -155.5 70.5t-55.5 199.5q0 128 53.5 203.5t146.5 75.5q94 0 143.5 -66.5t49.5 -190.5zM365 295v9q0 168 -112 168q-107 0 -115 -177h227z" glyph-name="uni0451"/>
<glyph horiz-adv-x="531" unicode="ђ" d="M314 537q64 0 100.5 -42.5t36.5 -118.5v-348q0 -102 -34 -149.5t-116 -87.5l-25 58q52 28 72.5 61.5t20.5 112.5v342q0 108 -74 108q-67 0 -124 -99v-374h-82v610h-67v63h67v64l82 9v-73h139v-63h-139v-161q58 88 143 88z" glyph-name="uni0452"/>
<glyph horiz-adv-x="386" unicode="ѓ" d="M303 793l36 -67l-189 -86l-25 43zM167 0h-82v526h297l-11 -68h-204v-458z" glyph-name="uni0453"/>
<glyph horiz-adv-x="435" unicode="є" d="M368 97l39 -51q-66 -58 -143 -58q-100 0 -156 70t-56 202q0 130 56.5 203.5t153.5 73.5q82 0 144 -55l-38 -50q-51 39 -102 39q-55 0 -89.5 -42t-38.5 -127h199v-64h-200q6 -181 128 -181q51 0 103 40z" glyph-name="uni0454"/>
<glyph horiz-adv-x="425" unicode="ѕ" d="M216 537q92 0 160 -59l-36 -49q-62 44 -121 44q-41 0 -65.5 -20.5t-24.5 -55.5q0 -33 23 -52.5t83 -38.5q80 -24 117.5 -61t37.5 -100q0 -74 -54 -115.5t-132 -41.5q-107 0 -179 69l44 48q61 -51 133 -51q47 0 75 23t28 64q0 40 -24 61.5t-93 43.5q-76 24 -109.5 59.5 t-33.5 89.5q0 61 48.5 101.5t122.5 40.5z" glyph-name="uni0455"/>
<glyph horiz-adv-x="253" unicode="і" d="M126 772q25 0 40.5 -16t15.5 -41q0 -24 -15.5 -40t-40.5 -16t-41 16t-16 40q0 25 16 41t41 16zM167 526v-526h-82v526h82z" glyph-name="uni0456"/>
<glyph horiz-adv-x="253" unicode="ї" d="M32 760q22 0 36.5 -14.5t14.5 -37.5q0 -22 -14.5 -36.5t-36.5 -14.5t-36.5 14.5t-14.5 36.5t14.5 37t36.5 15zM218 760q22 0 36.5 -14.5t14.5 -37.5q0 -22 -14.5 -36.5t-36.5 -14.5t-36.5 14.5t-14.5 36.5t14.5 37t36.5 15zM167 526v-526h-82v526h82z" glyph-name="uni0457"/>
<glyph horiz-adv-x="252" unicode="ј" d="M126 772q25 0 40.5 -16t15.5 -41q0 -24 -15.5 -40t-40.5 -16t-41 16t-16 40q0 25 16 41t41 16zM167 526v-510q0 -65 -18.5 -108t-48 -66.5t-83.5 -50.5l-25 58q52 28 72.5 60t20.5 104v513h82z" glyph-name="uni0458"/>
<glyph horiz-adv-x="712" unicode="љ" d="M476 354q206 0 206 -175q0 -89 -53.5 -134t-137.5 -45h-148v459h-143l-16 -209q-12 -141 -34.5 -188t-96.5 -73l-21 65q42 17 53 51t20 153l20 268h300v-172h51zM483 65q55 0 83.5 26t28.5 88q0 57 -26 84t-91 27h-53v-225h58z" glyph-name="uni0459"/>
<glyph horiz-adv-x="732" unicode="њ" d="M495 331q207 0 207 -163q0 -82 -54 -125t-137 -43h-148v267h-196v-267h-82v526h82v-195h196v195h82v-195h50zM503 65q113 0 113 103q0 49 -27 74t-91 25h-53v-202h58z" glyph-name="uni045A"/>
<glyph horiz-adv-x="533" unicode="ћ" d="M316 537q63 0 99.5 -41.5t36.5 -113.5v-382h-82v371q0 102 -73 102q-68 0 -125 -99v-374h-82v610h-68v63h68v64l82 9v-73h136v-63h-136v-161q58 88 144 88z" glyph-name="uni045B"/>
<glyph horiz-adv-x="466" unicode="ќ" d="M322 793l36 -67l-189 -86l-25 43zM439 526l-143 -244l161 -282h-91l-137 246h-62v-246h-82v526h82v-215h63l125 215h84z" glyph-name="uni045C"/>
<glyph horiz-adv-x="539" unicode="ѝ" d="M208 793l177 -110l-25 -43l-189 86zM454 526v-526h-81v263q0 105 13 170l-207 -433h-94v526h81v-259q0 -93 -12 -171l204 430h96z" glyph-name="uni045D"/>
<glyph horiz-adv-x="446" unicode="ў" d="M222 646q-55 0 -91 29.5t-42 80.5l53 12q17 -58 80 -58q64 0 82 58l52 -12q-5 -51 -42 -80.5t-92 -29.5zM434 526l-159 -529q-28 -91 -77.5 -142.5t-140.5 -64.5l-9 63q68 14 98.5 46t52.5 101h-29l-159 526h86l128 -466l125 466h84z" glyph-name="uni045E"/>
<glyph horiz-adv-x="526" unicode="џ" d="M441 526v-526h-139v-148h-64l-13 148h-140v526h82v-459h192v459h82z" glyph-name="uni045F"/>
<glyph horiz-adv-x="763" unicode="Ѡ" d="M637 688q70 -184 70 -391q0 -309 -190 -309q-112 0 -138 112q-28 -112 -137 -112q-90 0 -137.5 72t-47.5 237q0 204 69 391h82q-66 -181 -66 -388q0 -135 25 -188.5t82 -53.5q88 0 88 116v224h83v-225q0 -115 92 -115q35 0 57.5 17t37.5 72t15 151q0 203 -67 390h82z" glyph-name="uni0460"/>
<glyph horiz-adv-x="701" unicode="ѡ" d="M587 526q55 -143 55 -288q0 -128 -46 -189t-121 -61q-50 0 -83 28t-41 81q-22 -109 -129 -109q-74 0 -118.5 61t-44.5 190q0 142 55 287h79q-51 -157 -51 -288q0 -97 22.5 -140t68.5 -43q37 0 57.5 26t20.5 94v179l79 11v-190q0 -120 76 -120q43 0 68.5 40t25.5 144 q0 119 -53 287h80z" glyph-name="uni0461"/>
<glyph horiz-adv-x="568" unicode="Ѣ" d="M303 427q114 0 177 -52t63 -156q0 -219 -241 -219h-162v527h-140v66h140v95h85v-95h151v-66h-151v-100h78zM306 68q72 0 109.5 33t37.5 116q0 77 -37 110t-113 33h-78v-292h81z" glyph-name="uni0462"/>
<glyph horiz-adv-x="471" unicode="ѣ" d="M229 354q211 0 211 -174q0 -91 -54.5 -135.5t-149.5 -44.5h-142v469h-72v63h72v111l82 10v-121h121l-9 -63h-112v-115h53zM236 65q57 0 87.5 26t30.5 89q0 57 -28.5 84t-91.5 27h-58v-226h60z" glyph-name="uni0463"/>
<glyph horiz-adv-x="710" unicode="Ѥ" d="M649 115l44 -52q-69 -75 -176 -75q-113 0 -183.5 85t-76.5 246h-83v-319h-85v688h85v-297h84q10 151 81 229.5t176 78.5q54 0 92.5 -16t78.5 -50l-46 -53q-57 50 -121 50q-73 0 -120.5 -57t-52.5 -183h236v-70h-236q2 -134 49.5 -197t124.5 -63q62 0 129 55z" glyph-name="uni0464"/>
<glyph horiz-adv-x="639" unicode="ѥ" d="M571 97l39 -51q-66 -58 -143 -58q-95 0 -150.5 63.5t-60.5 184.5h-89v-236h-82v526h82v-223h90q9 110 64.5 172t143.5 62q82 0 144 -55l-38 -50q-51 39 -102 39q-55 0 -89.5 -42t-38.5 -127h199v-64h-200q6 -181 128 -181q51 0 103 40z" glyph-name="uni0465"/>
<glyph horiz-adv-x="537" unicode="Ѧ" d="M441 0l-82 293h-53v-293h-74v293h-56l-83 -293h-84l207 688h106l205 -688h-86zM196 362h144l-72 256z" glyph-name="uni0466"/>
<glyph horiz-adv-x="470" unicode="ѧ" d="M377 0l-64 209h-46v-209h-65v209h-47l-64 -209h-80l177 526h95l176 -526h-82zM175 272h118l-59 192z" glyph-name="uni0467"/>
<glyph horiz-adv-x="753" unicode="Ѩ" d="M657 0l-82 293h-53v-293h-74v293h-56l-83 -293h-84l88 293h-139v-293h-85v688h85v-326h160l98 326h106l205 -688h-86zM412 362h144l-72 256z" glyph-name="uni0468"/>
<glyph horiz-adv-x="644" unicode="ѩ" d="M553 0l-62 209h-43v-209h-65v209h-42l-61 -209h-78l66 209h-101v-209h-82v526h82v-254h121l81 254h96l167 -526h-79zM360 272h113l-57 191z" glyph-name="uni0469"/>
<glyph horiz-adv-x="682" unicode="Ѫ" d="M508 386l168 -386h-91l-129 316h-74v-316h-81v316h-75l-130 -316h-90l169 386h84l-154 242v60h474v-60l-156 -242h85zM198 623l145 -237l144 237h-289z" glyph-name="uni046A"/>
<glyph horiz-adv-x="575" unicode="ѫ" d="M442 299l120 -299h-81l-89 235h-67v-235h-76v235h-66l-89 -235h-81l121 299h78l-116 182v45h379v-45l-116 -182h83zM184 466l102 -167l101 167h-203z" glyph-name="uni046B"/>
<glyph horiz-adv-x="789" unicode="Ѭ" d="M645 386l138 -386h-88l-102 316h-57v-316h-80v316h-58l-99 -316h-90l112 316h-147v-316h-85v688h85v-302h242l-139 242v60h439v-60l-142 -242h71zM627 623h-258l129 -237z" glyph-name="uni046C"/>
<glyph horiz-adv-x="665" unicode="ѭ" d="M561 298l91 -298h-76l-67 234h-48v-234h-76v234h-47l-67 -234h-76l71 234h-99v-234h-82v526h82v-228h181l-102 183v45h349v-45l-102 -183h68zM331 466l92 -168l90 168h-182z" glyph-name="uni046D"/>
<glyph horiz-adv-x="451" unicode="Ѯ" d="M236 755h-53l-121 109l35 37l113 -80l113 80l34 -37zM214 375q98 0 149.5 -51t51.5 -144q0 -174 -182 -205q-68 -12 -90 -23.5t-22 -35.5q0 -37 65 -74l-28 -54q-119 54 -119 135q0 49 35.5 75.5t114.5 39.5q72 11 104.5 44t32.5 99q0 69 -33 100.5t-100 31.5h-87v60 l192 245h-270v70h363v-69l-196 -244h19z" glyph-name="uni046E"/>
<glyph horiz-adv-x="424" unicode="ѯ" d="M312 780l34 -39l-121 -112h-53l-121 112l34 39l114 -86zM145 -212q-119 54 -119 135q0 49 36.5 76t114.5 38q74 10 105 31t31 70q0 72 -81 72h-132v61l179 187h-256v68h350v-63l-185 -191h48q78 0 121.5 -35t42.5 -100q0 -134 -179 -162q-66 -10 -89.5 -21.5t-23.5 -36.5 q0 -38 64 -75z" glyph-name="uni046F"/>
<glyph horiz-adv-x="622" unicode="Ѱ" d="M508 688h83v-266q0 -208 -238 -227v-195h-85v195q-237 20 -237 225v268h83v-263q0 -78 37.5 -117t118.5 -44v424h81v-424q81 6 119 44.5t38 116.5v263z" glyph-name="uni0470"/>
<glyph horiz-adv-x="681" unicode="ѱ" d="M617 256q0 -251 -237 -267v-189l-79 -11v200q-230 10 -230 202l1 335h81v-330q0 -66 34.5 -101t113.5 -41v472h79v-472q80 7 117 56.5t37 149.5q0 125 -23 266h82q24 -141 24 -270z" glyph-name="uni0471"/>
<glyph horiz-adv-x="626" unicode="Ѳ" d="M313 699q121 0 191.5 -90.5t70.5 -265.5q0 -173 -70.5 -264t-191.5 -91q-120 0 -190.5 90t-70.5 264q0 172 71 264.5t190 92.5zM313 630q-163 0 -175 -247h350q-11 247 -175 247zM313 58q169 0 176 261h-352q8 -261 176 -261z" glyph-name="uni0472"/>
<glyph horiz-adv-x="526" unicode="ѳ" d="M264 537q100 0 155 -71t55 -202q0 -127 -56.5 -201.5t-154.5 -74.5q-100 0 -155.5 73t-55.5 201q0 130 56 202.5t156 72.5zM264 472q-116 0 -126 -173h250q-10 173 -124 173zM263 54q118 0 125 182h-250q7 -182 125 -182z" glyph-name="uni0473"/>
<glyph horiz-adv-x="548" unicode="Ѵ" d="M207 0l-198 688h88l159 -597l125 493q28 115 123 115q50 0 94 -39l-31 -46q-29 21 -55 21q-21 0 -34 -13.5t-22 -47.5l-154 -574h-95z" glyph-name="uni0474"/>
<glyph horiz-adv-x="452" unicode="ѵ" d="M408 468l-134 -468h-99l-164 526h87l127 -453l109 402q14 52 36.5 75t64.5 23q30 0 62 -17l-22 -54q-14 6 -29 6t-23 -9t-15 -31z" glyph-name="uni0475"/>
<glyph horiz-adv-x="548" unicode="Ѷ" d="M145 951l76 -167l-49 -22l-94 153zM279 950l67 -161l-48 -22l-86 148zM207 0l-198 688h88l159 -597l125 493q28 115 123 115q50 0 94 -39l-31 -46q-29 21 -55 21q-21 0 -34 -13.5t-22 -47.5l-154 -574h-95z" glyph-name="uni0476"/>
<glyph horiz-adv-x="452" unicode="ѷ" d="M118 825l76 -167l-49 -22l-94 153zM252 824l67 -161l-48 -22l-86 148zM408 468l-134 -468h-99l-164 526h87l127 -453l109 402q14 52 36.5 75t64.5 23q30 0 62 -17l-22 -54q-14 6 -29 6t-23 -9t-15 -31z" glyph-name="uni0477"/>
<glyph horiz-adv-x="1072" unicode="Ѹ" d="M313 699q121 0 191.5 -90.5t70.5 -265.5q0 -173 -70.5 -264t-191.5 -91q-120 0 -190.5 90t-70.5 264q0 172 71 264.5t190 92.5zM313 630q-172 0 -172 -288q0 -284 172 -284t172 285q0 287 -172 287zM1060 526l-159 -529q-28 -91 -77.5 -142.5t-140.5 -64.5l-9 63 q68 14 98.5 46t52.5 101h-29l-159 526h86l128 -466l125 466h84z" glyph-name="uni0478"/>
<glyph horiz-adv-x="969" unicode="ѹ" d="M264 537q100 0 155 -71t55 -202q0 -127 -56.5 -201.5t-154.5 -74.5q-100 0 -155.5 73t-55.5 201q0 130 56 202.5t156 72.5zM957 526l-159 -529q-28 -91 -77.5 -142.5t-140.5 -64.5l-9 63q68 14 98.5 46t52.5 101h-29l-159 526h86l128 -466l125 466h84zM264 471 q-125 0 -125 -209q0 -207 124 -207t124 209q0 207 -123 207z" glyph-name="uni0479"/>
<glyph horiz-adv-x="616" unicode="Ҋ" d="M305 760q-55 0 -91 29.5t-42 80.5l53 12q17 -58 80 -58q64 0 82 58l52 -12q-5 -51 -42 -80.5t-92 -29.5zM522 70h93l-68 -218h-65l31 148h-75v344q0 132 11 249l-252 -593h-108v688h85v-345q0 -132 -12 -250l253 595h107v-618z" glyph-name="uni048A"/>
<glyph horiz-adv-x="539" unicode="ҋ" d="M269 646q-55 0 -91 29.5t-42 80.5l53 12q17 -58 80 -58q64 0 82 58l52 -12q-5 -51 -42 -80.5t-92 -29.5zM454 67h87l-62 -215h-64l31 148h-73v263q0 105 13 170l-207 -433h-94v526h81v-259q0 -93 -12 -171l204 430h96v-459z" glyph-name="uni048B"/>
<glyph horiz-adv-x="527" unicode="Ҍ" d="M262 430q115 0 178 -52.5t63 -157.5q0 -220 -241 -220h-162v529h-80v63h80v96h85v-96h127v-63h-127v-99h77zM266 68q72 0 109.5 33.5t37.5 117.5q0 77 -37.5 110.5t-112.5 33.5h-78v-295h81z" glyph-name="uni048C"/>
<glyph horiz-adv-x="476" unicode="ҍ" d="M234 335q211 0 211 -165q0 -84 -54.5 -127t-149.5 -43h-142v399h-72v63h72v64h82v-64h121l-9 -63h-112v-64h53zM241 65q118 0 118 105q0 101 -120 101h-58v-206h60z" glyph-name="uni048D"/>
<glyph horiz-adv-x="520" unicode="Ҏ" d="M492 477q0 -135 -98 -187l67 -122h-64l-56 101q-45 -12 -101 -12h-66v-257h-85v688h150q253 0 253 -211zM239 325q38 0 68 6l-81 148h64l69 -125q44 35 44 122q0 77 -41 111t-122 34h-66v-296h65z" glyph-name="uni048E"/>
<glyph horiz-adv-x="532" unicode="ҏ" d="M478 264q0 -166 -81 -238l65 -118h-64l-49 90q-24 -10 -56 -10q-78 0 -126 62v-250l-82 -11v737h72l6 -71q54 82 142 82q87 0 130 -70.5t43 -202.5zM275 56q19 0 39 5l-87 158h64l68 -124q32 47 32 169q0 108 -26.5 158t-80.5 50q-64 0 -117 -82v-269q42 -65 108 -65z " glyph-name="uni048F"/>
<glyph horiz-adv-x="458" unicode="Ґ" d="M369 812h82v-124l-12 -74h-265v-614h-85v688h280v124z" glyph-name="uni0490"/>
<glyph horiz-adv-x="386" unicode="ґ" d="M302 658h80v-132l-11 -68h-204v-458h-82v526h217v132z" glyph-name="uni0491"/>
<glyph horiz-adv-x="465" unicode="Ғ" d="M446 614h-265v-204h141v-64h-141v-346h-85v346h-85v64h85v278h362z" glyph-name="uni0492"/>
<glyph horiz-adv-x="395" unicode="ғ" d="M380 458h-204v-156h105v-63h-105v-239h-82v239h-69v63h69v224h297z" glyph-name="uni0493"/>
<glyph horiz-adv-x="546" unicode="Ҕ" d="M513 239v-239h-1v-72q0 -68 -36.5 -103.5t-97.5 -35.5q-59 0 -104 37l35 52q33 -20 65 -20q54 0 54 67v312q0 130 -113 130q-85 0 -141 -77v-290h-85v688h338l-11 -70h-242v-248q59 69 156 69q86 0 134.5 -52.5t48.5 -147.5z" glyph-name="uni0494"/>
<glyph horiz-adv-x="493" unicode="ҕ" d="M311 347q63 0 99.5 -42.5t36.5 -119.5v-259q0 -65 -37 -101t-97 -36q-61 0 -104 37l34 51q32 -21 65 -21q57 0 57 67v252q0 108 -72 108q-64 0 -126 -89v-194h-82v526h297l-11 -65h-204v-193q60 79 144 79z" glyph-name="uni0495"/>
<glyph horiz-adv-x="743" unicode="Җ" d="M694 70h56v-218h-64l-14 148h-37l-152 326h-76v-326h-80v326h-75l-154 -326h-92l178 365l-161 323h88l142 -291h74v291h80v-291h75l144 291h86l-161 -323z" glyph-name="uni0496"/>
<glyph horiz-adv-x="638" unicode="җ" d="M590 67h58v-215h-64l-13 148h-34l-116 243h-65v-243h-77v243h-64l-117 -243h-85l135 280l-118 246h81l103 -218h65v218h77v-218h66l103 218h80l-118 -246z" glyph-name="uni0497"/>
<glyph horiz-adv-x="471" unicode="Ҙ" d="M431 198q0 -85 -51.5 -141t-134.5 -67q68 -47 68 -118q0 -49 -31.5 -79.5t-84.5 -30.5q-44 0 -84 24l23 47q28 -15 56 -15q54 0 54 58q0 66 -66 114q-103 9 -170 91l49 47q63 -68 145 -68q64 0 100 36.5t36 101.5q0 132 -138 132h-59l11 70h48q56 0 88 31.5t32 87.5 q0 50 -26 80.5t-80 30.5q-74 0 -143 -63l-45 48q86 84 193 84q89 0 139 -49t50 -125q0 -124 -125 -156q64 -8 105 -51.5t41 -119.5z" glyph-name="uni0498"/>
<glyph horiz-adv-x="447" unicode="ҙ" d="M395 154q0 -70 -43 -112t-114 -51q70 -47 70 -119q0 -49 -31.5 -79.5t-84.5 -30.5q-44 0 -84 24l23 47q28 -15 56 -15q54 0 54 58q0 66 -65 113q-93 5 -162 66l43 49q63 -49 137 -49q114 0 114 99q0 50 -32 69t-95 19h-58l5 65h44q114 0 114 86q0 80 -93 80 q-61 0 -123 -42l-39 48q72 58 171 58q71 0 119.5 -37.5t48.5 -103.5q0 -45 -24 -72.5t-77 -42.5q63 -10 94.5 -40t31.5 -87z" glyph-name="uni0499"/>
<glyph horiz-adv-x="531" unicode="Қ" d="M484 70h55v-218h-64l-14 148h-35l-166 326h-86v-326h-85v688h85v-291h87l157 291h85l-172 -323z" glyph-name="uni049A"/>
<glyph horiz-adv-x="466" unicode="қ" d="M419 67h56v-215h-64l-13 148h-32l-137 246h-62v-246h-82v526h82v-215h63l125 215h84l-143 -244z" glyph-name="uni049B"/>
<glyph horiz-adv-x="537" unicode="Ҝ" d="M343 365l178 -365h-93l-153 327h-17v-175h-50v175h-36v-327h-83v688h83v-292h36v172h50v-172h19l141 292h86z" glyph-name="uni049C"/>
<glyph horiz-adv-x="472" unicode="ҝ" d="M326 283l132 -283h-86l-112 246h-21v-125h-39v125h-34v-246h-81v526h81v-215h34v116h39v-116h22l99 215h81z" glyph-name="uni049D"/>
<glyph horiz-adv-x="537" unicode="Ҟ" d="M336 365l189 -365h-94l-166 326h-86v-326h-85v529h-74v66h74v93h85v-93h93v-66h-93v-132h87l157 291h85z" glyph-name="uni049E"/>
<glyph horiz-adv-x="470" unicode="ҟ" d="M300 282l161 -282h-91l-137 246h-61v-246h-82v569h-68v63h68v105l82 9v-114h136v-63h-136v-258h63l124 215h84z" glyph-name="uni049F"/>
<glyph horiz-adv-x="631" unicode="Ҡ" d="M430 365l189 -365h-94l-166 326h-86v-326h-85v615h-175v73h261l-1 -1v-290h87l157 291h85z" glyph-name="uni04A0"/>
<glyph horiz-adv-x="520" unicode="ҡ" d="M350 282l161 -282h-91l-137 246h-62v-246h-82v463h-134v63h216v-215h63l125 215h84z" glyph-name="uni04A1"/>
<glyph horiz-adv-x="611" unicode="Ң" d="M520 70h69v-218h-64l-14 148h-76v326h-261v-326h-85v688h85v-292h261v292h85v-618z" glyph-name="uni04A2"/>
<glyph horiz-adv-x="534" unicode="ң" d="M448 67h69v-215h-64l-13 148h-74v236h-199v-236h-82v526h82v-223h199v223h82v-459z" glyph-name="uni04A3"/>
<glyph horiz-adv-x="709" unicode="Ҥ" d="M701 688l-9 -72h-172v-616h-85v326h-261v-326h-85v688h85v-292h261v292h266z" glyph-name="uni04A4"/>
<glyph horiz-adv-x="609" unicode="ҥ" d="M608 526l-10 -67h-150v-459h-82v236h-199v-236h-82v526h82v-223h199v223h242z" glyph-name="uni04A5"/>
<glyph horiz-adv-x="885" unicode="Ҧ" d="M852 247v-247h-1v-72q0 -68 -36.5 -103.5t-97.5 -35.5q-59 0 -104 37l35 52q33 -20 65 -20q54 0 54 67v321q0 129 -113 129q-83 0 -138 -73v-302h-85v615h-257v-615h-85v688h427v-306q58 65 154 65q85 0 133.5 -52.5t48.5 -147.5z" glyph-name="uni04A6"/>
<glyph horiz-adv-x="770" unicode="ҧ" d="M588 347q63 0 99.5 -42.5t36.5 -119.5v-259q0 -65 -37 -101t-97 -36q-61 0 -104 37l34 51q32 -21 65 -21q57 0 57 67v252q0 108 -72 108q-63 0 -124 -86v-197h-82v459h-197v-459h-82v526h361v-255q59 76 142 76z" glyph-name="uni04A7"/>
<glyph horiz-adv-x="649" unicode="Ҩ" d="M597 262q0 -77 -35 -140.5t-99 -98.5q10 -13 36 -47t41 -55l-54 -39q-15 19 -44.5 57.5t-43.5 57.5q-36 -9 -78 -9q-123 0 -195.5 93t-72.5 263q0 173 72.5 264t185.5 91q54 0 92.5 -16t78.5 -50l-45 -53q-59 50 -122 50q-78 0 -125.5 -67t-47.5 -219q0 -145 49 -214.5 t133 -69.5q19 0 29 1q-67 101 -67 191q0 79 43 128.5t114 49.5q72 0 113.5 -46t41.5 -122zM365 253q0 -86 57 -172q93 46 93 182q0 99 -73 99q-36 0 -56.5 -28t-20.5 -81z" glyph-name="uni04A8"/>
<glyph horiz-adv-x="549" unicode="ҩ" d="M497 220q0 -64 -31 -118t-85 -84l75 -98l-49 -38q-67 84 -88 112q-29 -6 -58 -6q-98 0 -153.5 70.5t-55.5 200.5t56 204t153 74q82 0 143 -55l-38 -50q-51 38 -102 38q-124 0 -124 -210q0 -204 124 -204h12q-52 86 -52 156q1 66 37 108.5t101 42.5q62 0 98.5 -39 t36.5 -104zM299 212q0 -66 45 -139q77 40 77 148q0 37 -15.5 58.5t-43.5 21.5q-30 0 -46.5 -24t-16.5 -65z" glyph-name="uni04A9"/>
<glyph horiz-adv-x="505" unicode="Ҫ" d="M488 63q-60 -64 -147 -73q68 -47 68 -118q0 -49 -31.5 -79.5t-84.5 -30.5q-44 0 -84 24l23 47q28 -15 56 -15q54 0 54 58q0 66 -68 115q-102 14 -162 104t-60 249q0 173 72.5 264t185.5 91q54 0 92.5 -16t78.5 -50l-45 -53q-59 50 -122 50q-78 0 -125.5 -67t-47.5 -219 q0 -147 47 -215.5t127 -68.5q62 0 129 55z" glyph-name="uni04AA"/>
<glyph horiz-adv-x="428" unicode="ҫ" d="M287 -11q67 -47 67 -117q0 -49 -31.5 -79.5t-84.5 -30.5q-44 0 -84 24l23 47q28 -15 56 -15q54 0 54 58q0 68 -70 116q-78 15 -121.5 83.5t-43.5 183.5q0 130 56 204t153 74q82 0 143 -55l-38 -50q-51 38 -102 38q-124 0 -124 -210q0 -202 124 -202q50 0 103 39l38 -51 q-53 -48 -118 -57z" glyph-name="uni04AB"/>
<glyph horiz-adv-x="463" unicode="Ҭ" d="M446 616h-172v-546h71v-218h-64l-14 148h-78v616h-176v72h442z" glyph-name="uni04AC"/>
<glyph horiz-adv-x="405" unicode="ҭ" d="M394 459h-151v-392h69v-215h-64l-13 148h-74v459h-156v67h399z" glyph-name="uni04AD"/>
<glyph horiz-adv-x="493" unicode="Ү" d="M488 688l-199 -422v-266h-85v265l-199 423h92l152 -348l152 348h87z" glyph-name="uni04AE"/>
<glyph horiz-adv-x="445" unicode="ү" d="M434 526l-171 -510v-216l-80 -11v227l-172 510h86l128 -431l125 431h84z" glyph-name="uni04AF"/>
<glyph horiz-adv-x="493" unicode="Ұ" d="M488 688l-182 -385h91v-64h-108v-239h-85v239h-107v64h89l-181 385h92l152 -348l152 348h87z" glyph-name="uni04B0"/>
<glyph horiz-adv-x="445" unicode="ұ" d="M434 526l-155 -461h77v-63h-93v-202l-80 -11v213h-93v63h76l-155 461h86l128 -431l125 431h84z" glyph-name="uni04B1"/>
<glyph unicode="Ҳ" d="M443 70h56v-218h-64l-14 148h-35v2l-147 312l-146 -314h-88l185 367l-169 321h92l128 -266l129 266h88l-168 -316z" glyph-name="uni04B2"/>
<glyph horiz-adv-x="444" unicode="ҳ" d="M392 67h61v-215h-64l-13 148h-38l-121 230l-122 -230h-89l165 278l-146 248h91l103 -199l104 199h88l-144 -244z" glyph-name="uni04B3"/>
<glyph horiz-adv-x="699" unicode="Ҵ" d="M608 70h69v-218h-64l-14 148h-410v615h-176v73h423l-9 -73h-153v-545h249v618h85v-618z" glyph-name="uni04B4"/>
<glyph horiz-adv-x="604" unicode="ҵ" d="M518 67h69v-215h-64l-13 148h-348v463h-157v63h358l-10 -63h-109v-396h192v459h82v-459z" glyph-name="uni04B5"/>
<glyph horiz-adv-x="550" unicode="Ҷ" d="M459 70h69v-218h-64l-14 148h-76v282q-38 -33 -74 -48t-83 -15q-80 0 -130.5 51.5t-50.5 140.5v277h84v-273q0 -124 115 -124q84 0 139 62v335h85v-618z" glyph-name="uni04B6"/>
<glyph horiz-adv-x="495" unicode="ҷ" d="M410 67h68v-215h-64l-13 148h-73v227q-57 -62 -142 -62q-65 0 -101.5 38.5t-36.5 107.5v215h82v-208q0 -87 77 -87q34 0 67.5 16.5t53.5 44.5v234h82v-459z" glyph-name="uni04B7"/>
<glyph horiz-adv-x="548" unicode="Ҹ" d="M374 688h85v-688h-85v282q-48 -42 -97 -56v-107h-53v100h-7q-80 0 -130.5 51.5t-50.5 140.5v277h84v-273q0 -117 104 -124v246h53v-242q58 14 97 58v335z" glyph-name="uni04B8"/>
<glyph horiz-adv-x="495" unicode="ҹ" d="M328 526h82v-526h-82v227q-33 -36 -80 -52v-84h-47v75q-5 -1 -15 -1q-65 0 -101.5 38.5t-36.5 107.5v215h82v-208q0 -84 71 -87v157h47v-151q52 17 80 55v234z" glyph-name="uni04B9"/>
<glyph horiz-adv-x="546" unicode="Һ" d="M330 447q85 0 134 -52.5t49 -147.5v-247h-85v246q0 129 -112 129q-86 0 -142 -77v-298h-85v688h85v-309q60 68 156 68z" glyph-name="uni04BA"/>
<glyph horiz-adv-x="523" unicode="һ" d="M311 477q63 0 99.5 -43t36.5 -118v-316h-82v305q0 108 -73 108q-68 0 -125 -99v-314h-82v737l82 9v-355q56 86 144 86z" glyph-name="uni04BB"/>
<glyph horiz-adv-x="674" unicode="Ҽ" d="M633 356q0 -24 -3 -50h-402q9 -248 168 -248q81 0 159 64l45 -49q-90 -85 -206 -85q-114 0 -181 80.5t-73 238.5h-9q-65 0 -98.5 32.5t-33.5 84.5t37 107l57 -28q-19 -41 -19 -75q0 -54 54 -54h13q7 163 75 244t176 81q117 0 179 -87t62 -256zM228 374h321 q-3 257 -157 257t-164 -257z" glyph-name="uni04BC"/>
<glyph horiz-adv-x="575" unicode="ҽ" d="M527 280q0 -22 -2 -46h-305q8 -178 129 -178q67 0 124 46l37 -50q-74 -64 -165 -64q-95 0 -150.5 64t-60.5 183h-6q-59 0 -90.5 30t-31.5 80q0 48 33 100l50 -24q-17 -41 -17 -71q0 -55 52 -55h11q8 113 60.5 177.5t138.5 64.5q94 0 143.5 -66.5t49.5 -190.5zM447 295v9 q0 168 -112 168q-107 0 -115 -177h227z" glyph-name="uni04BD"/>
<glyph horiz-adv-x="674" unicode="Ҿ" d="M633 356q0 -24 -3 -50h-402q9 -248 168 -248q81 0 159 64l45 -49q-54 -53 -122 -74q-62 -29 -85.5 -56t-23.5 -59q0 -49 53 -49q22 0 53 6l-7 -62q-33 -7 -57 -7q-51 0 -81 27t-30 72q0 70 74 118q-105 7 -166.5 87t-67.5 231h-9q-65 0 -98.5 32.5t-33.5 84.5t37 107 l57 -28q-19 -41 -19 -75q0 -54 54 -54h13q7 163 75 244t176 81q117 0 179 -87t62 -256zM228 374h321q-3 257 -157 257t-164 -257z" glyph-name="uni04BE"/>
<glyph horiz-adv-x="575" unicode="ҿ" d="M527 280q0 -22 -2 -46h-305q8 -178 129 -178q67 0 124 46l37 -50q-43 -36 -84 -51q-58 -28 -79.5 -53.5t-21.5 -57.5q0 -49 53 -49q22 0 53 6l-7 -62q-33 -7 -57 -7q-51 0 -81 27t-30 72q0 67 66 112q-84 8 -133.5 71.5t-54.5 174.5h-6q-59 0 -90.5 30t-31.5 80 q0 48 33 100l50 -24q-17 -41 -17 -71q0 -55 52 -55h11q8 113 60.5 177.5t138.5 64.5q94 0 143.5 -66.5t49.5 -190.5zM447 295v9q0 168 -112 168q-107 0 -115 -177h227z" glyph-name="uni04BF"/>
<glyph horiz-adv-x="263" unicode="Ӏ" d="M174 688v-688h-85v688h85z" glyph-name="uni04C0"/>
<glyph horiz-adv-x="735" unicode="Ӂ" d="M367 760q-55 0 -91 29.5t-42 80.5l53 12q17 -58 80 -58q64 0 82 58l52 -12q-5 -51 -42 -80.5t-92 -29.5zM712 688l-161 -323l177 -365h-93l-152 326h-76v-326h-80v326h-75l-154 -326h-92l178 365l-161 323h88l142 -291h74v291h80v-291h75l144 291h86z" glyph-name="uni04C1"/>
<glyph horiz-adv-x="635" unicode="ӂ" d="M316 646q-55 0 -91 29.5t-42 80.5l53 12q17 -58 80 -58q64 0 82 58l52 -12q-5 -51 -42 -80.5t-92 -29.5zM605 526l-118 -246l135 -280h-85l-116 243h-65v-243h-77v243h-64l-117 -243h-85l135 280l-118 246h81l103 -218h65v218h77v-218h66l103 218h80z" glyph-name="uni04C2"/>
<glyph horiz-adv-x="536" unicode="Ӄ" d="M340 382q158 -18 158 -199v-183h-1v-72q0 -68 -36.5 -103.5t-97.5 -35.5q-59 0 -104 37l35 52q33 -20 65 -20q54 0 54 67v76h1v181q0 71 -29 101.5t-93 30.5h-118v-314h-85v688h85v-304h85l157 304h87z" glyph-name="uni04C3"/>
<glyph horiz-adv-x="488" unicode="ӄ" d="M306 298q129 -14 129 -157v-215q0 -65 -37 -101t-97 -36q-61 0 -104 37l34 51q32 -21 65 -21q57 0 57 67v211q0 55 -21 78t-73 23h-92v-235h-82v526h82v-227h62l125 227h84z" glyph-name="uni04C4"/>
<glyph horiz-adv-x="596" unicode="Ӆ" d="M501 70h93l-68 -218h-65l31 148h-76v616h-193l-32 -313q-12 -121 -31 -183t-44.5 -86.5t-79.5 -44.5l-21 66q32 14 47 35.5t25.5 67.5t20.5 145l40 385h353v-618z" glyph-name="uni04C5"/>
<glyph horiz-adv-x="529" unicode="ӆ" d="M431 67h87l-62 -215h-64l31 148h-74v459h-149l-16 -209q-7 -97 -18.5 -143t-36 -73t-76.5 -45l-21 65q42 17 53 51t20 153l20 268h306v-459z" glyph-name="uni04C6"/>
<glyph horiz-adv-x="607" unicode="Ӈ" d="M520 688v-688h-1v-72q0 -68 -36.5 -103.5t-97.5 -35.5q-59 0 -104 37l35 52q33 -20 65 -20q54 0 54 67v401h-261v-326h-85v688h85v-292h261v292h85z" glyph-name="uni04C7"/>
<glyph horiz-adv-x="534" unicode="ӈ" d="M366 526h82v-600q0 -65 -37 -101t-97 -36q-61 0 -104 37l34 51q32 -21 65 -21q57 0 57 67v313h-199v-236h-82v526h82v-223h199v223z" glyph-name="uni04C8"/>
<glyph horiz-adv-x="614" unicode="Ӊ" d="M520 70h93l-68 -218h-65l31 148h-76v326h-261v-326h-85v688h85v-292h261v292h85v-618z" glyph-name="uni04C9"/>
<glyph horiz-adv-x="547" unicode="ӊ" d="M448 67h87l-62 -215h-64l31 148h-74v236h-199v-236h-82v526h82v-223h199v223h82v-459z" glyph-name="uni04CA"/>
<glyph horiz-adv-x="548" unicode="Ӌ" d="M374 688h85v-688h-67l-13 -148h-65v218h60v212q-38 -33 -74 -48t-83 -15q-80 0 -130.5 51.5t-50.5 140.5v277h84v-273q0 -124 115 -124q84 0 139 62v335z" glyph-name="uni04CB"/>
<glyph horiz-adv-x="495" unicode="ӌ" d="M328 526h82v-526h-76l-13 -148h-65v215h72v168q-56 -61 -142 -61q-65 0 -101.5 38t-36.5 108v206h82v-199q0 -46 19 -67t58 -21q34 0 67.5 17t53.5 45v225z" glyph-name="uni04CC"/>
<glyph horiz-adv-x="717" unicode="Ӎ" d="M645 70h99l-68 -218h-65l31 148h-73l-22 316q-15 198 -16 286l-136 -523h-79l-143 524q0 -89 -12 -291l-21 -312h-81l53 688h113l132 -511l126 511h114z" glyph-name="uni04CD"/>
<glyph horiz-adv-x="651" unicode="ӎ" d="M547 67h92l-62 -215h-64l31 148h-71l-21 266q-7 81 -5 179l-111 -385h-75l-105 384q2 -94 -4 -177l-17 -267h-79l42 526h103l99 -384l105 384h105z" glyph-name="uni04CE"/>
<glyph horiz-adv-x="264" unicode="ӏ" d="M179 -12q-45 0 -72 28t-27 78v644l82 10v-652q0 -40 32 -40q14 0 30 6l20 -57q-29 -17 -65 -17z" glyph-name="uni04CF"/>
<glyph horiz-adv-x="523" unicode="Ӑ" d="M261 760q-55 0 -91 29.5t-42 80.5l53 12q17 -58 80 -58q64 0 82 58l52 -12q-5 -51 -42 -80.5t-92 -29.5zM426 0l-48 177h-236l-48 -177h-85l200 688h106l199 -688h-88zM160 246h200l-100 372z" glyph-name="uni04D0"/>
<glyph unicode="ӑ" d="M235 646q-55 0 -91 29.5t-42 80.5l53 12q17 -58 80 -58q64 0 82 58l52 -12q-5 -51 -42 -80.5t-92 -29.5zM405 115q0 -31 9.5 -46.5t29.5 -23.5l-18 -57q-75 12 -91 79q-49 -79 -141 -79q-71 0 -111.5 43.5t-40.5 115.5q0 83 55 127.5t157 44.5h70v47q0 55 -24 80t-74 25 q-55 0 -130 -28l-20 59q85 35 162 35q84 0 125.5 -43.5t41.5 -123.5v-255zM211 50q74 0 113 88v125h-60q-136 0 -136 -113q0 -100 83 -100z" glyph-name="uni04D1"/>
<glyph horiz-adv-x="523" unicode="Ӓ" d="M172 783q-22 0 -36.5 14.5t-14.5 36.5t14.5 37t36.5 15t36.5 -14.5t14.5 -37.5q0 -22 -14.5 -36.5t-36.5 -14.5zM358 783q-22 0 -36.5 14.5t-14.5 36.5t14.5 37t36.5 15t36.5 -14.5t14.5 -37.5q0 -22 -14.5 -36.5t-36.5 -14.5zM426 0l-48 177h-236l-48 -177h-85l200 688 h106l199 -688h-88zM160 246h200l-100 372z" glyph-name="uni04D2"/>
<glyph unicode="ӓ" d="M142 657q-22 0 -36.5 14.5t-14.5 36.5t14.5 37t36.5 15t36.5 -14.5t14.5 -37.5q0 -22 -14.5 -36.5t-36.5 -14.5zM328 657q-22 0 -36.5 14.5t-14.5 36.5t14.5 37t36.5 15t36.5 -14.5t14.5 -37.5q0 -22 -14.5 -36.5t-36.5 -14.5zM405 115q0 -31 9.5 -46.5t29.5 -23.5 l-18 -57q-75 12 -91 79q-49 -79 -141 -79q-71 0 -111.5 43.5t-40.5 115.5q0 83 55 127.5t157 44.5h70v47q0 55 -24 80t-74 25q-55 0 -130 -28l-20 59q85 35 162 35q84 0 125.5 -43.5t41.5 -123.5v-255zM211 50q74 0 113 88v125h-60q-136 0 -136 -113q0 -100 83 -100z" glyph-name="uni04D3"/>
<glyph horiz-adv-x="730" unicode="Ӕ" d="M481 68h205v-68h-274l-36 176h-240l-59 -176h-86l245 688h411l-9 -68h-277l51 -235h228v-69h-213zM159 245h202l-77 375z" glyph-name="uni04D4"/>
<glyph horiz-adv-x="766" unicode="ӕ" d="M720 280q0 -22 -2 -46h-306q11 -178 131 -178q65 0 122 46l37 -48q-74 -66 -165 -66q-118 0 -172 98q-63 -98 -168 -98q-71 0 -113 44t-42 115q0 83 56.5 127.5t158.5 44.5h69v43q0 57 -24 83t-75 26q-53 0 -128 -28l-20 59q87 35 161 35q105 0 143 -85q50 85 147 85 q91 0 140.5 -67t49.5 -190zM638 295v9q0 168 -109 168t-117 -177h226zM214 50q39 0 68.5 23t57.5 74q-14 50 -14 110v6h-59q-137 0 -137 -113q0 -48 22 -74t62 -26z" glyph-name="uni04D5"/>
<glyph horiz-adv-x="475" unicode="Ӗ" d="M259 760q-55 0 -91 29.5t-42 80.5l53 12q17 -58 80 -58q64 0 82 58l52 -12q-5 -51 -42 -80.5t-92 -29.5zM425 688l-10 -68h-241v-234h210v-69h-210v-249h257v-68h-342v688h336z" glyph-name="uni04D6"/>
<glyph horiz-adv-x="492" unicode="ӗ" d="M252 646q-55 0 -91 29.5t-42 80.5l53 12q17 -58 80 -58q64 0 82 58l52 -12q-5 -51 -42 -80.5t-92 -29.5zM445 280q0 -22 -2 -46h-305q8 -178 129 -178q67 0 124 46l37 -50q-74 -64 -165 -64q-100 0 -155.5 70.5t-55.5 199.5q0 128 53.5 203.5t146.5 75.5 q94 0 143.5 -66.5t49.5 -190.5zM365 295v9q0 168 -112 168q-107 0 -115 -177h227z" glyph-name="uni04D7"/>
<glyph horiz-adv-x="586" unicode="Ә" d="M285 699q249 0 249 -346q0 -186 -66.5 -275.5t-180.5 -89.5q-245 0 -245 346q0 13 2 49h402q-4 133 -45.5 190t-119.5 57q-82 0 -161 -65l-43 50q90 84 208 84zM284 57q74 0 115.5 59.5t46.5 197.5h-321q1 -257 159 -257z" glyph-name="uni04D8"/>
<glyph horiz-adv-x="499" unicode="ә" d="M242 537q205 0 205 -273q0 -134 -54 -205t-149 -71q-92 0 -144.5 67t-52.5 192q0 21 2 45h313q-4 95 -34 136.5t-86 41.5q-67 0 -125 -47l-37 53q71 61 162 61zM244 54q56 0 85.5 39.5t33.5 136.5h-236v-7q0 -169 117 -169z" glyph-name="uni04D9"/>
<glyph horiz-adv-x="586" unicode="Ӛ" d="M194 783q-22 0 -36.5 14.5t-14.5 36.5t14.5 37t36.5 15t36.5 -14.5t14.5 -37.5q0 -22 -14.5 -36.5t-36.5 -14.5zM380 783q-22 0 -36.5 14.5t-14.5 36.5t14.5 37t36.5 15t36.5 -14.5t14.5 -37.5q0 -22 -14.5 -36.5t-36.5 -14.5zM285 699q249 0 249 -346 q0 -186 -66.5 -275.5t-180.5 -89.5q-245 0 -245 346q0 13 2 49h402q-4 133 -45.5 190t-119.5 57q-82 0 -161 -65l-43 50q90 84 208 84zM284 57q74 0 115.5 59.5t46.5 197.5h-321q1 -257 159 -257z" glyph-name="uni04DA"/>
<glyph horiz-adv-x="499" unicode="ӛ" d="M149 657q-22 0 -36.5 14.5t-14.5 36.5t14.5 37t36.5 15t36.5 -14.5t14.5 -37.5q0 -22 -14.5 -36.5t-36.5 -14.5zM335 657q-22 0 -36.5 14.5t-14.5 36.5t14.5 37t36.5 15t36.5 -14.5t14.5 -37.5q0 -22 -14.5 -36.5t-36.5 -14.5zM242 537q205 0 205 -273q0 -134 -54 -205 t-149 -71q-92 0 -144.5 67t-52.5 192q0 21 2 45h313q-4 95 -34 136.5t-86 41.5q-67 0 -125 -47l-37 53q71 61 162 61zM244 54q56 0 85.5 39.5t33.5 136.5h-236v-7q0 -169 117 -169z" glyph-name="uni04DB"/>
<glyph horiz-adv-x="735" unicode="Ӝ" d="M278 886q22 0 36.5 -14.5t14.5 -37.5q0 -22 -14.5 -36.5t-36.5 -14.5t-36.5 14.5t-14.5 36.5t14.5 37t36.5 15zM464 886q22 0 36.5 -14.5t14.5 -37.5q0 -22 -14.5 -36.5t-36.5 -14.5t-36.5 14.5t-14.5 36.5t14.5 37t36.5 15zM712 688l-161 -323l177 -365h-93l-152 326 h-76v-326h-80v326h-75l-154 -326h-92l178 365l-161 323h88l142 -291h74v291h80v-291h75l144 291h86z" glyph-name="uni04DC"/>
<glyph horiz-adv-x="635" unicode="ӝ" d="M223 760q22 0 36.5 -14.5t14.5 -37.5q0 -22 -14.5 -36.5t-36.5 -14.5t-36.5 14.5t-14.5 36.5t14.5 37t36.5 15zM409 760q22 0 36.5 -14.5t14.5 -37.5q0 -22 -14.5 -36.5t-36.5 -14.5t-36.5 14.5t-14.5 36.5t14.5 37t36.5 15zM605 526l-118 -246l135 -280h-85l-116 243 h-65v-243h-77v243h-64l-117 -243h-85l135 280l-118 246h81l103 -218h65v218h77v-218h66l103 218h80z" glyph-name="uni04DD"/>
<glyph horiz-adv-x="471" unicode="Ӟ" d="M128 886q22 0 36.5 -14.5t14.5 -37.5q0 -22 -14.5 -36.5t-36.5 -14.5t-36.5 14.5t-14.5 36.5t14.5 37t36.5 15zM314 886q22 0 36.5 -14.5t14.5 -37.5q0 -22 -14.5 -36.5t-36.5 -14.5t-36.5 14.5t-14.5 36.5t14.5 37t36.5 15zM210 -12q-123 0 -200 93l49 47 q63 -68 145 -68q64 0 100 36.5t36 101.5q0 132 -138 132h-59l11 70h48q56 0 88 31.5t32 87.5q0 50 -26 80.5t-80 30.5q-74 0 -143 -63l-45 48q86 84 193 84q89 0 139 -49t50 -125q0 -124 -125 -156q64 -8 105 -51.5t41 -119.5q0 -94 -62.5 -152t-158.5 -58z" glyph-name="uni04DE"/>
<glyph horiz-adv-x="447" unicode="ӟ" d="M108 760q22 0 36.5 -14.5t14.5 -37.5q0 -22 -14.5 -36.5t-36.5 -14.5t-36.5 14.5t-14.5 36.5t14.5 37t36.5 15zM294 760q22 0 36.5 -14.5t14.5 -37.5q0 -22 -14.5 -36.5t-36.5 -14.5t-36.5 14.5t-14.5 36.5t14.5 37t36.5 15zM202 537q71 0 119.5 -37.5t48.5 -103.5 q0 -45 -24 -72.5t-77 -42.5q63 -10 94.5 -40t31.5 -87q0 -80 -56 -123t-143 -43q-105 0 -182 67l43 49q63 -49 137 -49q114 0 114 99q0 50 -32 69t-95 19h-58l5 65h44q114 0 114 86q0 80 -93 80q-61 0 -123 -42l-39 48q72 58 171 58z" glyph-name="uni04DF"/>
<glyph horiz-adv-x="459" unicode="Ӡ" d="M206 394q216 0 216 -198q0 -94 -59 -151t-160 -57q-126 0 -194 89l50 45q58 -64 141 -64q65 0 99.5 36.5t34.5 102.5q0 72 -34.5 103t-107.5 31h-79v61l193 226h-270v70h363v-69l-194 -225h1z" glyph-name="uni04E0"/>
<glyph horiz-adv-x="430" unicode="ӡ" d="M189 204q106 0 160 -50t54 -148q0 -97 -58 -157t-156 -60q-118 0 -189 89l48 44q62 -65 139 -65q63 0 96 39t33 112q0 72 -33.5 103.5t-109.5 31.5h-68v60l186 255h-264v68h354v-63l-193 -259h1z" glyph-name="uni04E1"/>
<glyph horiz-adv-x="611" unicode="Ӣ" d="M426 796h-241v61h241v-61zM522 688v-688h-84v344q0 132 11 249l-252 -593h-108v688h85v-345q0 -132 -12 -250l253 595h107z" glyph-name="uni04E2"/>
<glyph horiz-adv-x="539" unicode="ӣ" d="M390 670h-241v61h241v-61zM454 526v-526h-81v263q0 105 13 170l-207 -433h-94v526h81v-259q0 -93 -12 -171l204 430h96z" glyph-name="uni04E3"/>
<glyph horiz-adv-x="611" unicode="Ӥ" d="M216 886q22 0 36.5 -14.5t14.5 -37.5q0 -22 -14.5 -36.5t-36.5 -14.5t-36.5 14.5t-14.5 36.5t14.5 37t36.5 15zM402 886q22 0 36.5 -14.5t14.5 -37.5q0 -22 -14.5 -36.5t-36.5 -14.5t-36.5 14.5t-14.5 36.5t14.5 37t36.5 15zM522 688v-688h-84v344q0 132 11 249 l-252 -593h-108v688h85v-345q0 -132 -12 -250l253 595h107z" glyph-name="uni04E4"/>
<glyph horiz-adv-x="539" unicode="ӥ" d="M176 760q22 0 36.5 -14.5t14.5 -37.5q0 -22 -14.5 -36.5t-36.5 -14.5t-36.5 14.5t-14.5 36.5t14.5 37t36.5 15zM362 760q22 0 36.5 -14.5t14.5 -37.5q0 -22 -14.5 -36.5t-36.5 -14.5t-36.5 14.5t-14.5 36.5t14.5 37t36.5 15zM454 526v-526h-81v263q0 105 13 170 l-207 -433h-94v526h81v-259q0 -93 -12 -171l204 430h96z" glyph-name="uni04E5"/>
<glyph horiz-adv-x="626" unicode="Ӧ" d="M223 886q22 0 36.5 -14.5t14.5 -37.5q0 -22 -14.5 -36.5t-36.5 -14.5t-36.5 14.5t-14.5 36.5t14.5 37t36.5 15zM409 886q22 0 36.5 -14.5t14.5 -37.5q0 -22 -14.5 -36.5t-36.5 -14.5t-36.5 14.5t-14.5 36.5t14.5 37t36.5 15zM313 699q121 0 191.5 -90.5t70.5 -265.5 q0 -173 -70.5 -264t-191.5 -91q-120 0 -190.5 90t-70.5 264q0 172 71 264.5t190 92.5zM313 630q-172 0 -172 -288q0 -284 172 -284t172 285q0 287 -172 287z" glyph-name="uni04E6"/>
<glyph horiz-adv-x="526" unicode="ӧ" d="M169 760q22 0 36.5 -14.5t14.5 -37.5q0 -22 -14.5 -36.5t-36.5 -14.5t-36.5 14.5t-14.5 36.5t14.5 37t36.5 15zM355 760q22 0 36.5 -14.5t14.5 -37.5q0 -22 -14.5 -36.5t-36.5 -14.5t-36.5 14.5t-14.5 36.5t14.5 37t36.5 15zM264 537q100 0 155 -71t55 -202 q0 -127 -56.5 -201.5t-154.5 -74.5q-100 0 -155.5 73t-55.5 201q0 130 56 202.5t156 72.5zM264 471q-125 0 -125 -209q0 -207 124 -207t124 209q0 207 -123 207z" glyph-name="uni04E7"/>
<glyph horiz-adv-x="626" unicode="Ө" d="M313 699q121 0 191.5 -90.5t70.5 -265.5q0 -173 -70.5 -264t-191.5 -91q-120 0 -190.5 90t-70.5 264q0 172 71 264.5t190 92.5zM313 630q-163 0 -175 -247h350q-11 247 -175 247zM313 58q169 0 176 261h-352q8 -261 176 -261z" glyph-name="uni04E8"/>
<glyph horiz-adv-x="526" unicode="ө" d="M264 537q100 0 155 -71t55 -202q0 -127 -56.5 -201.5t-154.5 -74.5q-100 0 -155.5 73t-55.5 201q0 130 56 202.5t156 72.5zM264 472q-116 0 -126 -173h250q-10 173 -124 173zM263 54q118 0 125 182h-250q7 -182 125 -182z" glyph-name="uni04E9"/>
<glyph horiz-adv-x="626" unicode="Ӫ" d="M223 783q-22 0 -36.5 14.5t-14.5 36.5t14.5 37t36.5 15t36.5 -14.5t14.5 -37.5q0 -22 -14.5 -36.5t-36.5 -14.5zM409 783q-22 0 -36.5 14.5t-14.5 36.5t14.5 37t36.5 15t36.5 -14.5t14.5 -37.5q0 -22 -14.5 -36.5t-36.5 -14.5zM313 699q121 0 191.5 -90.5t70.5 -265.5 q0 -173 -70.5 -264t-191.5 -91q-120 0 -190.5 90t-70.5 264q0 172 71 264.5t190 92.5zM313 630q-163 0 -175 -247h350q-11 247 -175 247zM313 58q169 0 176 261h-352q8 -261 176 -261z" glyph-name="uni04EA"/>
<glyph horiz-adv-x="526" unicode="ӫ" d="M168 657q-22 0 -36.5 14.5t-14.5 36.5t14.5 37t36.5 15t36.5 -14.5t14.5 -37.5q0 -22 -14.5 -36.5t-36.5 -14.5zM354 657q-22 0 -36.5 14.5t-14.5 36.5t14.5 37t36.5 15t36.5 -14.5t14.5 -37.5q0 -22 -14.5 -36.5t-36.5 -14.5zM264 537q100 0 155 -71t55 -202 q0 -127 -56.5 -201.5t-154.5 -74.5q-100 0 -155.5 73t-55.5 201q0 130 56 202.5t156 72.5zM264 472q-116 0 -126 -173h250q-10 173 -124 173zM263 54q118 0 125 182h-250q7 -182 125 -182z" glyph-name="uni04EB"/>
<glyph horiz-adv-x="483" unicode="Ӭ" d="M116 783q-22 0 -36.5 14.5t-14.5 36.5t14.5 37t36.5 15t36.5 -14.5t14.5 -37.5q0 -22 -14.5 -36.5t-36.5 -14.5zM302 783q-22 0 -36.5 14.5t-14.5 36.5t14.5 37t36.5 15t36.5 -14.5t14.5 -37.5q0 -22 -14.5 -36.5t-36.5 -14.5zM203 699q228 0 228 -355q0 -176 -62.5 -266 t-177.5 -90q-100 0 -174 74l45 51q32 -26 60 -39.5t67 -13.5q149 0 153 260h-239v70h239q-4 130 -40.5 185t-100.5 55q-40 0 -69.5 -11.5t-65.5 -39.5l-43 51q78 69 180 69z" glyph-name="uni04EC"/>
<glyph horiz-adv-x="437" unicode="ӭ" d="M105 657q-22 0 -36.5 14.5t-14.5 36.5t14.5 37t36.5 15t36.5 -14.5t14.5 -37.5q0 -22 -14.5 -36.5t-36.5 -14.5zM291 657q-22 0 -36.5 14.5t-14.5 36.5t14.5 37t36.5 15t36.5 -14.5t14.5 -37.5q0 -22 -14.5 -36.5t-36.5 -14.5zM195 537q190 0 190 -270q0 -136 -52 -207.5 t-153 -71.5q-86 0 -151 58l39 51q54 -41 110 -41q115 0 122 182h-195v64h195q-4 91 -31 130.5t-78 39.5q-59 0 -113 -41l-37 50q68 56 154 56z" glyph-name="uni04ED"/>
<glyph horiz-adv-x="483" unicode="Ӯ" d="M364 796h-241v61h241v-61zM488 688l-179 -501q-36 -101 -80.5 -142t-130.5 -57l-12 62q62 15 92.5 43.5t52.5 96.5h-30l-201 498h87l168 -446l150 446h83z" glyph-name="uni04EE"/>
<glyph horiz-adv-x="446" unicode="ӯ" d="M340 670h-241v61h241v-61zM434 526l-159 -529q-28 -91 -77.5 -142.5t-140.5 -64.5l-9 63q68 14 98.5 46t52.5 101h-29l-159 526h86l128 -466l125 466h84z" glyph-name="uni04EF"/>
<glyph horiz-adv-x="483" unicode="Ӱ" d="M154 886q22 0 36.5 -14.5t14.5 -37.5q0 -22 -14.5 -36.5t-36.5 -14.5t-36.5 14.5t-14.5 36.5t14.5 37t36.5 15zM340 886q22 0 36.5 -14.5t14.5 -37.5q0 -22 -14.5 -36.5t-36.5 -14.5t-36.5 14.5t-14.5 36.5t14.5 37t36.5 15zM488 688l-179 -501q-36 -101 -80.5 -142 t-130.5 -57l-12 62q62 15 92.5 43.5t52.5 96.5h-30l-201 498h87l168 -446l150 446h83z" glyph-name="uni04F0"/>
<glyph horiz-adv-x="446" unicode="ӱ" d="M126 760q22 0 36.5 -14.5t14.5 -37.5q0 -22 -14.5 -36.5t-36.5 -14.5t-36.5 14.5t-14.5 36.5t14.5 37t36.5 15zM312 760q22 0 36.5 -14.5t14.5 -37.5q0 -22 -14.5 -36.5t-36.5 -14.5t-36.5 14.5t-14.5 36.5t14.5 37t36.5 15zM434 526l-159 -529q-28 -91 -77.5 -142.5 t-140.5 -64.5l-9 63q68 14 98.5 46t52.5 101h-29l-159 526h86l128 -466l125 466h84z" glyph-name="uni04F1"/>
<glyph horiz-adv-x="483" unicode="Ӳ" d="M348 951l67 -36l-94 -153l-49 22zM215 950l66 -35l-85 -148l-49 22zM488 688l-179 -501q-36 -101 -80.5 -142t-130.5 -57l-12 62q62 15 92.5 43.5t52.5 96.5h-30l-201 498h87l168 -446l150 446h83z" glyph-name="uni04F2"/>
<glyph horiz-adv-x="446" unicode="ӳ" d="M329 825l67 -36l-94 -153l-49 22zM196 824l66 -35l-85 -148l-49 22zM434 526l-159 -529q-28 -91 -77.5 -142.5t-140.5 -64.5l-9 63q68 14 98.5 46t52.5 101h-29l-159 526h86l128 -466l125 466h84z" glyph-name="uni04F3"/>
<glyph horiz-adv-x="548" unicode="Ӵ" d="M157 783q-22 0 -36.5 14.5t-14.5 36.5t14.5 37t36.5 15t36.5 -14.5t14.5 -37.5q0 -22 -14.5 -36.5t-36.5 -14.5zM343 783q-22 0 -36.5 14.5t-14.5 36.5t14.5 37t36.5 15t36.5 -14.5t14.5 -37.5q0 -22 -14.5 -36.5t-36.5 -14.5zM374 688h85v-688h-85v282q-38 -33 -74 -48 t-83 -15q-80 0 -130.5 51.5t-50.5 140.5v277h84v-273q0 -124 115 -124q84 0 139 62v335z" glyph-name="uni04F4"/>
<glyph horiz-adv-x="495" unicode="ӵ" d="M135 657q-22 0 -36.5 14.5t-14.5 36.5t14.5 37t36.5 15t36.5 -14.5t14.5 -37.5q0 -22 -14.5 -36.5t-36.5 -14.5zM321 657q-22 0 -36.5 14.5t-14.5 36.5t14.5 37t36.5 15t36.5 -14.5t14.5 -37.5q0 -22 -14.5 -36.5t-36.5 -14.5zM328 526h82v-526h-82v227q-57 -62 -142 -62 q-65 0 -101.5 38.5t-36.5 107.5v215h82v-208q0 -87 77 -87q34 0 67.5 16.5t53.5 44.5v234z" glyph-name="uni04F5"/>
<glyph horiz-adv-x="458" unicode="Ӷ" d="M439 614h-265v-544h69v-218h-64l-14 148h-76v688h362z" glyph-name="uni04F6"/>
<glyph horiz-adv-x="386" unicode="ӷ" d="M371 458h-204v-391h69v-215h-64l-13 148h-74v526h297z" glyph-name="uni04F7"/>
<glyph horiz-adv-x="737" unicode="Ӹ" d="M278 783q-22 0 -36.5 14.5t-14.5 36.5t14.5 37t36.5 15t36.5 -14.5t14.5 -37.5q0 -22 -14.5 -36.5t-36.5 -14.5zM464 886q22 0 36.5 -14.5t14.5 -37.5q0 -22 -14.5 -36.5t-36.5 -14.5t-36.5 14.5t-14.5 36.5t14.5 37t36.5 15zM242 432q116 0 178.5 -52.5t62.5 -158.5 q0 -221 -244 -221h-150v688h85v-256h68zM563 688h84v-688h-84v688zM246 68q72 0 110 33.5t38 118.5q0 78 -37.5 111.5t-115.5 33.5h-67v-297h72z" glyph-name="uni04F8"/>
<glyph horiz-adv-x="661" unicode="ӹ" d="M236 657q-22 0 -36.5 14.5t-14.5 36.5t14.5 37t36.5 15t36.5 -14.5t14.5 -37.5q0 -22 -14.5 -36.5t-36.5 -14.5zM422 760q22 0 36.5 -14.5t14.5 -37.5q0 -22 -14.5 -36.5t-36.5 -14.5t-36.5 14.5t-14.5 36.5t14.5 37t36.5 15zM218 354q206 0 206 -175q0 -89 -53.5 -134 t-137.5 -45h-148v526h82v-172h51zM494 526h82v-526h-82v526zM225 65q56 0 84.5 26t28.5 88q0 57 -26.5 84t-91.5 27h-53v-225h58z" glyph-name="uni04F9"/>
<glyph horiz-adv-x="465" unicode="Ӻ" d="M446 614h-265v-204h141v-64h-141v-276h78v-142q0 -68 -36.5 -103.5t-97.5 -35.5q-59 0 -104 37l35 52q33 -20 65 -20q54 0 54 67v75h-79v346h-85v64h85v278h362z" glyph-name="uni04FA"/>
<glyph horiz-adv-x="395" unicode="ӻ" d="M380 458h-204v-156h105v-63h-105v-172h82v-141q0 -65 -37 -101t-97 -36q-61 0 -104 37l34 51q32 -21 65 -21q57 0 57 67v77h-82v239h-69v63h69v224h297z" glyph-name="uni04FB"/>
<glyph horiz-adv-x="497" unicode="Ӽ" d="M443 70h55v-142q0 -68 -36.5 -103.5t-97.5 -35.5q-59 0 -104 37l35 52q33 -20 65 -20q54 0 54 67v75h-27l-148 314l-146 -314h-88l185 367l-169 321h92l128 -266l129 266h88l-168 -316z" glyph-name="uni04FC"/>
<glyph horiz-adv-x="441" unicode="ӽ" d="M392 67h58v-141q0 -65 -37 -101t-97 -36q-61 0 -104 37l34 51q32 -21 65 -21q57 0 57 67v77h-30l-121 230l-122 -230h-89l165 278l-146 248h91l103 -199l104 199h88l-144 -244z" glyph-name="uni04FD"/>
<glyph horiz-adv-x="484" unicode="Ӿ" d="M309 335l170 -335h-92l-148 317l-146 -317h-88l169 335h-120v64h119l-152 289h92l128 -269l129 269h88l-154 -289h131v-64h-126z" glyph-name="uni04FE"/>
<glyph horiz-adv-x="517" unicode="Ԁ" d="M343 688h84v-688h-164q-112 0 -175.5 51t-63.5 160q0 105 63.5 160.5t178.5 55.5h77v261zM267 68h76v291h-76q-77 0 -115 -35t-38 -113q0 -80 38 -111.5t115 -31.5z" glyph-name="uni0500"/>
<glyph horiz-adv-x="536" unicode="ԁ" d="M368 748l82 -10v-738h-72l-7 71q-50 -83 -135 -83q-87 0 -134.5 73t-47.5 200q0 124 51 200t136 76q75 0 127 -64v275zM252 54q68 0 116 81v265q-47 72 -110 72q-55 0 -86 -52.5t-31 -157.5q1 -208 111 -208z" glyph-name="uni0501"/>
<glyph horiz-adv-x="766" unicode="Ԃ" d="M708 379q7 -68 7 -124q0 -134 -59 -200.5t-147 -66.5q-103 0 -145 92q-50 -93 -151 -93q-78 0 -133.5 54.5t-55.5 156.5q0 110 63.5 169.5t176.5 59.5h79v261h84v-526q0 -107 84 -107q52 0 86.5 46.5t34.5 155.5q0 40 -6 122h82zM220 55q88 0 123 109v195h-79 q-75 0 -112.5 -38.5t-37.5 -122.5q0 -143 106 -143z" glyph-name="uni0502"/>
<glyph horiz-adv-x="781" unicode="ԃ" d="M724 378q6 -78 6 -123q0 -135 -57 -201.5t-141 -66.5q-111 0 -150 104q-52 -103 -145 -103q-86 0 -134.5 73t-48.5 200q0 124 51 200t136 76q75 0 127 -64v275l82 -10v-576q0 -108 83 -108q49 0 81.5 46.5t32.5 155.5q0 40 -6 122h83zM251 54q40 0 67 25.5t50 83.5v237 q-47 72 -110 72q-55 0 -86 -52.5t-31 -157.5q1 -208 110 -208z" glyph-name="uni0503"/>
<glyph horiz-adv-x="670" unicode="Ԅ" d="M613 379q6 -76 6 -124q0 -136 -51 -201.5t-135 -65.5q-63 0 -104 31t-76 100l-91 179q-3 -1 -8 -1h-94v65h80q75 0 111.5 32t36.5 102q0 65 -36.5 95t-120.5 30h-104v67h105q246 0 246 -192q0 -141 -135 -184l89 -174q23 -45 46 -64t56 -19q102 0 102 202q0 40 -6 122h83 z" glyph-name="uni0504"/>
<glyph horiz-adv-x="602" unicode="ԅ" d="M545 378q6 -78 6 -123q0 -136 -49 -202t-128 -66q-57 0 -94 29t-73 93l-54 97h-92v63h82q104 0 104 98q0 96 -114 96h-107v63h109q96 0 146.5 -41t50.5 -118q0 -107 -105 -145l55 -95q24 -43 43 -58.5t48 -15.5q95 0 95 199q0 44 -6 126h83z" glyph-name="uni0505"/>
<glyph horiz-adv-x="434" unicode="Ԇ" d="M374 70h68v-218h-64l-14 148h-52l-150 298q-3 -1 -8 -1h-94v65h80q75 0 111.5 32t36.5 102q0 65 -36.5 95t-120.5 30h-104v67h105q246 0 246 -192q0 -140 -134 -184z" glyph-name="uni0506"/>
<glyph horiz-adv-x="375" unicode="ԇ" d="M319 67h66v-215h-64l-13 148h-39l-115 206h-93v63h82q104 0 104 98q0 96 -114 96h-107v63h109q96 0 146.5 -41t50.5 -118q0 -107 -104 -144z" glyph-name="uni0507"/>
<glyph horiz-adv-x="839" unicode="Ԉ" d="M782 379q6 -78 6 -124q0 -133 -58.5 -200t-146.5 -67q-75 0 -121 45t-46 127v456h-193l-32 -313q-12 -121 -31 -183t-44.5 -86.5t-79.5 -44.5l-21 66q32 14 47 35.5t25.5 67.5t20.5 145l40 385h353v-526q0 -107 84 -107q52 0 86 47t34 155q0 40 -6 122h83z" glyph-name="uni0508"/>
<glyph horiz-adv-x="762" unicode="ԉ" d="M704 378q6 -59 6 -123q0 -135 -57 -201.5t-142 -66.5q-72 0 -117 46t-45 128v298h-149l-16 -209q-7 -97 -18.5 -143t-36 -73t-76.5 -45l-21 65q42 17 53 51t20 153l20 268h306v-364q0 -108 82 -108q49 0 81.5 46.5t32.5 154.5q0 55 -5 123h82z" glyph-name="uni0509"/>
<glyph horiz-adv-x="859" unicode="Ԋ" d="M801 379q6 -58 6 -124q0 -134 -58.5 -200.5t-146.5 -66.5q-75 0 -121 45t-46 127v166h-261v-326h-85v688h85v-291h261v291h85v-526q0 -107 84 -107q53 0 86.5 47t33.5 155q0 54 -5 122h82z" glyph-name="uni050A"/>
<glyph horiz-adv-x="779" unicode="ԋ" d="M722 378q6 -78 6 -123q0 -135 -57.5 -201.5t-141.5 -66.5q-73 0 -118 46t-45 128v75h-199v-236h-82v526h82v-223h199v223h82v-364q0 -108 83 -108q49 0 81.5 46.5t32.5 153.5q0 42 -6 124h83z" glyph-name="uni050B"/>
<glyph horiz-adv-x="571" unicode="Ԍ" d="M322 699q102 0 184 -73l-48 -50q-64 54 -136 54q-78 0 -129.5 -67.5t-51.5 -217.5q0 -154 43.5 -220.5t129.5 -66.5q64 0 116 32v219h-109l-9 70h201v-331q-95 -60 -199 -60q-125 0 -193.5 89t-68.5 268q0 171 77.5 262.5t192.5 91.5z" glyph-name="uni050C"/>
<glyph horiz-adv-x="507" unicode="ԍ" d="M276 538q88 0 160 -62l-43 -50q-58 44 -117 44q-60 0 -99 -49t-39 -155q0 -115 32.5 -163t95.5 -48q50 0 94 22v152h-87l-9 65h175v-254q-81 -51 -173 -51q-214 0 -214 277q0 129 64 200.5t160 71.5z" glyph-name="uni050D"/>
<glyph horiz-adv-x="612" unicode="Ԏ" d="M555 379q6 -78 6 -124q0 -133 -58.5 -200t-146.5 -67q-75 0 -121 45t-46 127v455h-176v73h442l-9 -73h-172v-453q0 -107 84 -107q52 0 86 47t34 155q0 40 -6 122h83z" glyph-name="uni050E"/>
<glyph horiz-adv-x="574" unicode="ԏ" d="M518 372q5 -63 5 -117q0 -135 -57 -201.5t-142 -66.5q-73 0 -118 46t-45 128v298h-156v67h399l-10 -67h-151v-297q0 -108 83 -108q49 0 81.5 46.5t32.5 153.5q0 50 -5 118h83z" glyph-name="uni050F"/>
<glyph horiz-adv-x="471" unicode="Ԑ" d="M251 699q111 0 193 -84l-46 -49q-67 64 -140 64q-54 0 -82 -31t-28 -80q0 -56 33 -87.5t88 -31.5h58l-10 -70h-48q-138 0 -138 -132q0 -66 35 -102t99 -36q83 0 146 68l50 -47q-77 -93 -198 -93q-98 0 -160.5 57t-62.5 153q0 76 40.5 119.5t102.5 51.5q-57 14 -90 53 t-33 102q0 76 51 125.5t140 49.5z" glyph-name="uni0510"/>
<glyph horiz-adv-x="422" unicode="ԑ" d="M240 537q88 0 152 -48l-37 -49q-52 33 -109 33q-44 0 -67.5 -21.5t-23.5 -61.5q0 -38 25.5 -60.5t69.5 -22.5h55l-9 -65h-51q-56 0 -81 -23t-25 -72q0 -42 27.5 -67t76.5 -25q68 0 125 46l40 -51q-70 -62 -171 -62q-83 0 -134 41.5t-51 115.5q0 115 123 135 q-104 22 -104 116q0 65 46.5 103t122.5 38z" glyph-name="uni0511"/>
<glyph horiz-adv-x="590" unicode="Ԓ" d="M501 688v-688h-1v-72q0 -68 -36.5 -103.5t-97.5 -35.5q-59 0 -104 37l35 52q33 -20 65 -20q54 0 54 67v691h-193l-32 -313q-12 -121 -31 -183t-44.5 -86.5t-79.5 -44.5l-21 66q32 14 47 35.5t25.5 67.5t20.5 145l40 385h353z" glyph-name="uni0512"/>
<glyph horiz-adv-x="517" unicode="ԓ" d="M125 526h306v-600q0 -65 -37 -101t-97 -36q-61 0 -104 37l34 51q32 -21 65 -21q57 0 57 67v536h-149l-16 -209q-7 -97 -18.5 -143t-36 -73t-76.5 -45l-21 65q42 17 53 51t20 153z" glyph-name="uni0513"/>
<glyph horiz-adv-x="730" unicode="Ԕ" d="M536 372l189 -372h-92l-148 314l-146 -314h-88l185 367l-132 250h-81l-32 -314q-12 -121 -31 -183t-44.5 -86.5t-79.5 -44.5l-21 66q32 14 47 35.5t25.5 67.5t20.5 145l40 385h211l128 -266l129 266h88z" glyph-name="uni0514"/>
<glyph horiz-adv-x="638" unicode="ԕ" d="M467 282l164 -282h-93l-121 230l-122 -230h-89l165 278l-108 183h-65l2 -2l-16 -209q-7 -97 -18.5 -143t-36 -73t-76.5 -45l-21 65q42 17 53 51t20 153l20 268h191l103 -199l104 199h88z" glyph-name="uni0515"/>
<glyph horiz-adv-x="684" unicode="Ԗ" d="M673 0h-93l-167 314q-61 -57 -178 -57h-61v-257h-85v688h146q118 0 178 -54.5t60 -157.5v-6l111 218h86l-184 -335zM234 325q80 0 120 33.5t40 117.5q0 145 -159 145h-61v-296h60z" glyph-name="uni0516"/>
<glyph horiz-adv-x="717" unicode="ԗ" d="M708 0h-93l-138 230q-6 -113 -53.5 -177.5t-130.5 -64.5q-78 0 -126 62v-250l-82 -11v737h72l6 -71q54 82 142 82q159 0 172 -232l132 221h86l-156 -255zM275 56q116 0 116 208t-106 208q-65 0 -118 -82v-269q42 -65 108 -65z" glyph-name="uni0517"/>
<glyph horiz-adv-x="755" unicode="Ԙ" d="M457 68h254v-68h-337v275h-128l-123 -275h-92l136 291q-120 49 -120 187q0 102 61 156t183 54h414l-10 -68h-238v-234h206v-69h-206v-249zM267 343h107v278h-78q-85 0 -122 -34t-37 -109q0 -68 34.5 -101.5t95.5 -33.5z" glyph-name="uni0518"/>
<glyph horiz-adv-x="750" unicode="ԙ" d="M703 269q0 -22 -2 -46h-305q11 -167 130 -167q64 0 123 46l36 -50q-74 -64 -164 -64q-92 0 -147 62.5t-63 172.5h-82l-108 -223h-88l119 241q-90 39 -90 135q0 69 50.5 109.5t138.5 40.5h193q31 11 66 11q93 0 143 -70t50 -198zM623 284v9q0 179 -113 179 q-108 0 -115 -188h228zM147 376q0 -92 106 -92h58q4 111 51 178h-113q-102 0 -102 -86z" glyph-name="uni0519"/>
<glyph horiz-adv-x="626" unicode="Ԛ" d="M427 35q99 -1 176 -67l-56 -68q-51 52 -101.5 71.5t-134.5 19.5q-118 0 -188.5 90t-70.5 261q0 172 71 264.5t190 92.5q121 0 191.5 -90.5t70.5 -265.5q0 -127 -38 -198.5t-110 -109.5zM141 342q0 -284 172 -284t172 285q0 287 -172 287t-172 -288z" glyph-name="uni051A"/>
<glyph horiz-adv-x="536" unicode="ԛ" d="M380 526h70v-737l-82 11v267q-50 -79 -133 -79q-85 0 -133 72.5t-48 200.5q0 125 51 200.5t136 75.5q79 0 133 -70zM252 54q67 0 116 81v267q-50 70 -111 70q-53 0 -84.5 -52.5t-31.5 -157.5q1 -208 111 -208z" glyph-name="uni051B"/>
<glyph horiz-adv-x="747" unicode="Ԝ" d="M722 688l-126 -688h-109l-114 588l-116 -588h-107l-125 688h82l100 -613l120 613h92l122 -613l102 613h79z" glyph-name="uni051C"/>
<glyph horiz-adv-x="652" unicode="ԝ" d="M630 526l-108 -526h-110l-86 450l-86 -450h-108l-111 526h82l86 -466l92 466h95l90 -466l87 466h77z" glyph-name="uni051D"/>
<glyph horiz-adv-x="532" unicode="Ԟ" d="M382 461l-51 -96l189 -365h-94l-166 326h-86v-326h-85v688h85v-291h87l57 105l-101 63l33 52l97 -61l71 132h85l-92 -172l109 -68l-33 -52z" glyph-name="uni051E"/>
<glyph horiz-adv-x="466" unicode="ԟ" d="M296 282l161 -282h-91l-137 246h-62v-246h-82v526h82v-215h63l45 78l-76 46l30 49l75 -46l51 88h84l-73 -125l84 -51l-30 -50l-84 51z" glyph-name="uni051F"/>
<glyph horiz-adv-x="872" unicode="Ԡ" d="M656 447q86 0 134 -52.5t48 -147.5v-319q0 -68 -36.5 -103.5t-97.5 -35.5q-59 0 -104 37l35 52q33 -20 65 -20q54 0 54 67v321q0 129 -113 129q-84 0 -140 -75v-300h-85v616h-193l-32 -313q-12 -121 -31 -183t-44.5 -86.5t-79.5 -44.5l-21 66q32 14 47 35.5t25.5 67.5 t20.5 145l40 385h353v-308q59 67 155 67z" glyph-name="uni0520"/>
<glyph horiz-adv-x="757" unicode="ԡ" d="M575 347q63 0 99.5 -42.5t36.5 -119.5v-259q0 -65 -37 -101t-97 -36q-61 0 -104 37l34 51q32 -21 65 -21q57 0 57 67v252q0 108 -72 108q-64 0 -126 -89v-194h-82v459h-149l-16 -209q-7 -97 -18.5 -143t-36 -73t-76.5 -45l-21 65q42 17 53 51t20 153l20 268h306v-258 q60 79 144 79z" glyph-name="uni0521"/>
<glyph horiz-adv-x="890" unicode="Ԣ" d="M674 447q86 0 134 -52.5t48 -147.5v-319q0 -68 -36.5 -103.5t-97.5 -35.5q-59 0 -104 37l35 52q33 -20 65 -20q54 0 54 67v321q0 129 -113 129q-83 0 -139 -74v-301h-85v326h-261v-326h-85v688h85v-292h261v292h85v-307q59 66 154 66z" glyph-name="uni0522"/>
<glyph horiz-adv-x="773" unicode="ԣ" d="M591 347q63 0 99.5 -42.5t36.5 -119.5v-259q0 -65 -37 -101t-97 -36q-61 0 -104 37l34 51q32 -21 65 -21q57 0 57 67v252q0 108 -72 108q-64 0 -125 -88v-195h-82v236h-199v-236h-82v526h82v-223h199v223h82v-256q59 77 143 77z" glyph-name="uni0523"/>
<glyph horiz-adv-x="607" unicode="Ԥ" d="M516 70h69v-218h-64l-14 148h-76v615h-257v-615h-85v688h427v-618z" glyph-name="uni0524"/>
<glyph horiz-adv-x="532" unicode="ԥ" d="M446 67h69v-215h-64l-13 148h-74v459h-197v-459h-82v526h361v-459z" glyph-name="uni0525"/>
<glyph horiz-adv-x="603" unicode="Ԧ" d="M513 70h68v-218h-64l-14 148h-75v246q0 129 -112 129q-86 0 -142 -77v-298h-85v688h85v-309q60 68 156 68q85 0 134 -52.5t49 -147.5v-177z" glyph-name="uni0526"/>
<glyph horiz-adv-x="530" unicode="ԧ" d="M447 67h66v-215h-64l-13 148h-71v305q0 108 -73 108q-68 0 -125 -99v-314h-82v737l82 9v-355q56 86 144 86q63 0 99.5 -43t36.5 -118v-249z" glyph-name="uni0527"/>
<glyph horiz-adv-x="609" unicode="Ԩ" d="M435 688h85v-688h-85v326h-261v-399q0 -68 -36.5 -103.5t-97.5 -35.5q-59 0 -104 37l35 52q33 -20 65 -20q54 0 54 67v76h-1v688h85v-292h261v292z" glyph-name="uni0528"/>
<glyph horiz-adv-x="534" unicode="ԩ" d="M366 526h82v-526h-82v236h-199v-311q0 -65 -37 -101t-97 -36q-61 0 -104 37l34 51q32 -21 65 -21q57 0 57 67v604h82v-223h199v223z" glyph-name="uni0529"/>
<glyph horiz-adv-x="857" unicode="Ԫ" d="M676 365l169 -365h-94l-146 326h-44v-326h-113v-148h-64l-14 148h-296l-14 -148h-64v218h36q33 37 47.5 97t33.5 221l32 300h247v-291h85v291h84v-291h45l138 291h85zM309 70v550h-90l-24 -236q-17 -154 -34.5 -215.5t-57.5 -98.5h206zM477 70v256h-85v-256h85z" glyph-name="uni052A"/>
<glyph horiz-adv-x="745" unicode="ԫ" d="M592 282l145 -282h-93l-120 246h-24v-246h-108v-148h-64l-13 148h-237l-13 -148h-64v215h29q22 17 33 34t22 68.5t17 141.5l13 215h230v-215h74v215h81v-215h25l108 215h85zM265 67v393h-76l-8 -139q-8 -124 -24.5 -173.5t-56.5 -80.5h165zM419 67v179h-74v-179h74z" glyph-name="uni052B"/>
<glyph horiz-adv-x="615" unicode="Ԭ" d="M519 70h56v-218h-64l-14 148h-383l-14 -148h-64v218h50q73 93 105 277q-132 30 -132 192v149h83v-146q0 -99 59 -124q0 8 2 22l26 248h290v-618zM303 618l-18 -182l-3 -29h154v211h-133zM162 70h274v269h-163q-29 -182 -111 -269z" glyph-name="uni052C"/>
<glyph horiz-adv-x="571" unicode="ԭ" d="M481 67h50v-215h-64l-13 148h-329l-13 -148h-64v215h34q16 13 26 22.5t26.5 32t29 57.5t19.5 82q-124 20 -124 155v110h78v-108q0 -74 53 -89l13 197h278v-459zM275 460l-7 -121q0 -3 -0.5 -8t-0.5 -8h134v137h-126zM401 67v190h-142q-25 -145 -100 -190h242z" glyph-name="uni052D"/>
<glyph horiz-adv-x="592" unicode="Ԯ" d="M501 70h69v-218h-64l-14 148h-76v616h-193l-32 -313q-12 -121 -31 -183t-44.5 -86.5t-79.5 -44.5l-21 66q32 14 47 35.5t25.5 67.5t20.5 145l40 385h353v-618z" glyph-name="uni052E"/>
</font>
</defs>
</svg>
