<?xml version="1.0" encoding="UTF-8" standalone="no"?>
<!DOCTYPE svg  PUBLIC '-//W3C//DTD SVG 1.1//EN'  'http://www.w3.org/Graphics/SVG/1.1/DTD/svg11.dtd'>
<svg xmlns="http://www.w3.org/2000/svg" version="1.1">
<defs>
<font id="FiraSansCompressed-Light" horiz-adv-x="443">
<font-face underline-position="-150" units-per-em="1000" font-family="Fira Sans Compressed Light" font-stretch="ultra-condensed" bbox="-55 -228 951 946" descent="-200" ascent="800" cap-height="685" panose-1="2 11 4 3 5 0 0 2 0 4" x-height="523" unicode-range="U+0020-052E" font-weight="300" underline-thickness="50"/>
<missing-glyph/>
<glyph horiz-adv-x="225" unicode=" " glyph-name="space"/>
<glyph horiz-adv-x="218" unicode="!" glyph-name="exclam" d="M138 685l-5 -468h-48l-6 468h59zM109 80q20 0 32.5 -13t12.5 -32t-12.5 -32.5t-32.5 -13.5t-32.5 13.5t-12.5 32.5t12.5 32t32.5 13z"/>
<glyph horiz-adv-x="338" unicode='&quot;' glyph-name="quotedbl" d="M69 434l-7 251h55l-7 -251h-41zM227 434l-7 251h55l-7 -251h-41z"/>
<glyph horiz-adv-x="417" unicode="#" glyph-name="numbersign" d="M405 452h-62l-30 -227h62v-44h-68l-24 -181h-48l24 181h-142l-24 -181h-48l24 181h-57v44h63l30 227h-63v45h69l22 168h48l-22 -168h142l22 168h48l-22 -168h56v-45zM265 225l30 227h-142l-30 -227h142z"/>
<glyph horiz-adv-x="433" unicode="$" glyph-name="dollar" d="M391 181q0 -73 -41.5 -125.5t-109.5 -63.5v-142h-46v139q-94 4 -166 83l32 33q68 -68 145 -68q58 0 93.5 39t35.5 104q0 57 -27.5 89.5t-99.5 60.5q-84 32 -120.5 74.5t-36.5 107.5q0 62 40.5 108t103.5 54v144h46v-144q76 -8 134 -72l-31 -33q-59 58 -126 58 q-50 0 -80 -32t-30 -81t27.5 -80t98.5 -58q81 -32 119.5 -75t38.5 -120z"/>
<glyph horiz-adv-x="669" unicode="%" glyph-name="percent" d="M507 703l40 -22l-380 -704l-40 22zM173 676q56 0 90.5 -42.5t34.5 -118.5q0 -77 -34 -120.5t-91 -43.5q-56 0 -90.5 43t-34.5 119q0 77 34 120t91 43zM173 635q-76 0 -76 -122q0 -120 76 -120t76 122q0 120 -76 120zM496 314q55 0 89.5 -43t34.5 -119q0 -77 -33.5 -120 t-90.5 -43q-56 0 -90.5 42.5t-34.5 118.5q0 78 34 121t91 43zM496 272q-77 0 -77 -122q0 -120 77 -120q76 0 76 122q0 120 -76 120z"/>
<glyph horiz-adv-x="596" unicode="&amp;" glyph-name="ampersand" d="M253 696q63 0 101.5 -41t38.5 -107q0 -57 -30.5 -99t-94.5 -86l164 -193q37 97 54 189l49 -13q-24 -115 -69 -209l102 -115l-42 -33l-91 107q-72 -107 -183 -107q-77 0 -126.5 50t-49.5 132q0 63 29 108t90 91q-46 51 -65 87.5t-19 86.5q0 68 38.5 110t103.5 42zM254 652 q-41 0 -64.5 -29t-23.5 -78q0 -39 14.5 -69.5t56.5 -81.5q53 37 77.5 71.5t24.5 80.5q0 53 -23 79.5t-62 26.5zM226 338q-92 -69 -92 -166q0 -63 33.5 -99.5t86.5 -36.5q88 0 149 92z"/>
<glyph horiz-adv-x="180" unicode="&apos;" glyph-name="quotesingle" d="M69 434l-7 251h55l-7 -251h-41z"/>
<glyph horiz-adv-x="265" unicode="(" glyph-name="parenleft" d="M189 837l36 -24q-45 -80 -68 -131.5t-41.5 -138.5t-18.5 -193q0 -107 18.5 -193.5t41.5 -138t68 -131.5l-36 -24q-49 81 -76 136t-49.5 148.5t-22.5 202.5t22.5 202.5t49.5 148.5t76 136z"/>
<glyph horiz-adv-x="265" unicode=")" glyph-name="parenright" d="M76 837q37 -61 58 -102t45 -102t35 -130.5t11 -152.5t-11 -152.5t-35 -130.5t-45 -102t-58 -102l-36 24q45 80 68 131.5t41.5 138.5t18.5 193q0 107 -18.5 193.5t-41.5 138t-68 131.5z"/>
<glyph horiz-adv-x="373" unicode="*" glyph-name="asterisk" d="M340 583l-124 -40l84 -122l-45 -26l-68 128l-68 -128l-45 25l84 122l-125 41l18 44l117 -52l-8 161h53l-8 -162l118 54z"/>
<glyph horiz-adv-x="407" unicode="+" glyph-name="plus" d="M229 504v-149h124v-49h-124v-148h-50v148h-124v49h124v149h50z"/>
<glyph horiz-adv-x="187" unicode="," glyph-name="comma" d="M96 80q19 0 31 -12.5t12 -32.5q0 -14 -14 -54l-47 -131h-37l35 145q-24 14 -24 40q0 20 12.5 32.5t31.5 12.5z"/>
<glyph horiz-adv-x="332" unicode="-" glyph-name="hyphen" d="M56 289v48h221v-48h-221z"/>
<glyph horiz-adv-x="186" unicode="." glyph-name="period" d="M93 80q20 0 32.5 -13t12.5 -32t-12.5 -32.5t-32.5 -13.5t-32.5 13.5t-12.5 32.5t12.5 32t32.5 13z"/>
<glyph horiz-adv-x="426" unicode="/" glyph-name="slash" d="M286 802l47 -9l-193 -892l-47 9z"/>
<glyph horiz-adv-x="470" unicode="0" glyph-name="zero" d="M236 676q174 0 174 -344q0 -343 -174 -343q-176 0 -176 344q0 343 176 343zM236 629q-59 0 -88.5 -69t-29.5 -227t29 -227.5t89 -69.5q59 0 87.5 69t28.5 227q0 159 -28.5 228t-87.5 69z"/>
<glyph horiz-adv-x="341" unicode="1" glyph-name="one" d="M241 665v-665h-55v602l-132 -99l-27 39l166 123h48z"/>
<glyph horiz-adv-x="386" unicode="2" glyph-name="two" d="M175 676q72 0 113.5 -46.5t41.5 -121.5q0 -92 -47.5 -177t-196.5 -281h259l-8 -50h-312v47q154 203 201 288t47 171q0 58 -27 90t-73 32q-68 0 -120 -74l-37 27q64 95 159 95z"/>
<glyph horiz-adv-x="402" unicode="3" glyph-name="three" d="M182 676q71 0 113 -47t42 -119q0 -128 -120 -156q62 -6 99 -47.5t37 -117.5q0 -88 -48.5 -144t-127.5 -56q-96 0 -162 86l36 28q30 -36 58 -51.5t67 -15.5q55 0 88 41t33 112q0 140 -132 140h-37l7 44h27q51 0 86.5 34.5t35.5 100.5q0 58 -28.5 90t-77.5 32 q-62 0 -117 -58l-32 29q67 75 153 75z"/>
<glyph horiz-adv-x="429" unicode="4" glyph-name="four" d="M401 222v-47h-72v-175h-54v175h-239v43l165 458l48 -17l-156 -437h182l7 196h47v-196h72z"/>
<glyph horiz-adv-x="405" unicode="5" glyph-name="five" d="M346 665l-8 -47h-220v-228q45 31 93 31q70 0 112 -54.5t42 -152.5q0 -101 -49.5 -163t-130.5 -62q-91 0 -158 80l36 31q52 -63 121 -63q58 0 90.5 46.5t32.5 131.5q0 160 -110 160q-46 0 -91 -32h-41v322h281z"/>
<glyph horiz-adv-x="446" unicode="6" glyph-name="six" d="M254 433q64 0 105.5 -53t41.5 -156q0 -114 -45 -174.5t-119 -60.5q-177 0 -177 310q0 180 53.5 278.5t148.5 98.5q57 0 104 -39l-24 -37q-38 29 -80 29q-66 0 -104 -76.5t-42 -212.5q54 93 138 93zM237 36q53 0 81 48.5t28 137.5q0 165 -100 165q-77 0 -130 -110 q2 -123 30.5 -182t90.5 -59z"/>
<glyph horiz-adv-x="361" unicode="7" glyph-name="seven" d="M334 665v-44l-215 -629l-50 17l209 608h-254v48h310z"/>
<glyph horiz-adv-x="447" unicode="8" glyph-name="eight" d="M278 352q66 -31 96 -73t30 -107q0 -85 -49.5 -134t-132.5 -49q-82 0 -130.5 49.5t-48.5 132.5q0 132 124 186q-54 28 -77.5 63t-23.5 90q0 79 45.5 122.5t112.5 43.5q66 0 112 -42t46 -123q0 -53 -24.5 -90t-79.5 -69zM121 509q0 -48 21 -75t76 -54l25 -12 q45 30 64.5 62.5t19.5 78.5q0 123 -103 123q-47 0 -75 -30t-28 -93zM223 35q59 0 92 33.5t33 103.5q0 60 -25.5 92t-92.5 62l-28 13q-103 -49 -103 -168q0 -69 33.5 -102.5t90.5 -33.5z"/>
<glyph horiz-adv-x="433" unicode="9" glyph-name="nine" d="M211 676q170 0 170 -268q0 -129 -33 -213.5t-91.5 -131t-157.5 -82.5l-13 43q113 42 171.5 112.5t65.5 197.5q-49 -85 -129 -85q-65 0 -109 56.5t-44 152.5q0 105 47 161.5t123 56.5zM203 295q70 0 122 100q0 125 -26 180t-87 55q-114 0 -114 -173q0 -79 28 -120.5 t77 -41.5z"/>
<glyph horiz-adv-x="186" unicode=":" glyph-name="colon" d="M93 471q20 0 32.5 -13t12.5 -32t-12.5 -32.5t-32.5 -13.5t-32.5 13.5t-12.5 32.5t12.5 32t32.5 13zM93 80q20 0 32.5 -13t12.5 -32t-12.5 -32.5t-32.5 -13.5t-32.5 13.5t-12.5 32.5t12.5 32t32.5 13z"/>
<glyph horiz-adv-x="190" unicode=";" glyph-name="semicolon" d="M93 471q20 0 32.5 -13t12.5 -32t-12.5 -32.5t-32.5 -13.5t-32.5 13.5t-12.5 32.5t12.5 32t32.5 13zM96 80q19 0 31 -12.5t12 -32.5q0 -14 -14 -54l-47 -131h-37l35 145q-24 14 -24 40q0 20 12.5 32.5t31.5 12.5z"/>
<glyph horiz-adv-x="409" unicode="&lt;" glyph-name="less" d="M337 524l24 -43l-266 -148l266 -151l-24 -43l-289 168v52z"/>
<glyph horiz-adv-x="406" unicode="=" glyph-name="equal" d="M55 394v47h296v-47h-296zM55 220v47h296v-47h-296z"/>
<glyph horiz-adv-x="409" unicode="&gt;" glyph-name="greater" d="M72 524l289 -165v-52l-289 -168l-24 43l266 151l-266 148z"/>
<glyph horiz-adv-x="381" unicode="?" glyph-name="question" d="M196 696q69 0 108.5 -42t39.5 -104q0 -41 -15.5 -71.5t-37.5 -49.5l-44 -38t-37.5 -48.5t-15.5 -69.5v-56h-53v60q0 45 15 78t37 52.5t43.5 37.5t36.5 44t15 61q0 45 -25.5 71.5t-68.5 26.5q-67 0 -120 -73l-37 29q65 92 159 92zM169 80q20 0 32.5 -13t12.5 -32 t-12.5 -32.5t-32.5 -13.5t-32.5 13.5t-12.5 32.5t12.5 32t32.5 13z"/>
<glyph horiz-adv-x="846" unicode="@" glyph-name="at" d="M437 696q160 0 249 -109t89 -279q0 -145 -41.5 -220.5t-109.5 -75.5q-41 0 -66 28.5t-34 72.5q-40 -99 -120 -99q-66 0 -104 56.5t-38 161.5q0 126 48 189t126 63q61 0 121 -37v-257q0 -133 66 -133q97 0 97 249q0 157 -73.5 249.5t-209.5 92.5q-140 0 -225 -114 t-85 -292q0 -191 82.5 -295t226.5 -104q79 0 155 33l15 -45q-88 -36 -171 -36q-164 0 -263.5 118t-99.5 329q0 197 101 325.5t264 128.5zM408 59q62 0 98 88v277q-39 16 -70 16q-57 0 -88 -53t-31 -155q0 -173 91 -173z"/>
<glyph horiz-adv-x="478" unicode="A" glyph-name="A" d="M402 0l-48 188h-232l-48 -188h-57l186 685h72l186 -685h-59zM135 236h206l-103 401z"/>
<glyph horiz-adv-x="492" unicode="B" glyph-name="B" d="M305 363q146 -23 146 -174q0 -92 -56.5 -140.5t-157.5 -48.5h-149v685h122q104 0 159.5 -44.5t55.5 -126.5q0 -121 -120 -151zM216 637h-71v-253h88q65 0 98.5 33.5t33.5 92.5q0 127 -149 127zM238 49q153 0 153 140q0 148 -152 148h-94v-288h93z"/>
<glyph horiz-adv-x="455" unicode="C" glyph-name="C" d="M284 696q80 0 148 -63l-31 -36q-55 49 -115 49q-172 0 -172 -303q0 -157 46.5 -230t125.5 -73q38 0 64 14t55 40l33 -36q-65 -69 -153 -69q-105 0 -168.5 89t-63.5 265t64.5 264.5t166.5 88.5z"/>
<glyph horiz-adv-x="522" unicode="D" glyph-name="D" d="M204 685q44 0 79.5 -7.5t71.5 -30t60 -58.5t39 -97.5t15 -143.5t-15.5 -145t-39.5 -101t-59 -61.5t-69 -32t-73 -8.5h-125v685h116zM212 636h-67v-588h72q40 0 71 12.5t60 43.5t44.5 93t15.5 151q0 73 -11.5 127t-29.5 84.5t-45 48t-52 23t-58 5.5z"/>
<glyph horiz-adv-x="420" unicode="E" glyph-name="E" d="M379 685l-6 -49h-228v-257h197v-48h-197v-282h239v-49h-296v685h291z"/>
<glyph horiz-adv-x="395" unicode="F" glyph-name="F" d="M88 0v685h286l-7 -49h-222v-269h192v-48h-192v-319h-57z"/>
<glyph horiz-adv-x="513" unicode="G" glyph-name="G" d="M293 696q85 0 156 -68l-32 -34q-59 52 -124 52q-77 0 -128 -70t-51 -231q0 -163 45 -234.5t130 -71.5q61 0 113 35v246h-106l-6 49h168v-324q-78 -56 -168 -56q-237 0 -237 356q0 175 69 263t171 88z"/>
<glyph horiz-adv-x="550" unicode="H" glyph-name="H" d="M404 0v336h-259v-336h-57v685h57v-300h259v300h58v-685h-58z"/>
<glyph horiz-adv-x="233" unicode="I" glyph-name="I" d="M145 685v-685h-57v685h57z"/>
<glyph horiz-adv-x="240" unicode="J" glyph-name="J" d="M157 685v-594q0 -86 -30 -130t-103 -79l-16 41q56 32 73.5 65.5t17.5 105.5v591h58z"/>
<glyph horiz-adv-x="463" unicode="K" glyph-name="K" d="M145 685v-685h-57v685h57zM443 685l-230 -315l245 -370h-66l-243 367l232 318h62z"/>
<glyph horiz-adv-x="392" unicode="L" glyph-name="L" d="M145 685v-633h233l-7 -52h-283v685h57z"/>
<glyph horiz-adv-x="644" unicode="M" glyph-name="M" d="M532 685l53 -685h-54l-25 329q-11 139 -19 299l-137 -547h-55l-143 547q0 -57 -16 -297l-23 -331h-54l52 685h78l134 -535l130 535h79z"/>
<glyph horiz-adv-x="551" unicode="N" glyph-name="N" d="M464 685v-685h-76l-254 620q8 -94 8 -233v-387h-54v685h76l253 -620q-8 120 -8 201v419h55z"/>
<glyph horiz-adv-x="570" unicode="O" glyph-name="O" d="M285 696q108 0 170 -88.5t62 -265.5q0 -174 -61.5 -263.5t-170.5 -89.5q-107 0 -169.5 89t-62.5 263t63 264.5t169 90.5zM285 646q-171 0 -171 -305q0 -155 45.5 -228.5t125.5 -73.5q171 0 171 303q0 304 -171 304z"/>
<glyph horiz-adv-x="466" unicode="P" glyph-name="P" d="M198 685q238 0 238 -205q0 -212 -239 -212h-52v-268h-57v685h110zM198 316q90 0 133.5 37t43.5 126q0 84 -42 121t-134 37h-54v-321h53z"/>
<glyph horiz-adv-x="570" unicode="Q" glyph-name="Q" d="M373 24q101 -3 168 -72l-40 -44q-44 48 -92 66t-126 18q-105 0 -167.5 88t-62.5 261t63 264t169 91q108 0 170 -89t62 -265q0 -140 -38 -214t-106 -104zM114 341q0 -155 45.5 -228.5t125.5 -73.5q171 0 171 303q0 304 -171 304t-171 -305z"/>
<glyph horiz-adv-x="487" unicode="R" glyph-name="R" d="M462 0h-64l-144 309q-5 0 -15.5 -0.5t-16.5 -0.5h-77v-308h-57v685h122q223 0 223 -186q0 -67 -32 -113t-92 -66zM215 356q81 0 118.5 34.5t37.5 108.5q0 70 -37 104t-127 34h-62v-281h70z"/>
<glyph horiz-adv-x="444" unicode="S" glyph-name="S" d="M222 696q93 0 163 -76l-33 -33q-59 59 -130 59q-50 0 -81.5 -32.5t-31.5 -83.5t28.5 -82.5t101.5 -58.5q84 -32 123.5 -77t39.5 -125q0 -84 -53 -141t-138 -57q-105 0 -183 86l33 33q71 -69 149 -69q60 0 96 40t36 106q0 59 -28 93t-102 63q-86 33 -123.5 76.5 t-37.5 110.5q0 70 48.5 119t122.5 49z"/>
<glyph horiz-adv-x="409" unicode="T" glyph-name="T" d="M402 685l-7 -50h-161v-635h-58v635h-164v50h390z"/>
<glyph horiz-adv-x="531" unicode="U" glyph-name="U" d="M454 685v-507q0 -82 -48.5 -135.5t-139.5 -53.5q-92 0 -140 53t-48 136v507h57v-502q0 -68 32.5 -105.5t98.5 -37.5t98 38t32 105v502h58z"/>
<glyph horiz-adv-x="463" unicode="V" glyph-name="V" d="M445 685l-179 -685h-68l-181 685h59l157 -625l155 625h57z"/>
<glyph horiz-adv-x="676" unicode="W" glyph-name="W" d="M648 685l-120 -685h-75l-116 619l-116 -619h-73l-120 685h56l102 -631l118 631h67l119 -631l103 631h55z"/>
<glyph horiz-adv-x="426" unicode="X" glyph-name="X" d="M246 371l173 -371h-61l-148 332l-144 -332h-59l169 368l-153 317h61l127 -280l128 280h58z"/>
<glyph horiz-adv-x="434" unicode="Y" glyph-name="Y" d="M425 685l-178 -417v-268h-58v267l-180 418h62l148 -365l147 365h59z"/>
<glyph horiz-adv-x="423" unicode="Z" glyph-name="Z" d="M388 685v-48l-300 -585h296l-7 -52h-349v48l300 587h-271v50h331z"/>
<glyph horiz-adv-x="261" unicode="[" glyph-name="bracketleft" d="M209 806v-46h-91v-826h91v-46h-144v918h144z"/>
<glyph horiz-adv-x="426" unicode="\" glyph-name="backslash" d="M140 801l193 -891l-47 -9l-193 890z"/>
<glyph horiz-adv-x="261" unicode="]" glyph-name="bracketright" d="M196 806v-918h-145v46h92v826h-92v46h145z"/>
<glyph horiz-adv-x="438" unicode="^" glyph-name="asciicircum" d="M243 832l151 -305h-62l-114 249l-114 -249h-61l152 305h48z"/>
<glyph horiz-adv-x="431" unicode="_" glyph-name="underscore" d="M24 -121v50h383v-50h-383z"/>
<glyph horiz-adv-x="241" unicode="`" glyph-name="grave" d="M62 778l155 -102l-19 -30l-163 85z"/>
<glyph unicode="a" glyph-name="a" d="M359 100q0 -55 35 -72l-12 -39q-32 8 -49 27t-22 55q-47 -82 -131 -82q-62 0 -99 43t-37 113q0 82 49.5 125.5t141.5 43.5h69v60q0 113 -93 113q-55 0 -120 -28l-16 40q75 35 141 35q143 0 143 -156v-278zM189 34q76 0 115 97v142h-64q-137 0 -137 -126q0 -55 22.5 -84 t63.5 -29z"/>
<glyph horiz-adv-x="476" unicode="b" glyph-name="b" d="M268 534q75 0 116 -67.5t41 -202.5q0 -131 -44 -203t-121 -72q-74 0 -122 76l-5 -65h-49v736l56 6v-289q51 81 128 81zM251 36q114 0 114 228q0 119 -27 171t-80 52q-66 0 -118 -89v-281q48 -81 111 -81z"/>
<glyph horiz-adv-x="382" unicode="c" glyph-name="c" d="M238 534q69 0 122 -53l-27 -34q-44 39 -94 39q-128 0 -128 -227q0 -221 127 -221q51 0 97 41l28 -34q-56 -56 -125 -56q-88 0 -137.5 67.5t-49.5 201.5q0 133 50 204.5t137 71.5z"/>
<glyph horiz-adv-x="479" unicode="d" glyph-name="d" d="M339 743l56 -7v-736h-49l-5 76q-45 -87 -125 -87q-78 0 -121.5 71t-43.5 199q0 126 46.5 200.5t123.5 74.5q73 0 118 -68v277zM223 36q71 0 116 94v278q-45 79 -110 79q-55 0 -87 -57.5t-32 -169.5q1 -112 30.5 -168t82.5 -56z"/>
<glyph unicode="e" glyph-name="e" d="M397 281q0 -22 -2 -42h-286q8 -202 129 -202q60 0 114 48l28 -33q-63 -63 -143 -63q-87 0 -136.5 68.5t-49.5 199.5q0 133 47.5 205t130.5 72q82 0 125 -64.5t43 -188.5zM342 283v16q0 188 -113 188t-120 -204h233z"/>
<glyph horiz-adv-x="268" unicode="f" glyph-name="f" d="M219 696q-73 0 -73 -78v-95h113l-7 -46h-106v-477h-56v477h-73v46h73v96q0 57 33.5 90.5t90.5 33.5q51 0 102 -28l-19 -41q-40 22 -78 22z"/>
<glyph horiz-adv-x="417" unicode="g" glyph-name="g" d="M393 566l17 -53q-40 -15 -119 -15q75 -42 75 -143q0 -80 -42.5 -126t-116.5 -46q-29 0 -54 11q-33 -25 -33 -61q0 -57 73 -57h54q70 0 110 -36.5t40 -94.5q0 -68 -48.5 -109t-141.5 -41q-97 0 -139.5 37t-42.5 113h51q1 -56 29.5 -79.5t101.5 -23.5q134 0 134 100 q0 88 -104 88h-44q-63 0 -93.5 25t-30.5 66q0 50 49 88q-74 47 -74 148q0 81 44.5 129t118.5 48q76 0 112.5 7.5t73.5 24.5zM206 490q-106 0 -106 -133q0 -62 28.5 -97t76.5 -35q105 0 105 131q0 63 -26 98.5t-78 35.5z"/>
<glyph horiz-adv-x="480" unicode="h" glyph-name="h" d="M280 534q57 0 88.5 -40.5t31.5 -110.5v-383h-56v376q0 112 -75 112q-71 0 -129 -113v-375h-56v736l56 7v-308q60 99 140 99z"/>
<glyph horiz-adv-x="224" unicode="i" glyph-name="i" d="M111 752q18 0 29 -12t11 -30q0 -16 -11 -28t-29 -12q-17 0 -28.5 12t-11.5 28q0 18 11 30t29 12zM140 523v-523h-56v523h56z"/>
<glyph horiz-adv-x="224" unicode="j" glyph-name="j" d="M110 752q18 0 29 -12t11 -30q0 -16 -11 -28t-29 -12q-17 0 -28.5 12t-11.5 28q0 18 11 30t29 12zM140 523v-531q0 -79 -27.5 -118.5t-93.5 -76.5l-19 40q47 28 65.5 59t18.5 96v531h56z"/>
<glyph horiz-adv-x="406" unicode="k" glyph-name="k" d="M140 743v-743h-56v736zM384 523l-179 -234l197 -289h-63l-194 286l179 237h60z"/>
<glyph horiz-adv-x="235" unicode="l" glyph-name="l" d="M159 -11q-36 0 -58 23.5t-22 64.5v659l56 7v-664q0 -42 34 -42q14 0 28 6l14 -40q-23 -14 -52 -14z"/>
<glyph horiz-adv-x="700" unicode="m" glyph-name="m" d="M507 534q53 0 83 -41.5t30 -109.5v-383h-55v376q0 112 -68 112q-65 0 -117 -108v-380h-55v376q0 112 -69 112q-65 0 -117 -108v-380h-55v523h48l5 -86q54 97 130 97q41 0 69 -27t38 -75q55 102 133 102z"/>
<glyph horiz-adv-x="480" unicode="n" glyph-name="n" d="M280 534q57 0 88.5 -40.5t31.5 -110.5v-383h-56v376q0 112 -75 112q-71 0 -129 -113v-375h-56v523h48l6 -90q59 101 142 101z"/>
<glyph horiz-adv-x="472" unicode="o" glyph-name="o" d="M236 534q89 0 137 -68.5t48 -202.5q0 -131 -49.5 -202.5t-136.5 -71.5t-135.5 71t-48.5 201q0 132 49 202.5t136 70.5zM236 486q-126 0 -126 -225t125 -225q127 0 127 227q0 223 -126 223z"/>
<glyph horiz-adv-x="476" unicode="p" glyph-name="p" d="M269 534q76 0 116 -68t40 -202q0 -132 -43.5 -203.5t-121.5 -71.5q-73 0 -120 70v-256l-56 -8v728h49l4 -73q51 84 132 84zM251 37q114 0 114 227q0 223 -106 223q-68 0 -119 -88v-284q46 -78 111 -78z"/>
<glyph horiz-adv-x="479" unicode="q" glyph-name="q" d="M347 523h48v-728l-56 8v268q-46 -82 -123 -82t-121 71t-44 199q0 127 46 201t124 74q74 0 123 -73zM224 36q68 0 115 92v280q-44 79 -111 79q-53 0 -85.5 -57.5t-32.5 -169.5q1 -112 31 -168t83 -56z"/>
<glyph horiz-adv-x="310" unicode="r" glyph-name="r" d="M260 534q18 0 40 -6l-10 -52q-18 5 -36 5q-43 0 -70 -37.5t-44 -113.5v-330h-56v523h48l5 -105q38 116 123 116z"/>
<glyph horiz-adv-x="385" unicode="s" glyph-name="s" d="M195 534q78 0 139 -58l-26 -34q-55 46 -112 46q-41 0 -66.5 -24t-25.5 -66q0 -36 22.5 -58t82.5 -44q73 -27 105 -61.5t32 -94.5q0 -69 -45.5 -110t-113.5 -41q-90 0 -157 67l31 32q58 -53 125 -53q46 0 74.5 27t28.5 76q0 45 -23.5 69t-89.5 49q-69 25 -98.5 58 t-29.5 83q0 59 42 98t105 39z"/>
<glyph horiz-adv-x="286" unicode="t" glyph-name="t" d="M265 58l23 -36q-42 -33 -93 -33t-80.5 32t-29.5 86v370h-70v46h70v125l56 7v-132h110l-7 -46h-103v-370q0 -70 60 -70q32 0 64 21z"/>
<glyph horiz-adv-x="476" unicode="u" glyph-name="u" d="M392 523v-523h-48l-4 87q-51 -98 -136 -98q-58 0 -91.5 39t-33.5 104v391h56v-386q0 -50 20.5 -76t57.5 -26q72 0 123 107v381h56z"/>
<glyph horiz-adv-x="398" unicode="v" glyph-name="v" d="M382 523l-146 -523h-68l-152 523h58l128 -474l124 474h56z"/>
<glyph horiz-adv-x="590" unicode="w" glyph-name="w" d="M564 523l-103 -523h-75l-91 470l-90 -470h-74l-105 523h55l88 -477l94 477h68l92 -477l88 477h53z"/>
<glyph horiz-adv-x="388" unicode="x" glyph-name="x" d="M226 280l151 -280h-61l-123 246l-123 -246h-59l150 278l-132 245h60l104 -212l106 212h59z"/>
<glyph horiz-adv-x="396" unicode="y" glyph-name="y" d="M381 523l-147 -525q-24 -90 -64 -136.5t-117 -65.5l-7 44q62 18 88.5 51.5t49.5 108.5h-21l-147 523h57l127 -481l124 481h57z"/>
<glyph horiz-adv-x="349" unicode="z" glyph-name="z" d="M323 523v-44l-242 -430h240l-5 -49h-295v43l242 431h-222v49h282z"/>
<glyph horiz-adv-x="267" unicode="{" glyph-name="braceleft" d="M217 828v-43q-39 0 -55 -18t-16 -59v-263q0 -47 -15.5 -66t-51.5 -30q37 -11 52.5 -30t15.5 -66v-263q0 -40 16 -58t54 -18v-43q-63 0 -92.5 29.5t-29.5 94.5v257q0 40 -14 56.5t-47 16.5v48q33 0 47 17t14 57v257q0 66 29 95t93 29z"/>
<glyph horiz-adv-x="331" unicode="|" glyph-name="bar" d="M191 804v-904h-52v904h52z"/>
<glyph horiz-adv-x="267" unicode="}" glyph-name="braceright" d="M50 828q64 0 93 -29t29 -95v-257q0 -40 14 -57t47 -17v-48q-33 0 -47 -16.5t-14 -56.5v-257q0 -65 -29 -94.5t-93 -29.5v43q39 0 55 18t16 58v263q0 47 15 66t52 30q-37 11 -52 30t-15 66v263q0 41 -16 59t-54 18z"/>
<glyph horiz-adv-x="391" unicode="~" glyph-name="asciitilde" d="M261 267q-29 0 -71 27.5t-60 27.5t-30 -11.5t-26 -34.5l-34 19q38 73 93 73q28 0 70 -27.5t60 -27.5q28 0 54 43l34 -19q-37 -70 -90 -70z"/>
<glyph horiz-adv-x="226" unicode=" " glyph-name="uni00A0"/>
<glyph horiz-adv-x="218" unicode="¡" glyph-name="exclamdown" d="M109 474q20 0 32.5 -13.5t12.5 -32.5t-12.5 -32t-32.5 -13t-32.5 13t-12.5 32t12.5 32.5t32.5 13.5zM133 251l6 -448h-59l6 448h47z"/>
<glyph horiz-adv-x="382" unicode="¢" glyph-name="cent" d="M363 45q-48 -48 -105 -55v-140h-47v141q-76 10 -118 77t-42 190t43 193t118 81v148h46v-147q56 -6 102 -52l-27 -34q-44 39 -94 39q-128 0 -128 -227q0 -221 127 -221q51 0 97 41z"/>
<glyph horiz-adv-x="424" unicode="£" glyph-name="sterling" d="M163 169q0 -50 -13 -75.5t-48 -44.5h274l-6 -49h-330v47q40 22 54 46t14 75v164h-54v41h54v137q0 73 39 119.5t106 46.5q80 0 136 -75l-36 -28q-42 57 -97 57q-45 0 -69 -31.5t-24 -87.5v-138h173v-41h-173v-163z"/>
<glyph horiz-adv-x="460" unicode="¤" glyph-name="currency" d="M427 133l-36 -29l-64 77q-40 -34 -99 -34q-55 0 -95 34l-63 -77l-34 30l68 80q-33 50 -33 127q0 74 31 124l-70 84l36 29l64 -78q40 34 96 34q57 0 98 -33l63 77l34 -30l-68 -80q33 -50 33 -127q0 -74 -31 -124zM229 192q108 0 108 149t-108 149t-108 -149t108 -149z"/>
<glyph horiz-adv-x="424" unicode="¥" glyph-name="yen" d="M415 665l-159 -327h96v-43h-111v-103h111v-42h-111v-150h-57v150h-110v42h110v103h-110v43h95l-160 327h60l145 -314l144 314h57z"/>
<glyph horiz-adv-x="331" unicode="¦" glyph-name="brokenbar" d="M191 804v-361h-52v361h52zM191 262v-362h-52v362h52z"/>
<glyph horiz-adv-x="439" unicode="§" glyph-name="section" d="M307 165q46 -37 46 -97q0 -62 -40.5 -99t-104.5 -37q-78 0 -138 47l25 37q49 -38 111 -38q42 0 67 24t25 63q0 36 -19.5 57.5t-82.5 47.5q-70 29 -99.5 60t-29.5 88q0 71 66 124q-45 37 -45 98t40 98t102 37q69 0 130 -49l-24 -36q-51 39 -104 39q-42 0 -65.5 -23.5 t-23.5 -63.5q0 -37 20.5 -59t84.5 -49q65 -27 95 -59.5t30 -81.5q0 -76 -66 -128zM120 323q0 -41 19.5 -63.5t79.5 -47.5q41 -18 56 -26q44 40 44 101q0 35 -19.5 58.5t-75.5 47.5q-41 18 -60 29q-44 -44 -44 -99z"/>
<glyph horiz-adv-x="293" unicode="¨" glyph-name="dieresis" d="M73 740q17 0 27.5 -11t10.5 -27q0 -17 -10.5 -28t-27.5 -11q-16 0 -26.5 11t-10.5 28q0 16 10.5 27t26.5 11zM231 740q17 0 27.5 -11t10.5 -27q0 -17 -10.5 -28t-27.5 -11q-16 0 -26.5 11t-10.5 28q0 16 10.5 27t26.5 11z"/>
<glyph horiz-adv-x="663" unicode="©" glyph-name="copyright" d="M332 735q107 0 176.5 -80.5t69.5 -219.5q0 -138 -69.5 -219.5t-176.5 -81.5t-177 81t-70 220q0 138 70 219t177 81zM332 697q-92 0 -149 -69.5t-57 -192.5q0 -124 57 -193t149 -69t149 69.5t57 192.5q0 124 -57 193t-149 69zM334 615q46 0 85 -34l-22 -30q-31 23 -63 23 q-33 0 -55 -32.5t-22 -105.5q0 -138 79 -138q35 0 67 27l21 -31q-39 -39 -90 -39q-56 0 -90 46t-34 135q0 90 35.5 134.5t88.5 44.5z"/>
<glyph horiz-adv-x="422" unicode="ª" glyph-name="ordfeminine" d="M208 521h60v45q0 38 -17.5 56t-57.5 18q-38 0 -90 -22l-15 41q60 26 112 26q121 0 121 -116v-210q0 -35 27 -47l-12 -38q-50 11 -60 59q-38 -59 -104 -59q-51 0 -80.5 32t-29.5 86q0 62 39 95.5t107 33.5zM182 318q56 0 86 64v99h-59q-47 0 -69 -20.5t-22 -65.5 q0 -38 17 -57.5t47 -19.5zM64 48h296v-47h-296v47z"/>
<glyph horiz-adv-x="485" unicode="«" glyph-name="guillemotleft" d="M200 519l35 -23l-116 -208l116 -209l-35 -22l-136 211v39zM387 519l35 -23l-116 -208l116 -209l-35 -22l-136 211v39z"/>
<glyph horiz-adv-x="412" unicode="¬" glyph-name="logicalnot" d="M357 345v-175h-51v127h-251v48h302z"/>
<glyph horiz-adv-x="332" unicode="­" glyph-name="uni00AD" d="M56 289v48h221v-48h-221z"/>
<glyph horiz-adv-x="524" unicode="®" glyph-name="registered" d="M262 736q87 0 143.5 -64.5t56.5 -173.5q0 -108 -57 -174t-143 -66t-142.5 64.5t-56.5 172.5t56.5 174.5t142.5 66.5zM262 293q72 0 118 55t46 150t-45.5 149t-118.5 54q-71 0 -117.5 -56t-46.5 -150q0 -95 46.5 -148.5t117.5 -53.5zM344 557q0 -58 -52 -75l61 -118h-42 l-53 112h-29v-112h-37v272h58q46 0 70 -21t24 -58zM229 602v-93h31q47 0 47 48q0 45 -51 45h-27z"/>
<glyph horiz-adv-x="262" unicode="¯" glyph-name="macron" d="M237 677h-202v44h202v-44z"/>
<glyph horiz-adv-x="418" unicode="°" glyph-name="degree" d="M179 396q-52 0 -89 39.5t-37 110.5q0 70 37 110t89 40q54 0 90.5 -40t36.5 -111q0 -70 -36.5 -109.5t-90.5 -39.5zM179 437q37 0 58 27t21 81q0 109 -79 109q-35 0 -56.5 -27t-21.5 -81t22 -81.5t56 -27.5z"/>
<glyph horiz-adv-x="407" unicode="±" glyph-name="plusminus" d="M229 514v-149h124v-49h-124v-148h-50v148h-124v49h124v149h50zM55 0v47h296v-47h-296z"/>
<glyph horiz-adv-x="328" unicode="²" glyph-name="uni00B2" d="M162 742q48 0 76.5 -31t28.5 -80q0 -56 -29 -103t-126 -163h164l-6 -42h-210v40q100 120 129 167.5t29 98.5q0 34 -16 53t-44 19q-42 0 -76 -44l-30 24q46 61 110 61z"/>
<glyph horiz-adv-x="328" unicode="³" glyph-name="uni00B3" d="M163 744q49 0 77 -29t28 -76q0 -81 -77 -96q39 -2 63.5 -29t24.5 -74q0 -54 -33 -89.5t-89 -35.5q-65 0 -108 56l28 25q33 -40 79 -40q35 0 54.5 23t19.5 62q0 80 -74 80h-25l6 39h17q28 0 47.5 19t19.5 56q0 33 -16.5 51.5t-44.5 18.5q-41 0 -78 -36l-25 27 q48 48 106 48z"/>
<glyph horiz-adv-x="241" unicode="´" glyph-name="acute" d="M190 778l26 -47l-163 -85l-19 30z"/>
<glyph horiz-adv-x="480" unicode="µ" glyph-name="uni00B5" d="M414 -2l-51 -7q-18 57 -22 110q-53 -112 -128 -112q-58 0 -85 59q11 -61 11 -127v-118l-55 -6v726h56v-374q0 -58 21.5 -84t55.5 -26q72 0 118 117v367h56v-346q0 -96 23 -179z"/>
<glyph horiz-adv-x="588" unicode="¶" glyph-name="paragraph" d="M273 685h194v-882l-51 -9v844h-103v-835l-51 -9v501q-95 4 -139 57t-44 138q0 93 51 144t143 51z"/>
<glyph horiz-adv-x="186" unicode="·" glyph-name="periodcentered" d="M93 364q20 0 32.5 -13t12.5 -32t-12.5 -32.5t-32.5 -13.5t-32.5 13.5t-12.5 32.5t12.5 32t32.5 13z"/>
<glyph horiz-adv-x="218" unicode="¸" glyph-name="cedilla" d="M117 16v-82q76 -10 76 -76q0 -40 -25.5 -62t-63.5 -22t-69 20l19 33q22 -13 47 -13q45 0 45 44q0 46 -74 46l9 112h36z"/>
<glyph horiz-adv-x="329" unicode="¹" glyph-name="uni00B9" d="M215 737v-414h-46v362l-83 -59l-23 32l111 79h41z"/>
<glyph horiz-adv-x="414" unicode="º" glyph-name="ordmasculine" d="M207 685q73 0 112 -51t39 -153q0 -101 -39.5 -154t-111.5 -53t-111.5 52t-39.5 153q0 100 40 153t111 53zM208 641q-97 0 -97 -162q0 -161 96 -161q97 0 97 163q0 85 -24 122.5t-72 37.5zM59 0v47h296v-47h-296z"/>
<glyph horiz-adv-x="485" unicode="»" glyph-name="guillemotright" d="M98 519l137 -212v-39l-137 -211l-34 22l116 209l-116 208zM285 519l137 -212v-39l-137 -211l-34 22l116 209l-116 208z"/>
<glyph horiz-adv-x="754" unicode="¼" glyph-name="onequarter" d="M526 747l38 -16l-333 -801l-39 16zM215 271h-46v362l-83 -59l-23 32l111 79h41v-414zM713 144v-40h-45v-104h-46v104h-155v36l106 281l40 -16l-99 -261h108l7 116h39v-116h45z"/>
<glyph horiz-adv-x="755" unicode="½" glyph-name="onehalf" d="M526 747l38 -16l-333 -801l-39 16zM215 685v-414h-46v362l-83 -59l-23 32l111 79h41zM589 419q48 0 76.5 -31t28.5 -80q0 -56 -29 -103t-126 -163h164l-6 -42h-210v40q100 120 129 167.5t29 98.5q0 34 -16 53t-44 19q-42 0 -76 -44l-30 24q46 61 110 61z"/>
<glyph horiz-adv-x="753" unicode="¾" glyph-name="threequarters" d="M525 747l38 -16l-333 -801l-39 16zM279 388q0 -54 -33 -89.5t-89 -35.5q-65 0 -108 56l28 25q33 -40 79 -40q35 0 54.5 23t19.5 62q0 80 -74 80h-25l6 39h17q28 0 47.5 19t19.5 56q0 33 -16.5 51.5t-44.5 18.5q-41 0 -78 -36l-25 27q48 48 106 48q49 0 77 -29t28 -76 q0 -81 -77 -96q39 -2 63.5 -29t24.5 -74zM712 144v-40h-45v-104h-46v104h-155v36l106 281l40 -16l-99 -261h108l7 116h39v-116h45z"/>
<glyph horiz-adv-x="381" unicode="¿" glyph-name="questiondown" d="M213 382q-20 0 -33 13.5t-13 32.5t13 32t33 13t32 -13t12 -32t-12 -32.5t-32 -13.5zM185 -207q-69 0 -108.5 42.5t-39.5 103.5q0 41 15.5 71.5t37.5 49.5l44 38t37.5 48.5t15.5 69.5v33h53v-37q0 -45 -15 -78t-36.5 -52.5t-43 -37.5t-36.5 -44t-15 -61q0 -45 25.5 -71.5 t68.5 -26.5q67 0 120 73l36 -29q-65 -92 -159 -92z"/>
<glyph horiz-adv-x="478" unicode="À" glyph-name="Agrave" d="M327 790l-17 -32l-164 76l26 49zM402 0l-48 188h-232l-48 -188h-57l186 685h72l186 -685h-59zM135 236h206l-103 401z"/>
<glyph horiz-adv-x="478" unicode="Á" glyph-name="Aacute" d="M331 835l-165 -77l-16 32l156 94zM402 0l-48 188h-232l-48 -188h-57l186 685h72l186 -685h-59zM135 236h206l-103 401z"/>
<glyph horiz-adv-x="478" unicode="Â" glyph-name="Acircumflex" d="M239 843l-100 -79l-24 25l107 103h35l107 -103l-25 -25zM402 0l-48 188h-232l-48 -188h-57l186 685h72l186 -685h-59zM135 236h206l-103 401z"/>
<glyph horiz-adv-x="478" unicode="Ã" glyph-name="Atilde" d="M192 839q-13 0 -23 -9t-23 -31l-32 16q31 66 77 66q21 0 52 -22t45 -22q23 0 46 43l32 -15q-27 -70 -76 -70q-23 0 -54 22t-44 22zM402 0l-48 188h-232l-48 -188h-57l186 685h72l186 -685h-59zM135 236h206l-103 401z"/>
<glyph horiz-adv-x="478" unicode="Ä" glyph-name="Adieresis" d="M166 789q-16 0 -26.5 11t-10.5 28q0 16 10.5 27t26.5 11q17 0 27.5 -11t10.5 -27q0 -17 -10.5 -28t-27.5 -11zM324 789q-16 0 -26.5 11t-10.5 28q0 16 10.5 27t26.5 11q17 0 27.5 -11t10.5 -27q0 -17 -10.5 -28t-27.5 -11zM402 0l-48 188h-232l-48 -188h-57l186 685h72 l186 -685h-59zM135 236h206l-103 401z"/>
<glyph horiz-adv-x="478" unicode="Å" glyph-name="Aring" d="M240 759q-38 0 -61 24.5t-23 69.5q0 44 23 68.5t61 24.5t61 -24.5t23 -68.5q0 -45 -23 -69.5t-61 -24.5zM240 912q-44 0 -44 -59q0 -60 44 -60q45 0 45 60q0 59 -45 59zM402 0l-48 188h-232l-48 -188h-57l186 685h72l186 -685h-59zM135 236h206l-103 401z"/>
<glyph horiz-adv-x="648" unicode="Æ" glyph-name="AE" d="M424 49h187v-49h-234l-36 184h-229l-56 -184h-58l221 685h354l-7 -49h-261l52 -257h209v-48h-199zM127 233h204l-79 406z"/>
<glyph horiz-adv-x="455" unicode="Ç" glyph-name="Ccedilla" d="M438 58q-60 -64 -140 -69v-55q76 -10 76 -76q0 -40 -25.5 -62t-63.5 -22t-69 20l19 33q22 -13 47 -13q45 0 45 44q0 46 -74 46l7 86q-95 11 -151 99.5t-56 253.5q0 176 64.5 264.5t166.5 88.5q80 0 148 -63l-31 -36q-55 49 -115 49q-172 0 -172 -303q0 -157 46.5 -230 t125.5 -73q38 0 64 14t55 40z"/>
<glyph horiz-adv-x="420" unicode="È" glyph-name="Egrave" d="M169 883l155 -93l-17 -32l-164 76zM379 685l-6 -49h-228v-257h197v-48h-197v-282h239v-49h-296v685h291z"/>
<glyph horiz-adv-x="420" unicode="É" glyph-name="Eacute" d="M303 884l25 -49l-165 -77l-16 32zM379 685l-6 -49h-228v-257h197v-48h-197v-282h239v-49h-296v685h291z"/>
<glyph horiz-adv-x="420" unicode="Ê" glyph-name="Ecircumflex" d="M136 764l-24 25l107 103h35l107 -103l-25 -25l-100 79zM379 685l-6 -49h-228v-257h197v-48h-197v-282h239v-49h-296v685h291z"/>
<glyph horiz-adv-x="420" unicode="Ë" glyph-name="Edieresis" d="M163 866q17 0 27.5 -11t10.5 -27q0 -17 -10.5 -28t-27.5 -11q-16 0 -26.5 11t-10.5 28q0 16 10.5 27t26.5 11zM321 866q17 0 27.5 -11t10.5 -27q0 -17 -10.5 -28t-27.5 -11q-16 0 -26.5 11t-10.5 28q0 16 10.5 27t26.5 11zM379 685l-6 -49h-228v-257h197v-48h-197v-282 h239v-49h-296v685h291z"/>
<glyph horiz-adv-x="233" unicode="Ì" glyph-name="Igrave" d="M48 883l155 -93l-17 -32l-164 76zM145 685v-685h-57v685h57z"/>
<glyph horiz-adv-x="233" unicode="Í" glyph-name="Iacute" d="M182 884l25 -49l-165 -77l-16 32zM145 685v-685h-57v685h57z"/>
<glyph horiz-adv-x="233" unicode="Î" glyph-name="Icircumflex" d="M15 764l-24 25l107 103h35l107 -103l-25 -25l-100 79zM145 685v-685h-57v685h57z"/>
<glyph horiz-adv-x="233" unicode="Ï" glyph-name="Idieresis" d="M42 866q17 0 27.5 -11t10.5 -27q0 -17 -10.5 -28t-27.5 -11q-16 0 -26.5 11t-10.5 28q0 16 10.5 27t26.5 11zM200 866q17 0 27.5 -11t10.5 -27q0 -17 -10.5 -28t-27.5 -11q-16 0 -26.5 11t-10.5 28q0 16 10.5 27t26.5 11zM145 685v-685h-57v685h57z"/>
<glyph horiz-adv-x="529" unicode="Ð" glyph-name="Eth" d="M211 685q44 0 79.5 -7.5t71.5 -30t60 -58.5t39 -97.5t15 -143.5t-15.5 -145t-39.5 -101t-59 -61.5t-69 -32t-73 -8.5h-125v329h-75v47h75v309h116zM224 48q40 0 71 12.5t60 43.5t44.5 93t15.5 151q0 73 -11.5 127t-29.5 84.5t-45 48t-52 23t-58 5.5h-67v-260h135v-47 h-135v-281h72z"/>
<glyph horiz-adv-x="551" unicode="Ñ" glyph-name="Ntilde" d="M333 795q-23 0 -54 22t-44 22t-23 -9t-23 -31l-32 16q31 66 77 66q21 0 52 -22t45 -22q23 0 46 43l32 -15q-27 -70 -76 -70zM464 685v-685h-76l-254 620q8 -94 8 -233v-387h-54v685h76l253 -620q-8 120 -8 201v419h55z"/>
<glyph horiz-adv-x="570" unicode="Ò" glyph-name="Ograve" d="M217 883l155 -93l-17 -32l-164 76zM285 696q108 0 170 -88.5t62 -265.5q0 -174 -61.5 -263.5t-170.5 -89.5q-107 0 -169.5 89t-62.5 263t63 264.5t169 90.5zM285 646q-171 0 -171 -305q0 -155 45.5 -228.5t125.5 -73.5q171 0 171 303q0 304 -171 304z"/>
<glyph horiz-adv-x="570" unicode="Ó" glyph-name="Oacute" d="M351 884l25 -49l-165 -77l-16 32zM285 696q108 0 170 -88.5t62 -265.5q0 -174 -61.5 -263.5t-170.5 -89.5q-107 0 -169.5 89t-62.5 263t63 264.5t169 90.5zM285 646q-171 0 -171 -305q0 -155 45.5 -228.5t125.5 -73.5q171 0 171 303q0 304 -171 304z"/>
<glyph horiz-adv-x="570" unicode="Ô" glyph-name="Ocircumflex" d="M184 764l-24 25l107 103h35l107 -103l-25 -25l-100 79zM285 696q108 0 170 -88.5t62 -265.5q0 -174 -61.5 -263.5t-170.5 -89.5q-107 0 -169.5 89t-62.5 263t63 264.5t169 90.5zM285 646q-171 0 -171 -305q0 -155 45.5 -228.5t125.5 -73.5q171 0 171 303q0 304 -171 304z "/>
<glyph horiz-adv-x="570" unicode="Õ" glyph-name="Otilde" d="M335 795q-23 0 -54 22t-44 22t-23 -9t-23 -31l-32 16q31 66 77 66q21 0 52 -22t45 -22q23 0 46 43l32 -15q-27 -70 -76 -70zM285 696q108 0 170 -88.5t62 -265.5q0 -174 -61.5 -263.5t-170.5 -89.5q-107 0 -169.5 89t-62.5 263t63 264.5t169 90.5zM285 646 q-171 0 -171 -305q0 -155 45.5 -228.5t125.5 -73.5q171 0 171 303q0 304 -171 304z"/>
<glyph horiz-adv-x="570" unicode="Ö" glyph-name="Odieresis" d="M211 866q17 0 27.5 -11t10.5 -27q0 -17 -10.5 -28t-27.5 -11q-16 0 -26.5 11t-10.5 28q0 16 10.5 27t26.5 11zM369 866q17 0 27.5 -11t10.5 -27q0 -17 -10.5 -28t-27.5 -11q-16 0 -26.5 11t-10.5 28q0 16 10.5 27t26.5 11zM285 696q108 0 170 -88.5t62 -265.5 q0 -174 -61.5 -263.5t-170.5 -89.5q-107 0 -169.5 89t-62.5 263t63 264.5t169 90.5zM285 646q-171 0 -171 -305q0 -155 45.5 -228.5t125.5 -73.5q171 0 171 303q0 304 -171 304z"/>
<glyph horiz-adv-x="406" unicode="×" glyph-name="multiply" d="M305 470l38 -29l-106 -134l106 -134l-38 -28l-102 131l-102 -131l-37 28l105 134l-105 134l37 29l102 -132z"/>
<glyph horiz-adv-x="570" unicode="Ø" glyph-name="Oslash" d="M391 669q126 -74 126 -327q0 -174 -61.5 -263.5t-170.5 -89.5q-30 0 -62 8l-28 -116l-49 13l33 123q-126 74 -126 324q0 173 63 264t169 91q31 0 60 -8l30 122l49 -14zM113 341q0 -215 87 -276l136 574q-22 7 -51 7q-172 0 -172 -305zM285 39q170 0 171 303 q1 218 -85 279l-137 -574q21 -8 51 -8z"/>
<glyph horiz-adv-x="531" unicode="Ù" glyph-name="Ugrave" d="M198 883l155 -93l-17 -32l-164 76zM454 685v-507q0 -82 -48.5 -135.5t-139.5 -53.5q-92 0 -140 53t-48 136v507h57v-502q0 -68 32.5 -105.5t98.5 -37.5t98 38t32 105v502h58z"/>
<glyph horiz-adv-x="531" unicode="Ú" glyph-name="Uacute" d="M332 884l25 -49l-165 -77l-16 32zM454 685v-507q0 -82 -48.5 -135.5t-139.5 -53.5q-92 0 -140 53t-48 136v507h57v-502q0 -68 32.5 -105.5t98.5 -37.5t98 38t32 105v502h58z"/>
<glyph horiz-adv-x="531" unicode="Û" glyph-name="Ucircumflex" d="M165 764l-24 25l107 103h35l107 -103l-25 -25l-100 79zM454 685v-507q0 -82 -48.5 -135.5t-139.5 -53.5q-92 0 -140 53t-48 136v507h57v-502q0 -68 32.5 -105.5t98.5 -37.5t98 38t32 105v502h58z"/>
<glyph horiz-adv-x="531" unicode="Ü" glyph-name="Udieresis" d="M192 866q17 0 27.5 -11t10.5 -27q0 -17 -10.5 -28t-27.5 -11q-16 0 -26.5 11t-10.5 28q0 16 10.5 27t26.5 11zM350 866q17 0 27.5 -11t10.5 -27q0 -17 -10.5 -28t-27.5 -11q-16 0 -26.5 11t-10.5 28q0 16 10.5 27t26.5 11zM454 685v-507q0 -82 -48.5 -135.5t-139.5 -53.5 q-92 0 -140 53t-48 136v507h57v-502q0 -68 32.5 -105.5t98.5 -37.5t98 38t32 105v502h58z"/>
<glyph horiz-adv-x="434" unicode="Ý" glyph-name="Yacute" d="M283 884l25 -49l-165 -77l-16 32zM425 685l-178 -417v-268h-58v267l-180 418h62l148 -365l147 365h59z"/>
<glyph horiz-adv-x="466" unicode="Þ" glyph-name="Thorn" d="M202 562q234 0 234 -206q0 -219 -234 -219h-57v-137h-57v685h57v-123h57zM200 185q89 0 132 38t43 132q0 84 -41.5 121.5t-131.5 37.5h-57v-329h55z"/>
<glyph horiz-adv-x="480" unicode="ß" glyph-name="germandbls" d="M242 743q62 0 100 -37.5t38 -95.5q0 -36 -14.5 -65t-32.5 -44.5t-32.5 -35.5t-14.5 -41q0 -23 16 -43.5t39 -39t46.5 -41.5t39.5 -60.5t16 -84.5q0 -74 -38 -120t-98 -46q-46 0 -81 21l18 40q28 -14 57 -14q39 0 62 31t23 88q0 42 -15.5 75.5t-38 54.5t-44.5 39.5 t-37.5 43t-15.5 53.5q0 26 14.5 48.5t31.5 37.5t31.5 41.5t14.5 59.5q0 42 -23.5 65.5t-61.5 23.5q-47 0 -74.5 -33.5t-27.5 -95.5v-568h-56v570q0 78 43.5 125.5t114.5 47.5z"/>
<glyph unicode="à" glyph-name="agrave" d="M310 676l-19 -30l-163 85l27 47zM359 100q0 -55 35 -72l-12 -39q-32 8 -49 27t-22 55q-47 -82 -131 -82q-62 0 -99 43t-37 113q0 82 49.5 125.5t141.5 43.5h69v60q0 113 -93 113q-55 0 -120 -28l-16 40q75 35 141 35q143 0 143 -156v-278zM189 34q76 0 115 97v142h-64 q-137 0 -137 -126q0 -55 22.5 -84t63.5 -29z"/>
<glyph unicode="á" glyph-name="aacute" d="M300 731l-163 -85l-19 30l156 102zM359 100q0 -55 35 -72l-12 -39q-32 8 -49 27t-22 55q-47 -82 -131 -82q-62 0 -99 43t-37 113q0 82 49.5 125.5t141.5 43.5h69v60q0 113 -93 113q-55 0 -120 -28l-16 40q75 35 141 35q143 0 143 -156v-278zM189 34q76 0 115 97v142h-64 q-137 0 -137 -126q0 -55 22.5 -84t63.5 -29z"/>
<glyph unicode="â" glyph-name="acircumflex" d="M214 730l-100 -84l-24 25l107 108h35l107 -108l-25 -25zM359 100q0 -55 35 -72l-12 -39q-32 8 -49 27t-22 55q-47 -82 -131 -82q-62 0 -99 43t-37 113q0 82 49.5 125.5t141.5 43.5h69v60q0 113 -93 113q-55 0 -120 -28l-16 40q75 35 141 35q143 0 143 -156v-278zM189 34 q76 0 115 97v142h-64q-137 0 -137 -126q0 -55 22.5 -84t63.5 -29z"/>
<glyph unicode="ã" glyph-name="atilde" d="M167 713q-13 0 -23 -9t-23 -31l-32 16q31 66 77 66q21 0 52 -22t45 -22q23 0 46 43l32 -15q-27 -70 -76 -70q-23 0 -54 22t-44 22zM359 100q0 -55 35 -72l-12 -39q-32 8 -49 27t-22 55q-47 -82 -131 -82q-62 0 -99 43t-37 113q0 82 49.5 125.5t141.5 43.5h69v60 q0 113 -93 113q-55 0 -120 -28l-16 40q75 35 141 35q143 0 143 -156v-278zM189 34q76 0 115 97v142h-64q-137 0 -137 -126q0 -55 22.5 -84t63.5 -29z"/>
<glyph unicode="ä" glyph-name="adieresis" d="M135 663q-16 0 -26.5 11t-10.5 28q0 16 10.5 27t26.5 11q17 0 27.5 -11t10.5 -27q0 -17 -10.5 -28t-27.5 -11zM293 663q-16 0 -26.5 11t-10.5 28q0 16 10.5 27t26.5 11q17 0 27.5 -11t10.5 -27q0 -17 -10.5 -28t-27.5 -11zM359 100q0 -55 35 -72l-12 -39q-32 8 -49 27 t-22 55q-47 -82 -131 -82q-62 0 -99 43t-37 113q0 82 49.5 125.5t141.5 43.5h69v60q0 113 -93 113q-55 0 -120 -28l-16 40q75 35 141 35q143 0 143 -156v-278zM189 34q76 0 115 97v142h-64q-137 0 -137 -126q0 -55 22.5 -84t63.5 -29z"/>
<glyph unicode="å" glyph-name="aring" d="M215 633q-38 0 -61 24.5t-23 69.5q0 44 23 68.5t61 24.5t61 -24.5t23 -68.5q0 -45 -23 -69.5t-61 -24.5zM215 786q-44 0 -44 -59q0 -60 44 -60q45 0 45 60q0 59 -45 59zM359 100q0 -55 35 -72l-12 -39q-32 8 -49 27t-22 55q-47 -82 -131 -82q-62 0 -99 43t-37 113 q0 82 49.5 125.5t141.5 43.5h69v60q0 113 -93 113q-55 0 -120 -28l-16 40q75 35 141 35q143 0 143 -156v-278zM189 34q76 0 115 97v142h-64q-137 0 -137 -126q0 -55 22.5 -84t63.5 -29z"/>
<glyph horiz-adv-x="697" unicode="æ" glyph-name="ae" d="M651 281q0 -22 -2 -42h-286q4 -103 39 -152.5t92 -49.5q59 0 113 49l27 -33q-64 -64 -144 -64q-107 0 -155 105q-62 -105 -153 -105q-63 0 -100.5 43t-37.5 113q0 82 50 125.5t140 43.5h71v51q0 63 -22.5 92.5t-74.5 29.5q-47 0 -116 -29l-14 41q76 35 137 35 q106 0 131 -99q47 99 139 99q80 0 123 -65t43 -188zM595 283v16q0 188 -110 188q-53 0 -85.5 -50.5t-36.5 -153.5h232zM191 34q39 0 68.5 25.5t59.5 81.5q-14 53 -14 115v17h-67q-135 0 -135 -126q0 -54 23.5 -83.5t64.5 -29.5z"/>
<glyph horiz-adv-x="382" unicode="ç" glyph-name="ccedilla" d="M248 -66q76 -10 76 -76q0 -40 -25.5 -62t-63.5 -22t-69 20l19 33q22 -13 47 -13q45 0 45 44q0 46 -74 46l7 87q-76 10 -117.5 77t-41.5 190q0 133 50 204.5t137 71.5q69 0 122 -53l-27 -34q-44 39 -94 39q-128 0 -128 -227q0 -221 127 -221q51 0 97 41l28 -34 q-52 -52 -115 -56v-55z"/>
<glyph unicode="è" glyph-name="egrave" d="M324 676l-19 -30l-163 85l27 47zM397 281q0 -22 -2 -42h-286q8 -202 129 -202q60 0 114 48l28 -33q-63 -63 -143 -63q-87 0 -136.5 68.5t-49.5 199.5q0 133 47.5 205t130.5 72q82 0 125 -64.5t43 -188.5zM342 283v16q0 188 -113 188t-120 -204h233z"/>
<glyph unicode="é" glyph-name="eacute" d="M314 731l-163 -85l-19 30l156 102zM397 281q0 -22 -2 -42h-286q8 -202 129 -202q60 0 114 48l28 -33q-63 -63 -143 -63q-87 0 -136.5 68.5t-49.5 199.5q0 133 47.5 205t130.5 72q82 0 125 -64.5t43 -188.5zM342 283v16q0 188 -113 188t-120 -204h233z"/>
<glyph unicode="ê" glyph-name="ecircumflex" d="M228 730l-100 -84l-24 25l107 108h35l107 -108l-25 -25zM397 281q0 -22 -2 -42h-286q8 -202 129 -202q60 0 114 48l28 -33q-63 -63 -143 -63q-87 0 -136.5 68.5t-49.5 199.5q0 133 47.5 205t130.5 72q82 0 125 -64.5t43 -188.5zM342 283v16q0 188 -113 188t-120 -204h233 z"/>
<glyph unicode="ë" glyph-name="edieresis" d="M149 663q-16 0 -26.5 11t-10.5 28q0 16 10.5 27t26.5 11q17 0 27.5 -11t10.5 -27q0 -17 -10.5 -28t-27.5 -11zM307 663q-16 0 -26.5 11t-10.5 28q0 16 10.5 27t26.5 11q17 0 27.5 -11t10.5 -27q0 -17 -10.5 -28t-27.5 -11zM397 281q0 -22 -2 -42h-286q8 -202 129 -202 q60 0 114 48l28 -33q-63 -63 -143 -63q-87 0 -136.5 68.5t-49.5 199.5q0 133 47.5 205t130.5 72q82 0 125 -64.5t43 -188.5zM342 283v16q0 188 -113 188t-120 -204h233z"/>
<glyph horiz-adv-x="224" unicode="ì" glyph-name="igrave" d="M52 778l155 -102l-19 -30l-163 85zM140 523v-523h-56v523h56z"/>
<glyph horiz-adv-x="224" unicode="í" glyph-name="iacute" d="M171 778l26 -47l-163 -85l-19 30zM140 523v-523h-56v523h56z"/>
<glyph horiz-adv-x="224" unicode="î" glyph-name="icircumflex" d="M11 646l-24 25l107 108h35l107 -108l-25 -25l-100 84zM140 523v-523h-56v523h56z"/>
<glyph horiz-adv-x="224" unicode="ï" glyph-name="idieresis" d="M32 740q17 0 27.5 -11t10.5 -27q0 -17 -10.5 -28t-27.5 -11q-16 0 -26.5 11t-10.5 28q0 16 10.5 27t26.5 11zM190 740q17 0 27.5 -11t10.5 -27q0 -17 -10.5 -28t-27.5 -11q-16 0 -26.5 11t-10.5 28q0 16 10.5 27t26.5 11zM140 523v-523h-56v523h56z"/>
<glyph horiz-adv-x="461" unicode="ð" glyph-name="eth" d="M268 663q71 -62 104 -153.5t33 -228.5q0 -143 -48 -217.5t-131 -74.5q-81 0 -128 64t-47 180q0 100 43.5 167.5t118.5 67.5t129 -74q-18 148 -106 235l-64 -78l-39 19l70 85q-55 34 -99 45l11 43q58 -13 119 -54l58 72l35 -26zM226 36q58 0 90 62t32 185q0 34 -1 49 q-53 90 -125 90q-55 0 -84 -51.5t-29 -137.5q0 -96 30.5 -146.5t86.5 -50.5z"/>
<glyph horiz-adv-x="480" unicode="ñ" glyph-name="ntilde" d="M196 713q-13 0 -23 -9t-23 -31l-32 16q31 66 77 66q21 0 52 -22t45 -22q23 0 46 43l32 -15q-27 -70 -76 -70q-23 0 -54 22t-44 22zM280 534q57 0 88.5 -40.5t31.5 -110.5v-383h-56v376q0 112 -75 112q-71 0 -129 -113v-375h-56v523h48l6 -90q59 101 142 101z"/>
<glyph horiz-adv-x="472" unicode="ò" glyph-name="ograve" d="M176 778l155 -102l-19 -30l-163 85zM236 534q89 0 137 -68.5t48 -202.5q0 -131 -49.5 -202.5t-136.5 -71.5t-135.5 71t-48.5 201q0 132 49 202.5t136 70.5zM236 486q-126 0 -126 -225t125 -225q127 0 127 227q0 223 -126 223z"/>
<glyph horiz-adv-x="472" unicode="ó" glyph-name="oacute" d="M295 778l26 -47l-163 -85l-19 30zM236 534q89 0 137 -68.5t48 -202.5q0 -131 -49.5 -202.5t-136.5 -71.5t-135.5 71t-48.5 201q0 132 49 202.5t136 70.5zM236 486q-126 0 -126 -225t125 -225q127 0 127 227q0 223 -126 223z"/>
<glyph horiz-adv-x="472" unicode="ô" glyph-name="ocircumflex" d="M135 646l-24 25l107 108h35l107 -108l-25 -25l-100 84zM236 534q89 0 137 -68.5t48 -202.5q0 -131 -49.5 -202.5t-136.5 -71.5t-135.5 71t-48.5 201q0 132 49 202.5t136 70.5zM236 486q-126 0 -126 -225t125 -225q127 0 127 227q0 223 -126 223z"/>
<glyph horiz-adv-x="472" unicode="õ" glyph-name="otilde" d="M286 669q-23 0 -54 22t-44 22t-23 -9t-23 -31l-32 16q31 66 77 66q21 0 52 -22t45 -22q23 0 46 43l32 -15q-27 -70 -76 -70zM236 534q89 0 137 -68.5t48 -202.5q0 -131 -49.5 -202.5t-136.5 -71.5t-135.5 71t-48.5 201q0 132 49 202.5t136 70.5zM236 486 q-126 0 -126 -225t125 -225q127 0 127 227q0 223 -126 223z"/>
<glyph horiz-adv-x="472" unicode="ö" glyph-name="odieresis" d="M156 740q17 0 27.5 -11t10.5 -27q0 -17 -10.5 -28t-27.5 -11q-16 0 -26.5 11t-10.5 28q0 16 10.5 27t26.5 11zM314 740q17 0 27.5 -11t10.5 -27q0 -17 -10.5 -28t-27.5 -11q-16 0 -26.5 11t-10.5 28q0 16 10.5 27t26.5 11zM236 534q89 0 137 -68.5t48 -202.5 q0 -131 -49.5 -202.5t-136.5 -71.5t-135.5 71t-48.5 201q0 132 49 202.5t136 70.5zM236 486q-126 0 -126 -225t125 -225q127 0 127 227q0 223 -126 223z"/>
<glyph horiz-adv-x="406" unicode="÷" glyph-name="divide" d="M203 594q20 0 32.5 -13t12.5 -32t-12.5 -32.5t-32.5 -13.5t-32.5 13.5t-12.5 32.5t12.5 32t32.5 13zM55 308v47h296v-47h-296zM203 158q20 0 32.5 -13t12.5 -32t-12.5 -32.5t-32.5 -13.5t-32.5 13.5t-12.5 32.5t12.5 32t32.5 13z"/>
<glyph horiz-adv-x="472" unicode="ø" glyph-name="oslash" d="M329 509q92 -59 92 -246q0 -131 -49.5 -202.5t-136.5 -71.5q-25 0 -48 6l-33 -120l-46 13l37 126q-94 63 -94 247q0 132 49 202.5t136 70.5q26 0 50 -6l33 120l45 -13zM109 261q0 -152 55 -201l112 421q-18 6 -40 6q-127 0 -127 -226zM235 36q128 0 128 227 q0 154 -55 201l-111 -423q20 -5 38 -5z"/>
<glyph horiz-adv-x="476" unicode="ù" glyph-name="ugrave" d="M176 778l155 -102l-19 -30l-163 85zM392 523v-523h-48l-4 87q-51 -98 -136 -98q-58 0 -91.5 39t-33.5 104v391h56v-386q0 -50 20.5 -76t57.5 -26q72 0 123 107v381h56z"/>
<glyph horiz-adv-x="476" unicode="ú" glyph-name="uacute" d="M295 778l26 -47l-163 -85l-19 30zM392 523v-523h-48l-4 87q-51 -98 -136 -98q-58 0 -91.5 39t-33.5 104v391h56v-386q0 -50 20.5 -76t57.5 -26q72 0 123 107v381h56z"/>
<glyph horiz-adv-x="476" unicode="û" glyph-name="ucircumflex" d="M135 646l-24 25l107 108h35l107 -108l-25 -25l-100 84zM392 523v-523h-48l-4 87q-51 -98 -136 -98q-58 0 -91.5 39t-33.5 104v391h56v-386q0 -50 20.5 -76t57.5 -26q72 0 123 107v381h56z"/>
<glyph horiz-adv-x="476" unicode="ü" glyph-name="udieresis" d="M156 740q17 0 27.5 -11t10.5 -27q0 -17 -10.5 -28t-27.5 -11q-16 0 -26.5 11t-10.5 28q0 16 10.5 27t26.5 11zM314 740q17 0 27.5 -11t10.5 -27q0 -17 -10.5 -28t-27.5 -11q-16 0 -26.5 11t-10.5 28q0 16 10.5 27t26.5 11zM392 523v-523h-48l-4 87q-51 -98 -136 -98 q-58 0 -91.5 39t-33.5 104v391h56v-386q0 -50 20.5 -76t57.5 -26q72 0 123 107v381h56z"/>
<glyph horiz-adv-x="396" unicode="ý" glyph-name="yacute" d="M259 778l26 -47l-163 -85l-19 30zM381 523l-147 -525q-24 -90 -64 -136.5t-117 -65.5l-7 44q62 18 88.5 51.5t49.5 108.5h-21l-147 523h57l127 -481l124 481h57z"/>
<glyph horiz-adv-x="476" unicode="þ" glyph-name="thorn" d="M269 534q76 0 116 -68t40 -202q0 -132 -43.5 -203.5t-121.5 -71.5q-74 0 -120 72v-256l-56 -10v941l56 7v-290q50 81 129 81zM251 37q114 0 114 227q0 223 -107 223q-67 0 -118 -88v-284q46 -78 111 -78z"/>
<glyph horiz-adv-x="420" unicode="Ѐ" glyph-name="uni0400" d="M169 883l155 -93l-17 -32l-164 76zM379 685l-6 -49h-228v-257h197v-48h-197v-282h239v-49h-296v685h291z"/>
<glyph horiz-adv-x="420" unicode="Ё" glyph-name="uni0401" d="M163 866q17 0 27.5 -11t10.5 -27q0 -17 -10.5 -28t-27.5 -11q-16 0 -26.5 11t-10.5 28q0 16 10.5 27t26.5 11zM321 866q17 0 27.5 -11t10.5 -27q0 -17 -10.5 -28t-27.5 -11q-16 0 -26.5 11t-10.5 28q0 16 10.5 27t26.5 11zM379 685l-6 -49h-228v-257h197v-48h-197v-282 h239v-49h-296v685h291z"/>
<glyph horiz-adv-x="580" unicode="Ђ" glyph-name="uni0402" d="M383 436q75 0 117 -47t42 -132v-181q0 -76 -30.5 -117.5t-102.5 -76.5l-17 41q56 30 74 61.5t18 89.5v181q0 130 -107 130q-87 0 -143 -83v-302h-58v634h-164v51h390l-7 -51h-161v-270q60 72 149 72z"/>
<glyph horiz-adv-x="418" unicode="Ѓ" glyph-name="uni0403" d="M355 835l-165 -77l-16 32l156 94zM411 685l-8 -52h-258v-633h-57v685h323z"/>
<glyph horiz-adv-x="455" unicode="Є" glyph-name="uni0404" d="M405 94l33 -35q-64 -70 -153 -70q-106 0 -169 90t-63 269q0 173 64.5 260.5t166.5 87.5q80 0 148 -63l-32 -36q-55 49 -114 49q-74 0 -121 -63t-51 -203h222v-49h-222q1 -150 48 -220.5t124 -70.5q37 0 63.5 14t55.5 40z"/>
<glyph horiz-adv-x="444" unicode="Ѕ" glyph-name="uni0405" d="M222 696q93 0 163 -76l-33 -33q-59 59 -130 59q-50 0 -81.5 -32.5t-31.5 -83.5t28.5 -82.5t101.5 -58.5q84 -32 123.5 -77t39.5 -125q0 -84 -53 -141t-138 -57q-105 0 -183 86l33 33q71 -69 149 -69q60 0 96 40t36 106q0 59 -28 93t-102 63q-86 33 -123.5 76.5 t-37.5 110.5q0 70 48.5 119t122.5 49z"/>
<glyph horiz-adv-x="233" unicode="І" glyph-name="uni0406" d="M145 685v-685h-57v685h57z"/>
<glyph horiz-adv-x="233" unicode="Ї" glyph-name="uni0407" d="M42 866q17 0 27.5 -11t10.5 -27q0 -17 -10.5 -28t-27.5 -11q-16 0 -26.5 11t-10.5 28q0 16 10.5 27t26.5 11zM200 866q17 0 27.5 -11t10.5 -27q0 -17 -10.5 -28t-27.5 -11q-16 0 -26.5 11t-10.5 28q0 16 10.5 27t26.5 11zM145 685v-685h-57v685h57z"/>
<glyph horiz-adv-x="240" unicode="Ј" glyph-name="uni0408" d="M157 685v-594q0 -86 -30 -130t-103 -79l-16 41q56 32 73.5 65.5t17.5 105.5v591h58z"/>
<glyph horiz-adv-x="733" unicode="Љ" glyph-name="uni0409" d="M489 417q216 0 216 -202q0 -215 -216 -215h-124v635h-173l-35 -342q-12 -121 -27 -179.5t-34 -80.5t-60 -42l-14 46q25 15 36.5 33t22 68.5t21.5 157.5l38 389h283v-268h66zM493 49q75 0 113 38.5t38 127.5q0 81 -38 118t-116 37h-67v-321h70z"/>
<glyph horiz-adv-x="767" unicode="Њ" glyph-name="uni040A" d="M538 397q95 0 148 -48.5t53 -144.5q0 -103 -55.5 -153.5t-151.5 -50.5h-133v350h-254v-350h-57v685h57v-288h254v288h58v-288h81zM536 49q142 0 142 154q0 147 -140 147h-81v-301h79z"/>
<glyph horiz-adv-x="580" unicode="Ћ" glyph-name="uni040B" d="M384 436q75 0 117 -47.5t42 -131.5v-257h-58v255q0 130 -108 130q-84 0 -144 -85v-300h-57v634h-164v51h390l-7 -51h-162v-273q58 75 151 75z"/>
<glyph horiz-adv-x="475" unicode="Ќ" glyph-name="uni040C" d="M316 884l25 -49l-165 -77l-16 32zM443 685l-162 -322l176 -363h-62l-164 336h-86v-336h-57v685h57v-300h87l153 300h58z"/>
<glyph horiz-adv-x="551" unicode="Ѝ" glyph-name="uni040D" d="M208 883l155 -93l-17 -32l-164 76zM464 685v-685h-58v366q0 129 8 253l-253 -619h-73v685h57v-367q0 -133 -8 -253l254 620h73z"/>
<glyph horiz-adv-x="427" unicode="Ў" glyph-name="uni040E" d="M218 765q-45 0 -74.5 25t-34.5 67l36 8q14 -53 73 -53q61 0 75 53l36 -8q-5 -42 -35.5 -67t-75.5 -25zM428 685l-164 -495q-35 -104 -69 -142.5t-107 -58.5l-10 43q56 18 81.5 47.5t51.5 112.5h-20l-187 493h59l164 -454l144 454h57z"/>
<glyph horiz-adv-x="542" unicode="Џ" glyph-name="uni040F" d="M454 685v-685h-158v-145h-43l-11 145h-154v685h57v-635h251v635h58z"/>
<glyph horiz-adv-x="478" unicode="А" glyph-name="uni0410" d="M402 0l-48 188h-232l-48 -188h-57l186 685h72l186 -685h-59zM135 236h206l-103 401z"/>
<glyph horiz-adv-x="472" unicode="Б" glyph-name="uni0411" d="M226 417q101 0 155.5 -50.5t54.5 -151.5q0 -215 -216 -215h-132v685h291l-8 -49h-226v-219h81zM227 49q74 0 111 38.5t37 127.5q0 80 -37.5 117t-112.5 37h-80v-320h82z"/>
<glyph horiz-adv-x="492" unicode="В" glyph-name="uni0412" d="M305 363q146 -23 146 -174q0 -92 -56.5 -140.5t-157.5 -48.5h-149v685h122q104 0 159.5 -44.5t55.5 -126.5q0 -121 -120 -151zM216 637h-71v-253h88q65 0 98.5 33.5t33.5 92.5q0 127 -149 127zM238 49q153 0 153 140q0 148 -152 148h-94v-288h93z"/>
<glyph horiz-adv-x="418" unicode="Г" glyph-name="uni0413" d="M411 685l-8 -52h-258v-633h-57v685h323z"/>
<glyph horiz-adv-x="494" unicode="Д" glyph-name="uni0414" d="M405 50h44v-195h-43l-11 145h-341l-11 -145h-43v195h29q29 36 44 88.5t26 167.5l38 379h268v-635zM349 50v586h-160l-33 -331q-11 -118 -27.5 -169.5t-48.5 -85.5h269z"/>
<glyph horiz-adv-x="420" unicode="Е" glyph-name="uni0415" d="M379 685l-6 -49h-228v-257h197v-48h-197v-282h239v-49h-296v685h291z"/>
<glyph horiz-adv-x="642" unicode="Ж" glyph-name="uni0416" d="M618 685l-148 -322l161 -363h-62l-146 336h-75v-336h-55v336h-75l-146 -336h-61l161 363l-148 322h60l135 -300h74v300h55v-300h75l137 300h58z"/>
<glyph horiz-adv-x="429" unicode="З" glyph-name="uni0417" d="M194 -11q-107 0 -179 93l35 30q65 -72 140 -72q63 0 99.5 41t36.5 116q0 70 -34.5 108t-101.5 37h-53l8 50h44q56 0 88.5 34t32.5 97q0 57 -28 90t-81 33q-71 0 -135 -66l-33 32q78 84 171 84q77 0 121.5 -47t44.5 -123q0 -126 -115 -156q59 -9 95.5 -52t36.5 -121 q0 -96 -54 -152t-139 -56z"/>
<glyph horiz-adv-x="551" unicode="И" glyph-name="uni0418" d="M464 685v-685h-58v366q0 129 8 253l-253 -619h-73v685h57v-367q0 -133 -8 -253l254 620h73z"/>
<glyph horiz-adv-x="551" unicode="Й" glyph-name="uni0419" d="M275 765q-45 0 -74.5 25t-34.5 67l36 8q14 -53 73 -53q61 0 75 53l36 -8q-5 -42 -35.5 -67t-75.5 -25zM464 685v-685h-58v366q0 129 8 253l-253 -619h-73v685h57v-367q0 -133 -8 -253l254 620h73z"/>
<glyph horiz-adv-x="475" unicode="К" glyph-name="uni041A" d="M443 685l-162 -322l176 -363h-62l-164 336h-86v-336h-57v685h57v-300h87l153 300h58z"/>
<glyph horiz-adv-x="531" unicode="Л" glyph-name="uni041B" d="M140 685h303v-685h-58v635h-193l-34 -342q-12 -121 -27 -179.5t-34 -80.5t-61 -42l-14 46q25 15 36.5 33t22 68.5t21.5 157.5z"/>
<glyph horiz-adv-x="644" unicode="М" glyph-name="uni041C" d="M532 685l53 -685h-54l-25 329q-11 139 -19 299l-137 -547h-55l-143 547q0 -57 -16 -297l-23 -331h-54l52 685h78l134 -535l130 535h79z"/>
<glyph horiz-adv-x="550" unicode="Н" glyph-name="uni041D" d="M404 0v336h-259v-336h-57v685h57v-300h259v300h58v-685h-58z"/>
<glyph horiz-adv-x="570" unicode="О" glyph-name="uni041E" d="M285 696q108 0 170 -88.5t62 -265.5q0 -174 -61.5 -263.5t-170.5 -89.5q-107 0 -169.5 89t-62.5 263t63 264.5t169 90.5zM285 646q-171 0 -171 -305q0 -155 45.5 -228.5t125.5 -73.5q171 0 171 303q0 304 -171 304z"/>
<glyph horiz-adv-x="546" unicode="П" glyph-name="uni041F" d="M459 685v-685h-58v634h-256v-634h-57v685h371z"/>
<glyph horiz-adv-x="466" unicode="Р" glyph-name="uni0420" d="M198 685q238 0 238 -205q0 -212 -239 -212h-52v-268h-57v685h110zM198 316q90 0 133.5 37t43.5 126q0 84 -42 121t-134 37h-54v-321h53z"/>
<glyph horiz-adv-x="455" unicode="С" glyph-name="uni0421" d="M284 696q80 0 148 -63l-31 -36q-55 49 -115 49q-172 0 -172 -303q0 -157 46.5 -230t125.5 -73q38 0 64 14t55 40l33 -36q-65 -69 -153 -69q-105 0 -168.5 89t-63.5 265t64.5 264.5t166.5 88.5z"/>
<glyph horiz-adv-x="409" unicode="Т" glyph-name="uni0422" d="M402 685l-7 -50h-161v-635h-58v635h-164v50h390z"/>
<glyph horiz-adv-x="427" unicode="У" glyph-name="uni0423" d="M428 685l-164 -495q-35 -104 -69 -142.5t-107 -58.5l-10 43q56 18 81.5 47.5t51.5 112.5h-20l-187 493h59l164 -454l144 454h57z"/>
<glyph horiz-adv-x="652" unicode="Ф" glyph-name="uni0424" d="M616 349q0 -290 -261 -303v-71h-57v71q-129 5 -195.5 80t-66.5 221q0 293 262 304v67h57v-67q261 -12 261 -302zM352 92q105 7 155 65.5t50 191.5q0 130 -51 191t-154 65v-513zM95 347q0 -130 51 -190.5t154 -64.5v513q-105 -7 -155 -66t-50 -192z"/>
<glyph horiz-adv-x="426" unicode="Х" glyph-name="uni0425" d="M246 371l173 -371h-61l-148 332l-144 -332h-59l169 368l-153 317h61l127 -280l128 280h58z"/>
<glyph horiz-adv-x="543" unicode="Ц" glyph-name="uni0426" d="M454 50h58v-195h-43l-11 145h-370v685h57v-635h251v635h58v-635z"/>
<glyph horiz-adv-x="490" unicode="Ч" glyph-name="uni0427" d="M344 685h58v-685h-58v295q-63 -71 -147 -71q-71 0 -116 46t-45 129v286h57v-284q0 -127 113 -127q84 0 138 75v336z"/>
<glyph horiz-adv-x="748" unicode="Ш" glyph-name="uni0428" d="M660 685v-685h-572v685h57v-635h202v635h54v-635h202v635h57z"/>
<glyph horiz-adv-x="749" unicode="Щ" glyph-name="uni0429" d="M660 50h58v-195h-43l-11 145h-576v685h57v-635h202v635h54v-635h202v635h57v-635z"/>
<glyph horiz-adv-x="552" unicode="Ъ" glyph-name="uni042A" d="M307 422q217 0 217 -205q0 -217 -216 -217h-132v634h-164v51h222l-1 -1v-262h74zM312 49q75 0 113 39t38 129q0 83 -38 120t-117 37h-75v-325h79z"/>
<glyph horiz-adv-x="660" unicode="Ы" glyph-name="uni042B" d="M212 422q216 0 216 -205q0 -217 -218 -217h-122v685h57v-263h67zM514 685h58v-685h-58v685zM217 49q74 0 112 39t38 129q0 83 -38 120t-117 37h-67v-325h72z"/>
<glyph horiz-adv-x="464" unicode="Ь" glyph-name="uni042C" d="M219 422q217 0 217 -205q0 -217 -216 -217h-132v685h57v-263h74zM224 49q75 0 113 39t38 129q0 83 -38 120t-117 37h-75v-325h79z"/>
<glyph horiz-adv-x="435" unicode="Э" glyph-name="uni042D" d="M183 696q95 0 146.5 -81t51.5 -272q0 -354 -210 -354q-84 0 -154 72l33 36q59 -57 120 -57q75 0 112.5 69t38.5 222h-225v49h225q-4 146 -39.5 206t-99.5 60q-37 0 -65 -11.5t-64 -40.5l-30 34q73 68 160 68z"/>
<glyph horiz-adv-x="727" unicode="Ю" glyph-name="uni042E" d="M450 696q106 0 165 -88.5t59 -265.5q0 -174 -59 -263.5t-165 -89.5q-103 0 -161 85t-62 257h-82v-331h-57v685h57v-304h83q8 156 66 235.5t156 79.5zM450 39q164 0 164 303q0 304 -164 304q-163 0 -163 -304q0 -303 163 -303z"/>
<glyph horiz-adv-x="494" unicode="Я" glyph-name="uni042F" d="M272 685h135v-685h-58v286h-133l-119 -286h-62l127 297q-114 45 -114 184q0 204 224 204zM239 334h110v303h-75q-88 0 -126 -37t-38 -119q0 -147 129 -147z"/>
<glyph unicode="а" glyph-name="uni0430" d="M359 100q0 -55 35 -72l-12 -39q-32 8 -49 27t-22 55q-47 -82 -131 -82q-62 0 -99 43t-37 113q0 82 49.5 125.5t141.5 43.5h69v60q0 113 -93 113q-55 0 -120 -28l-16 40q75 35 141 35q143 0 143 -156v-278zM189 34q76 0 115 97v142h-64q-137 0 -137 -126q0 -55 22.5 -84 t63.5 -29z"/>
<glyph horiz-adv-x="466" unicode="б" glyph-name="uni0431" d="M258 491q73 0 115 -61t42 -178q0 -263 -180 -263q-184 0 -184 298q0 178 32 257t128 123q88 40 130 70l27 -37q-41 -32 -132 -75q-64 -29 -92 -76.5t-36 -164.5q52 107 150 107zM236 36q58 0 89 45t31 167q0 196 -107 196q-45 0 -81.5 -32.5t-56.5 -89.5l-1 -51 q-1 -235 126 -235z"/>
<glyph horiz-adv-x="453" unicode="в" glyph-name="uni0432" d="M292 283q110 -11 110 -129q0 -77 -48 -115.5t-128 -38.5h-142v519q92 15 136 15q74 0 116.5 -37t42.5 -99q0 -90 -87 -115zM221 488q-37 0 -81 -7v-180h94q42 0 65.5 24t23.5 71q0 92 -102 92zM225 45q120 0 120 109q0 103 -105 103h-100v-212h85z"/>
<glyph horiz-adv-x="348" unicode="г" glyph-name="uni0433" d="M140 0h-56v523h259l-7 -48h-196v-475z"/>
<glyph horiz-adv-x="461" unicode="д" glyph-name="uni0434" d="M371 47h41v-192h-42l-11 145h-300l-11 -145h-42v192h27q32 28 47 72t22 167l13 237h256v-476zM315 47v429h-149l-10 -184q-7 -120 -23 -168.5t-51 -76.5h233z"/>
<glyph unicode="е" glyph-name="uni0435" d="M397 281q0 -22 -2 -42h-286q8 -202 129 -202q60 0 114 48l28 -33q-63 -63 -143 -63q-87 0 -136.5 68.5t-49.5 199.5q0 133 47.5 205t130.5 72q82 0 125 -64.5t43 -188.5zM342 283v16q0 188 -113 188t-120 -204h233z"/>
<glyph horiz-adv-x="553" unicode="ж" glyph-name="uni0436" d="M525 523l-108 -244l125 -279h-56l-114 254h-70v-254h-51v254h-70l-115 -254h-55l125 279l-108 244h53l100 -224h70v224h51v-224h70l101 224h52z"/>
<glyph horiz-adv-x="397" unicode="з" glyph-name="uni0437" d="M179 534q63 0 104 -37.5t41 -100.5q0 -93 -95 -117q58 -9 87.5 -38.5t29.5 -89.5q0 -77 -46.5 -119.5t-121.5 -42.5q-93 0 -161 68l31 32q61 -53 129 -53q110 0 110 115q0 55 -31 78t-94 23h-48l4 45h38q110 0 110 98q0 45 -24 68.5t-67 23.5q-58 0 -117 -43l-27 34 q65 56 148 56z"/>
<glyph horiz-adv-x="487" unicode="и" glyph-name="uni0438" d="M403 523v-523h-54v329q0 75 10 128l-212 -457h-63v523h55v-311q0 -73 -9 -145l210 456h63z"/>
<glyph horiz-adv-x="487" unicode="й" glyph-name="uni0439" d="M243 653q-45 0 -74.5 25t-34.5 67l36 8q14 -53 73 -53q61 0 75 53l36 -8q-5 -42 -35.5 -67t-75.5 -25zM403 523v-523h-54v329q0 75 10 128l-212 -457h-63v523h55v-311q0 -73 -9 -145l210 456h63z"/>
<glyph horiz-adv-x="412" unicode="к" glyph-name="uni043A" d="M381 523l-133 -242l153 -281h-59l-140 255h-62v-255h-56v523h56v-223h63l123 223h55z"/>
<glyph horiz-adv-x="465" unicode="л" glyph-name="uni043B" d="M117 523h264v-523h-56v475h-157l-16 -244q-9 -130 -26.5 -172.5t-77.5 -67.5l-15 45q37 16 47.5 51t17.5 149z"/>
<glyph horiz-adv-x="547" unicode="м" glyph-name="uni043C" d="M454 523l38 -523h-54l-20 308q-6 93 -6 157l-115 -400h-52l-112 399q0 -80 -5 -155l-19 -309h-53l37 523h70l108 -400l113 400h70z"/>
<glyph horiz-adv-x="484" unicode="н" glyph-name="uni043D" d="M344 0v247h-204v-247h-56v523h56v-228h204v228h56v-523h-56z"/>
<glyph horiz-adv-x="472" unicode="о" glyph-name="uni043E" d="M236 534q89 0 137 -68.5t48 -202.5q0 -131 -49.5 -202.5t-136.5 -71.5t-135.5 71t-48.5 201q0 132 49 202.5t136 70.5zM236 486q-126 0 -126 -225t125 -225q127 0 127 227q0 223 -126 223z"/>
<glyph horiz-adv-x="482" unicode="п" glyph-name="uni043F" d="M342 0v475h-202v-475h-56v523h314v-523h-56z"/>
<glyph horiz-adv-x="476" unicode="р" glyph-name="uni0440" d="M269 534q76 0 116 -68t40 -202q0 -132 -43.5 -203.5t-121.5 -71.5q-73 0 -120 70v-256l-56 -8v728h49l4 -73q51 84 132 84zM251 37q114 0 114 227q0 223 -106 223q-68 0 -119 -88v-284q46 -78 111 -78z"/>
<glyph horiz-adv-x="382" unicode="с" glyph-name="uni0441" d="M238 534q69 0 122 -53l-27 -34q-44 39 -94 39q-128 0 -128 -227q0 -221 127 -221q51 0 97 41l28 -34q-56 -56 -125 -56q-88 0 -137.5 67.5t-49.5 201.5q0 133 50 204.5t137 71.5z"/>
<glyph horiz-adv-x="358" unicode="т" glyph-name="uni0442" d="M355 523l-7 -48h-140v-475h-56v475h-146v48h349z"/>
<glyph horiz-adv-x="396" unicode="у" glyph-name="uni0443" d="M381 523l-147 -525q-24 -90 -64 -136.5t-117 -65.5l-7 44q62 18 88.5 51.5t49.5 108.5h-21l-147 523h57l127 -481l124 481h57z"/>
<glyph horiz-adv-x="652" unicode="ф" glyph-name="uni0444" d="M460 534q74 0 107.5 -67t33.5 -203q0 -134 -37 -204.5t-107 -70.5q-63 0 -104 63v-249l-53 -8v258q-39 -64 -104 -64q-69 0 -107 71t-38 204t37.5 201.5t109.5 68.5q64 0 102 -64v273l53 -7v-265q42 63 107 63zM203 36q58 0 97 72v303q-39 76 -95 76q-96 0 -96 -223 q0 -228 94 -228zM451 36q91 0 91 228q0 119 -21.5 171t-68.5 52q-61 0 -99 -74v-306q42 -71 98 -71z"/>
<glyph horiz-adv-x="388" unicode="х" glyph-name="uni0445" d="M226 280l151 -280h-61l-123 246l-123 -246h-59l150 278l-132 245h60l104 -212l106 212h59z"/>
<glyph horiz-adv-x="477" unicode="ц" glyph-name="uni0446" d="M393 47h57v-192h-42l-11 145h-313v523h56v-475h197v475h56v-476z"/>
<glyph horiz-adv-x="444" unicode="ч" glyph-name="uni0447" d="M303 523h56v-523h-56v241q-53 -67 -131 -67q-57 0 -91.5 34.5t-34.5 103.5v211h56v-208q0 -94 80 -94q36 0 69 19.5t52 50.5v232z"/>
<glyph horiz-adv-x="654" unicode="ш" glyph-name="uni0448" d="M570 523v-523h-486v523h55v-476h162v476h52v-476h162v476h55z"/>
<glyph horiz-adv-x="654" unicode="щ" glyph-name="uni0449" d="M570 47h57v-192h-42l-11 145h-490v523h55v-476h162v476h52v-476h162v476h55v-476z"/>
<glyph horiz-adv-x="482" unicode="ъ" glyph-name="uni044A" d="M269 346q185 0 185 -169q0 -88 -47.5 -132.5t-126.5 -44.5h-128v477h-146v46h202v-177h61zM274 46q60 0 90.5 31t30.5 100q0 62 -28 92.5t-95 30.5h-64v-254h66z"/>
<glyph horiz-adv-x="592" unicode="ы" glyph-name="uni044B" d="M193 346q185 0 185 -169q0 -88 -47.5 -132.5t-126.5 -44.5h-120v523h56v-177h53zM452 523h56v-523h-56v523zM198 46q60 0 90.5 31t30.5 100q0 62 -28 92.5t-95 30.5h-56v-254h58z"/>
<glyph horiz-adv-x="414" unicode="ь" glyph-name="uni044C" d="M201 346q185 0 185 -169q0 -88 -47.5 -132.5t-126.5 -44.5h-128v523h56v-177h61zM206 46q60 0 90.5 31t30.5 100q0 62 -28 92.5t-95 30.5h-64v-254h66z"/>
<glyph horiz-adv-x="393" unicode="э" glyph-name="uni044D" d="M176 534q81 0 123.5 -63t42.5 -205q0 -277 -175 -277q-76 0 -136 58l29 34q52 -44 106 -44q114 0 118 210h-188v45h188q-3 108 -30 151.5t-79 43.5q-56 0 -109 -44l-27 36q61 55 137 55z"/>
<glyph horiz-adv-x="632" unicode="ю" glyph-name="uni044E" d="M405 534q83 0 129.5 -68.5t46.5 -202.5q0 -132 -47 -203t-130 -71q-80 0 -125.5 66t-48.5 192h-90v-247h-56v523h56v-229h91q6 118 51.5 179t122.5 61zM404 36q59 0 88.5 54.5t29.5 172.5q0 223 -117 223q-58 0 -88 -53t-30 -172q0 -225 117 -225z"/>
<glyph horiz-adv-x="449" unicode="я" glyph-name="uni044F" d="M236 523h129v-523h-56v217h-109l-100 -217h-58l106 231q-86 34 -86 138q0 74 44.5 114t129.5 40zM228 262h81v215h-74q-115 2 -115 -107q0 -108 108 -108z"/>
<glyph unicode="ѐ" glyph-name="uni0450" d="M324 676l-19 -30l-163 85l27 47zM397 281q0 -22 -2 -42h-286q8 -202 129 -202q60 0 114 48l28 -33q-63 -63 -143 -63q-87 0 -136.5 68.5t-49.5 199.5q0 133 47.5 205t130.5 72q82 0 125 -64.5t43 -188.5zM342 283v16q0 188 -113 188t-120 -204h233z"/>
<glyph unicode="ё" glyph-name="uni0451" d="M149 663q-16 0 -26.5 11t-10.5 28q0 16 10.5 27t26.5 11q17 0 27.5 -11t10.5 -27q0 -17 -10.5 -28t-27.5 -11zM307 663q-16 0 -26.5 11t-10.5 28q0 16 10.5 27t26.5 11q17 0 27.5 -11t10.5 -27q0 -17 -10.5 -28t-27.5 -11zM397 281q0 -22 -2 -42h-286q8 -202 129 -202 q60 0 114 48l28 -33q-63 -63 -143 -63q-87 0 -136.5 68.5t-49.5 199.5q0 133 47.5 205t130.5 72q82 0 125 -64.5t43 -188.5zM342 283v16q0 188 -113 188t-120 -204h233z"/>
<glyph horiz-adv-x="484" unicode="ђ" glyph-name="uni0452" d="M284 534q58 0 89 -42t31 -119v-355q0 -67 -15 -110t-38 -64.5t-68 -46.5l-18 40q47 28 65 63t18 116v350q0 122 -75 122q-71 0 -129 -113v-375h-56v618h-61v45h61v73l56 7v-80h133v-45h-133v-182q58 98 140 98z"/>
<glyph horiz-adv-x="348" unicode="ѓ" glyph-name="uni0453" d="M273 778l26 -47l-163 -85l-19 30zM140 0h-56v523h259l-7 -48h-196v-475z"/>
<glyph horiz-adv-x="393" unicode="є" glyph-name="uni0454" d="M335 79l28 -34q-56 -56 -125 -56q-88 0 -137.5 68t-49.5 201t50 204.5t137 71.5q69 0 122 -53l-27 -34q-44 39 -94 39q-120 0 -130 -194h195v-46h-195q4 -208 129 -208q51 0 97 41z"/>
<glyph horiz-adv-x="385" unicode="ѕ" glyph-name="uni0455" d="M195 534q78 0 139 -58l-26 -34q-55 46 -112 46q-41 0 -66.5 -24t-25.5 -66q0 -36 22.5 -58t82.5 -44q73 -27 105 -61.5t32 -94.5q0 -69 -45.5 -110t-113.5 -41q-90 0 -157 67l31 32q58 -53 125 -53q46 0 74.5 27t28.5 76q0 45 -23.5 69t-89.5 49q-69 25 -98.5 58 t-29.5 83q0 59 42 98t105 39z"/>
<glyph horiz-adv-x="224" unicode="і" glyph-name="uni0456" d="M111 752q18 0 29 -12t11 -30q0 -16 -11 -28t-29 -12q-17 0 -28.5 12t-11.5 28q0 18 11 30t29 12zM140 523v-523h-56v523h56z"/>
<glyph horiz-adv-x="224" unicode="ї" glyph-name="uni0457" d="M32 740q17 0 27.5 -11t10.5 -27q0 -17 -10.5 -28t-27.5 -11q-16 0 -26.5 11t-10.5 28q0 16 10.5 27t26.5 11zM190 740q17 0 27.5 -11t10.5 -27q0 -17 -10.5 -28t-27.5 -11q-16 0 -26.5 11t-10.5 28q0 16 10.5 27t26.5 11zM140 523v-523h-56v523h56z"/>
<glyph horiz-adv-x="224" unicode="ј" glyph-name="uni0458" d="M110 752q18 0 29 -12t11 -30q0 -16 -11 -28t-29 -12q-17 0 -28.5 12t-11.5 28q0 18 11 30t29 12zM140 523v-531q0 -79 -27.5 -118.5t-93.5 -76.5l-19 40q47 28 65.5 59t18.5 96v531h56z"/>
<glyph horiz-adv-x="639" unicode="љ" glyph-name="uni0459" d="M426 346q184 0 184 -169q0 -88 -47 -132.5t-127 -44.5h-120v477h-147l-17 -246q-9 -130 -26.5 -172.5t-77.5 -67.5l-15 45q37 16 47.5 51t17.5 149l19 287h255v-177h54zM431 46q60 0 90.5 31t30.5 100q0 62 -28 92.5t-96 30.5h-56v-254h59z"/>
<glyph horiz-adv-x="661" unicode="њ" glyph-name="uni045A" d="M448 325q184 0 184 -159q0 -81 -47 -123.5t-126 -42.5h-120v279h-199v-279h-56v523h56v-198h199v198h56v-198h53zM453 46q121 0 121 120q0 55 -28.5 84t-95.5 29h-55v-233h58z"/>
<glyph horiz-adv-x="484" unicode="ћ" glyph-name="uni045B" d="M284 534q57 0 88.5 -40.5t31.5 -110.5v-383h-56v376q0 112 -75 112q-71 0 -129 -113v-375h-56v618h-61v45h61v73l56 7v-80h133v-45h-133v-183q60 99 140 99z"/>
<glyph horiz-adv-x="412" unicode="ќ" glyph-name="uni045C" d="M289 778l26 -47l-163 -85l-19 30zM381 523l-133 -242l153 -281h-59l-140 255h-62v-255h-56v523h56v-223h63l123 223h55z"/>
<glyph horiz-adv-x="487" unicode="ѝ" glyph-name="uni045D" d="M184 778l155 -102l-19 -30l-163 85zM403 523v-523h-54v329q0 75 10 128l-212 -457h-63v523h55v-311q0 -73 -9 -145l210 456h63z"/>
<glyph horiz-adv-x="396" unicode="ў" glyph-name="uni045E" d="M199 653q-45 0 -74.5 25t-34.5 67l36 8q14 -53 73 -53q61 0 75 53l36 -8q-5 -42 -35.5 -67t-75.5 -25zM381 523l-147 -525q-24 -90 -64 -136.5t-117 -65.5l-7 44q62 18 88.5 51.5t49.5 108.5h-21l-147 523h57l127 -481l124 481h57z"/>
<glyph horiz-adv-x="477" unicode="џ" glyph-name="uni045F" d="M393 523v-523h-128v-145h-42l-11 145h-128v523h56v-475h197v475h56z"/>
<glyph horiz-adv-x="697" unicode="Ѡ" glyph-name="uni0460" d="M577 685q31 -103 46.5 -188t15.5 -206q0 -166 -43 -234t-121 -68q-105 0 -128 107q-26 -107 -126 -107q-81 0 -122 69t-41 234q0 120 15.5 204t47.5 189h56q-32 -107 -46 -193t-14 -199q0 -100 13 -157t35.5 -77t58.5 -20q94 0 94 132v226h58v-227q0 -132 95 -132 q26 0 44 10t34 36.5t24 78t8 128.5q0 114 -14.5 200.5t-46.5 193.5h57z"/>
<glyph horiz-adv-x="638" unicode="ѡ" glyph-name="uni0461" d="M531 523q46 -136 46 -286q0 -248 -147 -248q-47 0 -75.5 26.5t-35.5 75.5q-19 -102 -113 -102q-145 0 -145 249q0 139 48 285h55q-46 -149 -46 -287q0 -108 23.5 -154t69.5 -46q81 0 81 133v184l54 7v-191q0 -133 79 -133q46 0 71 43.5t25 156.5q0 128 -46 287h56z"/>
<glyph horiz-adv-x="506" unicode="Ѣ" glyph-name="uni0462" d="M262 420q105 0 160.5 -51t55.5 -153q0 -216 -216 -216h-132v535h-130v47h130v103h58v-103h139v-47h-139v-115h74zM266 49q75 0 113 38.5t38 128.5q0 82 -38 119t-116 37h-75v-323h78z"/>
<glyph horiz-adv-x="420" unicode="ѣ" glyph-name="uni0463" d="M207 346q184 0 184 -169q0 -88 -47 -132.5t-127 -44.5h-128v474h-62v45h62v117l56 6v-123h115l-7 -45h-108v-128h62zM211 46q61 0 91.5 31t30.5 100q0 61 -28.5 92t-95.5 31h-64v-254h66z"/>
<glyph horiz-adv-x="631" unicode="Ѥ" glyph-name="uni0464" d="M581 94l33 -35q-64 -70 -153 -70q-103 0 -165.5 85.5t-66.5 255.5h-84v-330h-57v685h57v-305h85q6 157 69.5 236.5t160.5 79.5q80 0 148 -63l-32 -36q-55 49 -114 49q-74 0 -121 -63t-51 -203h222v-49h-222q1 -150 48 -220.5t124 -70.5q37 0 63.5 14t55.5 40z"/>
<glyph horiz-adv-x="574" unicode="ѥ" glyph-name="uni0465" d="M515 79l28 -34q-56 -56 -125 -56q-85 0 -134.5 65t-52.5 191h-91v-245h-56v523h56v-231h92q7 117 56 179.5t130 62.5q69 0 122 -53l-27 -34q-44 39 -94 39q-120 0 -130 -194h195v-46h-195q4 -208 129 -208q51 0 97 41z"/>
<glyph horiz-adv-x="490" unicode="Ѧ" glyph-name="uni0466" d="M415 0l-84 313h-60v-313h-51l1 313h-63l-85 -313h-56l193 685h71l192 -685h-58zM170 361h149l-74 276z"/>
<glyph horiz-adv-x="424" unicode="ѧ" glyph-name="uni0467" d="M353 0l-68 228h-50v-228h-45v228h-53l-68 -228h-53l164 523h64l164 -523h-55zM150 273h122l-61 206z"/>
<glyph horiz-adv-x="675" unicode="Ѩ" glyph-name="uni0468" d="M600 0l-84 313h-60v-313h-51l1 313h-63l-85 -313h-56l88 313h-145v-313h-57v685h57v-324h159l91 324h71l192 -685h-58zM355 361h149l-74 276z"/>
<glyph horiz-adv-x="574" unicode="ѩ" glyph-name="uni0469" d="M504 0l-66 228h-50v-228h-44v228h-50l-66 -228h-52l69 228h-105v-228h-56v523h56v-250h118l76 250h65l159 -523h-54zM307 273h118l-59 206z"/>
<glyph horiz-adv-x="599" unicode="Ѫ" glyph-name="uni046A" d="M436 379l152 -379h-61l-126 329h-74v-329h-55v329h-74l-128 -329h-59l151 379h83l-155 265v41h417v-41l-153 -265h82zM154 639l147 -260l145 260h-292z"/>
<glyph horiz-adv-x="504" unicode="ѫ" glyph-name="uni046B" d="M382 294l112 -294h-55l-91 249h-70v-249h-52v249h-71l-90 -249h-54l112 294h78l-117 195v34h334v-34l-118 -195h82zM143 481l109 -187l107 187h-216z"/>
<glyph horiz-adv-x="691" unicode="Ѭ" glyph-name="uni046C" d="M556 379l125 -379h-59l-103 329h-57v-329h-55v329h-59l-101 -329h-59l108 329h-151v-329h-57v685h57v-306h234l-138 265v41h384v-41l-137 -265h68zM303 639l132 -260l130 260h-262z"/>
<glyph horiz-adv-x="584" unicode="ѭ" glyph-name="uni046D" d="M485 293l89 -293h-51l-73 248h-54v-248h-51v248h-52l-73 -248h-51l75 248h-104v-248h-56v523h56v-230h180l-104 196v34h305v-34l-104 -196h68zM273 481l97 -188l96 188h-193z"/>
<glyph horiz-adv-x="404" unicode="Ѯ" glyph-name="uni046E" d="M205 756h-35l-107 104l23 25l102 -80l101 80l23 -25zM186 371q91 0 136.5 -49t45.5 -139q0 -87 -41.5 -134t-121.5 -64q-65 -14 -87 -27.5t-22 -43.5q0 -43 60 -81l-18 -39q-98 51 -98 123q0 48 32 73t106 40q69 14 99.5 49t30.5 104q0 75 -33 108.5t-102 33.5h-72v45 l185 266h-258v49h318v-47l-187 -267h27z"/>
<glyph horiz-adv-x="378" unicode="ѯ" glyph-name="uni046F" d="M277 767l24 -26l-107 -107h-35l-107 107l24 26l101 -87zM125 -206q-99 52 -99 124q0 47 33.5 72t107.5 39q70 13 99 36t29 77q0 83 -94 83h-108v45l171 205h-240v48h305v-44l-177 -209h51q74 0 112.5 -33t38.5 -95q-1 -71 -41 -106t-120 -50q-64 -13 -87.5 -26.5 t-23.5 -44.5q0 -24 14 -42.5t46 -39.5z"/>
<glyph horiz-adv-x="553" unicode="Ѱ" glyph-name="uni0470" d="M466 685h57v-273q0 -99 -56 -152t-162 -59v-201h-58v201q-216 12 -216 209v275h57v-271q0 -156 160 -165v436h56v-435q162 9 162 164v271z"/>
<glyph horiz-adv-x="617" unicode="ѱ" glyph-name="uni0471" d="M551 254q0 -134 -55 -195.5t-162 -68.5v-187l-54 -8v194q-104 4 -156.5 53.5t-52.5 138.5l1 342h55v-340q0 -139 153 -148v488h54v-487q83 5 121.5 56.5t38.5 162.5q0 127 -21 268h56q22 -140 22 -269z"/>
<glyph horiz-adv-x="570" unicode="Ѳ" glyph-name="uni0472" d="M285 696q108 0 170 -88.5t62 -265.5q0 -174 -61.5 -263.5t-170.5 -89.5q-107 0 -169.5 88.5t-62.5 263.5q0 173 63 264t169 91zM285 646q-164 0 -172 -273h345q-10 273 -173 273zM285 39q169 0 173 288h-346q4 -288 173 -288z"/>
<glyph horiz-adv-x="472" unicode="ѳ" glyph-name="uni0473" d="M236 534q89 0 137 -68.5t48 -202.5q0 -131 -49.5 -202.5t-136.5 -71.5t-135.5 71t-48.5 201q0 132 49 202.5t136 70.5zM236 487q-119 0 -127 -199h254q-7 199 -127 199zM235 36q122 0 128 207h-254q6 -207 126 -207z"/>
<glyph horiz-adv-x="491" unicode="Ѵ" glyph-name="uni0474" d="M198 0l-181 685h59l157 -625l129 539q23 97 97 97q43 0 80 -37l-24 -32q-25 23 -51 23q-20 0 -32 -13t-21 -49l-145 -588h-68z"/>
<glyph horiz-adv-x="398" unicode="ѵ" glyph-name="uni0475" d="M367 488l-131 -488h-69l-151 523h57l128 -473l115 443q18 78 80 78q24 0 50 -14l-15 -38q-16 7 -28 7q-26 0 -36 -38z"/>
<glyph horiz-adv-x="491" unicode="Ѷ" glyph-name="uni0476" d="M132 935l65 -151l-33 -15l-78 141zM241 934l59 -146l-33 -15l-72 137zM198 0l-181 685h59l157 -625l129 539q23 97 97 97q43 0 80 -37l-24 -32q-25 23 -51 23q-20 0 -32 -13t-21 -49l-145 -588h-68z"/>
<glyph horiz-adv-x="398" unicode="ѷ" glyph-name="uni0477" d="M102 809l65 -151l-33 -15l-78 141zM211 808l59 -146l-33 -15l-72 137zM367 488l-131 -488h-69l-151 523h57l128 -473l115 443q18 78 80 78q24 0 50 -14l-15 -38q-16 7 -28 7q-26 0 -36 -38z"/>
<glyph horiz-adv-x="966" unicode="Ѹ" glyph-name="uni0478" d="M285 696q108 0 170 -88.5t62 -265.5q0 -174 -61.5 -263.5t-170.5 -89.5q-107 0 -169.5 89t-62.5 263t63 264.5t169 90.5zM285 646q-171 0 -171 -305q0 -155 45.5 -228.5t125.5 -73.5q171 0 171 303q0 304 -171 304zM951 523l-147 -525q-24 -90 -64 -136.5t-117 -65.5 l-7 44q62 18 88.5 51.5t49.5 108.5h-21l-147 523h57l127 -481l124 481h57z"/>
<glyph horiz-adv-x="866" unicode="ѹ" glyph-name="uni0479" d="M236 534q89 0 137 -68.5t48 -202.5q0 -131 -49.5 -202.5t-136.5 -71.5t-135.5 71t-48.5 201q0 132 49 202.5t136 70.5zM851 523l-147 -525q-24 -90 -64 -136.5t-117 -65.5l-7 44q62 18 88.5 51.5t49.5 108.5h-21l-147 523h57l127 -481l124 481h57zM236 486 q-126 0 -126 -225t125 -225q127 0 127 227q0 223 -126 223z"/>
<glyph horiz-adv-x="552" unicode="Ҋ" glyph-name="uni048A" d="M275 765q-45 0 -74.5 25t-34.5 67l36 8q14 -53 73 -53q61 0 75 53l36 -8q-5 -42 -35.5 -67t-75.5 -25zM464 50h72l-51 -195h-43l26 145h-62v366q0 129 8 253l-253 -619h-73v685h57v-367q0 -133 -8 -253l254 620h73v-635z"/>
<glyph horiz-adv-x="487" unicode="ҋ" glyph-name="uni048B" d="M243 653q-45 0 -74.5 25t-34.5 67l36 8q14 -53 73 -53q61 0 75 53l36 -8q-5 -42 -35.5 -67t-75.5 -25zM403 47h68l-48 -192h-42l26 145h-58v329q0 75 10 128l-212 -457h-63v523h55v-311q0 -73 -9 -145l210 456h63v-476z"/>
<glyph horiz-adv-x="470" unicode="Ҍ" glyph-name="uni048C" d="M225 422q216 0 216 -205q0 -217 -216 -217h-132v536h-73v46h73v103h58v-103h126v-46h-126v-114h74zM230 49q75 0 113 39t38 129q0 82 -38.5 119.5t-116.5 37.5h-75v-325h79z"/>
<glyph horiz-adv-x="423" unicode="ҍ" glyph-name="uni048D" d="M210 328q184 0 184 -160q0 -82 -47 -125t-126 -43h-128v404h-62v45h62v74h56v-74h114l-6 -45h-108v-76h61zM215 46q121 0 121 122q0 55 -28.5 84.5t-94.5 29.5h-64v-236h66z"/>
<glyph horiz-adv-x="466" unicode="Ҏ" glyph-name="uni048E" d="M436 480q0 -128 -89 -180l66 -132h-44l-58 116q-48 -16 -114 -16h-52v-268h-57v685h110q238 0 238 -205zM198 316q54 0 91 12l-76 151h44l67 -134q51 37 51 134q0 84 -42 121t-134 37h-54v-321h53z"/>
<glyph horiz-adv-x="476" unicode="ҏ" glyph-name="uni048F" d="M425 264q0 -167 -71 -236l60 -120h-44l-48 96q-28 -15 -62 -15q-73 0 -120 70v-256l-56 -8v728h49l4 -73q51 84 132 84q76 0 116 -68t40 -202zM251 37q27 0 49 11l-86 171h45l71 -142q35 53 35 187q0 223 -107 223q-67 0 -118 -88v-284q46 -78 111 -78z"/>
<glyph horiz-adv-x="418" unicode="Ґ" glyph-name="uni0490" d="M356 801h55v-116l-8 -52h-258v-633h-57v685h268v116z"/>
<glyph horiz-adv-x="348" unicode="ґ" glyph-name="uni0491" d="M290 644h53v-121l-7 -48h-196v-475h-56v523h206v121z"/>
<glyph horiz-adv-x="423" unicode="Ғ" glyph-name="uni0492" d="M408 633h-258v-232h135v-46h-135v-355h-57v355h-78v46h78v284h323z"/>
<glyph horiz-adv-x="354" unicode="ғ" glyph-name="uni0493" d="M342 475h-196v-175h101v-45h-101v-255h-56v255h-59v45h59v223h259z"/>
<glyph horiz-adv-x="492" unicode="Ҕ" glyph-name="uni0494" d="M296 432q75 0 117 -47.5t42 -131.5v-342q0 -56 -30 -86t-77 -30q-49 0 -89 34l26 36q29 -22 60 -22q52 0 52 67v341q0 130 -108 130q-84 0 -144 -85v-296h-57v685h291l-8 -49h-226v-279q58 75 151 75z"/>
<glyph horiz-adv-x="446" unicode="ҕ" glyph-name="uni0495" d="M280 344q58 0 89 -42t31 -119v-274q0 -54 -29.5 -84t-76.5 -30q-51 0 -89 34l25 35q29 -22 60 -22q54 0 54 66v268q0 122 -75 122q-67 0 -129 -103v-195h-56v523h259l-7 -47h-196v-221q59 89 140 89z"/>
<glyph horiz-adv-x="650" unicode="Җ" glyph-name="uni0496" d="M609 50h43v-195h-43l-11 145h-29l-146 336h-75v-336h-55v336h-75l-146 -336h-61l161 363l-148 322h60l135 -300h74v300h55v-300h75l137 300h58l-148 -322z"/>
<glyph horiz-adv-x="561" unicode="җ" glyph-name="uni0497" d="M521 47h50v-192h-42l-11 145h-32l-114 254h-70v-254h-51v254h-70l-115 -254h-55l125 279l-108 244h53l100 -224h70v224h51v-224h70l101 224h52l-108 -244z"/>
<glyph horiz-adv-x="429" unicode="Ҙ" glyph-name="uni0498" d="M387 197q0 -88 -45 -142.5t-120 -63.5q61 -46 61 -117q0 -46 -26 -74t-71 -28q-41 0 -69 21l17 33q28 -13 49 -13q25 0 39 16.5t14 45.5q0 67 -61 115q-94 7 -160 92l35 30q65 -72 140 -72q63 0 99.5 41t36.5 116q0 70 -34.5 108t-101.5 37h-53l8 50h44q56 0 88.5 34 t32.5 97q0 57 -28 90t-81 33q-71 0 -135 -66l-33 32q78 84 171 84q77 0 121.5 -47t44.5 -123q0 -126 -115 -156q59 -9 95.5 -52t36.5 -121z"/>
<glyph horiz-adv-x="397" unicode="ҙ" glyph-name="uni0499" d="M346 151q0 -69 -38 -110.5t-102 -49.5q61 -46 61 -117q0 -46 -26 -74t-71 -28q-41 0 -69 21l17 33q28 -13 49 -13q25 0 39 16.5t14 45.5q0 67 -61 115q-80 5 -142 67l31 32q61 -53 129 -53q110 0 110 115q0 55 -31 78t-94 23h-48l4 45h38q110 0 110 98q0 45 -24 68.5 t-67 23.5q-58 0 -117 -43l-27 34q65 56 148 56q63 0 104 -37.5t41 -100.5q0 -93 -95 -117q58 -9 87.5 -38.5t29.5 -89.5z"/>
<glyph horiz-adv-x="475" unicode="Қ" glyph-name="uni049A" d="M433 50h45v-195h-43l-11 145h-29l-164 336h-86v-336h-57v685h57v-300h87l153 300h58l-162 -322z"/>
<glyph horiz-adv-x="412" unicode="қ" glyph-name="uni049B" d="M375 47h46v-192h-42l-11 145h-26l-140 255h-62v-255h-56v523h56v-223h63l123 223h55l-133 -242z"/>
<glyph horiz-adv-x="481" unicode="Ҝ" glyph-name="uni049C" d="M287 363l171 -363h-63l-155 337h-19v-182h-38v182h-39v-337h-56v685h56v-300h39v180h38v-180h20l144 300h58z"/>
<glyph horiz-adv-x="411" unicode="ҝ" glyph-name="uni049D" d="M273 281l127 -281h-56l-115 255h-23v-133h-31v133h-36v-255h-55v523h55v-223h36v117h31v-117h24l98 223h53z"/>
<glyph horiz-adv-x="479" unicode="Ҟ" glyph-name="uni049E" d="M285 363l176 -363h-62l-164 336h-86v-336h-57v543h-72v47h72v95h57v-95h96v-47h-96v-158h87l153 300h58z"/>
<glyph horiz-adv-x="416" unicode="ҟ" glyph-name="uni049F" d="M252 281l153 -281h-59l-140 255h-62v-255h-56v577h-61v45h61v114l56 7v-121h133v-45h-133v-277h63l123 223h55z"/>
<glyph horiz-adv-x="563" unicode="Ҡ" glyph-name="uni04A0" d="M369 363l176 -363h-62l-164 336h-86v-336h-57v634h-164v51h222l-1 -1v-299h87l153 300h58z"/>
<glyph horiz-adv-x="457" unicode="ҡ" glyph-name="uni04A1" d="M293 281l153 -281h-59l-140 255h-62v-255h-56v477h-123v46h179v-223h63l123 223h55z"/>
<glyph horiz-adv-x="551" unicode="Ң" glyph-name="uni04A2" d="M462 50h58v-195h-43l-11 145h-62v336h-259v-336h-57v685h57v-300h259v300h58v-635z"/>
<glyph horiz-adv-x="485" unicode="ң" glyph-name="uni04A3" d="M400 47h57v-192h-42l-11 145h-60v247h-204v-247h-56v523h56v-228h204v228h56v-476z"/>
<glyph horiz-adv-x="638" unicode="Ҥ" glyph-name="uni04A4" d="M631 685l-7 -50h-162v-635h-58v336h-259v-336h-57v685h57v-300h259v300h227z"/>
<glyph horiz-adv-x="551" unicode="ҥ" glyph-name="uni04A5" d="M547 523l-7 -48h-140v-475h-56v247h-204v-247h-56v523h56v-228h204v228h203z"/>
<glyph horiz-adv-x="805" unicode="Ҧ" glyph-name="uni04A6" d="M608 436q75 0 117 -47t42 -132v-346q0 -56 -30 -86t-77 -30q-49 0 -89 34l26 36q29 -22 60 -22q52 0 52 67v345q0 130 -107 130q-87 0 -143 -83v-302h-58v634h-256v-634h-57v685h371v-321q60 72 149 72z"/>
<glyph horiz-adv-x="702" unicode="ҧ" glyph-name="uni04A7" d="M536 344q58 0 89 -42t31 -119v-274q0 -54 -29.5 -84t-76.5 -30q-51 0 -89 34l25 35q29 -22 60 -22q54 0 54 66v268q0 64 -18.5 93t-56.5 29q-66 0 -127 -100v-198h-56v475h-202v-475h-56v523h314v-266q57 87 138 87z"/>
<glyph horiz-adv-x="580" unicode="Ҩ" glyph-name="uni04A8" d="M529 256q0 -85 -33 -147.5t-93 -93.5q12 -16 37.5 -49.5t33.5 -44.5l-35 -28q-8 10 -37.5 48t-43.5 57q-32 -9 -67 -9q-108 0 -173 92.5t-65 261.5q0 176 64.5 264.5t166.5 88.5q80 0 148 -63l-31 -36q-55 49 -115 49q-172 0 -172 -303q0 -150 48.5 -226.5t130.5 -76.5 q12 0 34 2q-68 100 -68 204q1 80 38 126.5t99 46.5q61 0 97 -43.5t36 -119.5zM313 246q0 -100 61 -191q100 45 100 201q0 116 -78 116q-39 0 -61 -32t-22 -94z"/>
<glyph horiz-adv-x="493" unicode="ҩ" glyph-name="uni04A9" d="M441 219q0 -69 -29.5 -124t-80.5 -83q9 -13 32 -43.5t36 -48.5l-34 -27q-6 8 -35.5 46t-42.5 56q-23 -6 -50 -6q-87 0 -136.5 68.5t-49.5 200.5q0 133 50 204.5t137 71.5q69 0 122 -53l-27 -34q-44 39 -94 39q-128 0 -128 -227q0 -222 127 -222q13 0 20 1q-55 87 -55 173 q1 66 33 107t89 41q53 0 84.5 -37.5t31.5 -102.5zM253 211q0 -80 51 -160q85 40 85 168q0 97 -65 97q-33 0 -52 -28t-19 -77z"/>
<glyph horiz-adv-x="455" unicode="Ҫ" glyph-name="uni04AA" d="M438 58q-58 -61 -136 -68q60 -45 60 -116q0 -46 -26 -74t-71 -28q-41 0 -69 21l17 33q28 -13 49 -13q25 0 39 16.5t14 45.5q0 67 -63 116q-92 13 -145.5 102t-53.5 250q0 176 64.5 264.5t166.5 88.5q80 0 148 -63l-31 -36q-55 49 -115 49q-172 0 -172 -303 q0 -157 46.5 -230t125.5 -73q38 0 64 14t55 40z"/>
<glyph horiz-adv-x="382" unicode="ҫ" glyph-name="uni04AB" d="M252 -10q60 -45 60 -116q0 -46 -26 -74t-71 -28q-41 0 -69 21l17 33q28 -13 49 -13q25 0 39 16.5t14 45.5q0 69 -64 117q-72 14 -111 80.5t-39 185.5q0 133 50 204.5t137 71.5q69 0 122 -53l-27 -34q-44 39 -94 39q-128 0 -128 -227q0 -221 127 -221q51 0 97 41l28 -34 q-51 -51 -111 -55z"/>
<glyph horiz-adv-x="409" unicode="Ҭ" glyph-name="uni04AC" d="M395 635h-161v-585h62v-195h-43l-11 145h-66v635h-164v50h390z"/>
<glyph horiz-adv-x="358" unicode="ҭ" glyph-name="uni04AD" d="M348 475h-140v-428h57v-192h-42l-11 145h-60v475h-146v48h349z"/>
<glyph horiz-adv-x="434" unicode="Ү" glyph-name="uni04AE" d="M425 685l-178 -417v-268h-58v267l-180 418h62l148 -365l147 365h59z"/>
<glyph horiz-adv-x="398" unicode="ү" glyph-name="uni04AF" d="M382 523l-154 -506v-214l-54 -8v222l-158 506h58l128 -448l124 448h56z"/>
<glyph horiz-adv-x="434" unicode="Ұ" glyph-name="uni04B0" d="M425 685l-166 -389h87v-47h-99v-249h-58v249h-99v47h87l-168 389h62l148 -365l147 365h59z"/>
<glyph horiz-adv-x="398" unicode="ұ" glyph-name="uni04B1" d="M382 523l-144 -474h75v-45h-85v-201l-54 -8v209h-86v45h76l-148 474h58l128 -448l124 448h56z"/>
<glyph horiz-adv-x="438" unicode="Ҳ" glyph-name="uni04B2" d="M396 50h45v-195h-43l-11 145h-29l-148 332l-144 -332h-59l169 368l-153 317h61l127 -280l128 280h58l-151 -314z"/>
<glyph horiz-adv-x="387" unicode="ҳ" glyph-name="uni04B3" d="M352 47h45v-192h-42l-11 145h-28l-123 246l-123 -246h-59l150 278l-132 245h60l104 -212l106 212h59l-132 -243z"/>
<glyph horiz-adv-x="631" unicode="Ҵ" glyph-name="uni04B4" d="M542 50h59v-195h-43l-11 145h-371v635h-164v50h379l-7 -50h-150v-585h250v635h58v-635z"/>
<glyph horiz-adv-x="546" unicode="ҵ" glyph-name="uni04B5" d="M461 47h57v-192h-42l-11 145h-312v477h-147v46h326l-7 -46h-116v-429h196v475h56v-476z"/>
<glyph horiz-adv-x="491" unicode="Ҷ" glyph-name="uni04B6" d="M402 50h58v-195h-43l-11 145h-62v295q-63 -71 -147 -71q-71 0 -116 46t-45 129v286h57v-284q0 -127 113 -127q84 0 138 75v336h58v-635z"/>
<glyph horiz-adv-x="444" unicode="ҷ" glyph-name="uni04B7" d="M359 47h57v-192h-42l-11 145h-60v241q-53 -67 -131 -67q-57 0 -91.5 34.5t-34.5 103.5v211h56v-208q0 -94 80 -94q36 0 69 19.5t52 50.5v232h56v-476z"/>
<glyph horiz-adv-x="490" unicode="Ҹ" glyph-name="uni04B8" d="M344 685h58v-685h-58v295q-49 -54 -103 -66v-112h-40v107h-4q-71 0 -116 46t-45 129v286h57v-284q0 -124 108 -127v253h40v-249q63 13 103 71v336z"/>
<glyph horiz-adv-x="444" unicode="ҹ" glyph-name="uni04B9" d="M303 523h56v-523h-56v241q-40 -49 -90 -62v-86h-35v81h-6q-57 0 -91.5 34.5t-34.5 103.5v211h56v-208q0 -92 76 -94v160h35v-156q57 14 90 66v232z"/>
<glyph horiz-adv-x="492" unicode="Һ" glyph-name="uni04BA" d="M296 436q75 0 117 -47.5t42 -131.5v-257h-58v255q0 130 -108 130q-84 0 -144 -85v-300h-57v685h57v-324q58 75 151 75z"/>
<glyph horiz-adv-x="475" unicode="һ" glyph-name="uni04BB" d="M280 474q58 0 89 -42t31 -119v-313h-56v306q0 122 -75 122q-71 0 -129 -113v-315h-56v736l56 7v-365q56 96 140 96z"/>
<glyph horiz-adv-x="602" unicode="Ҽ" glyph-name="uni04BC" d="M558 355q0 -27 -1 -43h-374q7 -273 163 -273q81 0 147 66l34 -34q-79 -82 -181 -82q-101 0 -159.5 79t-63.5 245h-9q-56 0 -84.5 29.5t-28.5 77.5q0 52 32 101l40 -20q-21 -40 -21 -77q0 -63 61 -63h10q4 171 63.5 253t159.5 82q212 0 212 -341zM183 360h318 q-1 287 -156 287q-158 0 -162 -287z"/>
<glyph horiz-adv-x="512" unicode="ҽ" glyph-name="uni04BD" d="M466 281q0 -22 -2 -42h-286q8 -202 129 -202q60 0 114 48l28 -33q-63 -63 -143 -63q-84 0 -133 64t-53 187h-8q-52 0 -78 27.5t-26 75.5q0 47 29 95l34 -19q-17 -36 -17 -73q0 -63 57 -63h10q4 120 51 185.5t126 65.5q82 0 125 -64.5t43 -188.5zM411 283v16 q0 188 -113 188t-120 -204h233z"/>
<glyph horiz-adv-x="602" unicode="Ҿ" glyph-name="uni04BE" d="M558 355q0 -27 -1 -43h-374q7 -273 163 -273q81 0 147 66l34 -34q-53 -54 -109 -71q-54 -30 -76 -56.5t-22 -63.5q0 -51 51 -51q20 0 47 6l-5 -45q-28 -7 -48 -7q-45 0 -69.5 25t-24.5 66q0 68 71 115q-100 2 -157 81t-62 243h-9q-56 0 -84.5 29.5t-28.5 77.5 q0 52 32 101l40 -20q-21 -40 -21 -77q0 -63 61 -63h10q4 171 63.5 253t159.5 82q212 0 212 -341zM183 360h318q-1 287 -156 287q-158 0 -162 -287z"/>
<glyph horiz-adv-x="512" unicode="ҿ" glyph-name="uni04BF" d="M466 281q0 -22 -2 -42h-286q8 -202 129 -202q60 0 114 48l28 -33q-34 -34 -72 -50q-52 -29 -73 -55t-21 -62q0 -51 51 -51q20 0 47 6l-5 -45q-28 -7 -48 -7q-45 0 -69.5 25t-24.5 66q0 64 64 110q-81 3 -127.5 67t-50.5 184h-8q-52 0 -78 27.5t-26 75.5q0 47 29 95 l34 -19q-17 -36 -17 -73q0 -63 57 -63h10q4 120 51 185.5t126 65.5q82 0 125 -64.5t43 -188.5zM411 283v16q0 188 -113 188t-120 -204h233z"/>
<glyph horiz-adv-x="233" unicode="Ӏ" glyph-name="uni04C0" d="M145 685v-685h-57v685h57z"/>
<glyph horiz-adv-x="642" unicode="Ӂ" glyph-name="uni04C1" d="M320 765q-45 0 -74.5 25t-34.5 67l36 8q14 -53 73 -53q61 0 75 53l36 -8q-5 -42 -35.5 -67t-75.5 -25zM618 685l-148 -322l161 -363h-62l-146 336h-75v-336h-55v336h-75l-146 -336h-61l161 363l-148 322h60l135 -300h74v300h55v-300h75l137 300h58z"/>
<glyph horiz-adv-x="553" unicode="ӂ" glyph-name="uni04C2" d="M275 653q-45 0 -74.5 25t-34.5 67l36 8q14 -53 73 -53q61 0 75 53l36 -8q-5 -42 -35.5 -67t-75.5 -25zM525 523l-108 -244l125 -279h-56l-114 254h-70v-254h-51v254h-70l-115 -254h-55l125 279l-108 244h53l100 -224h70v224h51v-224h70l101 224h52z"/>
<glyph horiz-adv-x="480" unicode="Ӄ" glyph-name="uni04C3" d="M286 373q78 -6 115 -51t37 -135v-276q0 -56 -30 -86t-77 -30q-49 0 -89 34l26 36q29 -22 60 -22q52 0 52 67v275q0 78 -30 109t-101 31h-104v-325h-57v685h57v-311h86l153 311h59z"/>
<glyph horiz-adv-x="433" unicode="ӄ" glyph-name="uni04C4" d="M258 292q63 -6 92 -42.5t29 -105.5v-144h-1v-91q0 -54 -29.5 -84t-76.5 -30q-51 0 -89 34l25 35q29 -22 60 -22q54 0 54 66v93h1v139q0 56 -21.5 81.5t-78.5 25.5h-83v-247h-56v523h56v-231h64l121 231h55z"/>
<glyph horiz-adv-x="533" unicode="Ӆ" glyph-name="uni04C5" d="M443 50h73l-51 -195h-43l26 145h-63v635h-193l-34 -342q-12 -121 -27 -179.5t-34 -80.5t-61 -42l-14 46q25 15 36.5 33t22 68.5t21.5 157.5l38 389h303v-635z"/>
<glyph horiz-adv-x="474" unicode="ӆ" glyph-name="uni04C6" d="M381 47h68l-48 -192h-42l26 145h-60v475h-157l-16 -244q-9 -130 -26.5 -172.5t-77.5 -67.5l-15 45q37 16 47.5 51t17.5 149l19 287h264v-476z"/>
<glyph horiz-adv-x="548" unicode="Ӈ" glyph-name="uni04C7" d="M404 685h58v-774q0 -56 -30 -86t-77 -30q-49 0 -89 34l26 36q29 -22 60 -22q52 0 52 67v426h-259v-336h-57v685h57v-300h259v300z"/>
<glyph horiz-adv-x="484" unicode="ӈ" glyph-name="uni04C8" d="M344 523h56v-614q0 -54 -29.5 -84t-76.5 -30q-51 0 -89 34l25 35q29 -22 60 -22q54 0 54 66v339h-204v-247h-56v523h56v-228h204v228z"/>
<glyph horiz-adv-x="551" unicode="Ӊ" glyph-name="uni04C9" d="M462 50h72l-51 -195h-43l26 145h-62v336h-259v-336h-57v685h57v-300h259v300h58v-635z"/>
<glyph horiz-adv-x="493" unicode="ӊ" glyph-name="uni04CA" d="M400 47h68l-48 -192h-42l26 145h-60v247h-204v-247h-56v523h56v-228h204v228h56v-476z"/>
<glyph horiz-adv-x="490" unicode="Ӌ" glyph-name="uni04CB" d="M344 685h58v-685h-57l-11 -145h-43v195h53v245q-63 -71 -147 -71q-71 0 -116 46t-45 129v286h57v-284q0 -127 113 -127q84 0 138 75v336z"/>
<glyph horiz-adv-x="444" unicode="ӌ" glyph-name="uni04CC" d="M303 523h56v-523h-60l-11 -145h-42v192h57v198q-54 -66 -131 -66q-57 0 -91.5 34.5t-34.5 102.5v207h56v-204q0 -94 80 -94q36 0 69 20t52 51v227z"/>
<glyph horiz-adv-x="651" unicode="Ӎ" glyph-name="uni04CD" d="M581 50h77l-51 -195h-43l26 145h-59l-25 329q-11 139 -19 299l-137 -547h-55l-143 547q0 -57 -16 -297l-23 -331h-54l52 685h78l134 -535l130 535h79z"/>
<glyph horiz-adv-x="584" unicode="ӎ" glyph-name="uni04CE" d="M489 47h71l-48 -192h-42l26 145h-58l-20 308q-6 93 -6 157l-115 -400h-52l-112 399q0 -80 -5 -155l-19 -309h-53l37 523h70l108 -400l113 400h70z"/>
<glyph horiz-adv-x="235" unicode="ӏ" glyph-name="uni04CF" d="M159 -11q-36 0 -58 23.5t-22 64.5v659l56 7v-664q0 -42 34 -42q14 0 28 6l14 -40q-23 -14 -52 -14z"/>
<glyph horiz-adv-x="478" unicode="Ӑ" glyph-name="uni04D0" d="M239 765q-45 0 -74.5 25t-34.5 67l36 8q14 -53 73 -53q61 0 75 53l36 -8q-5 -42 -35.5 -67t-75.5 -25zM402 0l-48 188h-232l-48 -188h-57l186 685h72l186 -685h-59zM135 236h206l-103 401z"/>
<glyph unicode="ӑ" glyph-name="uni04D1" d="M214 653q-45 0 -74.5 25t-34.5 67l36 8q14 -53 73 -53q61 0 75 53l36 -8q-5 -42 -35.5 -67t-75.5 -25zM359 100q0 -55 35 -72l-12 -39q-32 8 -49 27t-22 55q-47 -82 -131 -82q-62 0 -99 43t-37 113q0 82 49.5 125.5t141.5 43.5h69v60q0 113 -93 113q-55 0 -120 -28 l-16 40q75 35 141 35q143 0 143 -156v-278zM189 34q76 0 115 97v142h-64q-137 0 -137 -126q0 -55 22.5 -84t63.5 -29z"/>
<glyph horiz-adv-x="478" unicode="Ӓ" glyph-name="uni04D2" d="M166 789q-16 0 -26.5 11t-10.5 28q0 16 10.5 27t26.5 11q17 0 27.5 -11t10.5 -27q0 -17 -10.5 -28t-27.5 -11zM324 789q-16 0 -26.5 11t-10.5 28q0 16 10.5 27t26.5 11q17 0 27.5 -11t10.5 -27q0 -17 -10.5 -28t-27.5 -11zM402 0l-48 188h-232l-48 -188h-57l186 685h72 l186 -685h-59zM135 236h206l-103 401z"/>
<glyph unicode="ӓ" glyph-name="uni04D3" d="M135 663q-16 0 -26.5 11t-10.5 28q0 16 10.5 27t26.5 11q17 0 27.5 -11t10.5 -27q0 -17 -10.5 -28t-27.5 -11zM293 663q-16 0 -26.5 11t-10.5 28q0 16 10.5 27t26.5 11q17 0 27.5 -11t10.5 -27q0 -17 -10.5 -28t-27.5 -11zM359 100q0 -55 35 -72l-12 -39q-32 8 -49 27 t-22 55q-47 -82 -131 -82q-62 0 -99 43t-37 113q0 82 49.5 125.5t141.5 43.5h69v60q0 113 -93 113q-55 0 -120 -28l-16 40q75 35 141 35q143 0 143 -156v-278zM189 34q76 0 115 97v142h-64q-137 0 -137 -126q0 -55 22.5 -84t63.5 -29z"/>
<glyph horiz-adv-x="648" unicode="Ӕ" glyph-name="uni04D4" d="M424 49h187v-49h-234l-36 184h-229l-56 -184h-58l221 685h354l-7 -49h-261l52 -257h209v-48h-199zM127 233h204l-79 406z"/>
<glyph horiz-adv-x="697" unicode="ӕ" glyph-name="uni04D5" d="M651 281q0 -22 -2 -42h-286q4 -103 39 -152.5t92 -49.5q59 0 113 49l27 -33q-64 -64 -144 -64q-107 0 -155 105q-62 -105 -153 -105q-63 0 -100.5 43t-37.5 113q0 82 50 125.5t140 43.5h71v51q0 63 -22.5 92.5t-74.5 29.5q-47 0 -116 -29l-14 41q76 35 137 35 q106 0 131 -99q47 99 139 99q80 0 123 -65t43 -188zM595 283v16q0 188 -110 188q-53 0 -85.5 -50.5t-36.5 -153.5h232zM191 34q39 0 68.5 25.5t59.5 81.5q-14 53 -14 115v17h-67q-135 0 -135 -126q0 -54 23.5 -83.5t64.5 -29.5z"/>
<glyph horiz-adv-x="420" unicode="Ӗ" glyph-name="uni04D6" d="M236 765q-45 0 -74.5 25t-34.5 67l36 8q14 -53 73 -53q61 0 75 53l36 -8q-5 -42 -35.5 -67t-75.5 -25zM379 685l-6 -49h-228v-257h197v-48h-197v-282h239v-49h-296v685h291z"/>
<glyph unicode="ӗ" glyph-name="uni04D7" d="M228 653q-45 0 -74.5 25t-34.5 67l36 8q14 -53 73 -53q61 0 75 53l36 -8q-5 -42 -35.5 -67t-75.5 -25zM397 281q0 -22 -2 -42h-286q8 -202 129 -202q60 0 114 48l28 -33q-63 -63 -143 -63q-87 0 -136.5 68.5t-49.5 199.5q0 133 47.5 205t130.5 72q82 0 125 -64.5 t43 -188.5zM342 283v16q0 188 -113 188t-120 -204h233z"/>
<glyph horiz-adv-x="532" unicode="Ә" glyph-name="uni04D8" d="M262 696q105 0 161 -82t56 -268q0 -357 -219 -357q-217 0 -217 343q0 11 2 41h375q-4 150 -44.5 211.5t-116.5 61.5q-79 0 -150 -66l-32 34q81 82 185 82zM259 38q74 0 115.5 65.5t45.5 221.5h-319q0 -154 41 -220.5t117 -66.5z"/>
<glyph horiz-adv-x="447" unicode="ә" glyph-name="uni04D9" d="M219 534q177 0 177 -270q0 -275 -177 -275q-82 0 -127.5 64.5t-45.5 192.5q0 18 2 38h291q-2 108 -32.5 155t-86.5 47q-62 0 -119 -48l-26 36q63 60 144 60zM219 36q59 0 88.5 45.5t31.5 158.5h-238v-6q0 -198 118 -198z"/>
<glyph horiz-adv-x="532" unicode="Ӛ" glyph-name="uni04DA" d="M186 789q-16 0 -26.5 11t-10.5 28q0 16 10.5 27t26.5 11q17 0 27.5 -11t10.5 -27q0 -17 -10.5 -28t-27.5 -11zM344 789q-16 0 -26.5 11t-10.5 28q0 16 10.5 27t26.5 11q17 0 27.5 -11t10.5 -27q0 -17 -10.5 -28t-27.5 -11zM262 696q105 0 161 -82t56 -268 q0 -357 -219 -357q-217 0 -217 343q0 11 2 41h375q-4 150 -44.5 211.5t-116.5 61.5q-79 0 -150 -66l-32 34q81 82 185 82zM259 38q74 0 115.5 65.5t45.5 221.5h-319q0 -154 41 -220.5t117 -66.5z"/>
<glyph horiz-adv-x="447" unicode="ӛ" glyph-name="uni04DB" d="M140 663q-16 0 -26.5 11t-10.5 28q0 16 10.5 27t26.5 11q17 0 27.5 -11t10.5 -27q0 -17 -10.5 -28t-27.5 -11zM298 663q-16 0 -26.5 11t-10.5 28q0 16 10.5 27t26.5 11q17 0 27.5 -11t10.5 -27q0 -17 -10.5 -28t-27.5 -11zM219 534q177 0 177 -270q0 -275 -177 -275 q-82 0 -127.5 64.5t-45.5 192.5q0 18 2 38h291q-2 108 -32.5 155t-86.5 47q-62 0 -119 -48l-26 36q63 60 144 60zM219 36q59 0 88.5 45.5t31.5 158.5h-238v-6q0 -198 118 -198z"/>
<glyph horiz-adv-x="642" unicode="Ӝ" glyph-name="uni04DC" d="M247 866q17 0 27.5 -11t10.5 -27q0 -17 -10.5 -28t-27.5 -11q-16 0 -26.5 11t-10.5 28q0 16 10.5 27t26.5 11zM405 866q17 0 27.5 -11t10.5 -27q0 -17 -10.5 -28t-27.5 -11q-16 0 -26.5 11t-10.5 28q0 16 10.5 27t26.5 11zM618 685l-148 -322l161 -363h-62l-146 336h-75 v-336h-55v336h-75l-146 -336h-61l161 363l-148 322h60l135 -300h74v300h55v-300h75l137 300h58z"/>
<glyph horiz-adv-x="553" unicode="ӝ" glyph-name="uni04DD" d="M196 740q17 0 27.5 -11t10.5 -27q0 -17 -10.5 -28t-27.5 -11q-16 0 -26.5 11t-10.5 28q0 16 10.5 27t26.5 11zM354 740q17 0 27.5 -11t10.5 -27q0 -17 -10.5 -28t-27.5 -11q-16 0 -26.5 11t-10.5 28q0 16 10.5 27t26.5 11zM525 523l-108 -244l125 -279h-56l-114 254h-70 v-254h-51v254h-70l-115 -254h-55l125 279l-108 244h53l100 -224h70v224h51v-224h70l101 224h52z"/>
<glyph horiz-adv-x="429" unicode="Ӟ" glyph-name="uni04DE" d="M129 866q17 0 27.5 -11t10.5 -27q0 -17 -10.5 -28t-27.5 -11q-16 0 -26.5 11t-10.5 28q0 16 10.5 27t26.5 11zM287 866q17 0 27.5 -11t10.5 -27q0 -17 -10.5 -28t-27.5 -11q-16 0 -26.5 11t-10.5 28q0 16 10.5 27t26.5 11zM194 -11q-107 0 -179 93l35 30q65 -72 140 -72 q63 0 99.5 41t36.5 116q0 70 -34.5 108t-101.5 37h-53l8 50h44q56 0 88.5 34t32.5 97q0 57 -28 90t-81 33q-71 0 -135 -66l-33 32q78 84 171 84q77 0 121.5 -47t44.5 -123q0 -126 -115 -156q59 -9 95.5 -52t36.5 -121q0 -96 -54 -152t-139 -56z"/>
<glyph horiz-adv-x="397" unicode="ӟ" glyph-name="uni04DF" d="M100 740q17 0 27.5 -11t10.5 -27q0 -17 -10.5 -28t-27.5 -11q-16 0 -26.5 11t-10.5 28q0 16 10.5 27t26.5 11zM258 740q17 0 27.5 -11t10.5 -27q0 -17 -10.5 -28t-27.5 -11q-16 0 -26.5 11t-10.5 28q0 16 10.5 27t26.5 11zM179 534q63 0 104 -37.5t41 -100.5 q0 -93 -95 -117q58 -9 87.5 -38.5t29.5 -89.5q0 -77 -46.5 -119.5t-121.5 -42.5q-93 0 -161 68l31 32q61 -53 129 -53q110 0 110 115q0 55 -31 78t-94 23h-48l4 45h38q110 0 110 98q0 45 -24 68.5t-67 23.5q-58 0 -117 -43l-27 34q65 56 148 56z"/>
<glyph horiz-adv-x="406" unicode="Ӡ" glyph-name="uni04E0" d="M176 385q194 0 194 -196q0 -89 -50 -144.5t-136 -55.5q-110 0 -173 86l36 30q30 -36 60.5 -51t73.5 -15q63 0 96.5 40.5t33.5 110.5q0 80 -35.5 114.5t-105.5 34.5h-67v45l184 252h-256v49h318v-47l-185 -253h12z"/>
<glyph horiz-adv-x="381" unicode="ӡ" glyph-name="uni04E1" d="M159 199q196 0 196 -195q0 -94 -49.5 -151.5t-134.5 -57.5q-99 0 -165 86l34 29q57 -67 129 -67q62 0 94.5 43t32.5 119q0 80 -34 115t-109 35h-54v44l176 276h-249v48h309v-44l-181 -280h5z"/>
<glyph horiz-adv-x="551" unicode="Ӣ" glyph-name="uni04E2" d="M377 803h-202v44h202v-44zM464 685v-685h-58v366q0 129 8 253l-253 -619h-73v685h57v-367q0 -133 -8 -253l254 620h73z"/>
<glyph horiz-adv-x="487" unicode="ӣ" glyph-name="uni04E3" d="M345 677h-202v44h202v-44zM403 523v-523h-54v329q0 75 10 128l-212 -457h-63v523h55v-311q0 -73 -9 -145l210 456h63z"/>
<glyph horiz-adv-x="551" unicode="Ӥ" glyph-name="uni04E4" d="M202 866q17 0 27.5 -11t10.5 -27q0 -17 -10.5 -28t-27.5 -11q-16 0 -26.5 11t-10.5 28q0 16 10.5 27t26.5 11zM360 866q17 0 27.5 -11t10.5 -27q0 -17 -10.5 -28t-27.5 -11q-16 0 -26.5 11t-10.5 28q0 16 10.5 27t26.5 11zM464 685v-685h-58v366q0 129 8 253l-253 -619 h-73v685h57v-367q0 -133 -8 -253l254 620h73z"/>
<glyph horiz-adv-x="487" unicode="ӥ" glyph-name="uni04E5" d="M164 740q17 0 27.5 -11t10.5 -27q0 -17 -10.5 -28t-27.5 -11q-16 0 -26.5 11t-10.5 28q0 16 10.5 27t26.5 11zM322 740q17 0 27.5 -11t10.5 -27q0 -17 -10.5 -28t-27.5 -11q-16 0 -26.5 11t-10.5 28q0 16 10.5 27t26.5 11zM403 523v-523h-54v329q0 75 10 128l-212 -457 h-63v523h55v-311q0 -73 -9 -145l210 456h63z"/>
<glyph horiz-adv-x="570" unicode="Ӧ" glyph-name="uni04E6" d="M211 866q17 0 27.5 -11t10.5 -27q0 -17 -10.5 -28t-27.5 -11q-16 0 -26.5 11t-10.5 28q0 16 10.5 27t26.5 11zM369 866q17 0 27.5 -11t10.5 -27q0 -17 -10.5 -28t-27.5 -11q-16 0 -26.5 11t-10.5 28q0 16 10.5 27t26.5 11zM285 696q108 0 170 -88.5t62 -265.5 q0 -174 -61.5 -263.5t-170.5 -89.5q-107 0 -169.5 89t-62.5 263t63 264.5t169 90.5zM285 646q-171 0 -171 -305q0 -155 45.5 -228.5t125.5 -73.5q171 0 171 303q0 304 -171 304z"/>
<glyph horiz-adv-x="472" unicode="ӧ" glyph-name="uni04E7" d="M156 740q17 0 27.5 -11t10.5 -27q0 -17 -10.5 -28t-27.5 -11q-16 0 -26.5 11t-10.5 28q0 16 10.5 27t26.5 11zM314 740q17 0 27.5 -11t10.5 -27q0 -17 -10.5 -28t-27.5 -11q-16 0 -26.5 11t-10.5 28q0 16 10.5 27t26.5 11zM236 534q89 0 137 -68.5t48 -202.5 q0 -131 -49.5 -202.5t-136.5 -71.5t-135.5 71t-48.5 201q0 132 49 202.5t136 70.5zM236 486q-126 0 -126 -225t125 -225q127 0 127 227q0 223 -126 223z"/>
<glyph horiz-adv-x="570" unicode="Ө" glyph-name="uni04E8" d="M285 696q108 0 170 -88.5t62 -265.5q0 -174 -61.5 -263.5t-170.5 -89.5q-107 0 -169.5 88.5t-62.5 263.5q0 173 63 264t169 91zM285 646q-164 0 -172 -273h345q-10 273 -173 273zM285 39q169 0 173 288h-346q4 -288 173 -288z"/>
<glyph horiz-adv-x="472" unicode="ө" glyph-name="uni04E9" d="M236 534q89 0 137 -68.5t48 -202.5q0 -131 -49.5 -202.5t-136.5 -71.5t-135.5 71t-48.5 201q0 132 49 202.5t136 70.5zM236 487q-119 0 -127 -199h254q-7 199 -127 199zM235 36q122 0 128 207h-254q6 -207 126 -207z"/>
<glyph horiz-adv-x="570" unicode="Ӫ" glyph-name="uni04EA" d="M211 789q-16 0 -26.5 11t-10.5 28q0 16 10.5 27t26.5 11q17 0 27.5 -11t10.5 -27q0 -17 -10.5 -28t-27.5 -11zM369 789q-16 0 -26.5 11t-10.5 28q0 16 10.5 27t26.5 11q17 0 27.5 -11t10.5 -27q0 -17 -10.5 -28t-27.5 -11zM285 696q108 0 170 -88.5t62 -265.5 q0 -174 -61.5 -263.5t-170.5 -89.5q-107 0 -169.5 88.5t-62.5 263.5q0 173 63 264t169 91zM285 646q-164 0 -172 -273h345q-10 273 -173 273zM285 39q169 0 173 288h-346q4 -288 173 -288z"/>
<glyph horiz-adv-x="472" unicode="ӫ" glyph-name="uni04EB" d="M155 663q-16 0 -26.5 11t-10.5 28q0 16 10.5 27t26.5 11q17 0 27.5 -11t10.5 -27q0 -17 -10.5 -28t-27.5 -11zM313 663q-16 0 -26.5 11t-10.5 28q0 16 10.5 27t26.5 11q17 0 27.5 -11t10.5 -27q0 -17 -10.5 -28t-27.5 -11zM236 534q89 0 137 -68.5t48 -202.5 q0 -131 -49.5 -202.5t-136.5 -71.5t-135.5 71t-48.5 201q0 132 49 202.5t136 70.5zM236 487q-119 0 -127 -199h254q-7 199 -127 199zM235 36q122 0 128 207h-254q6 -207 126 -207z"/>
<glyph horiz-adv-x="435" unicode="Ӭ" glyph-name="uni04EC" d="M108 789q-16 0 -26.5 11t-10.5 28q0 16 10.5 27t26.5 11q17 0 27.5 -11t10.5 -27q0 -17 -10.5 -28t-27.5 -11zM266 789q-16 0 -26.5 11t-10.5 28q0 16 10.5 27t26.5 11q17 0 27.5 -11t10.5 -27q0 -17 -10.5 -28t-27.5 -11zM183 696q95 0 146.5 -81t51.5 -272 q0 -354 -210 -354q-84 0 -154 72l33 36q59 -57 120 -57q75 0 112.5 69t38.5 222h-225v49h225q-4 146 -39.5 206t-99.5 60q-37 0 -65 -11.5t-64 -40.5l-30 34q73 68 160 68z"/>
<glyph horiz-adv-x="393" unicode="ӭ" glyph-name="uni04ED" d="M100 663q-16 0 -26.5 11t-10.5 28q0 16 10.5 27t26.5 11q17 0 27.5 -11t10.5 -27q0 -17 -10.5 -28t-27.5 -11zM258 663q-16 0 -26.5 11t-10.5 28q0 16 10.5 27t26.5 11q17 0 27.5 -11t10.5 -27q0 -17 -10.5 -28t-27.5 -11zM176 534q81 0 123.5 -63t42.5 -205 q0 -277 -175 -277q-76 0 -136 58l29 34q52 -44 106 -44q114 0 118 210h-188v45h188q-3 108 -30 151.5t-79 43.5q-56 0 -109 -44l-27 36q61 55 137 55z"/>
<glyph horiz-adv-x="427" unicode="Ӯ" glyph-name="uni04EE" d="M320 803h-202v44h202v-44zM428 685l-164 -495q-35 -104 -69 -142.5t-107 -58.5l-10 43q56 18 81.5 47.5t51.5 112.5h-20l-187 493h59l164 -454l144 454h57z"/>
<glyph horiz-adv-x="396" unicode="ӯ" glyph-name="uni04EF" d="M295 677h-202v44h202v-44zM381 523l-147 -525q-24 -90 -64 -136.5t-117 -65.5l-7 44q62 18 88.5 51.5t49.5 108.5h-21l-147 523h57l127 -481l124 481h57z"/>
<glyph horiz-adv-x="427" unicode="Ӱ" glyph-name="uni04F0" d="M145 866q17 0 27.5 -11t10.5 -27q0 -17 -10.5 -28t-27.5 -11q-16 0 -26.5 11t-10.5 28q0 16 10.5 27t26.5 11zM303 866q17 0 27.5 -11t10.5 -27q0 -17 -10.5 -28t-27.5 -11q-16 0 -26.5 11t-10.5 28q0 16 10.5 27t26.5 11zM428 685l-164 -495q-35 -104 -69 -142.5 t-107 -58.5l-10 43q56 18 81.5 47.5t51.5 112.5h-20l-187 493h59l164 -454l144 454h57z"/>
<glyph horiz-adv-x="396" unicode="ӱ" glyph-name="uni04F1" d="M114 740q17 0 27.5 -11t10.5 -27q0 -17 -10.5 -28t-27.5 -11q-16 0 -26.5 11t-10.5 28q0 16 10.5 27t26.5 11zM272 740q17 0 27.5 -11t10.5 -27q0 -17 -10.5 -28t-27.5 -11q-16 0 -26.5 11t-10.5 28q0 16 10.5 27t26.5 11zM381 523l-147 -525q-24 -90 -64 -136.5 t-117 -65.5l-7 44q62 18 88.5 51.5t49.5 108.5h-21l-147 523h57l127 -481l124 481h57z"/>
<glyph horiz-adv-x="427" unicode="Ӳ" glyph-name="uni04F2" d="M311 935l46 -25l-78 -141l-33 15zM202 934l46 -24l-72 -137l-33 15zM428 685l-164 -495q-35 -104 -69 -142.5t-107 -58.5l-10 43q56 18 81.5 47.5t51.5 112.5h-20l-187 493h59l164 -454l144 454h57z"/>
<glyph horiz-adv-x="396" unicode="ӳ" glyph-name="uni04F3" d="M289 809l46 -25l-78 -141l-33 15zM180 808l46 -24l-72 -137l-33 15zM381 523l-147 -525q-24 -90 -64 -136.5t-117 -65.5l-7 44q62 18 88.5 51.5t49.5 108.5h-21l-147 523h57l127 -481l124 481h57z"/>
<glyph horiz-adv-x="490" unicode="Ӵ" glyph-name="uni04F4" d="M145 789q-16 0 -26.5 11t-10.5 28q0 16 10.5 27t26.5 11q17 0 27.5 -11t10.5 -27q0 -17 -10.5 -28t-27.5 -11zM303 789q-16 0 -26.5 11t-10.5 28q0 16 10.5 27t26.5 11q17 0 27.5 -11t10.5 -27q0 -17 -10.5 -28t-27.5 -11zM344 685h58v-685h-58v295q-63 -71 -147 -71 q-71 0 -116 46t-45 129v286h57v-284q0 -127 113 -127q84 0 138 75v336z"/>
<glyph horiz-adv-x="444" unicode="ӵ" glyph-name="uni04F5" d="M122 663q-16 0 -26.5 11t-10.5 28q0 16 10.5 27t26.5 11q17 0 27.5 -11t10.5 -27q0 -17 -10.5 -28t-27.5 -11zM280 663q-16 0 -26.5 11t-10.5 28q0 16 10.5 27t26.5 11q17 0 27.5 -11t10.5 -27q0 -17 -10.5 -28t-27.5 -11zM303 523h56v-523h-56v241q-53 -67 -131 -67 q-57 0 -91.5 34.5t-34.5 103.5v211h56v-208q0 -94 80 -94q36 0 69 19.5t52 50.5v232z"/>
<glyph horiz-adv-x="418" unicode="Ӷ" glyph-name="uni04F6" d="M403 633h-258v-583h58v-195h-43l-11 145h-61v685h323z"/>
<glyph horiz-adv-x="348" unicode="ӷ" glyph-name="uni04F7" d="M336 475h-196v-428h57v-192h-42l-11 145h-60v523h259z"/>
<glyph horiz-adv-x="660" unicode="Ӹ" glyph-name="uni04F8" d="M256 789q-16 0 -26.5 11t-10.5 28q0 16 10.5 27t26.5 11q17 0 27.5 -11t10.5 -27q0 -17 -10.5 -28t-27.5 -11zM414 866q17 0 27.5 -11t10.5 -27q0 -17 -10.5 -28t-27.5 -11q-16 0 -26.5 11t-10.5 28q0 16 10.5 27t26.5 11zM212 422q216 0 216 -205q0 -217 -218 -217h-122 v685h57v-263h67zM514 685h58v-685h-58v685zM217 49q74 0 112 39t38 129q0 83 -38 120t-117 37h-67v-325h72z"/>
<glyph horiz-adv-x="592" unicode="ӹ" glyph-name="uni04F9" d="M216 663q-16 0 -26.5 11t-10.5 28q0 16 10.5 27t26.5 11q17 0 27.5 -11t10.5 -27q0 -17 -10.5 -28t-27.5 -11zM374 740q17 0 27.5 -11t10.5 -27q0 -17 -10.5 -28t-27.5 -11q-16 0 -26.5 11t-10.5 28q0 16 10.5 27t26.5 11zM193 346q185 0 185 -169q0 -88 -47.5 -132.5 t-126.5 -44.5h-120v523h56v-177h53zM452 523h56v-523h-56v523zM198 46q60 0 90.5 31t30.5 100q0 62 -28 92.5t-95 30.5h-56v-254h58z"/>
<glyph horiz-adv-x="423" unicode="Ӻ" glyph-name="uni04FA" d="M408 633h-258v-232h135v-46h-135v-305h58v-49h1v-90q0 -56 -30 -86t-77 -30q-49 0 -89 34l26 36q29 -22 60 -22q52 0 52 67v90h-58v355h-78v46h78v284h323z"/>
<glyph horiz-adv-x="354" unicode="ӻ" glyph-name="uni04FB" d="M342 475h-196v-175h101v-45h-101v-208h61v-47h-1v-91q0 -54 -29.5 -84t-76.5 -30q-51 0 -89 34l25 35q29 -22 60 -22q54 0 54 66v92h-60v255h-59v45h59v223h259z"/>
<glyph horiz-adv-x="434" unicode="Ӽ" glyph-name="uni04FC" d="M396 50h43v-139q0 -56 -30 -86t-77 -30q-49 0 -89 34l26 36q29 -22 60 -22q52 0 52 67v90h-23l-148 332l-144 -332h-59l169 368l-153 317h61l127 -280l128 280h58l-151 -314z"/>
<glyph horiz-adv-x="392" unicode="ӽ" glyph-name="uni04FD" d="M352 47h49v-138q0 -54 -29.5 -84t-76.5 -30q-51 0 -89 34l25 35q29 -22 60 -22q54 0 54 66v92h-29l-123 246l-123 -246h-59l150 278l-132 245h60l104 -212l106 212h59l-132 -243z"/>
<glyph horiz-adv-x="426" unicode="Ӿ" glyph-name="uni04FE" d="M257 346l162 -346h-61l-148 333l-144 -333h-59l160 346h-118v46h116l-142 293h61l127 -281l128 281h58l-142 -293h126v-46h-124z"/>
<glyph horiz-adv-x="464" unicode="Ԁ" glyph-name="uni0500" d="M318 685h58v-685h-132q-216 0 -216 206q0 103 57 157t164 54h69v268zM248 49h70v320h-68q-82 0 -121.5 -39.5t-39.5 -123.5q0 -85 39 -121t120 -36z"/>
<glyph horiz-adv-x="479" unicode="ԁ" glyph-name="uni0501" d="M339 743l56 -7v-736h-49l-5 76q-45 -87 -125 -87q-78 0 -121.5 71t-43.5 199q0 126 46.5 200.5t123.5 74.5q73 0 118 -68v277zM223 36q71 0 116 94v278q-45 79 -110 79q-55 0 -87 -57.5t-32 -169.5q1 -112 30.5 -168t82.5 -56z"/>
<glyph horiz-adv-x="694" unicode="Ԃ" glyph-name="uni0502" d="M634 379q7 -67 7 -129q0 -130 -49 -195.5t-127 -65.5q-100 0 -133 91q-45 -92 -139 -92q-69 0 -117 51t-48 157q0 107 55 164t155 57h80v268h58v-538q0 -111 89 -111q52 0 85.5 50t33.5 163q0 52 -6 130h56zM197 37q91 0 121 115v217h-80q-149 0 -149 -173 q0 -159 108 -159z"/>
<glyph horiz-adv-x="707" unicode="ԃ" glyph-name="uni0503" d="M647 379q7 -67 7 -129q0 -130 -48.5 -195.5t-123.5 -65.5q-102 0 -133 102q-50 -102 -132 -102q-78 0 -122 71t-44 199q0 126 46.5 200.5t123.5 74.5q73 0 118 -68v277l56 -7v-589q0 -56 23 -83.5t63 -27.5q50 0 83 50t33 163q0 52 -6 130h56zM223 36q39 0 66.5 29.5 t49.5 87.5v255q-45 79 -110 79q-55 0 -87 -57.5t-32 -169.5q1 -112 30.5 -168t82.5 -56z"/>
<glyph horiz-adv-x="612" unicode="Ԅ" glyph-name="uni0504" d="M552 379q7 -53 7 -129q0 -131 -44.5 -196t-117.5 -65q-54 0 -88 29.5t-65 98.5l-89 192q-10 -1 -30 -1h-71v48h64q80 0 118 34.5t38 108.5q0 70 -37 104t-127 34h-82v48h85q223 0 223 -186q0 -67 -32.5 -113.5t-92.5 -65.5l84 -186q24 -54 46 -76t56 -22q105 0 105 213 q0 71 -6 130h56z"/>
<glyph horiz-adv-x="541" unicode="ԅ" glyph-name="uni0505" d="M481 379q7 -67 7 -129q0 -130 -42.5 -196t-107.5 -66q-49 0 -79 25t-61 86l-61 119q-3 -1 -7 -1h-73v45h66q110 0 110 108q0 54 -28.5 80.5t-89.5 26.5h-89v46h91q173 0 173 -153q0 -110 -101 -142l59 -115q23 -46 41.5 -62t46.5 -16q41 0 68 50.5t27 163.5q0 52 -6 130 h56z"/>
<glyph horiz-adv-x="387" unicode="Ԇ" glyph-name="uni0506" d="M342 50h48v-195h-43l-11 145h-39l-142 309q-10 -1 -30 -1h-71v48h64q80 0 118 34.5t38 108.5q0 70 -37 104t-127 34h-82v48h85q223 0 223 -186q0 -67 -32 -113t-92 -66z"/>
<glyph horiz-adv-x="329" unicode="ԇ" glyph-name="uni0507" d="M285 47h53v-192h-42l-11 145h-35l-112 218q-2 -1 -8 -1h-73v45h66q110 0 110 108q0 54 -28.5 80.5t-89.5 26.5h-89v46h91q173 0 173 -153q0 -108 -100 -142z"/>
<glyph horiz-adv-x="760" unicode="Ԉ" glyph-name="uni0508" d="M701 379q7 -67 7 -129q0 -130 -49 -195.5t-128 -65.5q-67 0 -106.5 41.5t-39.5 116.5v488h-193l-34 -342q-12 -121 -27 -179.5t-34 -80.5t-61 -42l-14 46q25 15 36.5 33t22 68.5t21.5 157.5l38 389h303v-538q0 -111 89 -111q53 0 86 50.5t33 162.5q0 52 -6 130h56z"/>
<glyph horiz-adv-x="693" unicode="ԉ" glyph-name="uni0509" d="M633 379q7 -53 7 -129q0 -130 -48.5 -195.5t-124.5 -65.5q-65 0 -103.5 42t-38.5 119v327h-157l-16 -246q-9 -130 -26.5 -172.5t-77.5 -67.5l-15 45q37 16 47.5 51t17.5 149l19 287h264v-376q0 -56 23 -83.5t63 -27.5q50 0 83 50t33 163q0 71 -6 130h56z"/>
<glyph horiz-adv-x="780" unicode="Ԋ" glyph-name="uni050A" d="M720 379q7 -67 7 -129q0 -130 -48.5 -195.5t-127.5 -65.5q-67 0 -107 41.5t-40 116.5v189h-259v-336h-57v685h57v-300h259v300h58v-538q0 -111 89 -111q53 0 86 50.5t33 162.5q0 52 -6 130h56z"/>
<glyph horiz-adv-x="711" unicode="ԋ" glyph-name="uni050B" d="M652 379q7 -67 7 -129q0 -130 -49 -195.5t-125 -65.5q-64 0 -102.5 42t-38.5 119v97h-204v-247h-56v523h56v-228h204v228h56v-376q0 -56 23 -83.5t63 -27.5q50 0 83 50t33 163q0 52 -6 130h56z"/>
<glyph horiz-adv-x="513" unicode="Ԍ" glyph-name="uni050C" d="M293 696q85 0 156 -68l-32 -34q-59 52 -124 52q-77 0 -128 -70t-51 -231q0 -163 45 -234.5t130 -71.5q61 0 113 35v246h-106l-6 49h168v-324q-78 -56 -168 -56q-237 0 -237 356q0 175 69 263t171 88z"/>
<glyph horiz-adv-x="459" unicode="ԍ" glyph-name="uni050D" d="M249 535q77 0 137 -57l-31 -34q-50 43 -106 43q-61 0 -100.5 -51.5t-39.5 -170.5q0 -125 35 -176.5t101 -51.5q47 0 93 26v176h-88l-6 47h148v-249q-66 -46 -147 -46q-194 0 -194 274q0 134 56 202t142 68z"/>
<glyph horiz-adv-x="551" unicode="Ԏ" glyph-name="uni050E" d="M491 379q7 -53 7 -129q0 -130 -48.5 -195.5t-127.5 -65.5q-67 0 -106.5 41.5t-39.5 116.5v487h-164v51h390l-7 -51h-161v-487q0 -111 88 -111q54 0 86.5 50.5t32.5 162.5q0 71 -6 130h56z"/>
<glyph horiz-adv-x="519" unicode="ԏ" glyph-name="uni050F" d="M460 375q6 -56 6 -125q0 -130 -48.5 -195.5t-124.5 -65.5q-64 0 -102.5 42t-38.5 119v325h-146v48h349l-7 -48h-140v-328q0 -56 23 -83.5t62 -27.5q50 0 83 50t33 163q0 61 -5 126h56z"/>
<glyph horiz-adv-x="429" unicode="Ԑ" glyph-name="uni0510" d="M227 696q94 0 170 -84l-33 -33q-61 67 -133 67q-53 0 -82.5 -34t-29.5 -89q0 -62 33 -96.5t88 -34.5h51l-7 -50h-45q-66 1 -101.5 -37t-35.5 -109q0 -76 36 -116t99 -40q79 0 140 72l36 -30q-72 -93 -177 -93q-86 0 -140.5 55t-54.5 152q0 77 36.5 121t91.5 53 q-110 27 -110 154q0 76 45.5 124t122.5 48z"/>
<glyph horiz-adv-x="380" unicode="ԑ" glyph-name="uni0511" d="M216 534q75 0 134 -47l-25 -35q-52 35 -105 35q-45 0 -69.5 -25t-24.5 -69q0 -43 26.5 -70t70.5 -27h49l-6 -46h-47q-56 0 -82.5 -26.5t-26.5 -82.5q0 -49 28 -77t78 -28q61 0 117 49l29 -33q-61 -63 -150 -63q-71 0 -116 41t-45 112q0 116 113 135q-96 24 -96 119 q0 63 41.5 100.5t106.5 37.5z"/>
<glyph horiz-adv-x="531" unicode="Ԓ" glyph-name="uni0512" d="M140 685h303v-774q0 -56 -30 -86t-77 -30q-49 0 -89 34l26 36q29 -22 60 -22q52 0 52 67v725h-193l-34 -342q-12 -121 -27 -179.5t-34 -80.5t-61 -42l-14 46q25 15 36.5 33t22 68.5t21.5 157.5z"/>
<glyph horiz-adv-x="466" unicode="ԓ" glyph-name="uni0513" d="M117 523h264v-614q0 -54 -29.5 -84t-76.5 -30q-51 0 -89 34l25 35q29 -22 60 -22q54 0 54 66v567h-157l-16 -244q-9 -130 -26.5 -172.5t-77.5 -67.5l-15 45q37 16 47.5 51t17.5 149z"/>
<glyph horiz-adv-x="657" unicode="Ԕ" glyph-name="uni0514" d="M477 371l173 -371h-61l-148 332l-144 -332h-59l169 368l-129 267h-86l-34 -342q-12 -121 -27 -179.5t-34 -80.5t-61 -42l-14 46q25 15 36.5 33t22 68.5t21.5 157.5l38 389h175l127 -280l128 280h58z"/>
<glyph horiz-adv-x="575" unicode="ԕ" glyph-name="uni0515" d="M413 280l151 -280h-61l-123 246l-123 -246h-59l150 278l-107 199h-73l-16 -246q-9 -130 -26.5 -172.5t-77.5 -67.5l-15 45q37 16 47.5 51t17.5 149l19 287h159l104 -212l106 212h59z"/>
<glyph horiz-adv-x="613" unicode="Ԗ" glyph-name="uni0516" d="M595 0h-64l-163 324q-59 -56 -179 -56h-44v-268h-57v685h102q119 0 175 -50.5t56 -155.5v-17l111 223h60l-175 -333zM190 316q90 0 133.5 37t43.5 126q0 84 -42 121t-134 37h-46v-321h45z"/>
<glyph horiz-adv-x="634" unicode="ԗ" glyph-name="uni0517" d="M624 0h-62l-137 240q-4 -121 -47.5 -186t-117.5 -65q-73 0 -120 70v-256l-56 -8v728h49l4 -73q51 84 132 84q146 0 155 -240l131 229h58l-146 -253zM251 37q114 0 114 227q0 223 -106 223q-68 0 -119 -88v-284q46 -78 111 -78z"/>
<glyph horiz-adv-x="679" unicode="Ԙ" glyph-name="uni0518" d="M407 49h236v-49h-294v286h-133l-119 -286h-62l127 297q-114 45 -114 184q0 204 224 204h366l-7 -49h-224v-257h194v-48h-194v-282zM239 334h110v303h-75q-88 0 -126 -37t-38 -119q0 -147 129 -147z"/>
<glyph horiz-adv-x="675" unicode="ԙ" glyph-name="uni0519" d="M629 271q0 -22 -2 -42h-285q4 -98 38 -145t91 -47q58 0 114 48l28 -33q-65 -63 -143 -63q-83 0 -133 63t-54 177h-79l-104 -229h-58l111 240q-91 34 -91 135q0 70 45 109t129 39h166q28 11 59 11q82 0 125 -67.5t43 -195.5zM574 272v17q0 198 -113 198q-116 0 -120 -215 h233zM120 376q0 -104 108 -104h55q4 137 58 205h-106q-115 2 -115 -101z"/>
<glyph horiz-adv-x="570" unicode="Ԛ" glyph-name="uni051A" d="M373 24q101 -3 168 -72l-40 -44q-44 48 -92 66t-126 18q-105 0 -167.5 88t-62.5 261t63 264t169 91q108 0 170 -89t62 -265q0 -140 -38 -214t-106 -104zM114 341q0 -155 45.5 -228.5t125.5 -73.5q171 0 171 303q0 304 -171 304t-171 -305z"/>
<glyph horiz-adv-x="479" unicode="ԛ" glyph-name="uni051B" d="M347 523h48v-728l-56 8v268q-46 -82 -123 -82t-121 71t-44 199q0 127 46 201t124 74q74 0 123 -73zM224 36q68 0 115 92v280q-44 79 -111 79q-53 0 -85.5 -57.5t-32.5 -169.5q1 -112 31 -168t83 -56z"/>
<glyph horiz-adv-x="676" unicode="Ԝ" glyph-name="uni051C" d="M648 685l-120 -685h-75l-116 619l-116 -619h-73l-120 685h56l102 -631l118 631h67l119 -631l103 631h55z"/>
<glyph horiz-adv-x="590" unicode="ԝ" glyph-name="uni051D" d="M564 523l-103 -523h-75l-91 470l-90 -470h-74l-105 523h55l88 -477l94 477h68l92 -477l88 477h53z"/>
<glyph horiz-adv-x="476" unicode="Ԟ" glyph-name="uni051E" d="M337 474l-56 -111l176 -363h-62l-164 336h-86v-336h-57v685h57v-300h87l60 118l-96 61l22 37l94 -60l73 144h58l-87 -173l102 -65l-23 -36z"/>
<glyph horiz-adv-x="412" unicode="ԟ" glyph-name="uni051F" d="M248 281l153 -281h-59l-140 255h-62v-255h-56v523h56v-223h63l49 90l-78 48l21 34l77 -47l54 98h55l-68 -124l84 -52l-21 -34l-82 51z"/>
<glyph horiz-adv-x="791" unicode="Ԡ" glyph-name="uni0520" d="M753 1h1v-90q0 -56 -30 -86t-77 -30q-49 0 -89 34l26 36q29 -22 60 -22q52 0 52 67v345q0 130 -108 130q-86 0 -145 -86v-299h-58v635h-193l-34 -342q-12 -121 -27 -179.5t-34 -80.5t-61 -42l-14 46q25 15 36.5 33t22 68.5t21.5 157.5l38 389h303v-325q57 76 151 76 q75 0 117 -47t42 -132v-256z"/>
<glyph horiz-adv-x="688" unicode="ԡ" glyph-name="uni0521" d="M522 344q58 0 89 -42t31 -119v-274q0 -54 -29.5 -84t-76.5 -30q-51 0 -89 34l25 35q29 -22 60 -22q54 0 54 66v268q0 122 -75 122q-67 0 -129 -103l-1 4v-199h-56v475h-157l-16 -244q-9 -130 -26.5 -172.5t-77.5 -67.5l-15 45q37 16 47.5 51t17.5 149l19 287h264v-269 q60 90 141 90z"/>
<glyph horiz-adv-x="809" unicode="Ԣ" glyph-name="uni0522" d="M613 436q75 0 117 -47.5t42 -131.5v-346q0 -56 -30 -86t-77 -30q-49 0 -89 34l26 36q29 -22 60 -22q52 0 52 67v345q0 130 -108 130q-84 0 -144 -85v-300h-58v336h-259v-336h-57v685h57v-300h259v300h58v-324q58 75 151 75z"/>
<glyph horiz-adv-x="704" unicode="ԣ" glyph-name="uni0523" d="M659 183v-183h-1v-91q0 -54 -29.5 -84t-76.5 -30q-51 0 -89 34l25 35q29 -22 60 -22q54 0 54 66v93h1v175q0 122 -75 122q-66 0 -128 -101v-197h-56v247h-204v-247h-56v523h56v-228h204v228h56v-266q57 87 139 87q58 0 89 -42t31 -119z"/>
<glyph horiz-adv-x="548" unicode="Ԥ" glyph-name="uni0524" d="M459 50h58v-195h-43l-11 145h-62v634h-256v-634h-57v685h371v-635z"/>
<glyph horiz-adv-x="482" unicode="ԥ" glyph-name="uni0525" d="M398 47h57v-192h-42l-11 145h-60v475h-202v-475h-56v523h314v-476z"/>
<glyph horiz-adv-x="544" unicode="Ԧ" glyph-name="uni0526" d="M455 50h58v-195h-43l-11 145h-62v255q0 130 -108 130q-84 0 -144 -85v-300h-57v685h57v-324q58 75 151 75q75 0 117 -47.5t42 -131.5v-207z"/>
<glyph horiz-adv-x="483" unicode="ԧ" glyph-name="uni0527" d="M400 47h56v-192h-42l-11 145h-59v306q0 122 -75 122q-71 0 -129 -113v-315h-56v736l56 7v-365q56 96 140 96q58 0 89 -42t31 -119v-266z"/>
<glyph horiz-adv-x="550" unicode="Ԩ" glyph-name="uni0528" d="M404 685h58v-685h-58v336h-259v-336h1v-90q0 -56 -30 -86t-77 -30q-49 0 -89 34l26 36q29 -22 60 -22q52 0 52 67v776h57v-300h259v300z"/>
<glyph horiz-adv-x="484" unicode="ԩ" glyph-name="uni0529" d="M344 523h56v-523h-56v247h-204v-339q0 -54 -29.5 -84t-76.5 -30q-51 0 -89 34l25 35q29 -22 60 -22q54 0 54 66v616h56v-228h204v228z"/>
<glyph horiz-adv-x="750" unicode="Ԫ" glyph-name="uni052A" d="M576 363l156 -363h-62l-143 336h-50v-336h-89v-145h-43l-11 145h-280l-11 -145h-43v195h29q29 36 43.5 88t26.5 168l38 379h205v-300h78v300h57v-300h51l134 300h56zM286 50v588h-98l-32 -333q-11 -117 -28.5 -168.5t-49.5 -86.5h208zM420 50v286h-78v-286h78z"/>
<glyph horiz-adv-x="651" unicode="ԫ" glyph-name="uni052B" d="M497 281l144 -281h-61l-130 255h-25v-255h-86v-145h-42l-11 145h-227l-11 -145h-42v192h23q31 28 45.5 72.5t21.5 166.5l13 237h191v-223h70v223h55v-223h26l113 223h57zM245 47v429h-85l-10 -184q-6 -120 -22 -168.5t-51 -76.5h168zM370 47v208h-70v-208h70z"/>
<glyph horiz-adv-x="559" unicode="Ԭ" glyph-name="uni052C" d="M460 50h54v-195h-43l-11 145h-371l-11 -145h-43v195h41q23 34 37.5 61t34.5 95.5t30 158.5q-111 25 -111 157v163h56v-162q0 -88 60 -108l26 270h251v-635zM259 636l-21 -229h6h160v229h-145zM128 50h276v309h-162h-8q-10 -92 -29 -158t-35.5 -94t-41.5 -57z"/>
<glyph horiz-adv-x="516" unicode="ԭ" glyph-name="uni052D" d="M426 47h41v-192h-42l-11 145h-315l-11 -145h-42v192h31q35 35 48 59q33 58 44 167q-110 13 -110 129v121h53v-117q0 -39 13.5 -59t47.5 -26l11 202h242v-476zM234 476l-8 -148q0 -7 -1 -10h145v158h-136zM370 47v224h-148q-11 -102 -35.5 -152t-59.5 -72h243z"/>
<glyph horiz-adv-x="533" unicode="Ԯ" glyph-name="uni052E" d="M443 50h59v-195h-43l-11 145h-63v635h-193l-34 -342q-12 -121 -27 -179.5t-34 -80.5t-61 -42l-14 46q25 15 36.5 33t22 68.5t21.5 157.5l38 389h303v-635z"/>
</font>
</defs>
</svg>
