<?xml version="1.0" encoding="UTF-8" standalone="no"?>
<!DOCTYPE svg  PUBLIC '-//W3C//DTD SVG 1.1//EN'  'http://www.w3.org/Graphics/SVG/1.1/DTD/svg11.dtd'>
<svg xmlns="http://www.w3.org/2000/svg" version="1.1">
<defs>
<font id="FiraSansCondensed-Bold" horiz-adv-x="543">
<font-face units-per-em="1000" underline-thickness="50" font-family="Fira Sans Condensed" unicode-range="U+0020-052E" bbox="-111 -261 1111 991" underline-position="-150" descent="-200" font-weight="700" panose-1="2 11 8 3 5 0 0 2 0 4" x-height="531" cap-height="693" font-stretch="condensed" ascent="800"/>
<missing-glyph/>
<glyph unicode=" " glyph-name="space" horiz-adv-x="208"/>
<glyph d="M196 693l-21 -439h-121l-21 439h163zM115 160q37 0 62 -26t25 -62q0 -37 -24.5 -63t-62.5 -26t-63 26t-25 63q0 36 25 62t63 26z" unicode="!" glyph-name="exclam" horiz-adv-x="230"/>
<glyph d="M62 415l-18 278h135l-17 -278h-100zM263 415l-18 278h135l-17 -278h-100z" unicode='&quot;' glyph-name="quotedbl" horiz-adv-x="425"/>
<glyph d="M494 441h-60l-25 -194h52v-102h-66l-19 -145h-123l19 145h-88l-19 -145h-124l19 145h-47v102h61l26 194h-54v101h67l18 134h123l-18 -134h88l18 134h123l-18 -134h47v-101zM286 247l25 194h-88l-25 -194h88z" unicode="#" glyph-name="numbersign" horiz-adv-x="508"/>
<glyph d="M478 199q0 -76 -44 -129.5t-123 -72.5v-158h-109v151q-119 11 -197 94l75 83q72 -64 148 -64q44 0 68 22.5t24 62.5q0 36 -22.5 58.5t-84.5 44.5q-100 36 -141.5 83t-41.5 120q0 74 47.5 124.5t124.5 63.5v148h109v-149q87 -14 151 -80l-69 -81q-62 54 -128 54 q-37 0 -58 -18t-21 -50q0 -31 23 -50t92 -45q92 -35 134.5 -81.5t42.5 -130.5z" unicode="$" glyph-name="dollar" horiz-adv-x="498"/>
<glyph d="M558 719l93 -55l-419 -703l-92 55zM191 690q71 0 117 -48t46 -132t-46 -131.5t-117 -47.5q-70 0 -116 47.5t-46 131.5t46 132t116 48zM191 599q-55 0 -55 -89t55 -89t55 89t-55 89zM597 342q71 0 117 -48t46 -132t-45.5 -131.5t-117.5 -47.5q-70 0 -116.5 47.5 t-46.5 131.5t46.5 132t116.5 48zM597 251q-55 0 -55 -89q0 -88 55 -88q31 0 43 22t12 66t-12 66.5t-43 22.5z" unicode="%" glyph-name="percent" horiz-adv-x="788"/>
<glyph d="M286 710q93 0 146 -45t53 -117q0 -58 -30.5 -101.5t-89.5 -86.5l120 -129q24 61 40 142l124 -34q-33 -109 -83 -187l111 -106l-129 -63l-71 77q-86 -77 -201 -77q-99 0 -161 54t-62 140q0 60 29.5 104.5t94.5 90.5q-51 51 -70 87.5t-19 84.5q0 70 51.5 118t146.5 48z M288 610q-54 0 -54 -66q0 -30 10.5 -52t38.5 -55q31 29 44 52t13 56q0 65 -52 65zM262 288q-48 -42 -48 -104q0 -44 24.5 -67.5t66.5 -23.5q54 0 97 41z" unicode="&amp;" glyph-name="ampersand" horiz-adv-x="692"/>
<glyph d="M62 415l-18 278h135l-17 -278h-100z" unicode="&apos;" glyph-name="quotesingle" horiz-adv-x="224"/>
<glyph d="M189 858l99 -66q-64 -102 -91.5 -201.5t-27.5 -240.5t27.5 -240.5t91.5 -201.5l-99 -66q-56 82 -88 140t-59.5 157t-27.5 211t27.5 211t59.5 157t88 140z" unicode="(" glyph-name="parenleft" horiz-adv-x="300"/>
<glyph d="M110 858q44 -66 67.5 -107t53 -106t42.5 -137.5t13 -157.5t-13 -157.5t-42.5 -137.5t-53 -106t-67.5 -107l-98 66q63 102 91 202.5t28 239.5t-27.5 239.5t-91.5 202.5z" unicode=")" glyph-name="parenright" horiz-adv-x="300"/>
<glyph d="M407 537l-126 -24l94 -103l-107 -73l-59 124l-59 -124l-106 72l92 104l-126 23l41 118l113 -59l-20 147h129l-19 -147l112 60z" unicode="*" glyph-name="asterisk" horiz-adv-x="417"/>
<glyph d="M305 545v-154h137v-119h-137v-154h-126v154h-138v119h138v154h126z" unicode="+" glyph-name="plus" horiz-adv-x="483"/>
<glyph d="M113 161q37 0 61.5 -25t24.5 -63q0 -28 -31 -105l-58 -144h-83l39 174q-39 28 -39 75q0 38 24.5 63t61.5 25z" unicode="," glyph-name="comma" horiz-adv-x="226"/>
<glyph d="M41 253v120h293v-120h-293z" unicode="-" glyph-name="hyphen" horiz-adv-x="375"/>
<glyph d="M114 160q38 0 63 -26t25 -62q0 -37 -25 -63t-63 -26t-62.5 26t-24.5 63q0 36 25 62t62 26z" unicode="." glyph-name="period" horiz-adv-x="229"/>
<glyph d="M276 816l132 -30l-215 -897l-133 30z" unicode="/" glyph-name="slash" horiz-adv-x="468"/>
<glyph d="M273 690q114 0 174.5 -90t60.5 -263q0 -175 -60 -264.5t-175 -89.5t-175 89.5t-60 264.5t60 264t175 89zM273 576q-43 0 -60.5 -50.5t-17.5 -188.5q0 -139 17.5 -189.5t60.5 -50.5q29 0 45.5 19.5t24.5 72t8 148.5q0 95 -8 147t-24.5 72t-45.5 20z" unicode="0" glyph-name="zero" horiz-adv-x="546"/>
<glyph d="M353 675v-675h-151v525l-128 -87l-68 100l209 137h138z" unicode="1" glyph-name="one" horiz-adv-x="423"/>
<glyph d="M212 690q102 0 158.5 -54.5t56.5 -135.5q0 -80 -48 -157.5t-190 -223.5h251l-16 -119h-404v110q154 170 201.5 241.5t47.5 136.5q0 40 -19.5 61.5t-54.5 21.5q-31 0 -55 -15.5t-53 -51.5l-89 70q82 116 214 116z" unicode="2" glyph-name="two" horiz-adv-x="463"/>
<glyph d="M217 690q96 0 152 -49.5t56 -123.5q0 -123 -130 -160q69 -8 109.5 -48.5t40.5 -116.5q0 -88 -63 -148.5t-173 -60.5q-132 0 -216 102l83 77q61 -62 121 -62q41 0 66 26.5t25 74.5q0 99 -101 99h-49l17 106h33q41 0 65 23.5t24 66.5q0 38 -21 59t-58 21q-62 0 -116 -57 l-77 80q91 91 212 91z" unicode="3" glyph-name="three" horiz-adv-x="473"/>
<glyph d="M497 263v-116h-66v-147h-147l-1 147h-261v103l172 443l130 -47l-146 -383h107l17 161h129v-161h66z" unicode="4" glyph-name="four" horiz-adv-x="514"/>
<glyph d="M433 676l-17 -111h-220v-147q44 24 92 24q77 0 125.5 -57.5t48.5 -161.5q0 -108 -66.5 -174t-178.5 -66q-125 0 -207 101l85 77q52 -62 116 -62q95 0 95 123q0 114 -80 114q-35 0 -72 -23h-103v363h382z" unicode="5" glyph-name="five" horiz-adv-x="491"/>
<glyph d="M326 454q77 0 125.5 -59t48.5 -164q0 -110 -60 -179t-165 -69q-120 0 -178.5 85t-58.5 241q0 174 73.5 277.5t199.5 103.5q79 0 141 -45l-56 -90q-40 25 -80 25q-50 0 -81.5 -48t-38.5 -142q52 64 130 64zM275 94q70 0 72 135q0 67 -16 93.5t-49 26.5q-45 0 -86 -57 q2 -110 19 -154t60 -44z" unicode="6" glyph-name="six" horiz-adv-x="523"/>
<glyph d="M412 676v-105l-223 -587l-138 46l204 530h-246v116h403z" unicode="7" glyph-name="seven" horiz-adv-x="426"/>
<glyph d="M378 363q127 -66 127 -180q0 -88 -65 -144t-179 -56q-110 0 -173.5 55.5t-63.5 141.5q0 113 117 168q-93 58 -93 160q0 83 59.5 132.5t155.5 49.5q98 0 158 -46.5t60 -127.5q0 -96 -103 -153zM265 586q-70 0 -70 -80q0 -36 16 -57.5t54 -38.5l18 -9q51 42 51 107 q0 78 -69 78zM266 94q87 0 87 90q0 41 -19.5 64.5t-71.5 45.5l-29 12q-57 -41 -57 -119q0 -93 90 -93z" unicode="8" glyph-name="eight" horiz-adv-x="528"/>
<glyph d="M255 690q113 0 173 -70.5t60 -192.5q0 -202 -92.5 -305.5t-297.5 -149.5l-31 108q119 32 178.5 80.5t78.5 136.5q-52 -62 -125 -62q-74 0 -125.5 61t-51.5 161q0 108 65.5 170.5t167.5 62.5zM248 342q48 0 82 58q1 102 -15.5 141.5t-59.5 39.5q-79 0 -79 -119 q0 -120 72 -120z" unicode="9" glyph-name="nine" horiz-adv-x="517"/>
<glyph d="M114 506q38 0 63 -26t25 -62q0 -37 -25 -63t-63 -26t-62.5 26t-24.5 63q0 36 25 62t62 26zM114 160q38 0 63 -26t25 -62q0 -37 -25 -63t-63 -26t-62.5 26t-24.5 63q0 36 25 62t62 26z" unicode=":" glyph-name="colon" horiz-adv-x="229"/>
<glyph d="M114 506q38 0 63 -26t25 -62q0 -37 -25 -63t-63 -26t-62.5 26t-24.5 63q0 36 25 62t62 26zM113 161q37 0 61.5 -25t24.5 -63q0 -28 -31 -105l-58 -144h-83l39 174q-39 28 -39 75q0 38 24.5 63t61.5 25z" unicode=";" glyph-name="semicolon" horiz-adv-x="229"/>
<glyph d="M393 571l50 -105l-290 -133l290 -129l-50 -110l-366 173v132z" unicode="&lt;" glyph-name="less" horiz-adv-x="470"/>
<glyph d="M41 377v118h388v-118h-388zM41 168v118h388v-118h-388z" unicode="=" glyph-name="equal" horiz-adv-x="470"/>
<glyph d="M77 571l366 -172v-132l-366 -173l-50 110l290 129l-290 133z" unicode="&gt;" glyph-name="greater" horiz-adv-x="470"/>
<glyph d="M228 710q96 0 149 -48.5t53 -117.5q0 -43 -16.5 -75.5t-40.5 -52t-48 -37.5t-40.5 -42.5t-16.5 -56.5v-26h-139v31q0 48 14.5 82.5t35.5 53.5t42 34t35.5 34t14.5 44q0 27 -16 41.5t-44 14.5q-54 0 -104 -59l-94 74q82 106 215 106zM200 160q38 0 63 -26t25 -62 q0 -37 -25 -63t-63 -26t-62.5 26t-24.5 63q0 36 25 62t62 26z" unicode="?" glyph-name="question" horiz-adv-x="443"/>
<glyph d="M476 502q88 0 160 -45v-247q0 -64 8.5 -86.5t31.5 -22.5q70 0 70 212q0 137 -66.5 211t-202.5 74q-142 0 -220 -96.5t-78 -259.5q0 -170 76.5 -260.5t222.5 -90.5q90 0 177 34l36 -104q-100 -42 -214 -42q-201 0 -317.5 124.5t-116.5 338.5q0 205 122.5 336.5 t311.5 131.5q94 0 171.5 -32t127.5 -87t77.5 -126t27.5 -150q0 -136 -56 -223.5t-144 -87.5q-49 0 -80.5 29.5t-39.5 70.5q-39 -96 -131 -96q-82 0 -123.5 60.5t-41.5 164.5q0 126 55 197.5t156 71.5zM452 103q34 0 55 41v255q-15 7 -37 7q-35 0 -51.5 -38t-16.5 -136 q0 -73 11.5 -101t38.5 -28z" unicode="@" glyph-name="at" horiz-adv-x="924"/>
<glyph d="M389 0l-31 151h-176l-31 -151h-162l187 693h192l186 -693h-165zM206 266h128l-64 310z" unicode="A" glyph-name="A"/>
<glyph d="M392 367q147 -31 147 -165q0 -202 -279 -202h-205v693h181q277 0 277 -177q0 -60 -34 -97.5t-87 -51.5zM251 580h-36v-165h44q92 0 92 85q0 41 -24 60.5t-76 19.5zM261 116q56 0 85 21t29 73q0 98 -106 98h-54v-192h46z" unicode="B" glyph-name="B" horiz-adv-x="559"/>
<glyph d="M317 710q112 0 196 -76l-76 -89q-56 46 -110 46q-130 0 -130 -243q0 -241 131 -241q55 0 120 53l72 -88q-83 -89 -202 -89q-132 0 -210 93.5t-78 271.5q0 174 79.5 268t207.5 94z" unicode="C" glyph-name="C" horiz-adv-x="524"/>
<glyph d="M237 693q55 0 99 -7.5t88.5 -29.5t73.5 -59t47.5 -100t18.5 -147q0 -350 -314 -350h-195v693h182zM259 577h-44v-461h45q69 0 104 50.5t35 183.5q0 69 -10 115t-30 70t-43.5 33t-56.5 9z" unicode="D" glyph-name="D" horiz-adv-x="595"/>
<glyph d="M447 693l-17 -114h-215v-171h188v-112h-188v-180h230v-116h-390v693h392z" unicode="E" glyph-name="E" horiz-adv-x="474"/>
<glyph d="M55 0v693h380l-17 -114h-203v-188h178v-114h-178v-277h-160z" unicode="F" glyph-name="F" horiz-adv-x="441"/>
<glyph d="M335 710q122 0 212 -85l-78 -82q-64 51 -127 51q-146 0 -146 -247q0 -139 28.5 -192.5t92.5 -53.5q45 0 80 22v162h-77l-15 113h244v-343q-104 -72 -229 -72q-147 0 -218.5 90.5t-71.5 273.5q0 176 85 269.5t220 93.5z" unicode="G" glyph-name="G" horiz-adv-x="590"/>
<glyph d="M388 0v298h-173v-298h-160v693h160v-270h173v270h160v-693h-160z" unicode="H" glyph-name="H" horiz-adv-x="602"/>
<glyph d="M215 693v-693h-160v693h160z" unicode="I" glyph-name="I" horiz-adv-x="269"/>
<glyph d="M238 693v-588q0 -62 -16.5 -109.5t-48.5 -78t-65 -49.5t-79 -35l-42 113q57 25 74 59.5t17 105.5v582h160z" unicode="J" glyph-name="J" horiz-adv-x="290"/>
<glyph d="M215 693v-693h-160v693h160zM577 693l-194 -311l210 -382h-179l-194 370l194 323h163z" unicode="K" glyph-name="K" horiz-adv-x="581"/>
<glyph d="M215 693v-566h241l-17 -127h-384v693h160z" unicode="L" glyph-name="L" horiz-adv-x="465"/>
<glyph d="M644 693l46 -693h-153l-9 274q-7 171 -2 280l-91 -481h-150l-96 481q7 -134 2 -283l-9 -271h-152l46 693h200l87 -472l80 472h201z" unicode="M" glyph-name="M" horiz-adv-x="720"/>
<glyph d="M544 693v-693h-200l-170 544q21 -173 21 -286v-258h-140v693h198l173 -545q-22 130 -22 259v286h140z" unicode="N" glyph-name="N" horiz-adv-x="599"/>
<glyph d="M315 710q137 0 211 -92.5t74 -270.5q0 -176 -74.5 -270t-210.5 -94t-210.5 93t-74.5 271q0 175 74.5 269t210.5 94zM315 593q-61 0 -89.5 -57t-28.5 -189q0 -134 29 -190.5t89 -56.5q61 0 89.5 56.5t28.5 190.5q0 132 -28.5 189t-89.5 57z" unicode="O" glyph-name="O" horiz-adv-x="630"/>
<glyph d="M253 693q133 0 204.5 -57t71.5 -168q0 -117 -69.5 -176.5t-191.5 -59.5h-53v-232h-160v693h198zM255 348q56 0 83 27.5t27 91.5q0 57 -26.5 84.5t-83.5 27.5h-40v-231h40z" unicode="P" glyph-name="P" horiz-adv-x="544"/>
<glyph d="M449 44q112 0 192 -66l-96 -122q-49 62 -104 96t-136 34q-129 0 -202 93.5t-73 267.5t74.5 268.5t210.5 94.5t210.5 -93t74.5 -270q0 -211 -151 -303zM197 347q0 -133 29 -189.5t89 -56.5q62 0 90 56t28 190q0 133 -28.5 189.5t-89.5 56.5t-89.5 -56.5t-28.5 -189.5z" unicode="Q" glyph-name="Q" horiz-adv-x="630"/>
<glyph d="M393 0l-126 266h-52v-266h-160v693h203q270 0 270 -210q0 -133 -117 -187l157 -296h-175zM215 580v-203h49q52 0 76 25.5t24 80.5q0 50 -26 73.5t-82 23.5h-41z" unicode="R" glyph-name="R" horiz-adv-x="562"/>
<glyph d="M262 710q132 0 221 -89l-73 -84q-65 56 -133 56q-38 0 -60 -19t-22 -52q0 -32 24 -52t95 -46q96 -37 140.5 -85t44.5 -137q0 -97 -68 -158t-185 -61q-145 0 -241 98l78 87q76 -66 154 -66q46 0 71 24t25 64q0 38 -23 61t-87 46q-104 39 -148 88t-44 125q0 90 65 145 t166 55z" unicode="S" glyph-name="S" horiz-adv-x="519"/>
<glyph d="M491 693l-17 -122h-149v-571h-160v571h-158v122h484z" unicode="T" glyph-name="T" horiz-adv-x="490"/>
<glyph d="M543 693v-479q0 -102 -64.5 -166.5t-184.5 -64.5q-122 0 -185.5 63t-63.5 168v479h160v-473q0 -60 21 -88.5t68 -28.5t67.5 28.5t20.5 88.5v473h161z" unicode="U" glyph-name="U" horiz-adv-x="587"/>
<glyph d="M536 693l-169 -693h-202l-176 693h164l116 -567l107 567h160z" unicode="V" glyph-name="V" horiz-adv-x="525"/>
<glyph d="M763 693l-100 -693h-208l-70 534l-76 -534h-203l-97 693h155l59 -572l81 572h166l76 -572l68 572h149z" unicode="W" glyph-name="W" horiz-adv-x="772"/>
<glyph d="M357 374l179 -374h-171l-104 267l-100 -267h-167l173 368l-160 325h170l86 -225l92 225h166z" unicode="X" glyph-name="X" horiz-adv-x="530"/>
<glyph d="M551 693l-200 -433v-260h-160v259l-200 434h171l111 -308l113 308h165z" unicode="Y" glyph-name="Y" horiz-adv-x="542"/>
<glyph d="M467 693v-121l-273 -444h279l-16 -128h-443v120l275 449h-249v124h427z" unicode="Z" glyph-name="Z" horiz-adv-x="492"/>
<glyph d="M275 822v-114h-103v-717h103v-113h-248v944h248z" unicode="[" glyph-name="bracketleft" horiz-adv-x="295"/>
<glyph d="M192 815l216 -896l-133 -30l-215 896z" unicode="\" glyph-name="backslash" horiz-adv-x="468"/>
<glyph d="M267 822v-944h-248v114h104v716h-104v114h248z" unicode="]" glyph-name="bracketright" horiz-adv-x="295"/>
<glyph d="M325 844l170 -317h-149l-93 201l-87 -201h-152l170 317h141z" unicode="^" glyph-name="asciicircum" horiz-adv-x="510"/>
<glyph d="M9 -169v121h453v-121h-453z" unicode="_" glyph-name="underscore" horiz-adv-x="471"/>
<glyph d="M93 830l199 -131l-42 -76l-217 94z" unicode="`" glyph-name="grave" horiz-adv-x="319"/>
<glyph d="M443 147q0 -27 7 -40t24 -20l-32 -101q-91 8 -120 74q-50 -77 -143 -77q-72 0 -114.5 45.5t-42.5 120.5q0 87 58.5 133t169.5 46h42v25q0 47 -17 65.5t-60 18.5q-49 0 -125 -27l-35 99q94 39 187 39q103 0 152 -46t49 -140v-215zM225 93q44 0 67 50v99h-28q-91 0 -91 -80 q0 -69 52 -69z" unicode="a" glyph-name="a" horiz-adv-x="497"/>
<glyph d="M336 548q85 0 130.5 -72.5t45.5 -210.5q0 -128 -51.5 -205t-139.5 -77q-77 0 -125 67l-7 -50h-137v742l154 16v-279q48 69 130 69zM276 95q77 0 77 170q0 99 -18 134.5t-52 35.5q-44 0 -77 -60v-230q28 -50 70 -50z" unicode="b" glyph-name="b"/>
<glyph d="M270 548q95 0 165 -65l-64 -88q-44 35 -89 35q-46 0 -69 -38t-23 -130q0 -88 23.5 -123t67.5 -35q39 0 87 33l67 -91q-69 -63 -163 -63q-114 0 -178.5 73t-64.5 205q0 131 65 209t176 78z" unicode="c" glyph-name="c" horiz-adv-x="436"/>
<glyph d="M338 758l154 -16v-742h-136l-7 59q-51 -76 -135 -76q-89 0 -136 74.5t-47 208.5q0 127 54 204.5t142 77.5q67 0 111 -49v259zM263 96q43 0 75 55v241q-32 43 -68 43q-80 0 -80 -169q0 -95 19 -132.5t54 -37.5z" unicode="d" glyph-name="d" horiz-adv-x="545"/>
<glyph d="M483 276q0 -32 -3 -56h-296q6 -70 31 -97t71 -27q54 0 116 45l63 -85q-82 -73 -191 -73q-120 0 -182.5 74.5t-62.5 205.5q0 128 60 206.5t169 78.5q105 0 165 -70.5t60 -201.5zM332 313v7q0 63 -16.5 94.5t-55.5 31.5q-35 0 -54 -29.5t-23 -103.5h149z" unicode="e" glyph-name="e" horiz-adv-x="507"/>
<glyph d="M283 645q-30 0 -43 -14.5t-13 -47.5v-52h109l-17 -107h-92v-424h-154v424h-70v107h70v51q0 79 48.5 127.5t139.5 48.5q74 0 135 -32l-41 -99q-36 18 -72 18z" unicode="f" glyph-name="f" horiz-adv-x="329"/>
<glyph d="M464 612l36 -112q-46 -20 -137 -20q48 -22 70.5 -54.5t22.5 -83.5q0 -79 -55.5 -128t-150.5 -49q-30 0 -54 6q-17 -11 -17 -32q0 -34 54 -34h65q88 0 140 -42.5t52 -109.5q0 -81 -66 -127.5t-189 -46.5q-132 0 -183 43t-51 127h138q0 -37 20 -53t78 -16q99 0 99 62 q0 56 -71 56h-57q-80 0 -118 28.5t-38 75.5q0 58 59 100q-87 51 -87 152q0 90 59.5 142t159.5 51q49 -1 92.5 9.5t67.5 22t61 33.5zM243 446q-67 0 -67 -90q0 -92 67 -92t67 94q0 88 -67 88z" unicode="g" glyph-name="g" horiz-adv-x="497"/>
<glyph d="M342 548q62 0 97.5 -41.5t35.5 -113.5v-393h-154v372q0 60 -38 60q-37 0 -77 -65v-367h-154v742l154 16v-285q56 75 136 75z" unicode="h" glyph-name="h" horiz-adv-x="524"/>
<glyph d="M128 808q39 0 64.5 -25t25.5 -62q0 -38 -25.5 -63t-64.5 -25t-64 25t-25 63q0 37 25 62t64 25zM206 531v-531h-154v531h154z" unicode="i" glyph-name="i" horiz-adv-x="259"/>
<glyph d="M128 808q39 0 64.5 -25t25.5 -62q0 -38 -25.5 -63t-64.5 -25t-64 25t-25 63q0 37 25 62t64 25zM206 531v-483q0 -111 -51 -170.5t-150 -98.5l-51 112q52 28 75 58t23 93v489h154z" unicode="j" glyph-name="j" horiz-adv-x="259"/>
<glyph d="M206 758v-758h-154v742zM506 531l-142 -233l153 -298h-168l-138 290l144 241h151z" unicode="k" glyph-name="k" horiz-adv-x="509"/>
<glyph d="M187 -17q-66 0 -103 38t-37 106v615l154 16v-624q0 -29 24 -29q10 0 22 4l29 -107q-40 -19 -89 -19z" unicode="l" glyph-name="l" horiz-adv-x="273"/>
<glyph d="M589 548q57 0 91.5 -42t34.5 -113v-393h-152v373q0 60 -36 60q-35 0 -67 -63v-370h-152v373q0 60 -35 60q-37 0 -68 -63v-370h-153v531h135l10 -63q55 80 138 80q82 0 112 -84q58 84 142 84z" unicode="m" glyph-name="m" horiz-adv-x="763"/>
<glyph d="M342 548q62 0 97.5 -41.5t35.5 -113.5v-393h-154v372q0 60 -38 60q-37 0 -77 -65v-367h-154v531h135l11 -63q58 80 144 80z" unicode="n" glyph-name="n" horiz-adv-x="524"/>
<glyph d="M267 548q112 0 175.5 -72.5t63.5 -210.5q0 -132 -64 -207t-175 -75q-112 0 -175 73t-63 210q0 133 63.5 207.5t174.5 74.5zM267 434q-41 0 -60 -39t-19 -129q0 -92 19 -131t60 -39t60.5 39.5t19.5 129.5q0 92 -19 130.5t-61 38.5z" unicode="o" glyph-name="o" horiz-adv-x="534"/>
<glyph d="M335 548q88 0 132.5 -73t44.5 -208q0 -128 -52 -206t-139 -78q-69 0 -115 55v-243l-154 -16v752h137l7 -58q54 75 139 75zM275 97q78 0 78 168q0 97 -17.5 133.5t-51.5 36.5q-45 0 -78 -59v-235q29 -44 69 -44z" unicode="p" glyph-name="p"/>
<glyph d="M358 531h134v-752l-154 16v252q-47 -64 -124 -64q-89 0 -136 74.5t-47 208.5q0 128 54 205t143 77q72 0 123 -62zM263 96q42 0 75 56v239q-31 44 -68 44q-80 0 -80 -169q0 -97 19 -133.5t54 -36.5z" unicode="q" glyph-name="q" horiz-adv-x="545"/>
<glyph d="M324 546q26 0 46 -8l-25 -148q-21 6 -42 6q-41 0 -63 -31.5t-34 -93.5v-271h-154v531h135l12 -93q38 108 125 108z" unicode="r" glyph-name="r" horiz-adv-x="366"/>
<glyph d="M225 548q107 0 180 -65l-56 -84q-60 39 -113 39q-58 0 -58 -43q0 -22 19 -36.5t80 -35.5q74 -25 109.5 -63t35.5 -103q0 -80 -61 -127t-156 -47q-123 0 -203 78l73 82q62 -50 124 -50q31 0 48.5 13.5t17.5 37.5q0 28 -18.5 43t-80.5 37q-73 25 -106.5 63.5t-33.5 97.5 q0 71 53.5 117t145.5 46z" unicode="s" glyph-name="s" horiz-adv-x="438"/>
<glyph d="M311 120l51 -95q-56 -42 -134 -42q-81 0 -122 46t-41 129v266h-64v107h64v115l154 18v-133h109l-16 -107h-93v-264q0 -55 42 -55q23 0 50 15z" unicode="t" glyph-name="t" horiz-adv-x="352"/>
<glyph d="M466 531v-531h-134l-7 64q-52 -81 -141 -81q-65 0 -100.5 43t-35.5 116v389h154v-377q0 -57 40 -57q39 0 70 58v376h154z" unicode="u" glyph-name="u" horiz-adv-x="519"/>
<glyph d="M476 531l-148 -531h-182l-151 531h161l82 -414l85 414h153z" unicode="v" glyph-name="v" horiz-adv-x="470"/>
<glyph d="M682 531l-97 -531h-182l-59 393l-59 -393h-180l-100 531h151l48 -415l70 415h147l63 -415l53 415h145z" unicode="w" glyph-name="w" horiz-adv-x="687"/>
<glyph d="M326 284l153 -284h-167l-82 201l-78 -201h-162l152 279l-138 252h165l65 -172l62 172h159z" unicode="x" glyph-name="x" horiz-adv-x="469"/>
<glyph d="M481 531l-151 -532q-57 -207 -278 -221l-17 107q69 10 103 35.5t54 79.5h-55l-142 531h158l82 -433l91 433h155z" unicode="y" glyph-name="y" horiz-adv-x="476"/>
<glyph d="M400 531v-109l-217 -305h222l-14 -117h-380v109l217 306h-199v116h371z" unicode="z" glyph-name="z" horiz-adv-x="418"/>
<glyph d="M274 840v-108q-39 0 -53 -12.5t-14 -46.5v-190q0 -63 -23 -91.5t-74 -42.5q50 -11 74 -40.5t24 -91.5v-190q0 -34 14 -46.5t52 -12.5v-108q-121 0 -164.5 39t-43.5 125v187q0 42 -12 58.5t-46 16.5v127q34 0 46 17t12 59v187q0 86 43.5 125t164.5 39z" unicode="{" glyph-name="braceleft" horiz-adv-x="293"/>
<glyph d="M239 810v-915h-144v915h144z" unicode="|" glyph-name="bar" horiz-adv-x="333"/>
<glyph d="M19 840q121 0 164.5 -39t43.5 -125v-187q0 -42 12 -59t45 -17v-127q-34 0 -45.5 -16.5t-11.5 -58.5v-187q0 -86 -43.5 -125t-164.5 -39v108q38 0 51.5 12.5t13.5 46.5v190q0 62 24 91t75 41q-52 14 -75 42.5t-23 91.5v190q0 34 -14 46.5t-52 12.5v108z" unicode="}" glyph-name="braceright" horiz-adv-x="293"/>
<glyph d="M313 235q-34 0 -63.5 14.5t-52 29.5t-40.5 15q-14 0 -27 -8.5t-19.5 -17t-17.5 -25.5l-78 40q58 123 148 123q42 0 88.5 -29t65.5 -29q14 0 26.5 7.5t19 16t17.5 24.5l79 -40q-58 -121 -146 -121z" unicode="~" glyph-name="asciitilde" horiz-adv-x="474"/>
<glyph unicode=" " glyph-name="uni00A0" horiz-adv-x="208"/>
<glyph d="M115 508q37 0 62 -26t25 -62q0 -37 -24.5 -63t-62.5 -26t-63 26t-25 63q0 36 25 62t63 26zM176 237l21 -447h-163l20 447h122z" unicode="¡" glyph-name="exclamdown" horiz-adv-x="230"/>
<glyph d="M368 137l67 -91q-56 -49 -121 -60v-147h-109v151q-84 20 -130 90t-46 181t47 184.5t130 94.5v151h108v-146q67 -11 121 -62l-64 -88q-44 35 -89 35q-46 0 -69 -38t-23 -130q0 -88 23.5 -123t67.5 -35q39 0 87 33z" unicode="¢" glyph-name="cent" horiz-adv-x="436"/>
<glyph d="M249 240q0 -46 -13 -73.5t-51 -49.5h279l-17 -117h-424v111q49 16 62 41t13 79v80h-62v81h62v96q0 90 51 146t146 56q118 0 187 -99l-92 -66q-35 49 -79 49q-62 0 -62 -85v-97h162v-81h-162v-71z" unicode="£" glyph-name="sterling" horiz-adv-x="491"/>
<glyph d="M496 142l-71 -64l-68 76q-46 -29 -105 -29q-58 0 -105 30l-70 -77l-68 64l73 81q-29 50 -29 119q0 67 29 117l-73 83l71 63l67 -76q46 29 105 29t106 -30l69 77l68 -63l-72 -81q29 -55 29 -119q0 -69 -29 -119zM252 228q83 0 83 114t-83 114q-82 0 -82 -114t82 -114z" unicode="¤" glyph-name="currency" horiz-adv-x="504"/>
<glyph d="M526 676l-159 -324h88v-81h-119v-73h119v-81h-119v-117h-153v117h-118v81h118v73h-118v81h86l-160 324h158l112 -283l111 283h154z" unicode="¥" glyph-name="yen" horiz-adv-x="517"/>
<glyph d="M239 810v-367h-144v367h144zM239 262v-367h-144v367h144z" unicode="¦" glyph-name="brokenbar" horiz-adv-x="333"/>
<glyph d="M381 181q52 -38 52 -103q0 -72 -56 -116.5t-148 -44.5q-101 0 -177 54l50 89q58 -36 118 -36q69 0 69 46q0 26 -19.5 41t-88.5 39q-71 24 -104 56.5t-33 90.5q0 78 75 124q-52 41 -52 108q0 70 54 115t145 45q100 0 177 -56l-51 -86q-55 35 -115 35q-66 0 -66 -47 q0 -26 19 -40.5t87 -38.5q68 -25 102.5 -58.5t34.5 -89.5q0 -78 -73 -127zM246 247q45 -18 55 -23q22 32 22 60q0 27 -18.5 44.5t-70.5 35.5q-24 8 -40 16q-19 -28 -19 -57q0 -28 14.5 -43.5t56.5 -32.5z" unicode="§" glyph-name="section" horiz-adv-x="498"/>
<glyph d="M109 797q33 0 55 -22t22 -55t-22 -55.5t-55 -22.5q-32 0 -54.5 22.5t-22.5 55.5q0 32 22.5 54.5t54.5 22.5zM321 797q33 0 55.5 -22.5t22.5 -54.5q0 -33 -22 -55.5t-56 -22.5q-32 0 -54.5 22.5t-22.5 55.5q0 32 22.5 54.5t54.5 22.5z" unicode="¨" glyph-name="dieresis" horiz-adv-x="427"/>
<glyph d="M365 765q131 0 219.5 -92.5t88.5 -240.5q0 -147 -88.5 -239t-219.5 -92t-220 92t-89 239t89 240t220 93zM365 687q-97 0 -159 -69.5t-62 -185.5q0 -115 62 -184t159 -69q96 0 158 69t62 184q0 116 -62 185.5t-158 69.5zM369 629q67 0 118 -49l-45 -59q-32 24 -63 24 q-65 0 -65 -112q0 -110 66 -110q33 0 68 27l43 -61q-53 -53 -123 -53q-75 0 -118 51t-43 146q0 91 44.5 143.5t117.5 52.5z" unicode="©" glyph-name="copyright" horiz-adv-x="729"/>
<glyph d="M223 528h30v14q0 30 -12 41.5t-44 11.5q-39 0 -100 -21l-31 89q72 30 154 30q167 0 167 -140v-155q0 -33 23 -41l-28 -90q-73 6 -102 54q-38 -56 -112 -56q-58 0 -93.5 35t-35.5 91q0 67 47.5 102t136.5 35zM209 361q27 0 44 26v68h-18q-33 0 -47 -12.5t-14 -39.5 q0 -42 35 -42zM43 119h376v-118h-376v118z" unicode="ª" glyph-name="ordfeminine" horiz-adv-x="454"/>
<glyph d="M206 555l96 -63l-118 -207l118 -208l-96 -63l-172 221v98zM459 555l96 -63l-118 -207l118 -208l-96 -63l-172 221v98z" unicode="«" glyph-name="guillemotleft" horiz-adv-x="589"/>
<glyph d="M443 387v-272h-126v154h-276v118h402z" unicode="¬" glyph-name="logicalnot" horiz-adv-x="484"/>
<glyph d="M41 253v120h293v-120h-293z" unicode="­" glyph-name="uni00AD" horiz-adv-x="375"/>
<glyph d="M287 758q109 0 179.5 -76t70.5 -197q0 -120 -70.5 -196t-179.5 -76t-180 76t-71 196q0 121 71 197t180 76zM287 279q79 0 127.5 55.5t48.5 150.5q0 96 -48.5 152t-127.5 56t-128.5 -56.5t-49.5 -151.5t49.5 -150.5t128.5 -55.5zM390 545q0 -49 -51 -75l66 -118h-76 l-51 103h-20v-103h-67v282h77q122 0 122 -89zM258 581v-69h26q37 0 37 36q0 33 -38 33h-25z" unicode="®" glyph-name="registered" horiz-adv-x="573"/>
<glyph d="M313 657h-280v105h280v-105z" unicode="¯" glyph-name="macron" horiz-adv-x="340"/>
<glyph d="M196 370q-66 0 -114.5 46t-48.5 125t48 124t115 45t115 -45.5t48 -123.5q0 -79 -48.5 -125t-114.5 -46zM196 460q59 0 59 81q0 80 -59 80q-60 0 -60 -80q0 -81 60 -81z" unicode="°" glyph-name="degree" horiz-adv-x="468"/>
<glyph d="M305 618v-154h137v-119h-137v-154h-126v154h-138v119h138v154h126zM48 0v118h388v-118h-388z" unicode="±" glyph-name="plusminus" horiz-adv-x="484"/>
<glyph d="M177 751q68 0 106.5 -36t38.5 -89q0 -47 -30 -91.5t-123 -126.5h162l-12 -87h-273v81q100 101 130 141t30 75q0 47 -43 47q-36 0 -70 -40l-63 50q56 76 147 76z" unicode="²" glyph-name="uni00B2" horiz-adv-x="365"/>
<glyph d="M179 752q66 0 103.5 -31.5t37.5 -79.5q0 -75 -89 -98q48 -3 75.5 -28.5t27.5 -73.5q0 -56 -42 -94t-119 -38q-93 0 -147 67l60 57q37 -37 77 -37q25 0 40 13.5t15 39.5q0 53 -63 53h-31l13 77h21q53 0 53 46q0 43 -47 43q-40 0 -76 -34l-55 58q62 60 146 60z" unicode="³" glyph-name="uni00B3" horiz-adv-x="365"/>
<glyph d="M232 830l60 -113l-217 -94l-42 76z" unicode="´" glyph-name="acute" horiz-adv-x="319"/>
<glyph d="M490 0l-141 -17q-13 34 -20 83q-41 -74 -96 -74q-46 0 -75 43q20 -37 29.5 -68.5t9.5 -81.5v-90l-145 -15v751h154v-372q0 -55 40 -55q41 0 69 62v365h154v-349q0 -102 21 -182z" unicode="µ" glyph-name="uni00B5" horiz-adv-x="527"/>
<glyph d="M298 693h322v-898l-134 -17v808h-80v-791l-134 -17v486q-105 3 -161.5 61.5t-56.5 153.5q0 101 63.5 157.5t180.5 56.5z" unicode="¶" glyph-name="paragraph" horiz-adv-x="719"/>
<glyph d="M114 396q38 0 63 -26t25 -62q0 -37 -25 -63t-63 -26t-62.5 26t-24.5 63q0 36 25 62t62 26z" unicode="·" glyph-name="periodcentered" horiz-adv-x="229"/>
<glyph d="M181 16v-67q95 -12 95 -96q0 -51 -37 -82.5t-101 -31.5q-61 0 -105 30l35 69q28 -15 58 -15q41 0 41 31q0 35 -84 35l15 127h83z" unicode="¸" glyph-name="cedilla" horiz-adv-x="303"/>
<glyph d="M274 742v-421h-111v313l-82 -54l-50 73l141 89h102z" unicode="¹" glyph-name="uni00B9" horiz-adv-x="365"/>
<glyph d="M228 693q92 0 144 -54.5t52 -159.5q0 -101 -52 -157.5t-143 -56.5q-92 0 -144.5 54.5t-52.5 160.5q0 101 52.5 157t143.5 56zM228 594q-29 0 -42.5 -25.5t-13.5 -88.5q0 -66 13 -91t43 -25t43.5 25.5t13.5 89.5q0 65 -13.5 90t-43.5 25zM34 0v118h388v-118h-388z" unicode="º" glyph-name="ordmasculine" horiz-adv-x="456"/>
<glyph d="M129 555l173 -222v-98l-173 -221l-95 63l118 208l-118 207zM381 555l173 -222v-98l-173 -221l-95 63l118 208l-118 207z" unicode="»" glyph-name="guillemotright" horiz-adv-x="587"/>
<glyph d="M584 758l90 -41l-370 -802l-89 41zM274 272h-111v313l-82 -54l-50 73l141 89h102v-421zM866 168v-83h-42v-85h-104l-1 85h-175v76l108 270l95 -35l-89 -228h63l22 97h81v-97h42z" unicode="¼" glyph-name="onequarter" horiz-adv-x="888"/>
<glyph d="M584 758l90 -41l-370 -802l-89 41zM274 693v-421h-111v313l-82 -54l-50 73l141 89h102zM700 430q68 0 106.5 -36t38.5 -89q0 -47 -30 -91.5t-123 -126.5h162l-12 -87h-273v81q100 101 130 141t30 75q0 47 -43 47q-36 0 -70 -40l-63 50q56 76 147 76z" unicode="½" glyph-name="onehalf" horiz-adv-x="888"/>
<glyph d="M584 758l90 -41l-370 -802l-89 41zM334 392q0 -56 -42 -94t-119 -38q-93 0 -147 67l60 57q37 -37 77 -37q25 0 40 13.5t15 39.5q0 53 -63 53h-31l13 77h21q53 0 53 46q0 43 -47 43q-40 0 -76 -34l-55 58q62 60 146 60q66 0 103.5 -31.5t37.5 -79.5q0 -75 -89 -98 q48 -3 75.5 -28.5t27.5 -73.5zM866 168v-83h-42v-85h-104l-1 85h-175v76l108 270l95 -35l-89 -228h63l22 97h81v-97h42z" unicode="¾" glyph-name="threequarters" horiz-adv-x="888"/>
<glyph d="M243 331q-38 0 -63 26t-25 62q0 37 25 63t63 26t62.5 -26t24.5 -63q0 -36 -25 -62t-62 -26zM215 -223q-96 0 -149 48.5t-53 118.5q0 37 12 66.5t30 47t39 35t39 31.5t30 36t12 49v27h139v-32q0 -47 -14.5 -81.5t-35.5 -53.5t-42 -34.5t-35.5 -35t-14.5 -44.5 q0 -56 60 -56q55 0 104 58l94 -73q-83 -107 -215 -107z" unicode="¿" glyph-name="questiondown" horiz-adv-x="443"/>
<glyph d="M399 827l-39 -76l-219 85l58 113zM389 0l-31 151h-176l-31 -151h-162l187 693h192l186 -693h-165zM206 266h128l-64 310z" unicode="À" glyph-name="Agrave"/>
<glyph d="M401 837l-219 -86l-39 77l200 122zM389 0l-31 151h-176l-31 -151h-162l187 693h192l186 -693h-165zM206 266h128l-64 310z" unicode="Á" glyph-name="Aacute"/>
<glyph d="M272 841l-121 -83l-54 58l129 131h92l128 -131l-53 -58zM389 0l-31 151h-176l-31 -151h-162l187 693h192l186 -693h-165zM206 266h128l-64 310z" unicode="Â" glyph-name="Acircumflex"/>
<glyph d="M221 807q-15 0 -25 -9.5t-23 -32.5l-74 35q18 51 49 82.5t70 31.5q30 0 62 -21t44 -21q24 0 47 41l74 -35q-18 -52 -49 -82.5t-70 -30.5q-29 0 -61 21t-44 21zM389 0l-31 151h-176l-31 -151h-162l187 693h192l186 -693h-165zM206 266h128l-64 310z" unicode="Ã" glyph-name="Atilde"/>
<glyph d="M167 768q-32 0 -54.5 22.5t-22.5 55.5q0 32 22.5 54.5t54.5 22.5q33 0 55 -22t22 -55t-22 -55.5t-55 -22.5zM379 768q-32 0 -54.5 22.5t-22.5 55.5q0 32 22.5 54.5t54.5 22.5q33 0 55.5 -22.5t22.5 -54.5q0 -33 -22 -55.5t-56 -22.5zM389 0l-31 151h-176l-31 -151h-162 l187 693h192l186 -693h-165zM206 266h128l-64 310z" unicode="Ä" glyph-name="Adieresis"/>
<glyph d="M273 732q-59 0 -94.5 37t-35.5 93t35.5 92.5t94.5 36.5t94 -36.5t35 -92.5t-35 -93t-94 -37zM273 913q-40 0 -40 -51q0 -52 40 -52q39 0 39 52q0 51 -39 51zM389 0l-31 151h-176l-31 -151h-162l187 693h192l186 -693h-165zM206 266h128l-64 310z" unicode="Å" glyph-name="Aring"/>
<glyph d="M533 116h209v-116h-343l-21 151h-185l-44 -151h-171l245 693h486l-17 -114h-237l29 -172h216v-113h-197zM227 267h134l-44 309z" unicode="Æ" glyph-name="AE" horiz-adv-x="766"/>
<glyph d="M520 72q-69 -75 -169 -87v-36q95 -12 95 -96q0 -51 -37 -82.5t-101 -31.5q-61 0 -105 30l35 69q28 -15 58 -15q41 0 41 31q0 35 -84 35l12 98q-110 19 -172.5 110.5t-62.5 250.5q0 174 79.5 268t207.5 94q112 0 196 -76l-76 -89q-56 46 -110 46q-130 0 -130 -243 q0 -241 131 -241q55 0 120 53z" unicode="Ç" glyph-name="Ccedilla" horiz-adv-x="524"/>
<glyph d="M179 949l200 -122l-39 -76l-219 85zM447 693l-17 -114h-215v-171h188v-112h-188v-180h230v-116h-390v693h392z" unicode="È" glyph-name="Egrave" horiz-adv-x="474"/>
<glyph d="M323 950l58 -113l-219 -86l-39 77zM447 693l-17 -114h-215v-171h188v-112h-188v-180h230v-116h-390v693h392z" unicode="É" glyph-name="Eacute" horiz-adv-x="474"/>
<glyph d="M131 758l-54 58l129 131h92l128 -131l-53 -58l-121 83zM447 693l-17 -114h-215v-171h188v-112h-188v-180h230v-116h-390v693h392z" unicode="Ê" glyph-name="Ecircumflex" horiz-adv-x="474"/>
<glyph d="M147 923q33 0 55 -22t22 -55t-22 -55.5t-55 -22.5q-32 0 -54.5 22.5t-22.5 55.5q0 32 22.5 54.5t54.5 22.5zM359 923q33 0 55.5 -22.5t22.5 -54.5q0 -33 -22 -55.5t-56 -22.5q-32 0 -54.5 22.5t-22.5 55.5q0 32 22.5 54.5t54.5 22.5zM447 693l-17 -114h-215v-171h188 v-112h-188v-180h230v-116h-390v693h392z" unicode="Ë" glyph-name="Edieresis" horiz-adv-x="474"/>
<glyph d="M61 949l200 -122l-39 -76l-219 85zM215 693v-693h-160v693h160z" unicode="Ì" glyph-name="Igrave" horiz-adv-x="269"/>
<glyph d="M205 950l58 -113l-219 -86l-39 77zM215 693v-693h-160v693h160z" unicode="Í" glyph-name="Iacute" horiz-adv-x="269"/>
<glyph d="M13 758l-54 58l129 131h92l128 -131l-53 -58l-121 83zM215 693v-693h-160v693h160z" unicode="Î" glyph-name="Icircumflex" horiz-adv-x="269"/>
<glyph d="M29 923q33 0 55 -22t22 -55t-22 -55.5t-55 -22.5q-32 0 -54.5 22.5t-22.5 55.5q0 32 22.5 54.5t54.5 22.5zM241 923q33 0 55.5 -22.5t22.5 -54.5q0 -33 -22 -55.5t-56 -22.5q-32 0 -54.5 22.5t-22.5 55.5q0 32 22.5 54.5t54.5 22.5zM215 693v-693h-160v693h160z" unicode="Ï" glyph-name="Idieresis" horiz-adv-x="269"/>
<glyph d="M253 693q55 0 99 -7.5t88.5 -29.5t73.5 -59t47.5 -100t18.5 -147q0 -350 -314 -350h-195v305h-57v96h57v292h182zM276 116q69 0 104 50.5t35 183.5q0 69 -10 115t-30 70t-43.5 33t-56.5 9h-44v-176h106v-96h-106v-189h45z" unicode="Ð" glyph-name="Eth" horiz-adv-x="611"/>
<glyph d="M356 765q-29 0 -61 21t-44 21q-15 0 -25 -9.5t-23 -32.5l-74 35q18 51 49 82.5t70 31.5q30 0 62 -21t44 -21q24 0 47 41l74 -35q-18 -52 -49 -82.5t-70 -30.5zM544 693v-693h-200l-170 544q21 -173 21 -286v-258h-140v693h198l173 -545q-22 130 -22 259v286h140z" unicode="Ñ" glyph-name="Ntilde" horiz-adv-x="599"/>
<glyph d="M242 949l200 -122l-39 -76l-219 85zM315 710q137 0 211 -92.5t74 -270.5q0 -176 -74.5 -270t-210.5 -94t-210.5 93t-74.5 271q0 175 74.5 269t210.5 94zM315 593q-61 0 -89.5 -57t-28.5 -189q0 -134 29 -190.5t89 -56.5q61 0 89.5 56.5t28.5 190.5q0 132 -28.5 189 t-89.5 57z" unicode="Ò" glyph-name="Ograve" horiz-adv-x="630"/>
<glyph d="M386 950l58 -113l-219 -86l-39 77zM315 710q137 0 211 -92.5t74 -270.5q0 -176 -74.5 -270t-210.5 -94t-210.5 93t-74.5 271q0 175 74.5 269t210.5 94zM315 593q-61 0 -89.5 -57t-28.5 -189q0 -134 29 -190.5t89 -56.5q61 0 89.5 56.5t28.5 190.5q0 132 -28.5 189 t-89.5 57z" unicode="Ó" glyph-name="Oacute" horiz-adv-x="630"/>
<glyph d="M194 758l-54 58l129 131h92l128 -131l-53 -58l-121 83zM315 710q137 0 211 -92.5t74 -270.5q0 -176 -74.5 -270t-210.5 -94t-210.5 93t-74.5 271q0 175 74.5 269t210.5 94zM315 593q-61 0 -89.5 -57t-28.5 -189q0 -134 29 -190.5t89 -56.5q61 0 89.5 56.5t28.5 190.5 q0 132 -28.5 189t-89.5 57z" unicode="Ô" glyph-name="Ocircumflex" horiz-adv-x="630"/>
<glyph d="M369 765q-29 0 -61 21t-44 21q-15 0 -25 -9.5t-23 -32.5l-74 35q18 51 49 82.5t70 31.5q30 0 62 -21t44 -21q24 0 47 41l74 -35q-18 -52 -49 -82.5t-70 -30.5zM315 710q137 0 211 -92.5t74 -270.5q0 -176 -74.5 -270t-210.5 -94t-210.5 93t-74.5 271q0 175 74.5 269 t210.5 94zM315 593q-61 0 -89.5 -57t-28.5 -189q0 -134 29 -190.5t89 -56.5q61 0 89.5 56.5t28.5 190.5q0 132 -28.5 189t-89.5 57z" unicode="Õ" glyph-name="Otilde" horiz-adv-x="630"/>
<glyph d="M210 923q33 0 55 -22t22 -55t-22 -55.5t-55 -22.5q-32 0 -54.5 22.5t-22.5 55.5q0 32 22.5 54.5t54.5 22.5zM422 923q34 0 56 -22.5t22 -54.5q0 -33 -22 -55.5t-56 -22.5q-32 0 -54.5 22.5t-22.5 55.5q0 32 22.5 54.5t54.5 22.5zM315 710q137 0 211 -92.5t74 -270.5 q0 -176 -74.5 -270t-210.5 -94t-210.5 93t-74.5 271q0 175 74.5 269t210.5 94zM315 593q-61 0 -89.5 -57t-28.5 -189q0 -134 29 -190.5t89 -56.5q61 0 89.5 56.5t28.5 190.5q0 132 -28.5 189t-89.5 57z" unicode="Ö" glyph-name="Odieresis" horiz-adv-x="630"/>
<glyph d="M340 509l88 -78l-110 -123l110 -126l-88 -78l-104 124l-106 -124l-88 78l110 123l-110 126l88 78l104 -124z" unicode="×" glyph-name="multiply" horiz-adv-x="470"/>
<glyph d="M469 669q131 -84 131 -322q0 -175 -74.5 -269.5t-210.5 -94.5q-15 0 -39 2l-33 -119l-118 32l36 126q-131 86 -131 323q0 175 74.5 269t210.5 94q15 0 39 -2l33 119l119 -32zM315 594q-64 0 -93.5 -56.5t-29.5 -190.5q0 -148 32 -204l115 449q-14 2 -24 2zM315 99 q65 0 93.5 56t29.5 192q0 145 -32 200l-115 -447q8 -1 24 -1z" unicode="Ø" glyph-name="Oslash" horiz-adv-x="630"/>
<glyph d="M221 949l200 -122l-39 -76l-219 85zM543 693v-479q0 -102 -64.5 -166.5t-184.5 -64.5q-122 0 -185.5 63t-63.5 168v479h160v-473q0 -60 21 -88.5t68 -28.5t67.5 28.5t20.5 88.5v473h161z" unicode="Ù" glyph-name="Ugrave" horiz-adv-x="587"/>
<glyph d="M365 950l58 -113l-219 -86l-39 77zM543 693v-479q0 -102 -64.5 -166.5t-184.5 -64.5q-122 0 -185.5 63t-63.5 168v479h160v-473q0 -60 21 -88.5t68 -28.5t67.5 28.5t20.5 88.5v473h161z" unicode="Ú" glyph-name="Uacute" horiz-adv-x="587"/>
<glyph d="M173 758l-54 58l129 131h92l128 -131l-53 -58l-121 83zM543 693v-479q0 -102 -64.5 -166.5t-184.5 -64.5q-122 0 -185.5 63t-63.5 168v479h160v-473q0 -60 21 -88.5t68 -28.5t67.5 28.5t20.5 88.5v473h161z" unicode="Û" glyph-name="Ucircumflex" horiz-adv-x="587"/>
<glyph d="M189 923q33 0 55 -22t22 -55t-22 -55.5t-55 -22.5q-32 0 -54.5 22.5t-22.5 55.5q0 32 22.5 54.5t54.5 22.5zM401 923q33 0 55.5 -22.5t22.5 -54.5q0 -33 -22 -55.5t-56 -22.5q-32 0 -54.5 22.5t-22.5 55.5q0 32 22.5 54.5t54.5 22.5zM543 693v-479q0 -102 -64.5 -166.5 t-184.5 -64.5q-122 0 -185.5 63t-63.5 168v479h160v-473q0 -60 21 -88.5t68 -28.5t67.5 28.5t20.5 88.5v473h161z" unicode="Ü" glyph-name="Udieresis" horiz-adv-x="587"/>
<glyph d="M342 950l58 -113l-219 -86l-39 77zM551 693l-200 -433v-260h-160v259l-200 434h171l111 -308l113 308h165z" unicode="Ý" glyph-name="Yacute" horiz-adv-x="542"/>
<glyph d="M261 584q128 0 198 -57.5t70 -170.5q0 -121 -68.5 -181t-187.5 -60h-58v-115h-160v693h160v-109h46zM259 230q54 0 80.5 29t26.5 97q0 60 -27 87t-82 27h-42v-240h44z" unicode="Þ" glyph-name="Thorn" horiz-adv-x="544"/>
<glyph d="M271 758q90 0 140.5 -42.5t50.5 -105.5q0 -32 -13 -59t-28.5 -42.5t-28.5 -36.5t-13 -41t16.5 -39.5t39.5 -38.5t46.5 -42t40 -60.5t16.5 -84.5q0 -84 -52 -133.5t-132 -49.5q-61 0 -110 26l46 102q20 -9 40 -9q51 0 51 66q0 29 -14 53.5t-33.5 42.5t-39 37t-33.5 45.5 t-14 59.5q0 40 18 69t36 56t18 60q0 29 -14 44t-38 15q-61 0 -61 -96v-554h-154v547q0 97 57.5 154t161.5 57z" unicode="ß" glyph-name="germandbls" horiz-adv-x="552"/>
<glyph d="M384 699l-42 -76l-217 94l60 113zM443 147q0 -27 7 -40t24 -20l-32 -101q-91 8 -120 74q-50 -77 -143 -77q-72 0 -114.5 45.5t-42.5 120.5q0 87 58.5 133t169.5 46h42v25q0 47 -17 65.5t-60 18.5q-49 0 -125 -27l-35 99q94 39 187 39q103 0 152 -46t49 -140v-215zM225 93 q44 0 67 50v99h-28q-91 0 -91 -80q0 -69 52 -69z" unicode="à" glyph-name="agrave" horiz-adv-x="497"/>
<glyph d="M369 717l-217 -94l-42 76l199 131zM443 147q0 -27 7 -40t24 -20l-32 -101q-91 8 -120 74q-50 -77 -143 -77q-72 0 -114.5 45.5t-42.5 120.5q0 87 58.5 133t169.5 46h42v25q0 47 -17 65.5t-60 18.5q-49 0 -125 -27l-35 99q94 39 187 39q103 0 152 -46t49 -140v-215z M225 93q44 0 67 50v99h-28q-91 0 -91 -80q0 -69 52 -69z" unicode="á" glyph-name="aacute" horiz-adv-x="497"/>
<glyph d="M246 715l-121 -92l-54 59l128 138h93l128 -138l-54 -59zM443 147q0 -27 7 -40t24 -20l-32 -101q-91 8 -120 74q-50 -77 -143 -77q-72 0 -114.5 45.5t-42.5 120.5q0 87 58.5 133t169.5 46h42v25q0 47 -17 65.5t-60 18.5q-49 0 -125 -27l-35 99q94 39 187 39q103 0 152 -46 t49 -140v-215zM225 93q44 0 67 50v99h-28q-91 0 -91 -80q0 -69 52 -69z" unicode="â" glyph-name="acircumflex" horiz-adv-x="497"/>
<glyph d="M195 681q-15 0 -25 -9.5t-23 -32.5l-74 35q18 51 49 82.5t70 31.5q30 0 62 -21t44 -21q24 0 47 41l74 -35q-18 -52 -49 -82.5t-70 -30.5q-29 0 -61 21t-44 21zM443 147q0 -27 7 -40t24 -20l-32 -101q-91 8 -120 74q-50 -77 -143 -77q-72 0 -114.5 45.5t-42.5 120.5 q0 87 58.5 133t169.5 46h42v25q0 47 -17 65.5t-60 18.5q-49 0 -125 -27l-35 99q94 39 187 39q103 0 152 -46t49 -140v-215zM225 93q44 0 67 50v99h-28q-91 0 -91 -80q0 -69 52 -69z" unicode="ã" glyph-name="atilde" horiz-adv-x="497"/>
<glyph d="M139 642q-32 0 -54.5 22.5t-22.5 55.5q0 32 22.5 54.5t54.5 22.5q33 0 55 -22t22 -55t-22 -55.5t-55 -22.5zM351 642q-32 0 -54.5 22.5t-22.5 55.5q0 32 22.5 54.5t54.5 22.5q33 0 55.5 -22.5t22.5 -54.5q0 -33 -22 -55.5t-56 -22.5zM443 147q0 -27 7 -40t24 -20 l-32 -101q-91 8 -120 74q-50 -77 -143 -77q-72 0 -114.5 45.5t-42.5 120.5q0 87 58.5 133t169.5 46h42v25q0 47 -17 65.5t-60 18.5q-49 0 -125 -27l-35 99q94 39 187 39q103 0 152 -46t49 -140v-215zM225 93q44 0 67 50v99h-28q-91 0 -91 -80q0 -69 52 -69z" unicode="ä" glyph-name="adieresis" horiz-adv-x="497"/>
<glyph d="M246 606q-59 0 -94.5 37t-35.5 93t35.5 92.5t94.5 36.5t94 -36.5t35 -92.5t-35 -93t-94 -37zM246 787q-40 0 -40 -51q0 -52 40 -52q39 0 39 52q0 51 -39 51zM443 147q0 -27 7 -40t24 -20l-32 -101q-91 8 -120 74q-50 -77 -143 -77q-72 0 -114.5 45.5t-42.5 120.5 q0 87 58.5 133t169.5 46h42v25q0 47 -17 65.5t-60 18.5q-49 0 -125 -27l-35 99q94 39 187 39q103 0 152 -46t49 -140v-215zM225 93q44 0 67 50v99h-28q-91 0 -91 -80q0 -69 52 -69z" unicode="å" glyph-name="aring" horiz-adv-x="497"/>
<glyph d="M752 276q0 -32 -3 -56h-295q6 -69 32 -96.5t73 -27.5q51 0 112 45l63 -84q-81 -74 -189 -74q-127 0 -192 89q-62 -89 -168 -89q-75 0 -119 46t-44 120q0 85 60 130.5t174 45.5h42v26q0 48 -17 66.5t-60 18.5q-49 0 -125 -27l-34 100q94 39 183 39q101 0 146 -67 q57 67 149 67q97 0 154.5 -71t57.5 -201zM603 313v7q0 125 -73 125q-35 0 -54 -30t-23 -102h150zM232 93q45 0 81 65q-11 38 -12 79v1h-30q-90 0 -90 -79q0 -66 51 -66z" unicode="æ" glyph-name="ae" horiz-adv-x="776"/>
<glyph d="M435 46q-58 -53 -137 -62v-35q95 -12 95 -96q0 -51 -37 -82.5t-101 -31.5q-61 0 -105 30l35 69q28 -15 58 -15q41 0 41 31q0 35 -84 35l12 100q-87 18 -135 88.5t-48 183.5q0 131 65 209t176 78q95 0 165 -65l-64 -88q-44 35 -89 35q-46 0 -69 -38t-23 -130 q0 -88 23.5 -123t67.5 -35q39 0 87 33z" unicode="ç" glyph-name="ccedilla" horiz-adv-x="436"/>
<glyph d="M398 699l-42 -76l-217 94l60 113zM483 276q0 -32 -3 -56h-296q6 -70 31 -97t71 -27q54 0 116 45l63 -85q-82 -73 -191 -73q-120 0 -182.5 74.5t-62.5 205.5q0 128 60 206.5t169 78.5q105 0 165 -70.5t60 -201.5zM332 313v7q0 63 -16.5 94.5t-55.5 31.5q-35 0 -54 -29.5 t-23 -103.5h149z" unicode="è" glyph-name="egrave" horiz-adv-x="507"/>
<glyph d="M383 717l-217 -94l-42 76l199 131zM483 276q0 -32 -3 -56h-296q6 -70 31 -97t71 -27q54 0 116 45l63 -85q-82 -73 -191 -73q-120 0 -182.5 74.5t-62.5 205.5q0 128 60 206.5t169 78.5q105 0 165 -70.5t60 -201.5zM332 313v7q0 63 -16.5 94.5t-55.5 31.5q-35 0 -54 -29.5 t-23 -103.5h149z" unicode="é" glyph-name="eacute" horiz-adv-x="507"/>
<glyph d="M260 715l-121 -92l-54 59l128 138h93l128 -138l-54 -59zM483 276q0 -32 -3 -56h-296q6 -70 31 -97t71 -27q54 0 116 45l63 -85q-82 -73 -191 -73q-120 0 -182.5 74.5t-62.5 205.5q0 128 60 206.5t169 78.5q105 0 165 -70.5t60 -201.5zM332 313v7q0 63 -16.5 94.5 t-55.5 31.5q-35 0 -54 -29.5t-23 -103.5h149z" unicode="ê" glyph-name="ecircumflex" horiz-adv-x="507"/>
<glyph d="M153 642q-32 0 -54.5 22.5t-22.5 55.5q0 32 22.5 54.5t54.5 22.5q33 0 55 -22t22 -55t-22 -55.5t-55 -22.5zM365 642q-32 0 -54.5 22.5t-22.5 55.5q0 32 22.5 54.5t54.5 22.5q33 0 55.5 -22.5t22.5 -54.5q0 -33 -22 -55.5t-56 -22.5zM483 276q0 -32 -3 -56h-296 q6 -70 31 -97t71 -27q54 0 116 45l63 -85q-82 -73 -191 -73q-120 0 -182.5 74.5t-62.5 205.5q0 128 60 206.5t169 78.5q105 0 165 -70.5t60 -201.5zM332 313v7q0 63 -16.5 94.5t-55.5 31.5q-35 0 -54 -29.5t-23 -103.5h149z" unicode="ë" glyph-name="edieresis" horiz-adv-x="507"/>
<glyph d="M68 830l199 -131l-42 -76l-217 94zM206 531v-531h-154v531h154z" unicode="ì" glyph-name="igrave" horiz-adv-x="259"/>
<glyph d="M192 830l60 -113l-217 -94l-42 76zM206 531v-531h-154v531h154z" unicode="í" glyph-name="iacute" horiz-adv-x="259"/>
<glyph d="M8 623l-54 59l128 138h93l128 -138l-54 -59l-120 92zM206 531v-531h-154v531h154z" unicode="î" glyph-name="icircumflex" horiz-adv-x="259"/>
<glyph d="M22 797q33 0 55 -22t22 -55t-22 -55.5t-55 -22.5q-32 0 -54.5 22.5t-22.5 55.5q0 32 22.5 54.5t54.5 22.5zM234 797q34 0 56 -22.5t22 -54.5q0 -33 -22 -55.5t-56 -22.5q-32 0 -54.5 22.5t-22.5 55.5q0 32 22.5 54.5t54.5 22.5zM206 531v-531h-154v531h154z" unicode="ï" glyph-name="idieresis" horiz-adv-x="259"/>
<glyph d="M328 669q92 -70 131 -165t39 -227q0 -130 -63 -212t-175 -82q-101 0 -166 67t-65 184q0 106 54 175.5t133 69.5q68 0 118 -47q-25 96 -90 152l-50 -56l-95 45l57 62q-36 12 -83 23l29 99q64 -10 133 -37l67 76l80 -64zM262 96q41 0 60.5 37t19.5 117q0 16 -0.5 41.5 t-0.5 36.5q-32 43 -80 43q-77 0 -77 -135q0 -140 78 -140z" unicode="ð" glyph-name="eth" horiz-adv-x="532"/>
<glyph d="M215 681q-15 0 -25 -9.5t-23 -32.5l-74 35q18 51 49 82.5t70 31.5q30 0 62 -21t44 -21q24 0 47 41l74 -35q-18 -52 -49 -82.5t-70 -30.5q-29 0 -61 21t-44 21zM342 548q62 0 97.5 -41.5t35.5 -113.5v-393h-154v372q0 60 -38 60q-37 0 -77 -65v-367h-154v531h135l11 -63 q58 80 144 80z" unicode="ñ" glyph-name="ntilde" horiz-adv-x="524"/>
<glyph d="M206 830l199 -131l-42 -76l-217 94zM267 548q112 0 175.5 -72.5t63.5 -210.5q0 -132 -64 -207t-175 -75q-112 0 -175 73t-63 210q0 133 63.5 207.5t174.5 74.5zM267 434q-41 0 -60 -39t-19 -129q0 -92 19 -131t60 -39t60.5 39.5t19.5 129.5q0 92 -19 130.5t-61 38.5z" unicode="ò" glyph-name="ograve" horiz-adv-x="534"/>
<glyph d="M330 830l60 -113l-217 -94l-42 76zM267 548q112 0 175.5 -72.5t63.5 -210.5q0 -132 -64 -207t-175 -75q-112 0 -175 73t-63 210q0 133 63.5 207.5t174.5 74.5zM267 434q-41 0 -60 -39t-19 -129q0 -92 19 -131t60 -39t60.5 39.5t19.5 129.5q0 92 -19 130.5t-61 38.5z" unicode="ó" glyph-name="oacute" horiz-adv-x="534"/>
<glyph d="M146 623l-54 59l128 138h93l128 -138l-54 -59l-120 92zM267 548q112 0 175.5 -72.5t63.5 -210.5q0 -132 -64 -207t-175 -75q-112 0 -175 73t-63 210q0 133 63.5 207.5t174.5 74.5zM267 434q-41 0 -60 -39t-19 -129q0 -92 19 -131t60 -39t60.5 39.5t19.5 129.5 q0 92 -19 130.5t-61 38.5z" unicode="ô" glyph-name="ocircumflex" horiz-adv-x="534"/>
<glyph d="M321 639q-29 0 -61 21t-44 21q-15 0 -25 -9.5t-23 -32.5l-74 35q18 51 49 82.5t70 31.5q30 0 62 -21t44 -21q24 0 47 41l74 -35q-18 -52 -49 -82.5t-70 -30.5zM267 548q112 0 175.5 -72.5t63.5 -210.5q0 -132 -64 -207t-175 -75q-112 0 -175 73t-63 210q0 133 63.5 207.5 t174.5 74.5zM267 434q-41 0 -60 -39t-19 -129q0 -92 19 -131t60 -39t60.5 39.5t19.5 129.5q0 92 -19 130.5t-61 38.5z" unicode="õ" glyph-name="otilde" horiz-adv-x="534"/>
<glyph d="M160 797q33 0 55 -22t22 -55t-22 -55.5t-55 -22.5q-32 0 -54.5 22.5t-22.5 55.5q0 32 22.5 54.5t54.5 22.5zM372 797q34 0 56 -22.5t22 -54.5q0 -33 -22 -55.5t-56 -22.5q-32 0 -54.5 22.5t-22.5 55.5q0 32 22.5 54.5t54.5 22.5zM267 548q112 0 175.5 -72.5t63.5 -210.5 q0 -132 -64 -207t-175 -75q-112 0 -175 73t-63 210q0 133 63.5 207.5t174.5 74.5zM267 434q-41 0 -60 -39t-19 -129q0 -92 19 -131t60 -39t60.5 39.5t19.5 129.5q0 92 -19 130.5t-61 38.5z" unicode="ö" glyph-name="odieresis" horiz-adv-x="534"/>
<glyph d="M235 660q38 0 63 -26t25 -62q0 -37 -25 -63t-63 -26t-62.5 26t-24.5 63q0 36 25 62t62 26zM41 273v118h388v-118h-388zM235 180q38 0 63 -26t25 -62q0 -37 -25 -63t-63 -26t-62.5 26t-24.5 63q0 36 25 62t62 26z" unicode="÷" glyph-name="divide" horiz-adv-x="470"/>
<glyph d="M402 510q104 -69 104 -245q0 -132 -64 -207t-175 -75q-17 0 -26 1l-33 -118l-111 31l36 124q-104 70 -104 245q0 133 63.5 207.5t174.5 74.5q19 0 28 -1l35 119l111 -32zM267 436q-49 0 -72.5 -39.5t-23.5 -130.5q0 -100 22 -138l86 308h-12zM267 94q49 0 73 40t24 131 q0 98 -22 136l-86 -307h11z" unicode="ø" glyph-name="oslash" horiz-adv-x="534"/>
<glyph d="M197 830l199 -131l-42 -76l-217 94zM466 531v-531h-134l-7 64q-52 -81 -141 -81q-65 0 -100.5 43t-35.5 116v389h154v-377q0 -57 40 -57q39 0 70 58v376h154z" unicode="ù" glyph-name="ugrave" horiz-adv-x="519"/>
<glyph d="M321 830l60 -113l-217 -94l-42 76zM466 531v-531h-134l-7 64q-52 -81 -141 -81q-65 0 -100.5 43t-35.5 116v389h154v-377q0 -57 40 -57q39 0 70 58v376h154z" unicode="ú" glyph-name="uacute" horiz-adv-x="519"/>
<glyph d="M137 623l-54 59l128 138h93l128 -138l-54 -59l-120 92zM466 531v-531h-134l-7 64q-52 -81 -141 -81q-65 0 -100.5 43t-35.5 116v389h154v-377q0 -57 40 -57q39 0 70 58v376h154z" unicode="û" glyph-name="ucircumflex" horiz-adv-x="519"/>
<glyph d="M151 797q33 0 55 -22t22 -55t-22 -55.5t-55 -22.5q-32 0 -54.5 22.5t-22.5 55.5q0 32 22.5 54.5t54.5 22.5zM363 797q33 0 55.5 -22.5t22.5 -54.5q0 -33 -22 -55.5t-56 -22.5q-32 0 -54.5 22.5t-22.5 55.5q0 32 22.5 54.5t54.5 22.5zM466 531v-531h-134l-7 64 q-52 -81 -141 -81q-65 0 -100.5 43t-35.5 116v389h154v-377q0 -57 40 -57q39 0 70 58v376h154z" unicode="ü" glyph-name="udieresis" horiz-adv-x="519"/>
<glyph d="M301 830l60 -113l-217 -94l-42 76zM481 531l-151 -532q-57 -207 -278 -221l-17 107q69 10 103 35.5t54 79.5h-55l-142 531h158l82 -433l91 433h155z" unicode="ý" glyph-name="yacute" horiz-adv-x="476"/>
<glyph d="M334 548q89 0 133.5 -73t44.5 -208q0 -128 -52 -206t-139 -78q-71 0 -115 59v-245l-154 -18v963l154 16v-277q51 67 128 67zM275 97q78 0 78 168q0 97 -17.5 133.5t-53.5 36.5q-43 0 -76 -59v-235q29 -44 69 -44z" unicode="þ" glyph-name="thorn"/>
<glyph d="M179 949l200 -122l-39 -76l-219 85zM447 693l-17 -114h-215v-171h188v-112h-188v-180h230v-116h-390v693h392z" unicode="Ѐ" glyph-name="uni0400" horiz-adv-x="474"/>
<glyph d="M147 923q33 0 55 -22t22 -55t-22 -55.5t-55 -22.5q-32 0 -54.5 22.5t-22.5 55.5q0 32 22.5 54.5t54.5 22.5zM359 923q33 0 55.5 -22.5t22.5 -54.5q0 -33 -22 -55.5t-56 -22.5q-32 0 -54.5 22.5t-22.5 55.5q0 32 22.5 54.5t54.5 22.5zM447 693l-17 -114h-215v-171h188 v-112h-188v-180h230v-116h-390v693h392z" unicode="Ё" glyph-name="uni0401" horiz-adv-x="474"/>
<glyph d="M464 469q92 0 144 -59.5t51 -165.5v-139q0 -61 -16 -108t-46.5 -78t-64.5 -50.5t-80 -35.5l-45 111q53 24 72.5 57.5t19.5 96.5v146q0 106 -80 106q-56 0 -94 -43v-307h-160v572h-158v121h484l-17 -121h-149v-158q55 55 139 55z" unicode="Ђ" glyph-name="uni0402" horiz-adv-x="681"/>
<glyph d="M396 837l-219 -86l-39 77l200 122zM463 693l-16 -126h-232v-567h-160v693h408z" unicode="Ѓ" glyph-name="uni0403" horiz-adv-x="462"/>
<glyph d="M449 158l71 -86q-83 -89 -206 -89q-129 0 -206.5 93.5t-77.5 271.5q0 174 79 268t209 94q111 0 195 -76l-76 -88q-55 47 -111 47q-57 0 -93 -44.5t-41 -137.5h210v-112h-210q4 -99 40 -147.5t95 -48.5q56 0 122 55z" unicode="Є" glyph-name="uni0404" horiz-adv-x="524"/>
<glyph d="M262 710q132 0 221 -89l-73 -84q-65 56 -133 56q-38 0 -60 -19t-22 -52q0 -32 24 -52t95 -46q96 -37 140.5 -85t44.5 -137q0 -97 -68 -158t-185 -61q-145 0 -241 98l78 87q76 -66 154 -66q46 0 71 24t25 64q0 38 -23 61t-87 46q-104 39 -148 88t-44 125q0 90 65 145 t166 55z" unicode="Ѕ" glyph-name="uni0405" horiz-adv-x="519"/>
<glyph d="M215 693v-693h-160v693h160z" unicode="І" glyph-name="uni0406" horiz-adv-x="269"/>
<glyph d="M29 923q33 0 55 -22t22 -55t-22 -55.5t-55 -22.5q-32 0 -54.5 22.5t-22.5 55.5q0 32 22.5 54.5t54.5 22.5zM241 923q33 0 55.5 -22.5t22.5 -54.5q0 -33 -22 -55.5t-56 -22.5q-32 0 -54.5 22.5t-22.5 55.5q0 32 22.5 54.5t54.5 22.5zM215 693v-693h-160v693h160z" unicode="Ї" glyph-name="uni0407" horiz-adv-x="269"/>
<glyph d="M238 693v-588q0 -62 -16.5 -109.5t-48.5 -78t-65 -49.5t-79 -35l-42 113q57 25 74 59.5t17 105.5v582h160z" unicode="Ј" glyph-name="uni0408" horiz-adv-x="290"/>
<glyph d="M577 455q124 0 189.5 -55t65.5 -166q0 -118 -68 -176t-187 -58h-210v571h-105l-24 -240q-19 -179 -59 -249.5t-141 -98.5l-38 113q44 20 60 64t30 180l37 354l1 -1h400l-1 -1v-237h50zM567 116q50 0 74 27.5t24 88.5q0 58 -24.5 85t-78.5 27h-35v-228h40z" unicode="Љ" glyph-name="uni0409" horiz-adv-x="845"/>
<glyph d="M591 441q120 0 187.5 -54.5t67.5 -160.5q0 -114 -68 -170t-191 -56h-204v327h-168v-327h-160v693h160v-252h168v252h160v-252h48zM587 117q47 0 70.5 25.5t23.5 81.5q0 53 -23 78t-73 25h-42v-210h44z" unicode="Њ" glyph-name="uni040A" horiz-adv-x="859"/>
<glyph d="M464 469q92 0 143.5 -59.5t51.5 -165.5v-244h-160v244q0 106 -80 106q-56 0 -94 -43v-307h-160v572h-158v121h484l-17 -121h-149v-158q55 55 139 55z" unicode="Ћ" glyph-name="uni040B" horiz-adv-x="681"/>
<glyph d="M357 950l58 -113l-219 -86l-39 77zM561 693l-150 -315l167 -378h-170l-132 303h-61v-303h-160v693h160v-273h65l128 273h153z" unicode="Ќ" glyph-name="uni040C" horiz-adv-x="572"/>
<glyph d="M227 949l200 -122l-39 -76l-219 85zM544 693v-693h-153v264q0 135 20 271l-166 -535h-190v693h152v-268q0 -130 -19 -267l168 535h188z" unicode="Ѝ" glyph-name="uni040D" horiz-adv-x="599"/>
<glyph d="M263 751q-72 0 -112.5 41t-46.5 111l83 15q15 -60 76 -60t75 60l84 -15q-6 -69 -47 -110.5t-112 -41.5zM543 693l-165 -487q-40 -118 -101 -164.5t-175 -58.5l-20 108q61 8 93 28t53 65h-52l-190 509h161l126 -419l110 419h160z" unicode="Ў" glyph-name="uni040E" horiz-adv-x="524"/>
<glyph d="M541 693v-693h-180v-165h-109l-17 165h-180v693h160v-568h166v568h160z" unicode="Џ" glyph-name="uni040F" horiz-adv-x="596"/>
<glyph d="M389 0l-31 151h-176l-31 -151h-162l187 693h192l186 -693h-165zM206 266h128l-64 310z" unicode="А" glyph-name="uni0410"/>
<glyph d="M276 445q122 0 187.5 -54.5t65.5 -161.5q0 -114 -68 -171.5t-188 -57.5h-218v693h400l-16 -121h-224v-127h61zM263 116q51 0 75 26.5t24 84.5q0 54 -24.5 80.5t-77.5 26.5h-45v-218h48z" unicode="Б" glyph-name="uni0411"/>
<glyph d="M392 367q147 -31 147 -165q0 -202 -279 -202h-205v693h181q277 0 277 -177q0 -60 -34 -97.5t-87 -51.5zM251 580h-36v-165h44q92 0 92 85q0 41 -24 60.5t-76 19.5zM261 116q56 0 85 21t29 73q0 98 -106 98h-54v-192h46z" unicode="В" glyph-name="uni0412" horiz-adv-x="559"/>
<glyph d="M463 693l-16 -126h-232v-567h-160v693h408z" unicode="Г" glyph-name="uni0413" horiz-adv-x="462"/>
<glyph d="M509 122h56v-287h-109l-17 165h-319l-17 -165h-109v287h41q26 33 41 94t31 202l29 275h373v-571zM355 122v453h-83l-14 -143q-13 -138 -33.5 -202.5t-62.5 -107.5h193z" unicode="Д" glyph-name="uni0414" horiz-adv-x="581"/>
<glyph d="M447 693l-17 -114h-215v-171h188v-112h-188v-180h230v-116h-390v693h392z" unicode="Е" glyph-name="uni0415" horiz-adv-x="474"/>
<glyph d="M815 693l-150 -315l166 -378h-170l-124 304h-52v-304h-146v304h-54l-126 -304h-166l165 378l-149 315h154l126 -275h50v275h146v-275h49l128 275h153z" unicode="Ж" glyph-name="uni0416" horiz-adv-x="823"/>
<glyph d="M217 -17q-141 0 -221 97l83 82q62 -60 125 -60q46 0 72.5 26.5t26.5 76.5q0 103 -106 103h-67l18 115h52q43 0 65.5 23t22.5 65q0 83 -77 83q-59 0 -123 -55l-73 80q89 91 217 91q100 0 160 -51t60 -131q0 -128 -144 -160q78 -10 120.5 -53t42.5 -118q0 -97 -70.5 -155.5 t-183.5 -58.5z" unicode="З" glyph-name="uni0417" horiz-adv-x="491"/>
<glyph d="M544 693v-693h-153v264q0 135 20 271l-166 -535h-190v693h152v-268q0 -130 -19 -267l168 535h188z" unicode="И" glyph-name="uni0418" horiz-adv-x="599"/>
<glyph d="M300 751q-72 0 -112.5 41t-46.5 111l83 15q15 -60 76 -60t75 60l84 -15q-6 -69 -47 -110.5t-112 -41.5zM544 693v-693h-153v264q0 135 20 271l-166 -535h-190v693h152v-268q0 -130 -19 -267l168 535h188z" unicode="Й" glyph-name="uni0419" horiz-adv-x="599"/>
<glyph d="M561 693l-150 -315l167 -378h-170l-132 303h-61v-303h-160v693h160v-273h65l128 273h153z" unicode="К" glyph-name="uni041A" horiz-adv-x="572"/>
<glyph d="M127 693h410v-693h-160v571h-113l-25 -240q-19 -179 -59 -249.5t-142 -98.5l-38 113q44 20 60 64t30 180z" unicode="Л" glyph-name="uni041B" horiz-adv-x="592"/>
<glyph d="M644 693l46 -693h-153l-9 274q-7 171 -2 280l-91 -481h-150l-96 481q7 -134 2 -283l-9 -271h-152l46 693h200l87 -472l80 472h201z" unicode="М" glyph-name="uni041C" horiz-adv-x="720"/>
<glyph d="M388 0v298h-173v-298h-160v693h160v-270h173v270h160v-693h-160z" unicode="Н" glyph-name="uni041D" horiz-adv-x="602"/>
<glyph d="M315 710q137 0 211 -92.5t74 -270.5q0 -176 -74.5 -270t-210.5 -94t-210.5 93t-74.5 271q0 175 74.5 269t210.5 94zM315 593q-61 0 -89.5 -57t-28.5 -189q0 -134 29 -190.5t89 -56.5q61 0 89.5 56.5t28.5 190.5q0 132 -28.5 189t-89.5 57z" unicode="О" glyph-name="uni041E" horiz-adv-x="630"/>
<glyph d="M547 693v-693h-161v570h-171v-570h-160v693h492z" unicode="П" glyph-name="uni041F" horiz-adv-x="601"/>
<glyph d="M253 693q133 0 204.5 -57t71.5 -168q0 -117 -69.5 -176.5t-191.5 -59.5h-53v-232h-160v693h198zM255 348q56 0 83 27.5t27 91.5q0 57 -26.5 84.5t-83.5 27.5h-40v-231h40z" unicode="Р" glyph-name="uni0420" horiz-adv-x="544"/>
<glyph d="M317 710q112 0 196 -76l-76 -89q-56 46 -110 46q-130 0 -130 -243q0 -241 131 -241q55 0 120 53l72 -88q-83 -89 -202 -89q-132 0 -210 93.5t-78 271.5q0 174 79.5 268t207.5 94z" unicode="С" glyph-name="uni0421" horiz-adv-x="524"/>
<glyph d="M491 693l-17 -122h-149v-571h-160v571h-158v122h484z" unicode="Т" glyph-name="uni0422" horiz-adv-x="490"/>
<glyph d="M543 693l-165 -487q-40 -118 -101 -164.5t-175 -58.5l-20 108q61 8 93 28t53 65h-52l-190 509h161l126 -419l110 419h160z" unicode="У" glyph-name="uni0423" horiz-adv-x="524"/>
<glyph d="M753 351q0 -151 -77.5 -226.5t-212.5 -81.5v-82h-156v82q-135 7 -212.5 81.5t-77.5 221.5q0 151 77.5 226.5t212.5 81.5v77h156v-77q135 -7 212.5 -81.5t77.5 -221.5zM455 142q73 7 105 55.5t32 153.5q0 103 -33 150.5t-104 53.5v-413zM179 346q0 -103 32.5 -150.5 t103.5 -53.5v413q-73 -7 -104.5 -55t-31.5 -154z" unicode="Ф" glyph-name="uni0424" horiz-adv-x="770"/>
<glyph d="M357 374l179 -374h-171l-104 267l-100 -267h-167l173 368l-160 325h170l86 -225l92 225h166z" unicode="Х" glyph-name="uni0425" horiz-adv-x="530"/>
<glyph d="M541 122h72v-287h-109l-17 165h-432v693h160v-568h166v568h160v-571z" unicode="Ц" glyph-name="uni0426" horiz-adv-x="622"/>
<glyph d="M348 693h160v-693h-160v257q-61 -53 -138 -53q-88 0 -140 57.5t-52 159.5v272h157v-263q0 -58 20 -82.5t62 -24.5q55 0 91 38v332z" unicode="Ч" glyph-name="uni0427" horiz-adv-x="563"/>
<glyph d="M767 693v-693h-712v693h156v-568h125v568h149v-568h125v568h157z" unicode="Ш" glyph-name="uni0428" horiz-adv-x="821"/>
<glyph d="M767 122h72v-287h-109l-17 165h-658v693h156v-568h125v568h149v-568h125v568h157v-571z" unicode="Щ" glyph-name="uni0429" horiz-adv-x="847"/>
<glyph d="M385 455q124 0 189.5 -55t65.5 -166q0 -118 -67.5 -176t-187.5 -58h-219v573l-1 -1h-158v121h319v-238h59zM375 116q50 0 74 27.5t24 88.5q0 58 -24.5 85t-77.5 27h-45v-228h49z" unicode="Ъ" glyph-name="uni042A" horiz-adv-x="652"/>
<glyph d="M264 455q255 0 255 -221q0 -117 -67.5 -175.5t-183.5 -58.5h-213v693h160v-238h49zM562 693h160v-693h-160v693zM254 116q50 0 74.5 27.5t24.5 88.5q0 58 -24 85t-77 27h-37v-228h39z" unicode="Ы" glyph-name="uni042B" horiz-adv-x="777"/>
<glyph d="M274 455q124 0 189.5 -55t65.5 -166q0 -118 -67.5 -176t-187.5 -58h-219v693h160v-238h59zM264 116q50 0 74 27.5t24 88.5q0 58 -24.5 85t-77.5 27h-45v-228h49z" unicode="Ь" glyph-name="uni042C" horiz-adv-x="542"/>
<glyph d="M207 710q123 0 189 -88.5t66 -270.5t-70.5 -275t-198.5 -93q-110 0 -188 80l71 86q55 -45 109 -45q55 0 83.5 46.5t31.5 148.5h-205v112h205q-4 98 -30 140t-75 42q-56 0 -112 -47l-73 86q83 78 197 78z" unicode="Э" glyph-name="uni042D" horiz-adv-x="492"/>
<glyph d="M545 710q133 0 205 -92.5t72 -270.5q0 -176 -72 -270t-205 -94q-245 0 -267 313h-63v-296h-160v693h160v-272h65q36 289 265 289zM545 101q57 0 83.5 56t26.5 190q0 133 -26.5 189.5t-83.5 56.5q-56 0 -82.5 -57t-26.5 -192q0 -131 26.5 -187t82.5 -56z" unicode="Ю" glyph-name="uni042E" horiz-adv-x="852"/>
<glyph d="M292 693h209v-693h-160v251h-67l-101 -251h-171l134 280q-109 53 -109 191q0 222 265 222zM285 363h56v217h-44q-105 0 -105 -113q0 -52 25 -78t68 -26z" unicode="Я" glyph-name="uni042F" horiz-adv-x="555"/>
<glyph d="M443 147q0 -27 7 -40t24 -20l-32 -101q-91 8 -120 74q-50 -77 -143 -77q-72 0 -114.5 45.5t-42.5 120.5q0 87 58.5 133t169.5 46h42v25q0 47 -17 65.5t-60 18.5q-49 0 -125 -27l-35 99q94 39 187 39q103 0 152 -46t49 -140v-215zM225 93q44 0 67 50v99h-28q-91 0 -91 -80 q0 -69 52 -69z" unicode="а" glyph-name="uni0430" horiz-adv-x="497"/>
<glyph d="M315 494q78 0 129 -64t51 -182q0 -127 -62 -196t-170 -69q-234 0 -234 314q0 173 43 259t158 126q89 31 159 74l56 -96q-57 -39 -156 -75q-57 -22 -82 -57t-33 -116q50 82 141 82zM262 97q37 0 55.5 30t18.5 116q0 79 -16 108.5t-49 29.5q-55 0 -83 -68v-68 q0 -81 18.5 -114.5t55.5 -33.5z" unicode="б" glyph-name="uni0431" horiz-adv-x="524"/>
<glyph d="M350 291q127 -15 127 -130q0 -81 -58.5 -121t-161.5 -40h-205v527q119 21 196 21q98 0 153.5 -38t55.5 -106q0 -91 -107 -113zM246 450q-10 0 -40 -2v-126h43q58 0 58 64q0 36 -14.5 50t-46.5 14zM254 100q33 0 50 16t17 56q0 38 -15.5 53.5t-50.5 15.5h-49v-141h48z" unicode="в" glyph-name="uni0432" horiz-adv-x="506"/>
<glyph d="M206 0h-154v531h347l-18 -117h-175v-414z" unicode="г" glyph-name="uni0433" horiz-adv-x="393"/>
<glyph d="M447 114h51v-279h-104l-17 165h-258l-17 -165h-104v279h32q23 19 35.5 61t21.5 158l14 198h346v-417zM304 114v315h-71l-6 -85q-8 -105 -27 -155t-58 -75h162z" unicode="д" glyph-name="uni0434" horiz-adv-x="507"/>
<glyph d="M483 276q0 -32 -3 -56h-296q6 -70 31 -97t71 -27q54 0 116 45l63 -85q-82 -73 -191 -73q-120 0 -182.5 74.5t-62.5 205.5q0 128 60 206.5t169 78.5q105 0 165 -70.5t60 -201.5zM332 313v7q0 63 -16.5 94.5t-55.5 31.5q-35 0 -54 -29.5t-23 -103.5h149z" unicode="е" glyph-name="uni0435" horiz-adv-x="507"/>
<glyph d="M674 531l-107 -247l117 -284h-150l-87 228h-39v-228h-134v228h-39l-87 -228h-150l118 284l-108 247h139l86 -209h41v209h134v-209h41l87 209h138z" unicode="ж" glyph-name="uni0436" horiz-adv-x="682"/>
<glyph d="M210 548q82 0 136 -40t54 -107q0 -89 -112 -118q68 -10 101.5 -41t33.5 -89q0 -83 -61 -126.5t-164 -43.5q-118 0 -197 65l71 83q58 -38 116 -38q76 0 76 68q0 63 -82 63h-68l8 99h49q73 0 73 63q0 55 -61 55q-49 0 -98 -34l-70 79q80 62 195 62z" unicode="з" glyph-name="uni0437" horiz-adv-x="452"/>
<glyph d="M483 531v-531h-142v190q0 110 22 192l-157 -382h-154v531h143v-192q0 -105 -21 -191l154 383h155z" unicode="и" glyph-name="uni0438" horiz-adv-x="535"/>
<glyph d="M268 633q-72 0 -112.5 41t-46.5 111l83 15q15 -60 76 -60t75 60l84 -15q-6 -69 -47 -110.5t-112 -41.5zM483 531v-531h-142v190q0 110 22 192l-157 -382h-154v531h143v-192q0 -105 -21 -191l154 383h155z" unicode="й" glyph-name="uni0439" horiz-adv-x="535"/>
<glyph d="M496 531l-123 -246l133 -285h-158l-101 229h-41v-229h-154v531h154v-208h44l102 208h144z" unicode="к" glyph-name="uni043A" horiz-adv-x="501"/>
<glyph d="M93 531h370v-531h-154v418h-81l-10 -127q-12 -164 -43 -221t-129 -83l-38 112q39 18 51 52t19 148z" unicode="л" glyph-name="uni043B" horiz-adv-x="515"/>
<glyph d="M548 531l41 -531h-144l-8 194q-3 81 3 203l-71 -343h-126l-71 343q7 -101 4 -203l-7 -194h-144l40 531h180l61 -345l61 345h181z" unicode="м" glyph-name="uni043C" horiz-adv-x="614"/>
<glyph d="M325 0v213h-119v-213h-154v531h154v-205h119v205h154v-531h-154z" unicode="н" glyph-name="uni043D" horiz-adv-x="531"/>
<glyph d="M267 548q112 0 175.5 -72.5t63.5 -210.5q0 -132 -64 -207t-175 -75q-112 0 -175 73t-63 210q0 133 63.5 207.5t174.5 74.5zM267 434q-41 0 -60 -39t-19 -129q0 -92 19 -131t60 -39t60.5 39.5t19.5 129.5q0 92 -19 130.5t-61 38.5z" unicode="о" glyph-name="uni043E" horiz-adv-x="534"/>
<glyph d="M322 0v417h-116v-417h-154v531h424v-531h-154z" unicode="п" glyph-name="uni043F" horiz-adv-x="528"/>
<glyph d="M335 548q88 0 132.5 -73t44.5 -208q0 -128 -52 -206t-139 -78q-69 0 -115 55v-243l-154 -16v752h137l7 -58q54 75 139 75zM275 97q78 0 78 168q0 97 -17.5 133.5t-51.5 36.5q-45 0 -78 -59v-235q29 -44 69 -44z" unicode="р" glyph-name="uni0440"/>
<glyph d="M270 548q95 0 165 -65l-64 -88q-44 35 -89 35q-46 0 -69 -38t-23 -130q0 -88 23.5 -123t67.5 -35q39 0 87 33l67 -91q-69 -63 -163 -63q-114 0 -178.5 73t-64.5 205q0 131 65 209t176 78z" unicode="с" glyph-name="uni0441" horiz-adv-x="436"/>
<glyph d="M436 531l-19 -114h-125v-417h-154v417h-136v114h434z" unicode="т" glyph-name="uni0442" horiz-adv-x="430"/>
<glyph d="M481 531l-151 -532q-57 -207 -278 -221l-17 107q69 10 103 35.5t54 79.5h-55l-142 531h158l82 -433l91 433h155z" unicode="у" glyph-name="uni0443" horiz-adv-x="476"/>
<glyph d="M565 548q166 0 166 -283q0 -132 -46.5 -207t-124.5 -75q-62 0 -107 53v-241l-144 -16v259q-46 -55 -109 -55q-77 0 -123 75t-46 207q0 136 44.5 209.5t127.5 73.5q65 0 106 -51v261l144 -16v-247q43 53 112 53zM248 95q35 0 61 40v262q-26 39 -61 39q-32 0 -47 -38 t-15 -133q0 -170 62 -170zM515 95q31 0 46 38.5t15 131.5q0 96 -14 133.5t-45 37.5q-35 0 -64 -41v-260q26 -40 62 -40z" unicode="ф" glyph-name="uni0444" horiz-adv-x="762"/>
<glyph d="M326 284l153 -284h-167l-82 201l-78 -201h-162l152 279l-138 252h165l65 -172l62 172h159z" unicode="х" glyph-name="uni0445" horiz-adv-x="469"/>
<glyph d="M470 114h73v-279h-104l-17 165h-370v531h154v-417h110v417h154v-417z" unicode="ц" glyph-name="uni0446" horiz-adv-x="541"/>
<glyph d="M294 531h154v-531h-154v200q-56 -51 -130 -51q-68 0 -103.5 40.5t-35.5 113.5v228h154v-211q0 -57 44 -57q40 0 71 34v234z" unicode="ч" glyph-name="uni0447" horiz-adv-x="500"/>
<glyph d="M654 531v-531h-602v531h146v-417h91v417h129v-417h90v417h146z" unicode="ш" glyph-name="uni0448" horiz-adv-x="706"/>
<glyph d="M654 114h72v-279h-104l-17 165h-553v531h146v-417h91v417h129v-417h90v417h146v-417z" unicode="щ" glyph-name="uni0449" horiz-adv-x="724"/>
<glyph d="M319 365q119 0 174 -46t55 -137q0 -92 -56.5 -137t-157.5 -45h-196v421h-136v110h290v-166h27zM326 102q34 0 50.5 19t16.5 64q0 44 -16 63.5t-56 19.5h-29v-166h34z" unicode="ъ" glyph-name="uni044A" horiz-adv-x="560"/>
<glyph d="M228 365q226 0 226 -183q0 -92 -57 -137t-158 -45h-187v531h154v-166h22zM491 531h154v-531h-154v531zM233 102q35 0 51.5 19t16.5 64t-16 64t-57 19h-22v-166h27z" unicode="ы" glyph-name="uni044B" horiz-adv-x="697"/>
<glyph d="M233 365q119 0 174 -46t55 -137q0 -92 -56.5 -137t-157.5 -45h-196v531h154v-166h27zM240 102q34 0 50.5 19t16.5 64q0 44 -16 63.5t-56 19.5h-29v-166h34z" unicode="ь" glyph-name="uni044C" horiz-adv-x="474"/>
<glyph d="M191 548q104 0 163 -70t59 -207t-62.5 -212.5t-176.5 -75.5q-94 0 -167 60l67 87q49 -34 92 -34q86 0 94 130h-168v90h167q-4 66 -24 93t-56 27q-49 0 -95 -35l-65 85q71 62 172 62z" unicode="э" glyph-name="uni044D" horiz-adv-x="442"/>
<glyph d="M484 548q103 0 163.5 -72.5t60.5 -210.5q0 -130 -61 -206t-163 -76q-94 0 -150 59.5t-70 173.5h-58v-216h-154v531h154v-208h59q14 108 70 166.5t149 58.5zM484 97q37 0 53 39t16 129q0 92 -16 130.5t-53 38.5t-53 -38t-16 -130q0 -91 16.5 -130t52.5 -39z" unicode="ю" glyph-name="uni044E" horiz-adv-x="737"/>
<glyph d="M267 531h185v-531h-154v186h-54l-83 -186h-159l109 224q-75 41 -75 134q0 85 58.5 129t172.5 44zM262 278h36v154h-33q-74 0 -74 -75q0 -79 71 -79z" unicode="я" glyph-name="uni044F" horiz-adv-x="505"/>
<glyph d="M398 699l-42 -76l-217 94l60 113zM483 276q0 -32 -3 -56h-296q6 -70 31 -97t71 -27q54 0 116 45l63 -85q-82 -73 -191 -73q-120 0 -182.5 74.5t-62.5 205.5q0 128 60 206.5t169 78.5q105 0 165 -70.5t60 -201.5zM332 313v7q0 63 -16.5 94.5t-55.5 31.5q-35 0 -54 -29.5 t-23 -103.5h149z" unicode="ѐ" glyph-name="uni0450" horiz-adv-x="507"/>
<glyph d="M153 642q-32 0 -54.5 22.5t-22.5 55.5q0 32 22.5 54.5t54.5 22.5q33 0 55 -22t22 -55t-22 -55.5t-55 -22.5zM365 642q-32 0 -54.5 22.5t-22.5 55.5q0 32 22.5 54.5t54.5 22.5q33 0 55.5 -22.5t22.5 -54.5q0 -33 -22 -55.5t-56 -22.5zM483 276q0 -32 -3 -56h-296 q6 -70 31 -97t71 -27q54 0 116 45l63 -85q-82 -73 -191 -73q-120 0 -182.5 74.5t-62.5 205.5q0 128 60 206.5t169 78.5q105 0 165 -70.5t60 -201.5zM332 313v7q0 63 -16.5 94.5t-55.5 31.5q-35 0 -54 -29.5t-23 -103.5h149z" unicode="ё" glyph-name="uni0451" horiz-adv-x="507"/>
<glyph d="M348 548q62 0 97.5 -42.5t35.5 -118.5v-329q0 -62 -14.5 -108.5t-44 -78.5t-62.5 -52.5t-80 -39.5l-52 112q53 28 76 59t23 99v318q0 65 -39 65q-38 0 -76 -65v-367h-154v597h-52v91h52v54l154 16v-70h118v-91h-118v-123q56 74 136 74z" unicode="ђ" glyph-name="uni0452" horiz-adv-x="529"/>
<glyph d="M289 830l60 -113l-217 -94l-42 76zM206 0h-154v531h347l-18 -117h-175v-414z" unicode="ѓ" glyph-name="uni0453" horiz-adv-x="393"/>
<glyph d="M281 97q44 0 89 34l66 -85q-71 -63 -163 -63q-115 0 -179.5 73t-64.5 206q0 131 65.5 208.5t175.5 77.5q96 0 166 -65l-64 -83q-45 35 -92 35q-88 0 -96 -119h167v-90h-168q7 -129 98 -129z" unicode="є" glyph-name="uni0454" horiz-adv-x="443"/>
<glyph d="M225 548q107 0 180 -65l-56 -84q-60 39 -113 39q-58 0 -58 -43q0 -22 19 -36.5t80 -35.5q74 -25 109.5 -63t35.5 -103q0 -80 -61 -127t-156 -47q-123 0 -203 78l73 82q62 -50 124 -50q31 0 48.5 13.5t17.5 37.5q0 28 -18.5 43t-80.5 37q-73 25 -106.5 63.5t-33.5 97.5 q0 71 53.5 117t145.5 46z" unicode="ѕ" glyph-name="uni0455" horiz-adv-x="438"/>
<glyph d="M128 808q39 0 64.5 -25t25.5 -62q0 -38 -25.5 -63t-64.5 -25t-64 25t-25 63q0 37 25 62t64 25zM206 531v-531h-154v531h154z" unicode="і" glyph-name="uni0456" horiz-adv-x="259"/>
<glyph d="M22 797q33 0 55 -22t22 -55t-22 -55.5t-55 -22.5q-32 0 -54.5 22.5t-22.5 55.5q0 32 22.5 54.5t54.5 22.5zM234 797q34 0 56 -22.5t22 -54.5q0 -33 -22 -55.5t-56 -22.5q-32 0 -54.5 22.5t-22.5 55.5q0 32 22.5 54.5t54.5 22.5zM206 531v-531h-154v531h154z" unicode="ї" glyph-name="uni0457" horiz-adv-x="259"/>
<glyph d="M128 808q39 0 64.5 -25t25.5 -62q0 -38 -25.5 -63t-64.5 -25t-64 25t-25 63q0 37 25 62t64 25zM206 531v-483q0 -111 -51 -170.5t-150 -98.5l-51 112q52 28 75 58t23 93v489h154z" unicode="ј" glyph-name="uni0458" horiz-adv-x="259"/>
<glyph d="M477 365q119 0 174.5 -46t55.5 -137q0 -92 -57 -137t-158 -45h-189v418h-75l-10 -127q-12 -164 -43 -221t-129 -83l-38 112q39 18 51 52t19 148l15 232h364v-166h20zM484 102q34 0 50.5 19t16.5 64t-16 64t-56 19h-22v-166h27z" unicode="љ" glyph-name="uni0459" horiz-adv-x="719"/>
<glyph d="M499 344q226 0 226 -172q0 -85 -57.5 -128.5t-157.5 -43.5h-186v238h-118v-238h-154v531h154v-187h118v187h154v-187h21zM507 101q35 0 51.5 17t16.5 57q0 37 -16 54t-57 17h-24v-145h29z" unicode="њ" glyph-name="uni045A" horiz-adv-x="737"/>
<glyph d="M348 548q62 0 97.5 -41.5t35.5 -113.5v-393h-154v372q0 60 -38 60q-37 0 -77 -65v-367h-154v598h-52v90h52v54l154 16v-70h117v-90h-117v-125q56 75 136 75z" unicode="ћ" glyph-name="uni045B" horiz-adv-x="530"/>
<glyph d="M320 830l60 -113l-217 -94l-42 76zM496 531l-123 -246l133 -285h-158l-101 229h-41v-229h-154v531h154v-208h44l102 208h144z" unicode="ќ" glyph-name="uni045C" horiz-adv-x="501"/>
<glyph d="M207 830l199 -131l-42 -76l-217 94zM483 531v-531h-142v190q0 110 22 192l-157 -382h-154v531h143v-192q0 -105 -21 -191l154 383h155z" unicode="ѝ" glyph-name="uni045D" horiz-adv-x="535"/>
<glyph d="M238 633q-72 0 -112.5 41t-46.5 111l83 15q15 -60 76 -60t75 60l84 -15q-6 -69 -47 -110.5t-112 -41.5zM481 531l-151 -532q-57 -207 -278 -221l-17 107q69 10 103 35.5t54 79.5h-55l-142 531h158l82 -433l91 433h155z" unicode="ў" glyph-name="uni045E" horiz-adv-x="476"/>
<glyph d="M470 531v-531h-145v-165h-104l-17 165h-152v531h154v-417h110v417h154z" unicode="џ" glyph-name="uni045F" horiz-adv-x="523"/>
<glyph d="M697 693q71 -181 71 -391q0 -319 -204 -319q-127 0 -159 121q-29 -121 -153 -121q-107 0 -158.5 75t-51.5 244q0 210 71 391h148q-29 -102 -44 -187t-15 -196q0 -118 16 -163.5t55 -45.5q54 0 54 73v225h158v-225q0 -74 55 -74q36 0 52 44.5t16 164.5q0 112 -16.5 197.5 t-48.5 186.5h154z" unicode="Ѡ" glyph-name="uni0460" horiz-adv-x="810"/>
<glyph d="M613 531q57 -134 57 -289q0 -131 -48.5 -195t-131.5 -64q-118 0 -140 115q-14 -60 -47.5 -87.5t-91.5 -27.5q-85 0 -132.5 63.5t-47.5 195.5q0 156 56 289h139q-45 -166 -45 -282q0 -84 13.5 -118t41.5 -34q22 0 33.5 16.5t11.5 61.5v180l139 19v-199q0 -78 45 -78 q27 0 41 32.5t14 120.5q0 115 -45 281h138z" unicode="ѡ" glyph-name="uni0461" horiz-adv-x="701"/>
<glyph d="M342 446q122 0 188 -55t66 -162q0 -114 -67.5 -171.5t-186.5 -57.5h-220v520h-122v97h122v76h160v-76h137v-97h-137v-74h60zM331 116q51 0 75.5 26.5t24.5 84.5q0 54 -24.5 80.5t-79.5 26.5h-45v-218h49z" unicode="Ѣ" glyph-name="uni0462" horiz-adv-x="609"/>
<glyph d="M237 365q119 0 175.5 -45.5t56.5 -136.5q0 -92 -57.5 -137.5t-163.5 -45.5h-188v460h-54v91h54v106l154 16v-122h119l-13 -91h-106v-95h23zM243 102q35 0 52.5 19t17.5 64q0 44 -16.5 63.5t-55.5 19.5h-27v-166h29z" unicode="ѣ" glyph-name="uni0463" horiz-adv-x="481"/>
<glyph d="M699 158l71 -86q-83 -89 -206 -89q-119 0 -194.5 79.5t-87.5 232.5h-67v-295h-160v693h160v-279h68q15 144 92 220t193 76q111 0 195 -76l-76 -88q-55 47 -111 47q-57 0 -93 -44.5t-41 -137.5h210v-112h-210q4 -99 40 -147.5t95 -48.5q56 0 122 55z" unicode="Ѥ" glyph-name="uni0464" horiz-adv-x="774"/>
<glyph d="M517 97q44 0 89 34l66 -85q-71 -63 -163 -63q-105 0 -168.5 61t-73.5 174h-61v-218h-154v531h154v-209h63q14 105 77 165.5t160 60.5q96 0 166 -65l-64 -83q-45 35 -92 35q-88 0 -96 -119h167v-90h-168q7 -129 98 -129z" unicode="ѥ" glyph-name="uni0465" horiz-adv-x="679"/>
<glyph d="M454 0l-70 264h-29v-265h-111v265h-32l-69 -264h-154l218 693h188l214 -693h-155zM241 374h114l-57 218z" unicode="Ѧ" glyph-name="uni0466" horiz-adv-x="598"/>
<glyph d="M395 0l-55 190h-28v-190h-97v190h-26l-54 -190h-140l186 531h170l185 -531h-141zM217 285h95l-48 165z" unicode="ѧ" glyph-name="uni0467" horiz-adv-x="531"/>
<glyph d="M706 0l-70 264h-29v-265h-111v265h-32l-69 -264h-154l83 263h-109v-264h-160v694h160v-319h144l100 319h188l214 -693h-155zM493 374h114l-57 218z" unicode="Ѩ" glyph-name="uni0468" horiz-adv-x="850"/>
<glyph d="M596 0l-53 198h-21v-198h-91v198h-20l-51 -198h-134l62 198h-82v-198h-154v531h154v-238h112l74 238h171l166 -531h-133zM435 293h82l-42 156z" unicode="ѩ" glyph-name="uni0469" horiz-adv-x="723"/>
<glyph d="M589 385l153 -385h-160l-93 275h-49v-275h-143v275h-48l-97 -275h-159l154 385h80l-137 210v98h557v-98l-142 -210h84zM485 587h-232l116 -201z" unicode="Ѫ" glyph-name="uni046A" horiz-adv-x="735"/>
<glyph d="M508 310l118 -310h-137l-71 213h-40v-213h-131v213h-41l-71 -213h-137l118 310h74l-100 156v65h438v-65l-100 -156h80zM384 443h-150l76 -132z" unicode="ѫ" glyph-name="uni046B" horiz-adv-x="624"/>
<glyph d="M788 388l112 -388h-158l-59 274h-39v-274h-143v274h-40l-59 -274h-159l79 273h-107v-273h-160v693h160v-305h212l-116 207v98h521v-98l-121 -207h77zM676 588h-208l105 -200z" unicode="Ѭ" glyph-name="uni046C" horiz-adv-x="893"/>
<glyph d="M687 309l70 -309h-131l-36 212h-33v-212h-127v212h-33l-36 -212h-130l47 212h-72v-212h-154v531h154v-222h160l-91 157v65h426v-65l-91 -157h77zM418 443l71 -134l70 134h-141z" unicode="ѭ" glyph-name="uni046D" horiz-adv-x="755"/>
<glyph d="M269 750h-93l-128 130l54 59l121 -83l121 83l53 -59zM259 388q97 -1 148 -53.5t51 -147.5q0 -98 -50 -147.5t-137 -69.5q-66 -15 -84.5 -25.5t-18.5 -29.5q0 -28 42 -51l-35 -86q-148 52 -148 154q0 56 36.5 87t114.5 48q66 15 90.5 41t24.5 81q0 56 -25 81t-79 25h-94 v91l161 191h-236v116h404v-113z" unicode="Ѯ" glyph-name="uni046E" horiz-adv-x="477"/>
<glyph d="M338 810l53 -60l-128 -138h-93l-128 138l54 60l121 -92zM173 -222q-69 23 -108.5 61.5t-39.5 89.5q0 54 37 85t115 47q63 13 87 29t24 49q0 51 -72 51h-115v84l144 148h-226v109h395v-100l-155 -151h21q77 0 121.5 -38.5t43.5 -106.5q0 -76 -47.5 -115t-130.5 -56 q-63 -13 -82.5 -23.5t-19.5 -28.5q0 -24 43 -48z" unicode="ѯ" glyph-name="uni046F" horiz-adv-x="465"/>
<glyph d="M494 693h152v-272q0 -102 -59.5 -162.5t-176.5 -75.5v-183h-160v182q-235 31 -235 238v273h152v-276q0 -57 21 -85.5t70 -37.5v399h145v-399q48 10 69.5 39t21.5 84v276z" unicode="Ѱ" glyph-name="uni0470" horiz-adv-x="661"/>
<glyph d="M675 248q0 -122 -64.5 -187t-180.5 -76v-190l-146 -16v205q-119 9 -179.5 65t-60.5 144v338h150v-330q0 -48 20.5 -74.5t69.5 -33.5v438h146v-436q95 17 95 157q0 114 -23 279h147q26 -140 26 -283z" unicode="ѱ" glyph-name="uni0471" horiz-adv-x="711"/>
<glyph d="M315 710q137 0 211 -92.5t74 -270.5q0 -176 -74.5 -270t-210.5 -94t-210.5 93t-74.5 271q0 175 74.5 269t210.5 94zM315 593q-56 0 -86.5 -46t-36.5 -150h246q-6 104 -36 150t-87 46zM315 100q59 0 89 47.5t34 157.5h-246q4 -110 34.5 -157.5t88.5 -47.5z" unicode="Ѳ" glyph-name="uni0472" horiz-adv-x="630"/>
<glyph d="M267 548q112 0 175.5 -72.5t63.5 -210.5q0 -132 -64 -207t-175 -75q-112 0 -175 73t-63 210q0 133 63.5 207.5t174.5 74.5zM267 437q-76 0 -84 -124h168q-4 67 -24.5 95.5t-59.5 28.5zM267 94q39 0 60 31t25 101h-170q4 -71 25 -101.5t60 -30.5z" unicode="ѳ" glyph-name="uni0473" horiz-adv-x="534"/>
<glyph d="M165 0l-176 693h164l116 -567l79 424q14 85 54 122.5t106 37.5q63 0 114 -37l-42 -90q-23 14 -45 14q-19 0 -29.5 -11.5t-17.5 -41.5l-121 -544h-202z" unicode="Ѵ" glyph-name="uni0474" horiz-adv-x="588"/>
<glyph d="M432 440l-104 -440h-182l-151 531h161l82 -413l66 332q13 70 44 102t90 32q39 0 79 -15l-26 -100q-12 5 -25 5q-26 0 -34 -34z" unicode="ѵ" glyph-name="uni0475" horiz-adv-x="483"/>
<glyph d="M145 983l89 -195l-76 -36l-112 180zM307 983l81 -195l-77 -32l-104 179zM165 0l-176 693h164l116 -567l79 424q14 85 54 122.5t106 37.5q63 0 114 -37l-42 -90q-23 14 -45 14q-19 0 -29.5 -11.5t-17.5 -41.5l-121 -544h-202z" unicode="Ѷ" glyph-name="uni0476" horiz-adv-x="588"/>
<glyph d="M126 857l89 -195l-76 -36l-112 180zM288 857l81 -195l-77 -32l-104 179zM432 440l-104 -440h-182l-151 531h161l82 -413l66 332q13 70 44 102t90 32q39 0 79 -15l-26 -100q-12 5 -25 5q-26 0 -34 -34z" unicode="ѷ" glyph-name="uni0477" horiz-adv-x="483"/>
<glyph d="M315 710q137 0 211 -92.5t74 -270.5q0 -176 -74.5 -270t-210.5 -94t-210.5 93t-74.5 271q0 175 74.5 269t210.5 94zM315 593q-61 0 -89.5 -57t-28.5 -189q0 -134 29 -190.5t89 -56.5q61 0 89.5 56.5t28.5 190.5q0 132 -28.5 189t-89.5 57zM1111 531l-151 -532 q-57 -207 -278 -221l-17 107q69 10 103 35.5t54 79.5h-55l-142 531h158l82 -433l91 433h155z" unicode="Ѹ" glyph-name="uni0478" horiz-adv-x="1106"/>
<glyph d="M267 548q112 0 175.5 -72.5t63.5 -210.5q0 -132 -64 -207t-175 -75q-112 0 -175 73t-63 210q0 133 63.5 207.5t174.5 74.5zM1007 531l-151 -532q-57 -207 -278 -221l-17 107q69 10 103 35.5t54 79.5h-55l-142 531h158l82 -433l91 433h155zM267 434q-41 0 -60 -39 t-19 -129q0 -92 19 -131t60 -39t60.5 39.5t19.5 129.5q0 92 -19 130.5t-61 38.5z" unicode="ѹ" glyph-name="uni0479" horiz-adv-x="1002"/>
<glyph d="M300 751q-72 0 -112.5 41t-46.5 111l83 15q15 -60 76 -60t75 60l84 -15q-6 -69 -47 -110.5t-112 -41.5zM544 122h105l-85 -287h-109l35 165h-99v264q0 135 20 271l-166 -535h-190v693h152v-268q0 -130 -19 -267l168 535h188v-571z" unicode="Ҋ" glyph-name="uni048A" horiz-adv-x="637"/>
<glyph d="M268 633q-72 0 -112.5 41t-46.5 111l83 15q15 -60 76 -60t75 60l84 -15q-6 -69 -47 -110.5t-112 -41.5zM483 114h103l-83 -279h-104l35 165h-93v190q0 110 22 192l-157 -382h-154v531h143v-192q0 -105 -21 -191l154 383h155v-417z" unicode="ҋ" glyph-name="uni048B" horiz-adv-x="570"/>
<glyph d="M287 446q123 0 188.5 -54.5t65.5 -162.5q0 -114 -67.5 -171.5t-186.5 -57.5h-220v520h-53v96h53v77h160v-77h113v-96h-113v-74h60zM277 116q98 0 98 112q0 107 -103 107h-45v-219h50z" unicode="Ҍ" glyph-name="uni048C" horiz-adv-x="554"/>
<glyph d="M242 345q232 0 232 -172q0 -86 -58 -129.5t-163 -43.5h-189v395h-53v91h53v45h154v-45h119l-12 -91h-107v-50h24zM248 102q70 0 70 73q0 38 -17 55.5t-55 17.5h-28v-146h30z" unicode="ҍ" glyph-name="uni048D" horiz-adv-x="486"/>
<glyph d="M529 468q0 -150 -116 -206l48 -94h-70l-38 73q-39 -9 -85 -9h-57v-232h-156v693h198q133 0 204.5 -57t71.5 -168zM301 479l52 -100q18 29 18 88q0 58 -27.5 85t-88.5 27h-44v-237h44q28 0 45 4l-69 133h70z" unicode="Ҏ" glyph-name="uni048E" horiz-adv-x="544"/>
<glyph d="M512 267q0 -91 -28 -159t-77 -100l51 -100h-68l-40 78q-14 -3 -29 -3q-69 0 -115 54v-242l-154 -16v752h137l7 -58q54 75 138 75q89 0 133.5 -73t44.5 -208zM277 84q7 0 21 2l-69 133h69l44 -86q14 42 14 132q0 98 -18 134t-56 36q-43 0 -76 -59v-248q29 -44 71 -44z" unicode="ҏ" glyph-name="uni048F"/>
<glyph d="M316 838h147v-145l-16 -126h-232v-567h-160v693h261v145z" unicode="Ґ" glyph-name="uni0490" horiz-adv-x="462"/>
<glyph d="M261 683h138v-152l-18 -117h-175v-414h-154v531h209v152z" unicode="ґ" glyph-name="uni0491" horiz-adv-x="393"/>
<glyph d="M455 567h-232v-143h125v-96h-125v-328h-160v328h-67v96h67v269h408z" unicode="Ғ" glyph-name="uni0492" horiz-adv-x="471"/>
<glyph d="M390 414h-175v-107h98v-88h-98v-219h-154v219h-52v88h52v224h347z" unicode="ғ" glyph-name="uni0493" horiz-adv-x="403"/>
<glyph d="M354 453q92 0 143.5 -59.5t51.5 -165.5v-269q0 -89 -51 -134.5t-137 -45.5q-78 0 -133 42l53 92q34 -18 61 -18q47 0 47 55v278q0 107 -80 107q-56 0 -94 -43v-292h-160v693h400l-16 -121h-224v-174q55 55 139 55z" unicode="Ҕ" glyph-name="uni0494" horiz-adv-x="571"/>
<glyph d="M342 352q62 0 97.5 -42.5t35.5 -119.5v-234q0 -86 -50.5 -131.5t-132.5 -45.5q-81 0 -135 42l53 88q33 -18 62 -18q49 0 49 55v225q0 65 -38 65q-34 0 -77 -58v-178h-154v531h347l-18 -110h-175v-135q57 66 136 66z" unicode="ҕ" glyph-name="uni0495" horiz-adv-x="502"/>
<glyph d="M777 122h60v-287h-109l-17 165h-50l-124 304h-52v-304h-146v304h-54l-126 -304h-166l165 378l-149 315h154l126 -275h50v275h146v-275h49l128 275h153l-150 -315z" unicode="Җ" glyph-name="uni0496" horiz-adv-x="827"/>
<glyph d="M637 114h55v-279h-104l-17 165h-37l-87 228h-39v-228h-134v228h-39l-87 -228h-150l118 284l-108 247h139l86 -209h41v209h134v-209h41l87 209h138l-107 -247z" unicode="җ" glyph-name="uni0497" horiz-adv-x="686"/>
<glyph d="M471 197q0 -82 -51.5 -137.5t-138.5 -70.5q79 -47 79 -122q0 -57 -38 -90t-99 -33q-57 0 -100 25l31 75q24 -13 53 -13q50 0 50 51q0 59 -59 101q-127 7 -202 97l83 82q62 -60 125 -60q46 0 72.5 26.5t26.5 76.5q0 103 -106 103h-67l18 115h52q43 0 65.5 23t22.5 65 q0 83 -77 83q-59 0 -123 -55l-73 80q89 91 217 91q100 0 160 -51t60 -131q0 -128 -144 -160q78 -10 120.5 -53t42.5 -118z" unicode="Ҙ" glyph-name="uni0498" horiz-adv-x="491"/>
<glyph d="M423 153q0 -70 -44.5 -112t-121.5 -54q77 -46 77 -120q0 -57 -38 -90t-99 -33q-57 0 -100 25l31 75q24 -13 53 -13q50 0 50 51q0 58 -59 102q-100 6 -171 64l71 83q58 -38 116 -38q76 0 76 68q0 63 -82 63h-68l8 99h49q73 0 73 63q0 55 -61 55q-49 0 -98 -34l-70 79 q80 62 195 62q82 0 136 -40t54 -107q0 -89 -112 -118q68 -10 101.5 -41t33.5 -89z" unicode="ҙ" glyph-name="uni0499" horiz-adv-x="452"/>
<glyph d="M524 122h61v-287h-109l-17 165h-51l-132 303h-61v-303h-160v693h160v-273h65l128 273h153l-150 -315z" unicode="Қ" glyph-name="uni049A" horiz-adv-x="572"/>
<glyph d="M453 114h59v-279h-104l-17 165h-43l-101 229h-41v-229h-154v531h154v-208h44l102 208h144l-123 -246z" unicode="қ" glyph-name="uni049B" horiz-adv-x="504"/>
<glyph d="M433 378l150 -378h-166l-108 308h-14v-161h-58v161h-29v-308h-153v693h153v-279h29v159h58v-159h13l106 279h153z" unicode="Ҝ" glyph-name="uni049C" horiz-adv-x="583"/>
<glyph d="M393 285l113 -285h-154l-79 235h-11v-118h-41v118h-23v-235h-146v531h146v-214h23v116h41v-116h11l83 214h141z" unicode="ҝ" glyph-name="uni049D" horiz-adv-x="504"/>
<glyph d="M422 378l167 -378h-170l-132 303h-61v-303h-160v519h-52v98h52v76h160v-76h70v-98h-70v-99h65l128 273h153z" unicode="Ҟ" glyph-name="uni049E" horiz-adv-x="583"/>
<glyph d="M379 285l133 -285h-158l-101 229h-40v-229h-154v562h-53v91h53v89l154 15v-104h116v-91h-116v-239h44l102 208h143z" unicode="ҟ" glyph-name="uni049F" horiz-adv-x="507"/>
<glyph d="M522 378l167 -378h-170l-132 303h-61v-303h-160v573l-1 -1h-158v121h319v-273h65l128 273h153z" unicode="Ҡ" glyph-name="uni04A0" horiz-adv-x="683"/>
<glyph d="M453 285l133 -285h-158l-101 229h-41v-229h-154v421h-130v110h284v-208h44l102 208h144z" unicode="ҡ" glyph-name="uni04A1" horiz-adv-x="580"/>
<glyph d="M548 122h72v-287h-109l-17 165h-106v298h-173v-298h-160v693h160v-270h173v270h160v-571z" unicode="Ң" glyph-name="uni04A2" horiz-adv-x="628"/>
<glyph d="M479 114h72v-279h-104l-17 165h-105v213h-119v-213h-154v531h154v-205h119v205h154v-417z" unicode="ң" glyph-name="uni04A3" horiz-adv-x="549"/>
<glyph d="M714 693l-17 -122h-149v-571h-160v298h-173v-298h-160v693h160v-270h173v269l-1 1h327z" unicode="Ҥ" glyph-name="uni04A4" horiz-adv-x="713"/>
<glyph d="M623 531l-20 -114h-124v-417h-154v213h-119v-213h-154v531h154v-205h119v205h298z" unicode="ҥ" glyph-name="uni04A5" horiz-adv-x="616"/>
<glyph d="M682 469q92 0 143.5 -59.5t51.5 -165.5v-285q0 -89 -51 -134.5t-137 -45.5q-78 0 -133 42l53 92q34 -18 61 -18q47 0 47 55v294q0 106 -80 106q-54 0 -90 -39v-311h-161v570h-171v-570h-160v693h492v-275q54 51 135 51z" unicode="Ҧ" glyph-name="uni04A6" horiz-adv-x="899"/>
<glyph d="M608 352q62 0 97.5 -42.5t35.5 -119.5v-234q0 -86 -50.5 -131.5t-132.5 -45.5q-81 0 -135 42l53 88q33 -18 62 -18q49 0 49 55v225q0 65 -38 65q-34 0 -73 -52v-184h-154v417h-116v-417h-154v531h424v-239q55 60 132 60z" unicode="ҧ" glyph-name="uni04A7" horiz-adv-x="767"/>
<glyph d="M626 270q0 -70 -34 -135.5t-97 -105.5q18 -27 81 -114l-76 -53q-93 128 -94 130q-38 -9 -83 -9q-135 0 -214 95t-79 270q0 174 79.5 268t207.5 94q112 0 196 -76l-76 -89q-56 46 -110 46q-130 0 -130 -243q0 -241 134 -241h5q-44 83 -44 160q0 81 45.5 128.5t120.5 47.5 q72 0 120 -45t48 -128zM408 266q0 -66 29 -133q65 42 65 142q0 69 -45 69q-49 0 -49 -78z" unicode="Ҩ" glyph-name="uni04A8" horiz-adv-x="655"/>
<glyph d="M544 221q0 -58 -27 -109.5t-78 -84.5q26 -40 79 -112l-72 -53q-67 90 -93 129q-38 -8 -79 -8q-115 0 -180 72.5t-65 205.5q0 131 65 209t176 78q82 0 138 -42l-53 -98q-32 22 -73 22q-46 0 -69 -38t-23 -130q0 -91 23.5 -128t67.5 -37h8q-34 70 -34 125q0 65 39 105.5 t105 40.5q65 0 105 -38.5t40 -108.5zM361 225q0 -45 25 -102q49 33 49 107q0 53 -36 53q-38 0 -38 -58z" unicode="ҩ" glyph-name="uni04A9" horiz-adv-x="573"/>
<glyph d="M520 72q-68 -71 -159 -86q75 -46 75 -119q0 -57 -38 -90t-99 -33q-57 0 -100 25l31 75q24 -13 53 -13q50 0 50 51q0 60 -63 104q-112 17 -176 109t-64 253q0 174 79.5 268t207.5 94q112 0 196 -76l-76 -89q-56 46 -110 46q-130 0 -130 -243q0 -241 131 -241q55 0 120 53z " unicode="Ҫ" glyph-name="uni04AA" horiz-adv-x="524"/>
<glyph d="M368 137l67 -91q-56 -51 -128 -61q73 -46 73 -118q0 -57 -38 -90t-99 -33q-57 0 -100 25l31 75q24 -13 53 -13q50 0 50 51q0 62 -67 107q-86 19 -133.5 89.5t-47.5 182.5q0 131 65 209t176 78q95 0 165 -65l-64 -88q-44 35 -89 35q-46 0 -69 -38t-23 -130 q0 -88 23.5 -123t67.5 -35q39 0 87 33z" unicode="ҫ" glyph-name="uni04AB" horiz-adv-x="436"/>
<glyph d="M474 571h-149v-449h73v-287h-109l-17 165h-107v571h-158v122h484z" unicode="Ҭ" glyph-name="uni04AC" horiz-adv-x="490"/>
<glyph d="M417 417h-125v-303h72v-279h-104l-17 165h-105v417h-136v114h434z" unicode="ҭ" glyph-name="uni04AD" horiz-adv-x="430"/>
<glyph d="M551 693l-200 -433v-260h-160v259l-200 434h171l111 -308l113 308h165z" unicode="Ү" glyph-name="uni04AE" horiz-adv-x="542"/>
<glyph d="M476 531l-166 -525v-211l-150 -16v227l-165 525h162l81 -395l85 395h153z" unicode="ү" glyph-name="uni04AF" horiz-adv-x="470"/>
<glyph d="M551 693l-175 -379h67v-91h-92v-223h-160v223h-92v91h67l-175 379h171l111 -308l113 308h165z" unicode="Ұ" glyph-name="uni04B0" horiz-adv-x="542"/>
<glyph d="M476 531l-142 -449h62v-87h-86v-200l-150 -16v216h-85v87h61l-141 449h162l81 -395l85 395h153z" unicode="ұ" glyph-name="uni04B1" horiz-adv-x="470"/>
<glyph d="M478 122h65v-287h-109l-17 165h-52l-104 267l-100 -267h-167l173 368l-160 325h170l86 -225l92 225h166l-164 -319z" unicode="Ҳ" glyph-name="uni04B2" horiz-adv-x="530"/>
<glyph d="M418 114h70v-279h-104l-17 165h-55l-82 201l-78 -201h-162l152 279l-138 252h165l65 -172l62 172h159l-129 -247z" unicode="ҳ" glyph-name="uni04B3" horiz-adv-x="480"/>
<glyph d="M658 122h72v-287h-109l-17 165h-439v572h-158v121h443l-15 -121h-110v-447h173v568h160v-571z" unicode="Ҵ" glyph-name="uni04B4" horiz-adv-x="739"/>
<glyph d="M576 114h72v-279h-104l-17 165h-389v421h-136v110h378l-13 -110h-75v-307h130v417h154v-417z" unicode="ҵ" glyph-name="uni04B5" horiz-adv-x="646"/>
<glyph d="M508 122h72v-287h-109l-17 165h-106v257q-61 -53 -138 -53q-88 0 -140 57.5t-52 159.5v272h157v-263q0 -58 20 -82.5t62 -24.5q55 0 91 38v332h160v-571z" unicode="Ҷ" glyph-name="uni04B6" horiz-adv-x="589"/>
<glyph d="M448 114h72v-279h-104l-17 165h-105v200q-56 -51 -130 -51q-68 0 -103.5 40.5t-35.5 113.5v228h154v-211q0 -57 44 -57q40 0 71 34v234h154v-417z" unicode="ҷ" glyph-name="uni04B7" horiz-adv-x="518"/>
<glyph d="M348 693h160v-693h-160v257q-27 -24 -53 -36v-98h-58v82q-9 -1 -27 -1q-88 0 -140 57.5t-52 159.5v272h157v-263q0 -96 62 -105v224h58v-221q30 8 53 33v332z" unicode="Ҹ" glyph-name="uni04B8" horiz-adv-x="563"/>
<glyph d="M299 531h149v-531h-149v204q-22 -20 -43 -32v-87h-45v70q-23 -6 -48 -6q-67 0 -102.5 40.5t-35.5 113.5v228h147v-214q0 -52 39 -56v136h45v-129q26 11 43 32v231z" unicode="ҹ" glyph-name="uni04B9" horiz-adv-x="500"/>
<glyph d="M354 469q92 0 143.5 -59.5t51.5 -165.5v-244h-160v244q0 106 -80 106q-56 0 -94 -43v-307h-160v693h160v-279q55 55 139 55z" unicode="Һ" glyph-name="uni04BA" horiz-adv-x="571"/>
<glyph d="M342 488q62 0 97.5 -42.5t35.5 -118.5v-327h-154v306q0 66 -38 66q-36 0 -77 -64v-308h-154v742l154 15v-339q53 70 136 70z" unicode="һ" glyph-name="uni04BB" horiz-adv-x="519"/>
<glyph d="M698 356q0 -33 -5 -66h-365q3 -98 34.5 -143.5t92.5 -45.5q41 0 71 13.5t64 40.5l73 -83q-92 -89 -222 -89q-121 0 -191.5 77t-80.5 229h-4q-81 0 -126.5 38.5t-45.5 104.5q0 59 42 124l98 -43q-17 -41 -17 -68q0 -42 41 -42h12q12 153 81.5 230t185.5 77q262 0 262 -354 zM327 400h217q-1 193 -106 193q-52 0 -79.5 -44t-31.5 -149z" unicode="Ҽ" glyph-name="uni04BC" horiz-adv-x="718"/>
<glyph d="M602 276q0 -32 -3 -56h-296q6 -70 31 -97t71 -27q54 0 116 45l63 -85q-82 -73 -191 -73t-170.5 62t-72.5 173h-2q-74 0 -113 36t-39 98q0 52 34 109l86 -36q-13 -39 -13 -61q0 -45 41 -45h7q12 104 71 166.5t155 62.5q105 0 165 -70.5t60 -201.5zM451 313v7 q0 63 -16.5 94.5t-55.5 31.5q-35 0 -54 -29.5t-23 -103.5h149z" unicode="ҽ" glyph-name="uni04BD" horiz-adv-x="626"/>
<glyph d="M698 356q0 -33 -5 -66h-365q3 -98 34.5 -143.5t92.5 -45.5q41 0 71 13.5t64 40.5l73 -83q-56 -55 -124 -75q-97 -43 -97 -100q0 -46 47 -46q19 0 54 7l-10 -95q-30 -8 -63 -8q-61 0 -99.5 31t-38.5 84q0 69 60 116q-99 15 -156.5 91.5t-66.5 211.5h-4q-81 0 -126.5 38.5 t-45.5 104.5q0 59 42 124l98 -43q-17 -41 -17 -68q0 -42 41 -42h12q12 153 81.5 230t185.5 77q262 0 262 -354zM327 400h217q-1 193 -106 193q-52 0 -79.5 -44t-31.5 -149z" unicode="Ҿ" glyph-name="uni04BE" horiz-adv-x="718"/>
<glyph d="M602 276q0 -32 -3 -56h-296q6 -70 31 -97t71 -27q54 0 116 45l63 -85q-44 -39 -95 -57q-83 -40 -83 -93q0 -46 47 -46q19 0 54 7l-10 -95q-30 -8 -63 -8q-61 0 -99.5 31t-38.5 84q0 63 49 107q-87 13 -136.5 73.5t-58.5 158.5h-2q-74 0 -113 36t-39 98q0 52 34 109 l86 -36q-13 -39 -13 -61q0 -45 41 -45h7q12 104 71 166.5t155 62.5q105 0 165 -70.5t60 -201.5zM451 313v7q0 63 -16.5 94.5t-55.5 31.5q-35 0 -54 -29.5t-23 -103.5h149z" unicode="ҿ" glyph-name="uni04BF" horiz-adv-x="626"/>
<glyph d="M215 693v-693h-160v693h160z" unicode="Ӏ" glyph-name="uni04C0" horiz-adv-x="269"/>
<glyph d="M412 751q-72 0 -112.5 41t-46.5 111l83 15q15 -60 76 -60t75 60l84 -15q-6 -69 -47 -110.5t-112 -41.5zM815 693l-150 -315l166 -378h-170l-124 304h-52v-304h-146v304h-54l-126 -304h-166l165 378l-149 315h154l126 -275h50v275h146v-275h49l128 275h153z" unicode="Ӂ" glyph-name="uni04C1" horiz-adv-x="823"/>
<glyph d="M341 633q-72 0 -112.5 41t-46.5 111l83 15q15 -60 76 -60t75 60l84 -15q-6 -69 -47 -110.5t-112 -41.5zM674 531l-107 -247l117 -284h-150l-87 228h-39v-228h-134v228h-39l-87 -228h-150l118 284l-108 247h139l86 -209h41v209h134v-209h41l87 209h138z" unicode="ӂ" glyph-name="uni04C2" horiz-adv-x="682"/>
<glyph d="M413 404q133 -33 133 -208v-196h-1v-41q0 -89 -51 -134.5t-137 -45.5q-78 0 -133 42l53 92q34 -18 61 -18q47 0 47 55v51h1v195q0 51 -20.5 74.5t-65.5 23.5h-85v-294h-160v693h160v-282h58l128 282h154z" unicode="Ӄ" glyph-name="uni04C3" horiz-adv-x="576"/>
<glyph d="M375 308q107 -24 107 -151v-201q0 -86 -50 -131.5t-133 -45.5q-81 0 -135 42l53 88q33 -18 62 -18q49 0 49 55v211q0 34 -13 48t-43 14h-66v-219h-154v531h154v-218h37l103 218h143z" unicode="ӄ" glyph-name="uni04C4" horiz-adv-x="513"/>
<glyph d="M537 122h105l-85 -287h-109l35 165h-106v571h-113l-25 -240q-19 -179 -59 -249.5t-142 -98.5l-38 113q44 20 60 64t30 180l37 353h410v-571z" unicode="Ӆ" glyph-name="uni04C5" horiz-adv-x="630"/>
<glyph d="M463 114h102l-83 -279h-104l35 165h-104v418h-81l-10 -127q-12 -164 -43 -221t-129 -83l-38 112q39 18 51 52t19 148l15 232h370v-417z" unicode="ӆ" glyph-name="uni04C6" horiz-adv-x="556"/>
<glyph d="M548 693v-693h-1v-41q0 -89 -51 -134.5t-137 -45.5q-78 0 -133 42l53 92q34 -18 61 -18q47 0 47 55v51h1v297h-173v-298h-160v693h160v-270h173v270h160z" unicode="Ӈ" glyph-name="uni04C7" horiz-adv-x="596"/>
<glyph d="M325 531h154v-575q0 -86 -50.5 -131.5t-132.5 -45.5q-81 0 -135 42l53 88q33 -18 62 -18q49 0 49 55v267h-119v-213h-154v531h154v-205h119v205z" unicode="ӈ" glyph-name="uni04C8" horiz-adv-x="531"/>
<glyph d="M548 122h105l-85 -287h-109l35 165h-106v298h-173v-298h-160v693h160v-270h173v270h160v-571z" unicode="Ӊ" glyph-name="uni04C9" horiz-adv-x="640"/>
<glyph d="M479 114h103l-83 -279h-104l35 165h-105v213h-119v-213h-154v531h154v-205h119v205h154v-417z" unicode="ӊ" glyph-name="uni04CA" horiz-adv-x="572"/>
<glyph d="M348 693h160v-693h-98l-17 -165h-109v281h64v148q-58 -54 -138 -54q-88 0 -140 58t-52 160v265h157v-256q0 -58 20 -83t62 -25q55 0 91 38v326z" unicode="Ӌ" glyph-name="uni04CB" horiz-adv-x="563"/>
<glyph d="M294 531h154v-531h-102l-17 -165h-104v273h69v111q-56 -51 -131 -51q-67 0 -102.5 40.5t-35.5 113.5v209h154v-192q0 -56 44 -56q40 0 71 34v214z" unicode="ӌ" glyph-name="uni04CC" horiz-adv-x="500"/>
<glyph d="M682 122h114l-85 -287h-109l35 165h-100l-9 274q-7 171 -2 280l-91 -481h-150l-96 481q7 -134 2 -283l-9 -271h-152l46 693h200l87 -472l80 472h201z" unicode="Ӎ" glyph-name="uni04CD" horiz-adv-x="772"/>
<glyph d="M580 114h112l-83 -279h-104l35 165h-95l-8 194q-3 81 3 203l-71 -343h-126l-71 343q7 -101 4 -203l-7 -194h-144l40 531h180l61 -345l61 345h181z" unicode="ӎ" glyph-name="uni04CE" horiz-adv-x="682"/>
<glyph d="M187 -17q-66 0 -103 38t-37 106v615l154 16v-624q0 -29 24 -29q10 0 22 4l29 -107q-40 -19 -89 -19z" unicode="ӏ" glyph-name="uni04CF" horiz-adv-x="273"/>
<glyph d="M272 751q-72 0 -112.5 41t-46.5 111l83 15q15 -60 76 -60t75 60l84 -15q-6 -69 -47 -110.5t-112 -41.5zM389 0l-31 151h-176l-31 -151h-162l187 693h192l186 -693h-165zM206 266h128l-64 310z" unicode="Ӑ" glyph-name="uni04D0"/>
<glyph d="M246 633q-72 0 -112.5 41t-46.5 111l83 15q15 -60 76 -60t75 60l84 -15q-6 -69 -47 -110.5t-112 -41.5zM443 147q0 -27 7 -40t24 -20l-32 -101q-91 8 -120 74q-50 -77 -143 -77q-72 0 -114.5 45.5t-42.5 120.5q0 87 58.5 133t169.5 46h42v25q0 47 -17 65.5t-60 18.5 q-49 0 -125 -27l-35 99q94 39 187 39q103 0 152 -46t49 -140v-215zM225 93q44 0 67 50v99h-28q-91 0 -91 -80q0 -69 52 -69z" unicode="ӑ" glyph-name="uni04D1" horiz-adv-x="497"/>
<glyph d="M167 768q-32 0 -54.5 22.5t-22.5 55.5q0 32 22.5 54.5t54.5 22.5q33 0 55 -22t22 -55t-22 -55.5t-55 -22.5zM379 768q-32 0 -54.5 22.5t-22.5 55.5q0 32 22.5 54.5t54.5 22.5q33 0 55.5 -22.5t22.5 -54.5q0 -33 -22 -55.5t-56 -22.5zM389 0l-31 151h-176l-31 -151h-162 l187 693h192l186 -693h-165zM206 266h128l-64 310z" unicode="Ӓ" glyph-name="uni04D2"/>
<glyph d="M139 642q-32 0 -54.5 22.5t-22.5 55.5q0 32 22.5 54.5t54.5 22.5q33 0 55 -22t22 -55t-22 -55.5t-55 -22.5zM351 642q-32 0 -54.5 22.5t-22.5 55.5q0 32 22.5 54.5t54.5 22.5q33 0 55.5 -22.5t22.5 -54.5q0 -33 -22 -55.5t-56 -22.5zM443 147q0 -27 7 -40t24 -20 l-32 -101q-91 8 -120 74q-50 -77 -143 -77q-72 0 -114.5 45.5t-42.5 120.5q0 87 58.5 133t169.5 46h42v25q0 47 -17 65.5t-60 18.5q-49 0 -125 -27l-35 99q94 39 187 39q103 0 152 -46t49 -140v-215zM225 93q44 0 67 50v99h-28q-91 0 -91 -80q0 -69 52 -69z" unicode="ӓ" glyph-name="uni04D3" horiz-adv-x="497"/>
<glyph d="M533 116h209v-116h-343l-21 151h-185l-44 -151h-171l245 693h486l-17 -114h-237l29 -172h216v-113h-197zM227 267h134l-44 309z" unicode="Ӕ" glyph-name="uni04D4" horiz-adv-x="766"/>
<glyph d="M752 276q0 -32 -3 -56h-295q6 -69 32 -96.5t73 -27.5q51 0 112 45l63 -84q-81 -74 -189 -74q-127 0 -192 89q-62 -89 -168 -89q-75 0 -119 46t-44 120q0 85 60 130.5t174 45.5h42v26q0 48 -17 66.5t-60 18.5q-49 0 -125 -27l-34 100q94 39 183 39q101 0 146 -67 q57 67 149 67q97 0 154.5 -71t57.5 -201zM603 313v7q0 125 -73 125q-35 0 -54 -30t-23 -102h150zM232 93q45 0 81 65q-11 38 -12 79v1h-30q-90 0 -90 -79q0 -66 51 -66z" unicode="ӕ" glyph-name="uni04D5" horiz-adv-x="776"/>
<glyph d="M252 751q-72 0 -112.5 41t-46.5 111l83 15q15 -60 76 -60t75 60l84 -15q-6 -69 -47 -110.5t-112 -41.5zM447 693l-17 -114h-215v-171h188v-112h-188v-180h230v-116h-390v693h392z" unicode="Ӗ" glyph-name="uni04D6" horiz-adv-x="474"/>
<glyph d="M260 633q-72 0 -112.5 41t-46.5 111l83 15q15 -60 76 -60t75 60l84 -15q-6 -69 -47 -110.5t-112 -41.5zM483 276q0 -32 -3 -56h-296q6 -70 31 -97t71 -27q54 0 116 45l63 -85q-82 -73 -191 -73q-120 0 -182.5 74.5t-62.5 205.5q0 128 60 206.5t169 78.5q105 0 165 -70.5 t60 -201.5zM332 313v7q0 63 -16.5 94.5t-55.5 31.5q-35 0 -54 -29.5t-23 -103.5h149z" unicode="ӗ" glyph-name="uni04D7" horiz-adv-x="507"/>
<glyph d="M280 710q271 0 271 -358q0 -186 -70.5 -277.5t-197.5 -91.5q-263 0 -263 355q0 16 5 66h365q-3 102 -34 145.5t-91 43.5q-70 0 -139 -56l-71 85q96 88 225 88zM282 100q52 0 78 43t30 150h-216q0 -105 28 -149t80 -44z" unicode="Ә" glyph-name="uni04D8" horiz-adv-x="582"/>
<glyph d="M246 548q118 0 176 -74t58 -208q0 -130 -60 -206.5t-171 -76.5q-105 0 -165 69.5t-60 202.5q0 32 3 56h306q-3 68 -26 97.5t-67 29.5q-64 0 -122 -42l-62 84q79 68 190 68zM250 92q40 0 60 27.5t24 98.5h-167v-8q1 -118 83 -118z" unicode="ә" glyph-name="uni04D9" horiz-adv-x="509"/>
<glyph d="M175 768q-32 0 -54.5 22.5t-22.5 55.5q0 32 22.5 54.5t54.5 22.5q33 0 55 -22t22 -55t-22 -55.5t-55 -22.5zM387 768q-32 0 -54.5 22.5t-22.5 55.5q0 32 22.5 54.5t54.5 22.5q33 0 55.5 -22.5t22.5 -54.5q0 -33 -22 -55.5t-56 -22.5zM280 710q271 0 271 -358 q0 -186 -70.5 -277.5t-197.5 -91.5q-263 0 -263 355q0 16 5 66h365q-3 102 -34 145.5t-91 43.5q-70 0 -139 -56l-71 85q96 88 225 88zM282 100q52 0 78 43t30 150h-216q0 -105 28 -149t80 -44z" unicode="Ӛ" glyph-name="uni04DA" horiz-adv-x="582"/>
<glyph d="M139 642q-32 0 -54.5 22.5t-22.5 55.5q0 32 22.5 54.5t54.5 22.5q33 0 55 -22t22 -55t-22 -55.5t-55 -22.5zM351 642q-32 0 -54.5 22.5t-22.5 55.5q0 32 22.5 54.5t54.5 22.5q33 0 55.5 -22.5t22.5 -54.5q0 -33 -22 -55.5t-56 -22.5zM246 548q118 0 176 -74t58 -208 q0 -130 -60 -206.5t-171 -76.5q-105 0 -165 69.5t-60 202.5q0 32 3 56h306q-3 68 -26 97.5t-67 29.5q-64 0 -122 -42l-62 84q79 68 190 68zM250 92q40 0 60 27.5t24 98.5h-167v-8q1 -118 83 -118z" unicode="ӛ" glyph-name="uni04DB" horiz-adv-x="509"/>
<glyph d="M307 923q33 0 55 -22t22 -55t-22 -55.5t-55 -22.5q-32 0 -54.5 22.5t-22.5 55.5q0 32 22.5 54.5t54.5 22.5zM519 923q33 0 55.5 -22.5t22.5 -54.5q0 -33 -22 -55.5t-56 -22.5q-32 0 -54.5 22.5t-22.5 55.5q0 32 22.5 54.5t54.5 22.5zM815 693l-150 -315l166 -378h-170 l-124 304h-52v-304h-146v304h-54l-126 -304h-166l165 378l-149 315h154l126 -275h50v275h146v-275h49l128 275h153z" unicode="Ӝ" glyph-name="uni04DC" horiz-adv-x="823"/>
<glyph d="M234 797q33 0 55 -22t22 -55t-22 -55.5t-55 -22.5q-32 0 -54.5 22.5t-22.5 55.5q0 32 22.5 54.5t54.5 22.5zM446 797q34 0 56 -22.5t22 -54.5q0 -33 -22 -55.5t-56 -22.5q-32 0 -54.5 22.5t-22.5 55.5q0 32 22.5 54.5t54.5 22.5zM674 531l-107 -247l117 -284h-150 l-87 228h-39v-228h-134v228h-39l-87 -228h-150l118 284l-108 247h139l86 -209h41v209h134v-209h41l87 209h138z" unicode="ӝ" glyph-name="uni04DD" horiz-adv-x="682"/>
<glyph d="M127 923q33 0 55 -22t22 -55t-22 -55.5t-55 -22.5q-32 0 -54.5 22.5t-22.5 55.5q0 32 22.5 54.5t54.5 22.5zM339 923q33 0 55.5 -22.5t22.5 -54.5q0 -33 -22 -55.5t-56 -22.5q-32 0 -54.5 22.5t-22.5 55.5q0 32 22.5 54.5t54.5 22.5zM217 -17q-141 0 -221 97l83 82 q62 -60 125 -60q46 0 72.5 26.5t26.5 76.5q0 103 -106 103h-67l18 115h52q43 0 65.5 23t22.5 65q0 83 -77 83q-59 0 -123 -55l-73 80q89 91 217 91q100 0 160 -51t60 -131q0 -128 -144 -160q78 -10 120.5 -53t42.5 -118q0 -97 -70.5 -155.5t-183.5 -58.5z" unicode="Ӟ" glyph-name="uni04DE" horiz-adv-x="491"/>
<glyph d="M105 797q33 0 55 -22t22 -55t-22 -55.5t-55 -22.5q-32 0 -54.5 22.5t-22.5 55.5q0 32 22.5 54.5t54.5 22.5zM317 797q33 0 55.5 -22.5t22.5 -54.5q0 -33 -22 -55.5t-56 -22.5q-32 0 -54.5 22.5t-22.5 55.5q0 32 22.5 54.5t54.5 22.5zM210 548q82 0 136 -40t54 -107 q0 -89 -112 -118q68 -10 101.5 -41t33.5 -89q0 -83 -61 -126.5t-164 -43.5q-118 0 -197 65l71 83q58 -38 116 -38q76 0 76 68q0 63 -82 63h-68l8 99h49q73 0 73 63q0 55 -61 55q-49 0 -98 -34l-70 79q80 62 195 62z" unicode="ӟ" glyph-name="uni04DF" horiz-adv-x="452"/>
<glyph d="M279 402q96 -4 146.5 -55t50.5 -142q0 -97 -67.5 -159.5t-185.5 -62.5q-141 0 -221 102l83 76q59 -59 127 -59q47 0 73 28.5t26 80.5t-27.5 75t-82.5 23h-87v90l161 178h-236v116h404v-113z" unicode="Ӡ" glyph-name="uni04E0" horiz-adv-x="495"/>
<glyph d="M253 211q196 -14 196 -202q0 -102 -66 -166t-180 -64q-140 0 -217 101l81 77q62 -61 126 -61q47 0 72.5 30t25.5 90q0 56 -27 80.5t-84 24.5h-82v90l154 205h-229v115h396v-106z" unicode="ӡ" glyph-name="uni04E1" horiz-adv-x="463"/>
<glyph d="M440 783h-280v105h280v-105zM544 693v-693h-153v264q0 135 20 271l-166 -535h-190v693h152v-268q0 -130 -19 -267l168 535h188z" unicode="Ӣ" glyph-name="uni04E2" horiz-adv-x="599"/>
<glyph d="M408 657h-280v105h280v-105zM483 531v-531h-142v190q0 110 22 192l-157 -382h-154v531h143v-192q0 -105 -21 -191l154 383h155z" unicode="ӣ" glyph-name="uni04E3" horiz-adv-x="535"/>
<glyph d="M195 923q33 0 55 -22t22 -55t-22 -55.5t-55 -22.5q-32 0 -54.5 22.5t-22.5 55.5q0 32 22.5 54.5t54.5 22.5zM407 923q33 0 55.5 -22.5t22.5 -54.5q0 -33 -22 -55.5t-56 -22.5q-32 0 -54.5 22.5t-22.5 55.5q0 32 22.5 54.5t54.5 22.5zM544 693v-693h-153v264q0 135 20 271 l-166 -535h-190v693h152v-268q0 -130 -19 -267l168 535h188z" unicode="Ӥ" glyph-name="uni04E4" horiz-adv-x="599"/>
<glyph d="M161 797q33 0 55 -22t22 -55t-22 -55.5t-55 -22.5q-32 0 -54.5 22.5t-22.5 55.5q0 32 22.5 54.5t54.5 22.5zM373 797q33 0 55.5 -22.5t22.5 -54.5q0 -33 -22 -55.5t-56 -22.5q-32 0 -54.5 22.5t-22.5 55.5q0 32 22.5 54.5t54.5 22.5zM483 531v-531h-142v190q0 110 22 192 l-157 -382h-154v531h143v-192q0 -105 -21 -191l154 383h155z" unicode="ӥ" glyph-name="uni04E5" horiz-adv-x="535"/>
<glyph d="M210 923q33 0 55 -22t22 -55t-22 -55.5t-55 -22.5q-32 0 -54.5 22.5t-22.5 55.5q0 32 22.5 54.5t54.5 22.5zM422 923q34 0 56 -22.5t22 -54.5q0 -33 -22 -55.5t-56 -22.5q-32 0 -54.5 22.5t-22.5 55.5q0 32 22.5 54.5t54.5 22.5zM315 710q137 0 211 -92.5t74 -270.5 q0 -176 -74.5 -270t-210.5 -94t-210.5 93t-74.5 271q0 175 74.5 269t210.5 94zM315 593q-61 0 -89.5 -57t-28.5 -189q0 -134 29 -190.5t89 -56.5q61 0 89.5 56.5t28.5 190.5q0 132 -28.5 189t-89.5 57z" unicode="Ӧ" glyph-name="uni04E6" horiz-adv-x="630"/>
<glyph d="M160 797q33 0 55 -22t22 -55t-22 -55.5t-55 -22.5q-32 0 -54.5 22.5t-22.5 55.5q0 32 22.5 54.5t54.5 22.5zM372 797q34 0 56 -22.5t22 -54.5q0 -33 -22 -55.5t-56 -22.5q-32 0 -54.5 22.5t-22.5 55.5q0 32 22.5 54.5t54.5 22.5zM267 548q112 0 175.5 -72.5t63.5 -210.5 q0 -132 -64 -207t-175 -75q-112 0 -175 73t-63 210q0 133 63.5 207.5t174.5 74.5zM267 434q-41 0 -60 -39t-19 -129q0 -92 19 -131t60 -39t60.5 39.5t19.5 129.5q0 92 -19 130.5t-61 38.5z" unicode="ӧ" glyph-name="uni04E7" horiz-adv-x="534"/>
<glyph d="M315 710q137 0 211 -92.5t74 -270.5q0 -176 -74.5 -270t-210.5 -94t-210.5 93t-74.5 271q0 175 74.5 269t210.5 94zM315 593q-56 0 -86.5 -46t-36.5 -150h246q-6 104 -36 150t-87 46zM315 100q59 0 89 47.5t34 157.5h-246q4 -110 34.5 -157.5t88.5 -47.5z" unicode="Ө" glyph-name="uni04E8" horiz-adv-x="630"/>
<glyph d="M267 548q112 0 175.5 -72.5t63.5 -210.5q0 -132 -64 -207t-175 -75q-112 0 -175 73t-63 210q0 133 63.5 207.5t174.5 74.5zM267 437q-76 0 -84 -124h168q-4 67 -24.5 95.5t-59.5 28.5zM267 94q39 0 60 31t25 101h-170q4 -71 25 -101.5t60 -30.5z" unicode="ө" glyph-name="uni04E9" horiz-adv-x="534"/>
<glyph d="M210 768q-32 0 -54.5 22.5t-22.5 55.5q0 32 22.5 54.5t54.5 22.5q33 0 55 -22t22 -55t-22 -55.5t-55 -22.5zM422 768q-32 0 -54.5 22.5t-22.5 55.5q0 32 22.5 54.5t54.5 22.5q34 0 56 -22.5t22 -54.5q0 -33 -22 -55.5t-56 -22.5zM315 710q137 0 211 -92.5t74 -270.5 q0 -176 -74.5 -270t-210.5 -94t-210.5 93t-74.5 271q0 175 74.5 269t210.5 94zM315 593q-56 0 -86.5 -46t-36.5 -150h246q-6 104 -36 150t-87 46zM315 100q59 0 89 47.5t34 157.5h-246q4 -110 34.5 -157.5t88.5 -47.5z" unicode="Ӫ" glyph-name="uni04EA" horiz-adv-x="630"/>
<glyph d="M160 642q-32 0 -54.5 22.5t-22.5 55.5q0 32 22.5 54.5t54.5 22.5q33 0 55 -22t22 -55t-22 -55.5t-55 -22.5zM372 642q-32 0 -54.5 22.5t-22.5 55.5q0 32 22.5 54.5t54.5 22.5q34 0 56 -22.5t22 -54.5q0 -33 -22 -55.5t-56 -22.5zM267 548q112 0 175.5 -72.5t63.5 -210.5 q0 -132 -64 -207t-175 -75q-112 0 -175 73t-63 210q0 133 63.5 207.5t174.5 74.5zM267 437q-76 0 -84 -124h168q-4 67 -24.5 95.5t-59.5 28.5zM267 94q39 0 60 31t25 101h-170q4 -71 25 -101.5t60 -30.5z" unicode="ӫ" glyph-name="uni04EB" horiz-adv-x="534"/>
<glyph d="M111 768q-32 0 -54.5 22.5t-22.5 55.5q0 32 22.5 54.5t54.5 22.5q33 0 55 -22t22 -55t-22 -55.5t-55 -22.5zM323 768q-32 0 -54.5 22.5t-22.5 55.5q0 32 22.5 54.5t54.5 22.5q33 0 55.5 -22.5t22.5 -54.5q0 -33 -22 -55.5t-56 -22.5zM207 710q123 0 189 -88.5t66 -270.5 t-70.5 -275t-198.5 -93q-110 0 -188 80l71 86q55 -45 109 -45q55 0 83.5 46.5t31.5 148.5h-205v112h205q-4 98 -30 140t-75 42q-56 0 -112 -47l-73 86q83 78 197 78z" unicode="Ӭ" glyph-name="uni04EC" horiz-adv-x="492"/>
<glyph d="M96 642q-32 0 -54.5 22.5t-22.5 55.5q0 32 22.5 54.5t54.5 22.5q33 0 55 -22t22 -55t-22 -55.5t-55 -22.5zM308 642q-32 0 -54.5 22.5t-22.5 55.5q0 32 22.5 54.5t54.5 22.5q34 0 56 -22.5t22 -54.5q0 -33 -22 -55.5t-56 -22.5zM191 548q104 0 163 -70t59 -207 t-62.5 -212.5t-176.5 -75.5q-94 0 -167 60l67 87q49 -34 92 -34q86 0 94 130h-168v90h167q-4 66 -24 93t-56 27q-49 0 -95 -35l-65 85q71 62 172 62z" unicode="ӭ" glyph-name="uni04ED" horiz-adv-x="442"/>
<glyph d="M403 783h-280v105h280v-105zM543 693l-165 -487q-40 -118 -101 -164.5t-175 -58.5l-20 108q61 8 93 28t53 65h-52l-190 509h161l126 -419l110 419h160z" unicode="Ӯ" glyph-name="uni04EE" horiz-adv-x="524"/>
<glyph d="M375 657h-280v105h280v-105zM481 531l-151 -532q-57 -207 -278 -221l-17 107q69 10 103 35.5t54 79.5h-55l-142 531h158l82 -433l91 433h155z" unicode="ӯ" glyph-name="uni04EF" horiz-adv-x="476"/>
<glyph d="M158 923q33 0 55 -22t22 -55t-22 -55.5t-55 -22.5q-32 0 -54.5 22.5t-22.5 55.5q0 32 22.5 54.5t54.5 22.5zM370 923q34 0 56 -22.5t22 -54.5q0 -33 -22 -55.5t-56 -22.5q-32 0 -54.5 22.5t-22.5 55.5q0 32 22.5 54.5t54.5 22.5zM543 693l-165 -487q-40 -118 -101 -164.5 t-175 -58.5l-20 108q61 8 93 28t53 65h-52l-190 509h161l126 -419l110 419h160z" unicode="Ӱ" glyph-name="uni04F0" horiz-adv-x="524"/>
<glyph d="M128 797q33 0 55 -22t22 -55t-22 -55.5t-55 -22.5q-32 0 -54.5 22.5t-22.5 55.5q0 32 22.5 54.5t54.5 22.5zM340 797q34 0 56 -22.5t22 -54.5q0 -33 -22 -55.5t-56 -22.5q-32 0 -54.5 22.5t-22.5 55.5q0 32 22.5 54.5t54.5 22.5zM481 531l-151 -532q-57 -207 -278 -221 l-17 107q69 10 103 35.5t54 79.5h-55l-142 531h158l82 -433l91 433h155z" unicode="ӱ" glyph-name="uni04F1" horiz-adv-x="476"/>
<glyph d="M223 983l101 -48l-105 -179l-77 32zM385 983l99 -51l-112 -180l-75 36zM543 693l-165 -487q-40 -118 -101 -164.5t-175 -58.5l-20 108q61 8 93 28t53 65h-52l-190 509h161l126 -419l110 419h160z" unicode="Ӳ" glyph-name="uni04F2" horiz-adv-x="524"/>
<glyph d="M189 857l101 -48l-105 -179l-77 32zM351 857l99 -51l-112 -180l-75 36zM481 531l-151 -532q-57 -207 -278 -221l-17 107q69 10 103 35.5t54 79.5h-55l-142 531h158l82 -433l91 433h155z" unicode="ӳ" glyph-name="uni04F3" horiz-adv-x="476"/>
<glyph d="M157 768q-32 0 -54.5 22.5t-22.5 55.5q0 32 22.5 54.5t54.5 22.5q33 0 55 -22t22 -55t-22 -55.5t-55 -22.5zM369 768q-32 0 -54.5 22.5t-22.5 55.5q0 32 22.5 54.5t54.5 22.5q33 0 55.5 -22.5t22.5 -54.5q0 -33 -22 -55.5t-56 -22.5zM348 693h160v-693h-160v257 q-61 -53 -138 -53q-88 0 -140 57.5t-52 159.5v272h157v-263q0 -58 20 -82.5t62 -24.5q55 0 91 38v332z" unicode="Ӵ" glyph-name="uni04F4" horiz-adv-x="563"/>
<glyph d="M130 642q-32 0 -54.5 22.5t-22.5 55.5q0 32 22.5 54.5t54.5 22.5q33 0 55 -22t22 -55t-22 -55.5t-55 -22.5zM342 642q-32 0 -54.5 22.5t-22.5 55.5q0 32 22.5 54.5t54.5 22.5q34 0 56 -22.5t22 -54.5q0 -33 -22 -55.5t-56 -22.5zM294 531h154v-531h-154v200 q-56 -51 -130 -51q-68 0 -103.5 40.5t-35.5 113.5v228h154v-211q0 -57 44 -57q40 0 71 34v234z" unicode="ӵ" glyph-name="uni04F5" horiz-adv-x="500"/>
<glyph d="M447 567h-232v-445h72v-287h-109l-17 165h-106v693h408z" unicode="Ӷ" glyph-name="uni04F6" horiz-adv-x="462"/>
<glyph d="M381 414h-175v-300h72v-279h-104l-17 165h-105v531h347z" unicode="ӷ" glyph-name="uni04F7" horiz-adv-x="393"/>
<glyph d="M284 768q-32 0 -54.5 22.5t-22.5 55.5q0 32 22.5 54.5t54.5 22.5q33 0 55 -22t22 -55t-22 -55.5t-55 -22.5zM496 923q34 0 56 -22.5t22 -54.5q0 -33 -22 -55.5t-56 -22.5q-32 0 -54.5 22.5t-22.5 55.5q0 32 22.5 54.5t54.5 22.5zM264 455q255 0 255 -221 q0 -117 -67.5 -175.5t-183.5 -58.5h-213v693h160v-238h49zM562 693h160v-693h-160v693zM254 116q50 0 74.5 27.5t24.5 88.5q0 58 -24 85t-77 27h-37v-228h39z" unicode="Ӹ" glyph-name="uni04F8" horiz-adv-x="777"/>
<glyph d="M241 642q-32 0 -54.5 22.5t-22.5 55.5q0 32 22.5 54.5t54.5 22.5q33 0 55 -22t22 -55t-22 -55.5t-55 -22.5zM453 642q-32 0 -54.5 22.5t-22.5 55.5q0 32 22.5 54.5t54.5 22.5q33 0 55.5 -22.5t22.5 -54.5q0 -33 -22 -55.5t-56 -22.5zM228 365q226 0 226 -183 q0 -92 -57 -137t-158 -45h-187v531h154v-166h22zM491 531h154v-531h-154v531zM233 102q35 0 51.5 19t16.5 64t-16 64t-57 19h-22v-166h27z" unicode="ӹ" glyph-name="uni04F9" horiz-adv-x="697"/>
<glyph d="M455 567h-232v-143h125v-96h-125v-206h79v-163q0 -89 -51 -134.5t-137 -45.5q-78 0 -133 42l53 92q34 -18 61 -18q47 0 47 55v50h-79v328h-67v96h67v269h408z" unicode="Ӻ" glyph-name="uni04FA" horiz-adv-x="471"/>
<glyph d="M390 414h-175v-107h98v-88h-98v-105h79v-113h1v-45q0 -86 -50.5 -131.5t-132.5 -45.5q-81 0 -135 42l53 88q33 -18 62 -18q49 0 49 55v54h-80v219h-52v88h52v224h347z" unicode="ӻ" glyph-name="uni04FB" horiz-adv-x="403"/>
<glyph d="M554 122v-122h-1v-41q0 -89 -51 -134.5t-137 -45.5q-78 0 -133 42l53 92q34 -18 61 -18q47 0 47 55v50h-28l-104 267l-100 -267h-167l173 368l-160 325h170l86 -225l92 225h166l-164 -319l121 -252h76z" unicode="Ӽ" glyph-name="uni04FC" horiz-adv-x="552"/>
<glyph d="M495 1h1v-45q0 -86 -50 -131.5t-133 -45.5q-81 0 -135 42l53 88q33 -18 62 -18q49 0 49 55v54h-30l-82 201l-78 -201h-162l152 279l-138 252h165l65 -172l62 172h159l-129 -247l92 -170h77v-113z" unicode="ӽ" glyph-name="uni04FD" horiz-adv-x="488"/>
<glyph d="M385 315l151 -315h-171l-104 275l-100 -275h-167l148 315h-98v101h99l-136 277h170l86 -245l92 245h166l-142 -277h104v-101h-98z" unicode="Ӿ" glyph-name="uni04FE" horiz-adv-x="530"/>
<glyph d="M327 693h160v-693h-218q-121 0 -188.5 55t-67.5 168q0 107 66.5 164.5t189.5 57.5h58v248zM281 116h46v218h-43q-55 0 -79.5 -27t-24.5 -84t24.5 -82t76.5 -25z" unicode="Ԁ" glyph-name="uni0500" horiz-adv-x="542"/>
<glyph d="M338 758l154 -16v-742h-136l-7 59q-51 -76 -135 -76q-89 0 -136 74.5t-47 208.5q0 127 54 204.5t142 77.5q67 0 111 -49v259zM263 96q43 0 75 55v241q-32 43 -68 43q-80 0 -80 -169q0 -95 19 -132.5t54 -37.5z" unicode="ԁ" glyph-name="uni0501" horiz-adv-x="545"/>
<glyph d="M755 379q7 -72 7 -137q0 -68 -20 -120t-53.5 -81.5t-73 -43.5t-82.5 -14q-114 0 -166 83q-52 -84 -153 -84q-83 0 -142 56.5t-59 166.5q0 119 65 179.5t187 60.5h62v248h160v-527q0 -69 49 -69q73 0 73 151q0 61 -5 131h151zM248 99q55 0 79 75v160h-47q-52 0 -76 -29 t-24 -94q0 -112 68 -112z" unicode="Ԃ" glyph-name="uni0502" horiz-adv-x="790"/>
<glyph d="M755 379q7 -74 7 -138q0 -68 -19.5 -119.5t-53 -81t-72.5 -43.5t-82 -14q-119 0 -169 94q-57 -94 -148 -94t-139 74.5t-48 208.5q0 128 54 205t144 77q65 0 109 -49v259l154 -16v-577q0 -69 48 -69q70 0 70 151q0 48 -6 132h151zM261 96q47 0 77 72v224q-32 43 -67 43 q-81 0 -81 -169q0 -170 71 -170z" unicode="ԃ" glyph-name="uni0503" horiz-adv-x="791"/>
<glyph d="M635 379q7 -72 7 -137q0 -132 -63 -195.5t-161 -63.5q-84 0 -133 35t-87 114l-66 134h-83v111h82q52 0 76 25.5t24 80.5q0 50 -26 73.5t-82 23.5h-109v113h111q270 0 270 -210q0 -136 -120 -188l73 -140q17 -32 32.5 -45t38.5 -13q34 0 52 33.5t18 117.5q0 70 -6 131h152 z" unicode="Ԅ" glyph-name="uni0504" horiz-adv-x="670"/>
<glyph d="M576 379q7 -74 7 -138q0 -133 -62 -196t-156 -63q-75 0 -121 34.5t-84 112.5l-28 56h-80v102h83q36 0 52.5 16.5t16.5 54.5q0 36 -17 51.5t-55 15.5h-118v106h128q213 0 213 -175q0 -102 -86 -146l31 -59q17 -32 30 -43.5t34 -11.5q67 0 67 149q0 50 -6 134h151z" unicode="ԅ" glyph-name="uni0505" horiz-adv-x="612"/>
<glyph d="M370 122h78v-287h-109l-17 165h-66l-124 266h-83v111h82q52 0 76 25.5t24 80.5q0 50 -26 73.5t-82 23.5h-109v113h111q270 0 270 -210q0 -133 -117 -187z" unicode="Ԇ" glyph-name="uni0506" horiz-adv-x="435"/>
<glyph d="M325 114h81v-279h-104l-17 165h-57l-90 185h-86v102h83q36 0 52.5 16.5t16.5 54.5q0 36 -17 51.5t-55 15.5h-118v106h128q213 0 213 -175q0 -101 -85 -144z" unicode="ԇ" glyph-name="uni0507" horiz-adv-x="397"/>
<glyph d="M805 379q7 -57 7 -137q0 -132 -68 -195.5t-168 -63.5q-89 0 -144 49t-55 140v399h-113l-25 -240q-19 -179 -59 -249.5t-142 -98.5l-38 113q44 20 60 64t30 180l37 354l1 -1h409v-527q0 -69 49 -69q74 0 74 151q0 68 -6 131h151z" unicode="Ԉ" glyph-name="uni0508" horiz-adv-x="841"/>
<glyph d="M725 379q7 -59 7 -138q0 -131 -67 -194.5t-162 -63.5q-86 0 -140 48.5t-54 145.5v241h-81l-10 -127q-8 -113 -22.5 -168t-48 -86.5t-101.5 -49.5l-38 112q39 18 51 52t19 148l15 232h370v-366q0 -69 47 -69q70 0 70 151q0 69 -6 132h151z" unicode="ԉ" glyph-name="uni0509" horiz-adv-x="761"/>
<glyph d="M816 379q7 -72 7 -137q0 -132 -68 -195.5t-168 -63.5q-90 0 -144.5 49t-54.5 140v126h-173v-298h-160v693h160v-270h173v270h160v-527q0 -69 49 -69q73 0 73 151q0 68 -6 131h152z" unicode="Ԋ" glyph-name="uni050A" horiz-adv-x="851"/>
<glyph d="M742 379q7 -74 7 -138q0 -131 -67 -194.5t-162 -63.5q-87 0 -141 48.5t-54 145.5v36h-119v-213h-154v531h154v-205h119v205h154v-366q0 -69 48 -69q69 0 69 150q0 70 -6 133h152z" unicode="ԋ" glyph-name="uni050B" horiz-adv-x="777"/>
<glyph d="M335 710q122 0 212 -85l-78 -82q-64 51 -127 51q-146 0 -146 -247q0 -139 28.5 -192.5t92.5 -53.5q45 0 80 22v162h-77l-15 113h244v-343q-104 -72 -229 -72q-147 0 -218.5 90.5t-71.5 273.5q0 176 85 269.5t220 93.5z" unicode="Ԍ" glyph-name="uni050C" horiz-adv-x="590"/>
<glyph d="M281 548q111 0 190 -72l-72 -80q-56 42 -109 42q-103 0 -103 -170q0 -100 21 -136.5t64 -36.5q35 0 64 13v100h-59l-15 102h215v-262q-95 -63 -208 -63q-122 0 -181 68.5t-59 214.5q0 133 70 206.5t182 73.5z" unicode="ԍ" glyph-name="uni050D" horiz-adv-x="514"/>
<glyph d="M593 379q7 -72 7 -137q0 -132 -68 -195.5t-168 -63.5q-90 0 -144.5 49t-54.5 140v398h-158v123h484l-17 -123h-149v-404q0 -69 49 -69q73 0 73 151q0 68 -6 131h152z" unicode="Ԏ" glyph-name="uni050E" horiz-adv-x="628"/>
<glyph d="M557 361q6 -54 6 -120q0 -68 -19.5 -119.5t-53 -81t-73 -43.5t-84.5 -14q-88 0 -141.5 48.5t-53.5 145.5v246h-136v108h434l-19 -108h-125v-258q0 -69 48 -69q71 0 71 150q0 55 -5 115h151z" unicode="ԏ" glyph-name="uni050F" horiz-adv-x="592"/>
<glyph d="M264 710q123 0 211 -91l-75 -80q-58 55 -116 55q-82 0 -82 -83q0 -42 24 -65t69 -23h65l-18 -115h-48q-53 0 -80 -27t-27 -76q0 -51 26 -77t73 -26q64 0 125 59l84 -81q-84 -97 -225 -97q-111 0 -180.5 57.5t-69.5 154.5q0 77 42.5 120.5t118.5 52.5q-142 31 -142 160 q0 80 62.5 131t162.5 51z" unicode="Ԑ" glyph-name="uni0510" horiz-adv-x="491"/>
<glyph d="M242 548q106 0 183 -59l-60 -79q-54 31 -101 31q-29 0 -45.5 -15t-16.5 -43q0 -60 66 -60h58l-15 -99h-50q-73 0 -73 -65q0 -66 75 -66q50 0 112 39l64 -85q-79 -64 -200 -64q-93 0 -151.5 43t-58.5 120q0 114 135 137q-117 25 -117 119q0 67 54 106.5t141 39.5z" unicode="ԑ" glyph-name="uni0511" horiz-adv-x="439"/>
<glyph d="M127 693h410v-734q0 -89 -51 -134.5t-137 -45.5q-78 0 -133 42l53 92q34 -18 61 -18q47 0 47 55v621h-113l-25 -240q-19 -179 -59 -249.5t-142 -98.5l-38 113q44 20 60 64t30 180z" unicode="Ԓ" glyph-name="uni0512" horiz-adv-x="592"/>
<glyph d="M93 531h370v-575q0 -86 -50.5 -131.5t-132.5 -45.5q-81 0 -135 42l53 88q33 -18 62 -18q49 0 49 55v472h-81l-10 -127q-12 -164 -43 -221t-129 -83l-38 112q39 18 51 52t19 148z" unicode="ԓ" glyph-name="uni0513" horiz-adv-x="515"/>
<glyph d="M610 374l179 -374h-171l-104 267l-100 -267h-167l173 368l-101 206h-54l-26 -243q-19 -179 -59 -249.5t-142 -98.5l-38 113q44 20 60 64t30 180l37 353h303l86 -225l92 225h166z" unicode="Ԕ" glyph-name="uni0514" horiz-adv-x="783"/>
<glyph d="M542 284l153 -284h-167l-82 201l-78 -201h-162l152 279l-78 142h-54l2 -2l-10 -128q-12 -164 -43 -221t-129 -83l-38 112q39 18 51 52t19 148l15 232h292l65 -172l62 172h159z" unicode="ԕ" glyph-name="uni0515" horiz-adv-x="685"/>
<glyph d="M752 693l-167 -346l165 -347h-172l-139 289q-60 -57 -175 -57h-49v-232h-160v693h193q243 0 255 -207l94 207h155zM250 348q53 0 79.5 28t26.5 91q0 112 -106 112h-35v-231h35z" unicode="Ԗ" glyph-name="uni0516" horiz-adv-x="747"/>
<glyph d="M770 0h-158l-104 203q-12 -102 -61.5 -161t-125.5 -59q-69 0 -115 55v-243l-154 -16v752h137l7 -58q54 75 139 75q156 0 175 -225l108 208h143l-139 -259zM275 97q78 0 78 168q0 97 -17.5 133.5t-51.5 36.5q-45 0 -78 -59v-235q29 -44 69 -44z" unicode="ԗ" glyph-name="uni0517" horiz-adv-x="765"/>
<glyph d="M495 296v-180h225v-116h-379v251h-67l-101 -251h-171l134 280q-109 53 -109 191q0 222 265 222h430l-16 -114h-211v-171h184v-112h-184zM285 363h56v217h-44q-105 0 -105 -113q0 -52 25 -78t68 -26z" unicode="Ԙ" glyph-name="uni0518" horiz-adv-x="749"/>
<glyph d="M748 264q0 -26 -4 -58h-290q7 -61 32 -85.5t69 -24.5q56 0 116 45l63 -85q-82 -73 -192 -73q-104 0 -166 59.5t-75 163.5h-53l-87 -206h-159l112 239q-78 41 -78 128q0 78 57.5 121t166.5 43h178q42 17 91 17q104 0 161.5 -72.5t57.5 -211.5zM601 298v18q0 66 -17 98 t-56 32q-37 0 -55.5 -33t-20.5 -115h149zM191 366q0 -68 71 -68h37q6 78 36 135h-72q-72 0 -72 -67z" unicode="ԙ" glyph-name="uni0519" horiz-adv-x="772"/>
<glyph d="M449 44q112 0 192 -66l-96 -122q-49 62 -104 96t-136 34q-129 0 -202 93.5t-73 267.5t74.5 268.5t210.5 94.5t210.5 -93t74.5 -270q0 -211 -151 -303zM197 347q0 -133 29 -189.5t89 -56.5q62 0 90 56t28 190q0 133 -28.5 189.5t-89.5 56.5t-89.5 -56.5t-28.5 -189.5z" unicode="Ԛ" glyph-name="uni051A" horiz-adv-x="630"/>
<glyph d="M358 531h134v-752l-154 16v252q-47 -64 -124 -64q-89 0 -136 74.5t-47 208.5q0 128 54 205t143 77q72 0 123 -62zM263 96q42 0 75 56v239q-31 44 -68 44q-80 0 -80 -169q0 -97 19 -133.5t54 -36.5z" unicode="ԛ" glyph-name="uni051B" horiz-adv-x="545"/>
<glyph d="M763 693l-100 -693h-208l-70 534l-76 -534h-203l-97 693h155l59 -572l81 572h166l76 -572l68 572h149z" unicode="Ԝ" glyph-name="uni051C" horiz-adv-x="772"/>
<glyph d="M682 531l-97 -531h-182l-59 393l-59 -393h-180l-100 531h151l48 -415l70 415h147l63 -415l53 415h145z" unicode="ԝ" glyph-name="uni051D" horiz-adv-x="687"/>
<glyph d="M411 378l167 -378h-170l-132 303h-61v-303h-160v693h160v-273h65l44 94l-81 41l36 73l79 -41l50 106h153l-80 -168l85 -44l-36 -73l-84 43z" unicode="Ԟ" glyph-name="uni051E" horiz-adv-x="572"/>
<glyph d="M373 285l133 -285h-158l-101 229h-41v-229h-154v531h154v-208h44l34 69l-58 30l33 65l57 -29l36 73h144l-66 -132l67 -35l-33 -65l-67 34z" unicode="ԟ" glyph-name="uni051F" horiz-adv-x="501"/>
<glyph d="M676 469q92 0 143.5 -59.5t51.5 -165.5v-285q0 -89 -51 -134.5t-137 -45.5q-78 0 -133 42l53 92q34 -18 61 -18q47 0 47 55v294q0 106 -80 106q-56 0 -94 -43v-307h-160v571h-113l-25 -240q-19 -179 -59 -249.5t-142 -98.5l-38 113q44 20 60 64t30 180l37 353h410v-279 q55 55 139 55z" unicode="Ԡ" glyph-name="uni0520" horiz-adv-x="893"/>
<glyph d="M598 352q62 0 97.5 -42.5t35.5 -119.5v-234q0 -86 -50.5 -131.5t-132.5 -45.5q-81 0 -135 42l53 88q33 -18 62 -18q49 0 49 55v225q0 65 -38 65q-36 0 -76 -57v-179h-154v418h-81l-10 -127q-12 -164 -43 -221t-129 -83l-38 112q39 18 51 52t19 148l15 232h370v-242 q57 63 135 63z" unicode="ԡ" glyph-name="uni0521" horiz-adv-x="758"/>
<glyph d="M879 244v-244h-1v-41q0 -89 -51 -134.5t-137 -45.5q-78 0 -133 42l53 92q34 -18 61 -18q47 0 47 55v51h1v243q0 106 -81 106q-55 0 -90 -40v-310h-160v298h-173v-298h-160v693h160v-270h173v270h160v-275q54 51 136 51q92 0 143.5 -59.5t51.5 -165.5z" unicode="Ԣ" glyph-name="uni0522" horiz-adv-x="900"/>
<glyph d="M612 352q62 0 97.5 -42.5t35.5 -119.5v-234q0 -86 -50.5 -131.5t-132.5 -45.5q-81 0 -135 42l53 88q33 -18 62 -18q49 0 49 55v225q0 65 -38 65q-33 0 -74 -54v-182h-154v213h-119v-213h-154v531h154v-205h119v205h154v-241q56 62 133 62z" unicode="ԣ" glyph-name="uni0523" horiz-adv-x="772"/>
<glyph d="M547 122h71v-287h-109l-17 165h-106v570h-171v-570h-160v693h492v-571z" unicode="Ԥ" glyph-name="uni0524" horiz-adv-x="627"/>
<glyph d="M476 114h72v-279h-104l-17 165h-105v417h-116v-417h-154v531h424v-417z" unicode="ԥ" glyph-name="uni0525" horiz-adv-x="546"/>
<glyph d="M549 122h72v-287h-109l-17 165h-106v244q0 106 -80 106q-56 0 -94 -43v-307h-160v693h160v-279q55 55 139 55q92 0 143.5 -59.5t51.5 -165.5v-122z" unicode="Ԧ" glyph-name="uni0526" horiz-adv-x="630"/>
<glyph d="M475 114h71v-279h-104l-17 165h-104v306q0 66 -38 66q-36 0 -77 -64v-308h-154v742l154 15v-339q53 70 136 70q62 0 97.5 -42.5t35.5 -118.5v-213z" unicode="ԧ" glyph-name="uni0527" horiz-adv-x="544"/>
<glyph d="M388 693h160v-693h-160v298h-173v-298h-1v-41q0 -89 -51 -134.5t-137 -45.5q-78 0 -133 42l53 92q34 -18 61 -18q47 0 47 55v51h1v692h160v-270h173v270z" unicode="Ԩ" glyph-name="uni0528" horiz-adv-x="602"/>
<glyph d="M325 531h154v-531h-154v213h-119v-213h1v-45q0 -86 -50 -131.5t-133 -45.5q-81 0 -135 42l53 88q33 -18 62 -18q49 0 49 55v55h-1v531h154v-205h119v205z" unicode="ԩ" glyph-name="uni0529" horiz-adv-x="531"/>
<glyph d="M828 378l152 -378h-169l-109 303h-25v-303h-162v-165h-109l-17 165h-269l-17 -165h-109v287h43q27 33 41.5 94t30.5 202l29 275h314v-273h69v273h156v-273h29l106 273h151zM312 122v458h-47l-13 -148q-12 -137 -33 -202t-63 -108h156zM521 122v181h-69v-181h69z" unicode="Ԫ" glyph-name="uni052A" horiz-adv-x="974"/>
<glyph d="M741 285l109 -285h-155l-77 230h-19v-230h-154v-165h-104l-17 165h-205l-17 -165h-104v279h32q22 19 35 61.5t21 157.5l15 198h299v-208h61v208h138v-209h23l78 209h139zM267 114v314h-39l-6 -84q-7 -103 -25 -153.5t-52 -76.5h122zM461 114v115h-61v-115h61z" unicode="ԫ" glyph-name="uni052B" horiz-adv-x="845"/>
<glyph d="M574 122h64v-287h-109l-17 165h-365l-17 -165h-109v287h61l8 10q8 11 11 15t12 17t14 22t13.5 25t14.5 30.5t13.5 34.5t13.5 41q-85 18 -120 72t-35 149v155h138v-158q0 -84 41 -108q9 52 12 118l12 148h344v-571zM362 577l-9 -102q-4 -39 -7 -62h85v164h-69zM218 122 h213v185h-110q-40 -124 -103 -185z" unicode="Ԭ" glyph-name="uni052C" horiz-adv-x="654"/>
<glyph d="M529 114h52v-279h-104l-17 165h-293l-17 -165h-104v279h38q63 42 90 122q-145 24 -145 173v122h127v-118q0 -62 38 -77q0 2 0.5 6.5t0.5 7.5l13 181h321v-417zM329 429l-6 -80q-1 -4 -1 -11t-1 -10h72v101h-64zM393 114v118h-93q-30 -83 -92 -118h185z" unicode="ԭ" glyph-name="uni052D" horiz-adv-x="591"/>
<glyph d="M537 122h72v-287h-109l-17 165h-106v571h-113l-25 -240q-19 -179 -59 -249.5t-142 -98.5l-38 113q44 20 60 64t30 180l37 353h410v-571z" unicode="Ԯ" glyph-name="uni052E" horiz-adv-x="618"/>
</font>
</defs>
</svg>
